<svg id="Layer_1" data-name="Layer 1" xmlns="http://www.w3.org/2000/svg" xmlns:xlink="http://www.w3.org/1999/xlink" viewBox="0 0 1862.92 47.46"><defs><style>.cls-1{fill:none;}.cls-2{clip-path:url(#clip-path);}.cls-3{opacity:0.5;}.cls-10,.cls-11,.cls-12,.cls-13,.cls-16,.cls-4,.cls-5,.cls-6,.cls-7,.cls-8,.cls-9{isolation:isolate;}.cls-10,.cls-11,.cls-12,.cls-13,.cls-16,.cls-5,.cls-6,.cls-7,.cls-8,.cls-9{font-size:42px;fill:#1d1d1b;font-family:Larken-Regular, Larken;}.cls-5{letter-spacing:-0.01em;}.cls-6{letter-spacing:-0.03em;}.cls-7{letter-spacing:-0.02em;}.cls-8{letter-spacing:-0.01em;}.cls-9{letter-spacing:-0.02em;}.cls-11{letter-spacing:-0.03em;}.cls-12{letter-spacing:-0.1em;}.cls-13,.cls-15{letter-spacing:-0.06em;}.cls-14{letter-spacing:0em;}.cls-16{letter-spacing:-0.04em;}</style><clipPath id="clip-path" transform="translate(-796.31 -84.73)"><rect class="cls-1" x="398.74" y="8.46" width="2658.51" height="183.09"/></clipPath></defs><g id="Layer_4" data-name="Layer 4"><g class="cls-2"><g class="cls-2"><g class="cls-3"><g class="cls-2"><g class="cls-4"><text class="cls-5" transform="translate(0 36.12)">M</text><text class="cls-6" transform="translate(33.94 36.12)">o</text><text class="cls-7" transform="translate(55.78 36.12)">t</text><text class="cls-8" transform="translate(70.31 36.12)">h</text><text class="cls-9" transform="translate(92.9 36.12)">e</text><text class="cls-10" transform="translate(113.65 36.12)">r </text><text class="cls-8" transform="translate(139.4 36.12)">a</text><text class="cls-5" transform="translate(160.94 36.12)">n</text><text class="cls-10" transform="translate(183.41 36.12)">d </text><text class="cls-8" transform="translate(215.83 36.12)">D</text><text class="cls-9" transform="translate(243.18 36.12)">a</text><text class="cls-8" transform="translate(264.13 36.12)">u</text><text class="cls-8" transform="translate(286.39 36.12)">g</text><text class="cls-11" transform="translate(307.14 36.12)">h</text><text class="cls-7" transform="translate(329.07 36.12)">t</text><text class="cls-9" transform="translate(343.56 36.12)">e</text><text class="cls-12" transform="translate(364.3 36.12)">r</text><text class="cls-13" transform="translate(376.27 36.12)">,<tspan class="cls-14" x="8.44" y="0"> </tspan></text><text class="cls-5" transform="translate(396.64 36.12)">M</text><text class="cls-8" transform="translate(430.54 36.12)">a</text><text class="cls-10" transform="translate(452.08 36.12)">r</text><text class="cls-8" transform="translate(468.33 36.12)">t</text><text class="cls-10" transform="translate(483.37 36.12)">a </text><text class="cls-8" transform="translate(514.87 36.12)">a</text><text class="cls-5" transform="translate(536.42 36.12)">n</text><text class="cls-10" transform="translate(558.89 36.12)">d </text><text class="cls-10" transform="translate(591.31 36.12)">A</text><text class="cls-5" transform="translate(619.11 36.12)">n</text><text class="cls-5" transform="translate(641.63 36.12)">n</text><text class="cls-8" transform="translate(663.93 36.12)">a</text><text class="cls-10" transform="translate(685.39 36.12)"><tspan class="cls-15">.</tspan><tspan x="8.06" y="0"> </tspan></text><text class="cls-8" transform="translate(705.38 36.12)">T</text><text class="cls-8" transform="translate(731.46 36.12)">h</text><text class="cls-10" transform="translate(754.06 36.12)">e </text><text class="cls-10" transform="translate(785.01 36.12)">t</text><text class="cls-16" transform="translate(800.09 36.12)">w</text><text class="cls-10" transform="translate(830.37 36.12)">o </text><text class="cls-16" transform="translate(862.88 36.12)">w</text><text class="cls-8" transform="translate(893.16 36.12)">o</text><text class="cls-8" transform="translate(915.59 36.12)">m</text><text class="cls-9" transform="translate(949.4 36.12)">e</text><text class="cls-10" transform="translate(970.14 36.12)">n </text><text class="cls-8" transform="translate(1002.61 36.12)">“</text><text class="cls-8" transform="translate(1016.68 36.12)">m</text><text class="cls-8" transform="translate(1050.32 36.12)">an</text><text class="cls-5" transform="translate(1094.38 36.12)">n</text><text class="cls-8" transform="translate(1116.68 36.12)">i</text><text class="cls-5" transform="translate(1126.09 36.12)">n</text><text class="cls-8" transform="translate(1148.56 36.12)">g</text><text class="cls-10" transform="translate(1169.43 36.12)">” </text><text class="cls-7" transform="translate(1193.5 36.12)">t</text><text class="cls-8" transform="translate(1208.03 36.12)">h</text><text class="cls-10" transform="translate(1230.62 36.12)">e </text><text class="cls-16" transform="translate(1261.58 36.12)">w</text><text class="cls-8" transform="translate(1291.86 36.12)">e</text><text class="cls-11" transform="translate(1312.61 36.12)">a</text><text class="cls-7" transform="translate(1333.19 36.12)">t</text><text class="cls-8" transform="translate(1347.72 36.12)">h</text><text class="cls-9" transform="translate(1370.31 36.12)">e</text><text class="cls-10" transform="translate(1391.06 36.12)">r </text><text class="cls-8" transform="translate(1416.81 36.12)">s</text><text class="cls-8" transform="translate(1435.12 36.12)">t</text><text class="cls-11" transform="translate(1450.15 36.12)">a</text><text class="cls-7" transform="translate(1470.73 36.12)">t</text><text class="cls-8" transform="translate(1485.18 36.12)">i</text><text class="cls-8" transform="translate(1494.51 36.12)">o</text><text class="cls-10" transform="translate(1516.93 36.12)">n </text><text class="cls-8" transform="translate(1549.4 36.12)">i</text><text class="cls-10" transform="translate(1558.81 36.12)">n </text><text class="cls-7" transform="translate(1591.27 36.12)">r</text><text class="cls-9" transform="translate(1606.48 36.12)">e</text><text class="cls-8" transform="translate(1627.22 36.12)">m</text><text class="cls-6" transform="translate(1661.03 36.12)">o</text><text class="cls-7" transform="translate(1682.87 36.12)">t</text><text class="cls-10" transform="translate(1697.36 36.12)">e </text><text class="cls-5" transform="translate(1728.32 36.12)">I</text><text class="cls-7" transform="translate(1738.86 36.12)">c</text><text class="cls-9" transform="translate(1758.89 36.12)">e</text><text class="cls-5" transform="translate(1779.6 36.12)">l</text><text class="cls-8" transform="translate(1788.46 36.12)">a</text><text class="cls-5" transform="translate(1810 36.12)">n</text><text class="cls-8" transform="translate(1832.47 36.12)">d</text><text class="cls-13" transform="translate(1854.73 36.12)">.</text></g></g></g></g></g></g></svg>