<svg id="Layer_1" data-name="Layer 1" xmlns="http://www.w3.org/2000/svg" viewBox="0 0 1218.5 385.96"><defs><style>.cls-1,.cls-2{fill:none;}.cls-1{stroke:#343540;stroke-linecap:round;stroke-linejoin:round;stroke-width:2.66px;}.cls-2{stroke:#000;stroke-miterlimit:10;stroke-width:2.13px;isolation:isolate;opacity:0.5;}.cls-3{fill:#343540;}</style></defs><g id="Layer_4" data-name="Layer 4"><path class="cls-1" d="M1669.8,1258.6l-8.5,8.5a.3.3,0,0,1-.4,0l-8.5-8.5" transform="translate(-466 -1217.84)"/><line class="cls-1" x1="1195.1" y1="49.46" x2="1195.1" y2="49.46"/><line class="cls-2" x1="1.3" y1="1.06" x2="1216.2" y2="1.06"/><line class="cls-2" x1="1.3" y1="182.66" x2="1215.4" y2="182.66"/><line class="cls-2" x1="1.3" y1="274.06" x2="1218.4" y2="274.06"/><line class="cls-2" x1="1.3" y1="377.36" x2="1093.7" y2="377.36"/><path class="cls-3" d="M1590.6,1603.6h-2.5v-15.3h8.7v2.1h-6.2v4.8h5.8v2.1h-5.8Z" transform="translate(-466 -1217.84)"/><path class="cls-3" d="M1603.9,1591.8a6,6,0,0,1,2.7.6,4.24,4.24,0,0,1,1.7,1.8,6.09,6.09,0,0,1,.6,2.8v1.3h-7.8a3.57,3.57,0,0,0,.9,2.6,3.24,3.24,0,0,0,2.4.9,12.31,12.31,0,0,0,2-.2,12.66,12.66,0,0,0,1.8-.6v2a6.36,6.36,0,0,1-1.8.6,12.73,12.73,0,0,1-2.2.2,6,6,0,0,1-3-.7,4.31,4.31,0,0,1-2-2,8.13,8.13,0,0,1,0-6.6,5.54,5.54,0,0,1,1.9-2.1A6.39,6.39,0,0,1,1603.9,1591.8Zm0,1.8a2.56,2.56,0,0,0-1.9.8,3,3,0,0,0-.8,2.2h5.3a3.34,3.34,0,0,0-.3-1.5,2.72,2.72,0,0,0-.8-1A2.46,2.46,0,0,0,1603.9,1593.6Z" transform="translate(-466 -1217.84)"/><path class="cls-3" d="M1616.3,1591.8a6,6,0,0,1,2.7.6,4.24,4.24,0,0,1,1.7,1.8,6.09,6.09,0,0,1,.6,2.8v1.3h-7.8a3.57,3.57,0,0,0,.9,2.6,3.24,3.24,0,0,0,2.4.9,12.31,12.31,0,0,0,2-.2,12.66,12.66,0,0,0,1.8-.6v2a6.36,6.36,0,0,1-1.8.6,12.73,12.73,0,0,1-2.2.2,6,6,0,0,1-3-.7,4.31,4.31,0,0,1-2-2,8.13,8.13,0,0,1,0-6.6,5.54,5.54,0,0,1,1.9-2.1A6.09,6.09,0,0,1,1616.3,1591.8Zm0,1.8a2.56,2.56,0,0,0-1.9.8,3,3,0,0,0-.8,2.2h5.3a3.34,3.34,0,0,0-.3-1.5,2.72,2.72,0,0,0-.8-1A2.46,2.46,0,0,0,1616.3,1593.6Z" transform="translate(-466 -1217.84)"/><path class="cls-3" d="M1627.9,1603.8a4,4,0,0,1-3.3-1.5,7.09,7.09,0,0,1-1.3-4.5,6.54,6.54,0,0,1,1.3-4.5,4.19,4.19,0,0,1,3.4-1.5,6.05,6.05,0,0,1,1.5.2,10.91,10.91,0,0,1,1.1.6,3.45,3.45,0,0,1,.8.9h.1c0-.2-.1-.5-.1-.9s-.1-.8-.1-1.1v-4.2h2.5v16.3h-1.9l-.4-1.6h-.1a6.47,6.47,0,0,1-.8.9,2.38,2.38,0,0,1-1.1.6A3.81,3.81,0,0,1,1627.9,1603.8Zm.7-2a2.53,2.53,0,0,0,2.2-.9,4.85,4.85,0,0,0,.7-2.7v-.3a6.12,6.12,0,0,0-.6-3,2.43,2.43,0,0,0-2.3-1,2.19,2.19,0,0,0-2,1.1,5.13,5.13,0,0,0-.7,3,4.6,4.6,0,0,0,.7,2.9A2.38,2.38,0,0,0,1628.6,1601.8Z" transform="translate(-466 -1217.84)"/><path class="cls-3" d="M1639.9,1587.3v5.2a2.79,2.79,0,0,1-.1,1h.1a5.35,5.35,0,0,1,1.3-1.3,4.77,4.77,0,0,1,2.2-.5,4,4,0,0,1,3.3,1.5,7.09,7.09,0,0,1,1.3,4.5,8.11,8.11,0,0,1-.6,3.3,4.09,4.09,0,0,1-1.6,2,4,4,0,0,1-2.4.7,4.06,4.06,0,0,1-2.1-.5,4.73,4.73,0,0,1-1.3-1.1h-.2l-.5,1.4h-1.9v-16.3h2.5Zm2.8,6.5a2.86,2.86,0,0,0-1.7.4,2.73,2.73,0,0,0-.9,1.2,6.65,6.65,0,0,0-.3,2.1v.2a6.12,6.12,0,0,0,.6,3,2.35,2.35,0,0,0,2.2,1,2.22,2.22,0,0,0,2-1,6.78,6.78,0,0,0,0-6A2,2,0,0,0,1642.7,1593.8Z" transform="translate(-466 -1217.84)"/><path class="cls-3" d="M1655.3,1591.8a4.5,4.5,0,0,1,3.3,1,3.72,3.72,0,0,1,1.1,3v7.8h-1.8l-.5-1.6h-.1a4.71,4.71,0,0,1-1,1,4.49,4.49,0,0,1-1.2.6,7.93,7.93,0,0,1-1.7.2,4.06,4.06,0,0,1-1.9-.4,3,3,0,0,1-1.3-1.2,3.94,3.94,0,0,1-.5-2,3,3,0,0,1,1.3-2.7,8,8,0,0,1,4-1l2-.1v-.6a2.06,2.06,0,0,0-.6-1.7,2.54,2.54,0,0,0-1.6-.5,5.08,5.08,0,0,0-1.7.3c-.5.2-1.1.4-1.6.6l-.8-1.7a10.66,10.66,0,0,1,1.9-.7A16.81,16.81,0,0,1,1655.3,1591.8Zm2.1,6.3-1.5.1a5.21,5.21,0,0,0-2.6.6,1.8,1.8,0,0,0-.7,1.5,1.73,1.73,0,0,0,.5,1.3,2,2,0,0,0,1.4.4,2.82,2.82,0,0,0,2.1-.7,2.52,2.52,0,0,0,.8-2.1v-1.1Z" transform="translate(-466 -1217.84)"/><path class="cls-3" d="M1667.9,1603.8a6.84,6.84,0,0,1-2.9-.6,4.61,4.61,0,0,1-1.9-2,8.18,8.18,0,0,1-.7-3.4,7.28,7.28,0,0,1,.7-3.5,4.31,4.31,0,0,1,2-2,6.53,6.53,0,0,1,2.9-.6,11.08,11.08,0,0,1,1.9.2,4.57,4.57,0,0,1,1.4.5l-.7,2a6.47,6.47,0,0,0-1.3-.4,5.85,5.85,0,0,0-1.3-.2,3.1,3.1,0,0,0-1.7.5,2.56,2.56,0,0,0-1,1.3,8.22,8.22,0,0,0,0,4.4,2.68,2.68,0,0,0,1,1.3,2.73,2.73,0,0,0,1.6.4,8.81,8.81,0,0,0,1.7-.2c.5-.2,1-.4,1.4-.6v2.1a5.91,5.91,0,0,1-1.4.6A3.69,3.69,0,0,1,1667.9,1603.8Z" transform="translate(-466 -1217.84)"/><path class="cls-3" d="M1676.4,1587.3v9.1c0,.4-.1.8-.1,1.2h.1a9.68,9.68,0,0,0,.7-.9,5.5,5.5,0,0,0,.7-.9l3.5-3.8h2.8l-4.6,5,5,6.6h-2.9l-3.7-5.1-1.4,1.2v3.9H1674v-16.3Z" transform="translate(-466 -1217.84)"/><path d="M491.9,1252.9l-5.3,20h-2.3l-4-13.5-.3-1.2c-.1-.4-.2-.8-.3-1.1a5.07,5.07,0,0,1-.2-.9,1.76,1.76,0,0,1-.1-.6,3.54,3.54,0,0,0-.1.6c-.1.3-.1.6-.2.9s-.2.7-.3,1.1l-.3,1.2-3.9,13.4h-2.3l-5.3-20h2.4l3.2,12.5.3,1.2.3,1.2c.1.4.1.8.2,1.1s.1.7.2,1.1a4.25,4.25,0,0,1,.2-1.1,5,5,0,0,0,.2-1.2l.3-1.2.3-1.2,3.6-12.4h2.4l3.7,12.5a6.47,6.47,0,0,0,.4,1.3,5.27,5.27,0,0,1,.3,1.2,5.16,5.16,0,0,1,.2,1.1,3.55,3.55,0,0,0,.2,1c.1-.4.1-.9.2-1.4l.3-1.5c.1-.5.3-1.1.4-1.7l3.2-12.5h2.4Z" transform="translate(-466 -1217.84)"/><path d="M497,1251.6v7.5c0,.4-.1.7-.1,1h.2a3.74,3.74,0,0,1,1.2-1.3,8,8,0,0,1,1.6-.8,6.28,6.28,0,0,1,1.9-.3,6.68,6.68,0,0,1,3,.6,3.92,3.92,0,0,1,1.8,1.8,6.84,6.84,0,0,1,.6,3.1v9.8H505v-9.6a3.93,3.93,0,0,0-.9-2.8,3.42,3.42,0,0,0-2.6-.9,5.4,5.4,0,0,0-2.7.6,3.11,3.11,0,0,0-1.4,1.9,9.09,9.09,0,0,0-.4,3v7.8h-2.3v-21.3H497Z" transform="translate(-466 -1217.84)"/><path d="M517.5,1257.6a5.8,5.8,0,0,1,4,1.2,4.87,4.87,0,0,1,1.3,3.8v10.2h-1.7l-.4-2.2h-.1a17.88,17.88,0,0,1-1.3,1.4,4.81,4.81,0,0,1-1.6.8,6.87,6.87,0,0,1-2.2.3,6,6,0,0,1-2.4-.5,3.91,3.91,0,0,1-1.7-1.4,4.63,4.63,0,0,1-.6-2.5,3.81,3.81,0,0,1,1.8-3.4,10.69,10.69,0,0,1,5.4-1.3l2.6-.1v-.9a3.78,3.78,0,0,0-.8-2.7,3.46,3.46,0,0,0-2.4-.8,7.8,7.8,0,0,0-2.2.3,11.92,11.92,0,0,0-2,.8l-.7-1.7c.7-.3,1.4-.6,2.3-.9A8,8,0,0,1,517.5,1257.6Zm3,7.9-2.3.1a8.71,8.71,0,0,0-4,.9,2.49,2.49,0,0,0-1.1,2.3,2.27,2.27,0,0,0,.8,1.9,3.28,3.28,0,0,0,2.1.6,5.24,5.24,0,0,0,3.3-1.1,3.9,3.9,0,0,0,1.3-3.3v-1.4Z" transform="translate(-466 -1217.84)"/><path d="M532.3,1271.3a3.75,3.75,0,0,0,1.1-.1c.4-.1.7-.1,1-.2v1.8a8.11,8.11,0,0,1-1.1.3,6.6,6.6,0,0,1-1.4.1,5.38,5.38,0,0,1-2.2-.4,4.28,4.28,0,0,1-1.6-1.4,5.55,5.55,0,0,1-.6-2.8v-8.9h-2.1v-1.1l2.1-.9.9-3.3h1.4v3.5h4.4v1.8h-4.4v8.8a3.28,3.28,0,0,0,.6,2.1A2.64,2.64,0,0,0,532.3,1271.3Z" transform="translate(-466 -1217.84)"/><path d="M545.8,1252.3a1.28,1.28,0,0,1,1,.4,1.71,1.71,0,0,1,0,2.2,1.78,1.78,0,0,1-1,.4,1.28,1.28,0,0,1-1-.4,1.37,1.37,0,0,1-.4-1.1,1.25,1.25,0,0,1,.4-1.1A1.78,1.78,0,0,1,545.8,1252.3Zm1.1,5.6v15h-2.3v-15Z" transform="translate(-466 -1217.84)"/><path d="M561.4,1268.8a3.61,3.61,0,0,1-.7,2.4,5.67,5.67,0,0,1-2.1,1.5,7.69,7.69,0,0,1-3.2.5,19.94,19.94,0,0,1-2.7-.2,6.79,6.79,0,0,1-2-.7v-2.1a9.27,9.27,0,0,0,2.2.8,11.71,11.71,0,0,0,2.6.4,5.06,5.06,0,0,0,2.8-.6,2,2,0,0,0,.9-1.7,2,2,0,0,0-.3-1.1,3.09,3.09,0,0,0-1.2-.9c-.6-.3-1.3-.6-2.3-1a20.49,20.49,0,0,1-2.5-1.1,5.34,5.34,0,0,1-1.6-1.3,3.17,3.17,0,0,1-.6-2,3.27,3.27,0,0,1,1.5-2.9,7,7,0,0,1,4-1,10.07,10.07,0,0,1,2.5.3,14.16,14.16,0,0,1,2.2.7l-.8,1.8a11.76,11.76,0,0,0-2-.7,7.61,7.61,0,0,0-2.1-.3,5.05,5.05,0,0,0-2.4.5,1.6,1.6,0,0,0-.8,1.4,1.37,1.37,0,0,0,.4,1.1,3.22,3.22,0,0,0,1.3.8c.6.2,1.3.6,2.3.9a10.76,10.76,0,0,1,2.4,1.1,7,7,0,0,1,1.6,1.3A3.48,3.48,0,0,1,561.4,1268.8Z" transform="translate(-466 -1217.84)"/><path d="M577.2,1271.3a3.75,3.75,0,0,0,1.1-.1c.4-.1.7-.1,1-.2v1.8a8.11,8.11,0,0,1-1.1.3,6.6,6.6,0,0,1-1.4.1,5.38,5.38,0,0,1-2.2-.4,4.28,4.28,0,0,1-1.6-1.4,5.55,5.55,0,0,1-.6-2.8v-8.9h-2.1v-1.1l2.1-.9.9-3.3h1.4v3.5h4.4v1.8h-4.4v8.8a3.28,3.28,0,0,0,.6,2.1A2.81,2.81,0,0,0,577.2,1271.3Z" transform="translate(-466 -1217.84)"/><path d="M584.6,1251.6v7.5c0,.4-.1.7-.1,1h.2a3.74,3.74,0,0,1,1.2-1.3,8,8,0,0,1,1.6-.8,6.28,6.28,0,0,1,1.9-.3,6.68,6.68,0,0,1,3,.6,3.92,3.92,0,0,1,1.8,1.8,6.84,6.84,0,0,1,.6,3.1v9.8h-2.2v-9.6a3.93,3.93,0,0,0-.9-2.8,3.42,3.42,0,0,0-2.6-.9,5.4,5.4,0,0,0-2.7.6,3.11,3.11,0,0,0-1.4,1.9,9.09,9.09,0,0,0-.4,3v7.8h-2.3v-21.3h2.3Z" transform="translate(-466 -1217.84)"/><path d="M605.3,1257.6a6.71,6.71,0,0,1,3.3.8,6.11,6.11,0,0,1,2.1,2.4,8,8,0,0,1,.7,3.6v1.4H601a5.81,5.81,0,0,0,1.3,4,4.59,4.59,0,0,0,3.6,1.4,9.52,9.52,0,0,0,2.5-.3,12.67,12.67,0,0,0,2.3-.8v2a11.09,11.09,0,0,1-2.2.7,10.17,10.17,0,0,1-2.6.2,7.9,7.9,0,0,1-3.8-.9,6.27,6.27,0,0,1-2.5-2.6,8.71,8.71,0,0,1-.9-4.2,10.84,10.84,0,0,1,.8-4.2,5.59,5.59,0,0,1,2.3-2.7A7.54,7.54,0,0,1,605.3,1257.6Zm-.1,1.9a3.7,3.7,0,0,0-2.9,1.2,6.21,6.21,0,0,0-1.3,3.3h7.9a6.05,6.05,0,0,0-.4-2.4,4,4,0,0,0-1.2-1.6A3.28,3.28,0,0,0,605.2,1259.5Z" transform="translate(-466 -1217.84)"/><path d="M624.8,1251.6v7.1c0,.6-.1,1-.1,1.3h.1a4.93,4.93,0,0,1,1.8-1.7,6.46,6.46,0,0,1,7.5,1.2,8.73,8.73,0,0,1,1.7,5.8,11,11,0,0,1-.8,4.3,5.17,5.17,0,0,1-2.2,2.6,6,6,0,0,1-3.3.9,5,5,0,0,1-2.9-.7,5.6,5.6,0,0,1-1.8-1.6h-.2l-.5,2h-1.6v-21.3h2.3Zm4.3,7.9a5,5,0,0,0-2.6.6,4,4,0,0,0-1.4,1.9,10,10,0,0,0-.4,3.2v.1a8.35,8.35,0,0,0,.9,4.3,3.71,3.71,0,0,0,3.4,1.5,3.5,3.5,0,0,0,3.1-1.5,10.18,10.18,0,0,0,0-8.8A3.31,3.31,0,0,0,629.1,1259.5Z" transform="translate(-466 -1217.84)"/><path d="M645.4,1257.6a6.71,6.71,0,0,1,3.3.8,6.11,6.11,0,0,1,2.1,2.4,8,8,0,0,1,.7,3.6v1.4H641.2a5.81,5.81,0,0,0,1.3,4,4.59,4.59,0,0,0,3.6,1.4,9.52,9.52,0,0,0,2.5-.3,12.67,12.67,0,0,0,2.3-.8v2a11.09,11.09,0,0,1-2.2.7,10.17,10.17,0,0,1-2.6.2,7.9,7.9,0,0,1-3.8-.9,6.27,6.27,0,0,1-2.5-2.6,8.71,8.71,0,0,1-.9-4.2,10.84,10.84,0,0,1,.8-4.2,5.59,5.59,0,0,1,2.3-2.7A7.12,7.12,0,0,1,645.4,1257.6Zm0,1.9a3.7,3.7,0,0,0-2.9,1.2,6.21,6.21,0,0,0-1.3,3.3h7.9a6.05,6.05,0,0,0-.4-2.4,4,4,0,0,0-1.2-1.6A3.46,3.46,0,0,0,645.4,1259.5Z" transform="translate(-466 -1217.84)"/><path d="M665,1268.8a3.61,3.61,0,0,1-.7,2.4,5.67,5.67,0,0,1-2.1,1.5,7.69,7.69,0,0,1-3.2.5,19.94,19.94,0,0,1-2.7-.2,6.79,6.79,0,0,1-2-.7v-2.1a9.27,9.27,0,0,0,2.2.8,11.71,11.71,0,0,0,2.6.4,5.06,5.06,0,0,0,2.8-.6,2,2,0,0,0,.9-1.7,2,2,0,0,0-.3-1.1,3.09,3.09,0,0,0-1.2-.9c-.6-.3-1.3-.6-2.3-1a20.49,20.49,0,0,1-2.5-1.1,5.34,5.34,0,0,1-1.6-1.3,3.17,3.17,0,0,1-.6-2,3.27,3.27,0,0,1,1.5-2.9,7,7,0,0,1,4-1,10.07,10.07,0,0,1,2.5.3,14.16,14.16,0,0,1,2.2.7l-.8,1.8a11.76,11.76,0,0,0-2-.7,7.61,7.61,0,0,0-2.1-.3,5.05,5.05,0,0,0-2.4.5,1.6,1.6,0,0,0-.8,1.4,1.37,1.37,0,0,0,.4,1.1,3.22,3.22,0,0,0,1.3.8c.6.2,1.3.6,2.3.9a10.76,10.76,0,0,1,2.4,1.1,7,7,0,0,1,1.6,1.3A3.48,3.48,0,0,1,665,1268.8Z" transform="translate(-466 -1217.84)"/><path d="M673.5,1271.3a3.75,3.75,0,0,0,1.1-.1c.4-.1.7-.1,1-.2v1.8a8.11,8.11,0,0,1-1.1.3,6.6,6.6,0,0,1-1.4.1,5.38,5.38,0,0,1-2.2-.4,4.28,4.28,0,0,1-1.6-1.4,5.55,5.55,0,0,1-.6-2.8v-8.9h-2.1v-1.1l2.1-.9.9-3.3H671v3.5h4.4v1.8H671v8.8a3.28,3.28,0,0,0,.6,2.1A2.81,2.81,0,0,0,673.5,1271.3Z" transform="translate(-466 -1217.84)"/><path d="M698.1,1272.9l-2.7-8.7c-.1-.4-.2-.7-.3-1.1s-.2-.7-.3-1a2.92,2.92,0,0,1-.2-.9,1.45,1.45,0,0,0-.2-.7h-.1a1.85,1.85,0,0,1-.2.7c-.1.3-.1.6-.2.9s-.2.7-.3,1.1-.2.7-.3,1.1l-2.8,8.7H688l-4.1-15h2.4l2.2,8.3c.1.5.3,1.1.4,1.6l.3,1.5a7.38,7.38,0,0,1,.2,1.2h.1c.1-.2.1-.5.2-.8s.1-.7.2-1,.2-.7.3-1.1.2-.7.3-1l2.8-8.7h2.4l2.7,8.7c.1.4.3.9.4,1.4s.3.9.4,1.4a6,6,0,0,1,.2,1.2h.1a5.16,5.16,0,0,1,.2-1.1l.3-1.5c.1-.5.3-1.1.4-1.7l2.2-8.3h2.3l-4.1,15h-2.7Z" transform="translate(-466 -1217.84)"/><path d="M713.4,1257.6a6.71,6.71,0,0,1,3.3.8,6.11,6.11,0,0,1,2.1,2.4,8,8,0,0,1,.7,3.6v1.4H709.2a5.81,5.81,0,0,0,1.3,4,4.59,4.59,0,0,0,3.6,1.4,9.52,9.52,0,0,0,2.5-.3,12.67,12.67,0,0,0,2.3-.8v2a11.09,11.09,0,0,1-2.2.7,10.17,10.17,0,0,1-2.6.2,7.9,7.9,0,0,1-3.8-.9,6.27,6.27,0,0,1-2.5-2.6,8.71,8.71,0,0,1-.9-4.2,10.84,10.84,0,0,1,.8-4.2,5.59,5.59,0,0,1,2.3-2.7A7.12,7.12,0,0,1,713.4,1257.6Zm0,1.9a3.7,3.7,0,0,0-2.9,1.2,6.21,6.21,0,0,0-1.3,3.3h7.9a6.05,6.05,0,0,0-.4-2.4,4,4,0,0,0-1.2-1.6A3.46,3.46,0,0,0,713.4,1259.5Z" transform="translate(-466 -1217.84)"/><path d="M725.6,1251.6v7.1c0,.6-.1,1-.1,1.3h.1a4.93,4.93,0,0,1,1.8-1.7,6.46,6.46,0,0,1,7.5,1.2,8.73,8.73,0,0,1,1.7,5.8,11,11,0,0,1-.8,4.3,5.17,5.17,0,0,1-2.2,2.6,6,6,0,0,1-3.3.9,5,5,0,0,1-2.9-.7,5.6,5.6,0,0,1-1.8-1.6h-.2l-.5,2h-1.6v-21.3h2.3Zm4.4,7.9a5,5,0,0,0-2.6.6,4,4,0,0,0-1.4,1.9,10,10,0,0,0-.4,3.2v.1a8.35,8.35,0,0,0,.9,4.3,3.71,3.71,0,0,0,3.4,1.5,3.5,3.5,0,0,0,3.1-1.5,10.18,10.18,0,0,0,0-8.8A3.43,3.43,0,0,0,730,1259.5Z" transform="translate(-466 -1217.84)"/><path d="M750.2,1268.8a3.61,3.61,0,0,1-.7,2.4,5.67,5.67,0,0,1-2.1,1.5,7.69,7.69,0,0,1-3.2.5,19.94,19.94,0,0,1-2.7-.2,6.79,6.79,0,0,1-2-.7v-2.1a9.27,9.27,0,0,0,2.2.8,11.71,11.71,0,0,0,2.6.4,5.06,5.06,0,0,0,2.8-.6,2,2,0,0,0,.9-1.7,2,2,0,0,0-.3-1.1,3.09,3.09,0,0,0-1.2-.9c-.6-.3-1.3-.6-2.3-1a20.49,20.49,0,0,1-2.5-1.1,5.34,5.34,0,0,1-1.6-1.3,3.17,3.17,0,0,1-.6-2,3.27,3.27,0,0,1,1.5-2.9,7,7,0,0,1,4-1,10.07,10.07,0,0,1,2.5.3,14.16,14.16,0,0,1,2.2.7l-.8,1.8a11.76,11.76,0,0,0-2-.7,7.61,7.61,0,0,0-2.1-.3,5.05,5.05,0,0,0-2.4.5,1.6,1.6,0,0,0-.8,1.4,1.37,1.37,0,0,0,.4,1.1,3.22,3.22,0,0,0,1.3.8c.6.2,1.3.6,2.3.9a10.76,10.76,0,0,1,2.4,1.1,7,7,0,0,1,1.6,1.3A3.48,3.48,0,0,1,750.2,1268.8Z" transform="translate(-466 -1217.84)"/><path d="M755,1252.3a1.28,1.28,0,0,1,1,.4,1.71,1.71,0,0,1,0,2.2,1.78,1.78,0,0,1-1,.4,1.28,1.28,0,0,1-1-.4,1.37,1.37,0,0,1-.4-1.1,1.25,1.25,0,0,1,.4-1.1A1.78,1.78,0,0,1,755,1252.3Zm1.1,5.6v15h-2.3v-15Z" transform="translate(-466 -1217.84)"/><path d="M765.8,1271.3a3.75,3.75,0,0,0,1.1-.1c.4-.1.7-.1,1-.2v1.8a8.11,8.11,0,0,1-1.1.3,6.6,6.6,0,0,1-1.4.1,5.38,5.38,0,0,1-2.2-.4,4.28,4.28,0,0,1-1.6-1.4,5.55,5.55,0,0,1-.6-2.8v-8.9h-2v-1.1l2.1-.9.9-3.3h1.4v3.5h4.4v1.8h-4.4v8.8a3.28,3.28,0,0,0,.6,2.1A2.27,2.27,0,0,0,765.8,1271.3Z" transform="translate(-466 -1217.84)"/><path d="M776.7,1257.6a6.71,6.71,0,0,1,3.3.8,6.11,6.11,0,0,1,2.1,2.4,8,8,0,0,1,.7,3.6v1.4H772.5a5.81,5.81,0,0,0,1.3,4,4.59,4.59,0,0,0,3.6,1.4,9.52,9.52,0,0,0,2.5-.3,12.67,12.67,0,0,0,2.3-.8v2a11.09,11.09,0,0,1-2.2.7,10.17,10.17,0,0,1-2.6.2,7.9,7.9,0,0,1-3.8-.9,6.27,6.27,0,0,1-2.5-2.6,8.71,8.71,0,0,1-.9-4.2,10.84,10.84,0,0,1,.8-4.2,5.59,5.59,0,0,1,2.3-2.7A6.83,6.83,0,0,1,776.7,1257.6Zm-.1,1.9a3.7,3.7,0,0,0-2.9,1.2,6.21,6.21,0,0,0-1.3,3.3h7.9a6.05,6.05,0,0,0-.4-2.4,4,4,0,0,0-1.2-1.6A3.28,3.28,0,0,0,776.6,1259.5Z" transform="translate(-466 -1217.84)"/><path d="M800.6,1259.7h-3.7v13.2h-2.3v-13.2h-2.7v-1.1l2.7-.8v-1a6.84,6.84,0,0,1,.6-3.1,3.33,3.33,0,0,1,1.6-1.7,6.64,6.64,0,0,1,2.6-.6,4.14,4.14,0,0,1,1.6.2,7.89,7.89,0,0,0,1.3.3l-.6,1.8c-.3-.1-.7-.2-1-.3a4.87,4.87,0,0,0-1.2-.1,2.27,2.27,0,0,0-1.9.8,4.54,4.54,0,0,0-.6,2.6v1.1h3.7v1.9Z" transform="translate(-466 -1217.84)"/><path d="M816.2,1265.4a11.42,11.42,0,0,1-.5,3.3,5.66,5.66,0,0,1-1.4,2.4,5.74,5.74,0,0,1-2.2,1.5,6.82,6.82,0,0,1-2.9.5,8.68,8.68,0,0,1-2.8-.5,5.74,5.74,0,0,1-2.2-1.5,7.22,7.22,0,0,1-1.4-2.4,11.42,11.42,0,0,1-.5-3.3,10.84,10.84,0,0,1,.8-4.2,6.08,6.08,0,0,1,2.4-2.6,7.24,7.24,0,0,1,3.7-.9,6.87,6.87,0,0,1,3.6.9,6.71,6.71,0,0,1,2.4,2.6A7.69,7.69,0,0,1,816.2,1265.4Zm-11.4,0a9.59,9.59,0,0,0,.5,3.1,4.08,4.08,0,0,0,1.5,2.1,4.21,4.21,0,0,0,2.6.7,4.41,4.41,0,0,0,2.6-.7,4.08,4.08,0,0,0,1.5-2.1,9.86,9.86,0,0,0,0-6.2,3.82,3.82,0,0,0-1.5-2,4.21,4.21,0,0,0-2.6-.7,3.82,3.82,0,0,0-3.4,1.5A7.33,7.33,0,0,0,804.8,1265.4Z" transform="translate(-466 -1217.84)"/><path d="M827,1257.6h.9c.3,0,.6.1.9.1l-.3,2.1c-.2-.1-.5-.1-.8-.2a2.49,2.49,0,0,0-.8-.1,3.29,3.29,0,0,0-1.7.4,7.1,7.1,0,0,0-1.4,1,5.07,5.07,0,0,0-.9,1.6,6.65,6.65,0,0,0-.3,2.1v8h-2.3v-15h1.9l.2,2.8h.1a6.12,6.12,0,0,1,2.6-2.6C825.6,1257.8,826.3,1257.6,827,1257.6Z" transform="translate(-466 -1217.84)"/><path d="M839.2,1272.9v-20h2.3v20Z" transform="translate(-466 -1217.84)"/><path d="M852.7,1273.2a8.63,8.63,0,0,1-3.6-.8,6.42,6.42,0,0,1-2.4-2.5,9.14,9.14,0,0,1-.9-4.3,10,10,0,0,1,.9-4.5,5.73,5.73,0,0,1,2.5-2.6,7.32,7.32,0,0,1,3.6-.8,16.35,16.35,0,0,1,2.2.2,3.78,3.78,0,0,1,1.7.6l-.7,1.9c-.5-.2-1-.3-1.6-.5a11.14,11.14,0,0,0-1.7-.2,4.41,4.41,0,0,0-2.6.7,3.47,3.47,0,0,0-1.5,2,9.77,9.77,0,0,0-.5,3.2,9.59,9.59,0,0,0,.5,3.1,3.82,3.82,0,0,0,1.5,2,4.09,4.09,0,0,0,2.5.7,6.65,6.65,0,0,0,2.1-.3c.6-.2,1.2-.4,1.7-.6v2a4.92,4.92,0,0,1-1.7.6A12.12,12.12,0,0,1,852.7,1273.2Z" transform="translate(-466 -1217.84)"/><path d="M865.9,1257.6a6.71,6.71,0,0,1,3.3.8,6.11,6.11,0,0,1,2.1,2.4,8,8,0,0,1,.7,3.6v1.4H861.7a5.81,5.81,0,0,0,1.3,4,4.59,4.59,0,0,0,3.6,1.4,9.52,9.52,0,0,0,2.5-.3,12.67,12.67,0,0,0,2.3-.8v2a11.09,11.09,0,0,1-2.2.7,10.17,10.17,0,0,1-2.6.2,7.9,7.9,0,0,1-3.8-.9,6.27,6.27,0,0,1-2.5-2.6,8.71,8.71,0,0,1-.9-4.2,10.84,10.84,0,0,1,.8-4.2,5.59,5.59,0,0,1,2.3-2.7A6.83,6.83,0,0,1,865.9,1257.6Zm-.1,1.9a3.7,3.7,0,0,0-2.9,1.2,6.21,6.21,0,0,0-1.3,3.3h7.9a6.05,6.05,0,0,0-.4-2.4,4,4,0,0,0-1.2-1.6A3.28,3.28,0,0,0,865.8,1259.5Z" transform="translate(-466 -1217.84)"/><path d="M878.1,1272.9h-2.3v-21.3h2.3Z" transform="translate(-466 -1217.84)"/><path d="M888.5,1257.6a5.8,5.8,0,0,1,4,1.2,4.87,4.87,0,0,1,1.3,3.8v10.2h-1.7l-.4-2.2h-.1a17.88,17.88,0,0,1-1.3,1.4,4.81,4.81,0,0,1-1.6.8,6.87,6.87,0,0,1-2.2.3,6,6,0,0,1-2.4-.5,3.91,3.91,0,0,1-1.7-1.4,4.63,4.63,0,0,1-.6-2.5,3.81,3.81,0,0,1,1.8-3.4,10.69,10.69,0,0,1,5.4-1.3l2.6-.1v-.9a3.78,3.78,0,0,0-.8-2.7,3.46,3.46,0,0,0-2.4-.8,7.8,7.8,0,0,0-2.2.3,11.92,11.92,0,0,0-2,.8l-.7-1.7c.7-.3,1.4-.6,2.3-.9A8,8,0,0,1,888.5,1257.6Zm3,7.9-2.3.1a8.71,8.71,0,0,0-4,.9,2.49,2.49,0,0,0-1.1,2.3,2.27,2.27,0,0,0,.8,1.9,3.28,3.28,0,0,0,2.1.6,5.24,5.24,0,0,0,3.3-1.1,3.9,3.9,0,0,0,1.3-3.3v-1.4Z" transform="translate(-466 -1217.84)"/><path d="M905.6,1257.6a5.36,5.36,0,0,1,4,1.3,5.74,5.74,0,0,1,1.4,4.2v9.8h-2.2v-9.6a3.93,3.93,0,0,0-.9-2.8,3.42,3.42,0,0,0-2.6-.9,4.1,4.1,0,0,0-3.5,1.4,6.71,6.71,0,0,0-1,4.1v7.8h-2.3v-15h1.8l.3,2.2h.1a3.74,3.74,0,0,1,1.2-1.3,6.71,6.71,0,0,1,1.7-.8A4.48,4.48,0,0,1,905.6,1257.6Z" transform="translate(-466 -1217.84)"/><path d="M921,1273.2a5.55,5.55,0,0,1-4.5-1.9,10.74,10.74,0,0,1,0-11.6,5.62,5.62,0,0,1,4.5-2,6.65,6.65,0,0,1,2.1.3,5.3,5.3,0,0,1,1.5.8,12,12,0,0,1,1.1,1.2h.2c0-.3-.1-.7-.1-1.2s-.1-.9-.1-1.2v-6H928v21.3h-1.8l-.3-2.1h-.1a4.15,4.15,0,0,1-1.1,1.2,3.77,3.77,0,0,1-1.5.9A14.6,14.6,0,0,1,921,1273.2Zm.3-1.9a4,4,0,0,0,3.4-1.4,6.71,6.71,0,0,0,1-4.1v-.4a7.75,7.75,0,0,0-1-4.4c-.6-1-1.8-1.5-3.5-1.5a3.37,3.37,0,0,0-3.1,1.6,8,8,0,0,0-1,4.4,7.61,7.61,0,0,0,1,4.3A3.8,3.8,0,0,0,921.3,1271.3Z" transform="translate(-466 -1217.84)"/><path d="M933.9,1252.3a1.28,1.28,0,0,1,1,.4,1.71,1.71,0,0,1,0,2.2,1.78,1.78,0,0,1-1,.4,1.28,1.28,0,0,1-1-.4,1.37,1.37,0,0,1-.4-1.1,1.25,1.25,0,0,1,.4-1.1A1.78,1.78,0,0,1,933.9,1252.3Zm1.1,5.6v15h-2.3v-15Z" transform="translate(-466 -1217.84)"/><path d="M945.8,1273.2a8.63,8.63,0,0,1-3.6-.8,6.42,6.42,0,0,1-2.4-2.5,9.14,9.14,0,0,1-.9-4.3,10,10,0,0,1,.9-4.5,5.73,5.73,0,0,1,2.5-2.6,7.32,7.32,0,0,1,3.6-.8,16.35,16.35,0,0,1,2.2.2,3.78,3.78,0,0,1,1.7.6l-.7,1.9c-.5-.2-1-.3-1.6-.5a11.14,11.14,0,0,0-1.7-.2,4.41,4.41,0,0,0-2.6.7,3.47,3.47,0,0,0-1.5,2,9.77,9.77,0,0,0-.5,3.2,9.59,9.59,0,0,0,.5,3.1,3.82,3.82,0,0,0,1.5,2,4.09,4.09,0,0,0,2.5.7,6.65,6.65,0,0,0,2.1-.3c.6-.2,1.2-.4,1.7-.6v2a4.92,4.92,0,0,1-1.7.6A11.52,11.52,0,0,1,945.8,1273.2Z" transform="translate(-466 -1217.84)"/><path d="M972.7,1272.9l-2.7-8.7c-.1-.4-.2-.7-.3-1.1s-.2-.7-.3-1a2.92,2.92,0,0,1-.2-.9,1.45,1.45,0,0,0-.2-.7h-.1a1.85,1.85,0,0,1-.2.7c-.1.3-.1.6-.2.9s-.2.7-.3,1.1-.2.7-.3,1.1l-2.8,8.7h-2.6l-4.1-15h2.4l2.2,8.3c.1.5.3,1.1.4,1.6l.3,1.5a7.38,7.38,0,0,1,.2,1.2h.1c.1-.2.1-.5.2-.8s.1-.7.2-1,.2-.7.3-1.1.2-.7.3-1l2.8-8.7h2.4l2.7,8.7c.1.4.3.9.4,1.4s.3.9.4,1.4a6,6,0,0,1,.2,1.2h.1a5.16,5.16,0,0,1,.2-1.1l.3-1.5c.1-.5.3-1.1.4-1.7l2.2-8.3h2.3l-4.1,15h-2.6Z" transform="translate(-466 -1217.84)"/><path d="M988,1257.6a6.71,6.71,0,0,1,3.3.8,6.11,6.11,0,0,1,2.1,2.4,8,8,0,0,1,.7,3.6v1.4H983.8a5.81,5.81,0,0,0,1.3,4,4.59,4.59,0,0,0,3.6,1.4,9.52,9.52,0,0,0,2.5-.3,12.67,12.67,0,0,0,2.3-.8v2a11.09,11.09,0,0,1-2.2.7,10.17,10.17,0,0,1-2.6.2,7.9,7.9,0,0,1-3.8-.9,6.27,6.27,0,0,1-2.5-2.6,8.71,8.71,0,0,1-.9-4.2,10.84,10.84,0,0,1,.8-4.2,5.59,5.59,0,0,1,2.3-2.7A6.83,6.83,0,0,1,988,1257.6Zm0,1.9a3.7,3.7,0,0,0-2.9,1.2,6.21,6.21,0,0,0-1.3,3.3h7.9a6.05,6.05,0,0,0-.4-2.4,4,4,0,0,0-1.2-1.6A3.46,3.46,0,0,0,988,1259.5Z" transform="translate(-466 -1217.84)"/><path d="M1003.5,1257.6a5.8,5.8,0,0,1,4,1.2,4.87,4.87,0,0,1,1.3,3.8v10.2h-1.7l-.4-2.2h-.1a17.88,17.88,0,0,1-1.3,1.4,4.81,4.81,0,0,1-1.6.8,6.87,6.87,0,0,1-2.2.3,6,6,0,0,1-2.4-.5,3.91,3.91,0,0,1-1.7-1.4,4.63,4.63,0,0,1-.6-2.5,3.81,3.81,0,0,1,1.8-3.4,10.69,10.69,0,0,1,5.4-1.3l2.6-.1v-.9a3.78,3.78,0,0,0-.8-2.7,3.46,3.46,0,0,0-2.4-.8,7.8,7.8,0,0,0-2.2.3,11.92,11.92,0,0,0-2,.8l-.7-1.7c.7-.3,1.4-.6,2.3-.9A8.42,8.42,0,0,1,1003.5,1257.6Zm3.1,7.9-2.3.1a8.71,8.71,0,0,0-4,.9,2.49,2.49,0,0,0-1.1,2.3,2.27,2.27,0,0,0,.8,1.9,3.28,3.28,0,0,0,2.1.6,5.24,5.24,0,0,0,3.3-1.1,3.9,3.9,0,0,0,1.3-3.3v-1.4Z" transform="translate(-466 -1217.84)"/><path d="M1018.3,1271.3a3.75,3.75,0,0,0,1.1-.1c.4-.1.7-.1,1-.2v1.8a8.11,8.11,0,0,1-1.1.3,6.6,6.6,0,0,1-1.4.1,5.38,5.38,0,0,1-2.2-.4,4.28,4.28,0,0,1-1.6-1.4,5.55,5.55,0,0,1-.6-2.8v-8.9h-2.1v-1.1l2.1-.9.9-3.3h1.4v3.5h4.4v1.8h-4.4v8.8a3.28,3.28,0,0,0,.6,2.1A2.81,2.81,0,0,0,1018.3,1271.3Z" transform="translate(-466 -1217.84)"/><path d="M1025.7,1251.6v7.5c0,.4-.1.7-.1,1h.2a3.74,3.74,0,0,1,1.2-1.3,8,8,0,0,1,1.6-.8,6.28,6.28,0,0,1,1.9-.3,6.68,6.68,0,0,1,3,.6,3.92,3.92,0,0,1,1.8,1.8,6.84,6.84,0,0,1,.6,3.1v9.8h-2.2v-9.6a3.93,3.93,0,0,0-.9-2.8,3.42,3.42,0,0,0-2.6-.9,5.4,5.4,0,0,0-2.7.6,3.11,3.11,0,0,0-1.4,1.9,9.09,9.09,0,0,0-.4,3v7.8h-2.3v-21.3h2.3Z" transform="translate(-466 -1217.84)"/><path d="M1046.4,1257.6a6.71,6.71,0,0,1,3.3.8,6.11,6.11,0,0,1,2.1,2.4,8,8,0,0,1,.7,3.6v1.4h-10.3a5.81,5.81,0,0,0,1.3,4,4.59,4.59,0,0,0,3.6,1.4,9.52,9.52,0,0,0,2.5-.3,12.67,12.67,0,0,0,2.3-.8v2a11.09,11.09,0,0,1-2.2.7,10.17,10.17,0,0,1-2.6.2,7.9,7.9,0,0,1-3.8-.9,6.27,6.27,0,0,1-2.5-2.6,8.71,8.71,0,0,1-.9-4.2,10.84,10.84,0,0,1,.8-4.2,5.59,5.59,0,0,1,2.3-2.7A7.12,7.12,0,0,1,1046.4,1257.6Zm0,1.9a3.7,3.7,0,0,0-2.9,1.2,6.21,6.21,0,0,0-1.3,3.3h7.9a6.05,6.05,0,0,0-.4-2.4,4,4,0,0,0-1.2-1.6A3.46,3.46,0,0,0,1046.4,1259.5Z" transform="translate(-466 -1217.84)"/><path d="M1063.2,1257.6h.9c.3,0,.6.1.9.1l-.3,2.1c-.2-.1-.5-.1-.8-.2a2.49,2.49,0,0,0-.8-.1,3.29,3.29,0,0,0-1.7.4,7.1,7.1,0,0,0-1.4,1,5.07,5.07,0,0,0-.9,1.6,6.65,6.65,0,0,0-.3,2.1v8h-2.3v-15h1.9l.2,2.8h.1a6.12,6.12,0,0,1,2.6-2.6C1061.8,1257.8,1062.5,1257.6,1063.2,1257.6Z" transform="translate(-466 -1217.84)"/><path d="M1069.4,1267.3v-.7a10.07,10.07,0,0,1,.2-1.9,5.07,5.07,0,0,1,.7-1.5,6.16,6.16,0,0,1,1.4-1.4c.7-.6,1.3-1.1,1.7-1.5a3.81,3.81,0,0,0,.9-1.3,3.34,3.34,0,0,0,.3-1.5,2.79,2.79,0,0,0-.9-2.2,4,4,0,0,0-2.6-.8,8.75,8.75,0,0,0-2.4.3,11.92,11.92,0,0,0-2,.8l-.8-1.8a17.25,17.25,0,0,1,2.4-1,8.85,8.85,0,0,1,2.9-.4,5.78,5.78,0,0,1,4.1,1.3,4.54,4.54,0,0,1,1.4,3.6,5.09,5.09,0,0,1-.4,2.2,6.1,6.1,0,0,1-1.2,1.6c-.5.5-1.1,1-1.8,1.6s-1.1,1-1.4,1.3a7.46,7.46,0,0,0-.7,1.2,6.05,6.05,0,0,0-.2,1.5v.5h-1.6Zm-.6,4.2a2,2,0,0,1,.5-1.4,1.59,1.59,0,0,1,1.2-.4,1.5,1.5,0,0,1,1.1.4,1.81,1.81,0,0,1,.5,1.4,2,2,0,0,1-.5,1.4,1.5,1.5,0,0,1-1.1.4,1.59,1.59,0,0,1-1.2-.4A2,2,0,0,1,1068.8,1271.5Z" transform="translate(-466 -1217.84)"/><path d="M490.9,1343.8l-5.3,20h-2.3l-4-13.5-.3-1.2c-.1-.4-.2-.8-.3-1.1a5.07,5.07,0,0,1-.2-.9,1.76,1.76,0,0,1-.1-.6,3.54,3.54,0,0,0-.1.6c-.1.3-.1.6-.2.9s-.2.7-.3,1.1l-.3,1.2-3.9,13.4h-2.3l-5.3-20h2.4l3.2,12.5.3,1.2.3,1.2c.1.4.1.8.2,1.1s.1.7.2,1.1a4.25,4.25,0,0,1,.2-1.1,5,5,0,0,0,.2-1.2l.3-1.2.3-1.2,3.6-12.4h2.4l3.7,12.5a6.47,6.47,0,0,0,.4,1.3,5.27,5.27,0,0,1,.3,1.2,5.16,5.16,0,0,1,.2,1.1,3.55,3.55,0,0,0,.2,1c.1-.4.1-.9.2-1.4l.3-1.5c.1-.5.3-1.1.4-1.7l3.2-12.5h2.4Z" transform="translate(-466 -1217.84)"/><path d="M496,1342.5v7.5c0,.4-.1.7-.1,1h.2a3.74,3.74,0,0,1,1.2-1.3,8,8,0,0,1,1.6-.8,6.28,6.28,0,0,1,1.9-.3,6.68,6.68,0,0,1,3,.6,3.92,3.92,0,0,1,1.8,1.8,6.84,6.84,0,0,1,.6,3.1v9.8H504v-9.6a3.93,3.93,0,0,0-.9-2.8,3.42,3.42,0,0,0-2.6-.9,5.4,5.4,0,0,0-2.7.6,3.11,3.11,0,0,0-1.4,1.9,9.09,9.09,0,0,0-.4,3v7.8h-2.3v-21.3H496Z" transform="translate(-466 -1217.84)"/><path d="M516.5,1348.6a5.8,5.8,0,0,1,4,1.2,4.87,4.87,0,0,1,1.3,3.8v10.2h-1.7l-.4-2.2h-.1a17.88,17.88,0,0,1-1.3,1.4,4.81,4.81,0,0,1-1.6.8,6.87,6.87,0,0,1-2.2.3,6,6,0,0,1-2.4-.5,3.91,3.91,0,0,1-1.7-1.4,4.63,4.63,0,0,1-.6-2.5,3.81,3.81,0,0,1,1.8-3.4,10.69,10.69,0,0,1,5.4-1.3l2.6-.1v-.9a3.78,3.78,0,0,0-.8-2.7,3.46,3.46,0,0,0-2.4-.8,7.8,7.8,0,0,0-2.2.3,11.92,11.92,0,0,0-2,.8l-.7-1.7c.7-.3,1.4-.6,2.3-.9A8,8,0,0,1,516.5,1348.6Zm3,7.8-2.3.1a8.71,8.71,0,0,0-4,.9,2.49,2.49,0,0,0-1.1,2.3,2.27,2.27,0,0,0,.8,1.9,3.28,3.28,0,0,0,2.1.6,5.24,5.24,0,0,0,3.3-1.1,3.9,3.9,0,0,0,1.3-3.3v-1.4Z" transform="translate(-466 -1217.84)"/><path d="M531.3,1362.2a3.75,3.75,0,0,0,1.1-.1c.4-.1.7-.1,1-.2v1.8a8.11,8.11,0,0,1-1.1.3,6.6,6.6,0,0,1-1.4.1,5.38,5.38,0,0,1-2.2-.4,4.28,4.28,0,0,1-1.6-1.4,5.55,5.55,0,0,1-.6-2.8v-8.9h-2.1v-1.1l2.1-.9.9-3.3h1.4v3.5h4.4v1.8h-4.4v8.8a3.28,3.28,0,0,0,.6,2.1A2.81,2.81,0,0,0,531.3,1362.2Z" transform="translate(-466 -1217.84)"/><path d="M544.9,1343.2a1.28,1.28,0,0,1,1,.4,1.71,1.71,0,0,1,0,2.2,1.78,1.78,0,0,1-1,.4,1.28,1.28,0,0,1-1-.4,1.37,1.37,0,0,1-.4-1.1,1.25,1.25,0,0,1,.4-1.1A1.78,1.78,0,0,1,544.9,1343.2Zm1.1,5.6v15h-2.3v-15Z" transform="translate(-466 -1217.84)"/><path d="M560.5,1359.7a3.61,3.61,0,0,1-.7,2.4,5.67,5.67,0,0,1-2.1,1.5,7.69,7.69,0,0,1-3.2.5,19.94,19.94,0,0,1-2.7-.2,6.79,6.79,0,0,1-2-.7v-2.1a9.27,9.27,0,0,0,2.2.8,11.71,11.71,0,0,0,2.6.4,5.06,5.06,0,0,0,2.8-.6,2,2,0,0,0,.9-1.7,2,2,0,0,0-.3-1.1,3.09,3.09,0,0,0-1.2-.9c-.6-.3-1.3-.6-2.3-1a20.49,20.49,0,0,1-2.5-1.1,5.34,5.34,0,0,1-1.6-1.3,3.17,3.17,0,0,1-.6-2,3.27,3.27,0,0,1,1.5-2.9,7,7,0,0,1,4-1,10.07,10.07,0,0,1,2.5.3,14.16,14.16,0,0,1,2.2.7l-.8,1.8a11.76,11.76,0,0,0-2-.7,7.61,7.61,0,0,0-2.1-.3,5.05,5.05,0,0,0-2.4.5,1.6,1.6,0,0,0-.8,1.4,1.37,1.37,0,0,0,.4,1.1,3.22,3.22,0,0,0,1.3.8c.6.2,1.3.6,2.3.9a10.76,10.76,0,0,1,2.4,1.1,7,7,0,0,1,1.6,1.3A3.48,3.48,0,0,1,560.5,1359.7Z" transform="translate(-466 -1217.84)"/><path d="M576.2,1362.2a3.75,3.75,0,0,0,1.1-.1c.4-.1.7-.1,1-.2v1.8a8.11,8.11,0,0,1-1.1.3,6.6,6.6,0,0,1-1.4.1,5.38,5.38,0,0,1-2.2-.4,4.28,4.28,0,0,1-1.6-1.4,5.55,5.55,0,0,1-.6-2.8v-8.9h-2.1v-1.1l2.1-.9.9-3.3h1.4v3.5h4.4v1.8h-4.4v8.8a3.28,3.28,0,0,0,.6,2.1A2.81,2.81,0,0,0,576.2,1362.2Z" transform="translate(-466 -1217.84)"/><path d="M583.6,1342.5v7.5c0,.4-.1.7-.1,1h.2a3.74,3.74,0,0,1,1.2-1.3,8,8,0,0,1,1.6-.8,6.28,6.28,0,0,1,1.9-.3,6.68,6.68,0,0,1,3,.6,3.92,3.92,0,0,1,1.8,1.8,6.84,6.84,0,0,1,.6,3.1v9.8h-2.2v-9.6a3.93,3.93,0,0,0-.9-2.8,3.42,3.42,0,0,0-2.6-.9,5.4,5.4,0,0,0-2.7.6,3.11,3.11,0,0,0-1.4,1.9,9.09,9.09,0,0,0-.4,3v7.8h-2.3v-21.3h2.3Z" transform="translate(-466 -1217.84)"/><path d="M604.3,1348.5a6.71,6.71,0,0,1,3.3.8,6.11,6.11,0,0,1,2.1,2.4,8,8,0,0,1,.7,3.6v1.4H600.1a5.81,5.81,0,0,0,1.3,4,4.59,4.59,0,0,0,3.6,1.4,9.52,9.52,0,0,0,2.5-.3,12.67,12.67,0,0,0,2.3-.8v2a11.09,11.09,0,0,1-2.2.7,10.17,10.17,0,0,1-2.6.2,7.9,7.9,0,0,1-3.8-.9,6.27,6.27,0,0,1-2.5-2.6,8.71,8.71,0,0,1-.9-4.2,10.84,10.84,0,0,1,.8-4.2,5.59,5.59,0,0,1,2.3-2.7A8.51,8.51,0,0,1,604.3,1348.5Zm0,1.9a3.7,3.7,0,0,0-2.9,1.2,6.21,6.21,0,0,0-1.3,3.3H608a6.05,6.05,0,0,0-.4-2.4,4,4,0,0,0-1.2-1.6A3.46,3.46,0,0,0,604.3,1350.4Z" transform="translate(-466 -1217.84)"/><path d="M637.8,1348.5a4.78,4.78,0,0,1,3.7,1.3,5.91,5.91,0,0,1,1.3,4.1v9.8h-2.2V1354a4.14,4.14,0,0,0-.8-2.7,2.87,2.87,0,0,0-2.3-.9,3.82,3.82,0,0,0-3.2,1.3,5.82,5.82,0,0,0-1,3.7v8.4H631v-9.7a5.62,5.62,0,0,0-.3-2,2.94,2.94,0,0,0-1-1.2,3.06,3.06,0,0,0-1.7-.4,4.27,4.27,0,0,0-2.4.6,3.52,3.52,0,0,0-1.3,1.8,8.72,8.72,0,0,0-.4,3v7.9h-2.3v-15h1.8l.3,2.1h.1a4.73,4.73,0,0,1,1.1-1.3,5.48,5.48,0,0,1,1.5-.8,5.66,5.66,0,0,1,1.8-.3,6.53,6.53,0,0,1,2.9.6,3.94,3.94,0,0,1,1.7,1.9h.1a4.56,4.56,0,0,1,2-1.9A9.37,9.37,0,0,1,637.8,1348.5Z" transform="translate(-466 -1217.84)"/><path d="M660.4,1356.3a11.42,11.42,0,0,1-.5,3.3,5.66,5.66,0,0,1-1.4,2.4,5.74,5.74,0,0,1-2.2,1.5,6.82,6.82,0,0,1-2.9.5,8.68,8.68,0,0,1-2.8-.5,5.74,5.74,0,0,1-2.2-1.5,7.22,7.22,0,0,1-1.4-2.4,11.42,11.42,0,0,1-.5-3.3,10.84,10.84,0,0,1,.8-4.2,6.08,6.08,0,0,1,2.4-2.6,7.24,7.24,0,0,1,3.7-.9,6.87,6.87,0,0,1,3.6.9,6.71,6.71,0,0,1,2.4,2.6A8.16,8.16,0,0,1,660.4,1356.3Zm-11.4,0a9.59,9.59,0,0,0,.5,3.1,4.08,4.08,0,0,0,1.5,2.1,4.21,4.21,0,0,0,2.6.7,4.41,4.41,0,0,0,2.6-.7,4.08,4.08,0,0,0,1.5-2.1,9.86,9.86,0,0,0,0-6.2,3.82,3.82,0,0,0-1.5-2,4.21,4.21,0,0,0-2.6-.7,3.82,3.82,0,0,0-3.4,1.5A7.57,7.57,0,0,0,649,1356.3Z" transform="translate(-466 -1217.84)"/><path d="M674,1359.7a3.61,3.61,0,0,1-.7,2.4,5.67,5.67,0,0,1-2.1,1.5,7.69,7.69,0,0,1-3.2.5,19.94,19.94,0,0,1-2.7-.2,6.79,6.79,0,0,1-2-.7v-2.1a9.27,9.27,0,0,0,2.2.8,11.71,11.71,0,0,0,2.6.4,5.06,5.06,0,0,0,2.8-.6,2,2,0,0,0,.9-1.7,2,2,0,0,0-.3-1.1,3.09,3.09,0,0,0-1.2-.9c-.6-.3-1.3-.6-2.3-1a20.49,20.49,0,0,1-2.5-1.1,5.34,5.34,0,0,1-1.6-1.3,3.17,3.17,0,0,1-.6-2,3.27,3.27,0,0,1,1.5-2.9,7,7,0,0,1,4-1,10.07,10.07,0,0,1,2.5.3,14.16,14.16,0,0,1,2.2.7l-.8,1.8a11.76,11.76,0,0,0-2-.7,7.61,7.61,0,0,0-2.1-.3,5.05,5.05,0,0,0-2.4.5,1.6,1.6,0,0,0-.8,1.4,1.37,1.37,0,0,0,.4,1.1,3.22,3.22,0,0,0,1.3.8c.6.2,1.3.6,2.3.9a10.76,10.76,0,0,1,2.4,1.1,7,7,0,0,1,1.6,1.3A3.48,3.48,0,0,1,674,1359.7Z" transform="translate(-466 -1217.84)"/><path d="M682.5,1362.2a3.75,3.75,0,0,0,1.1-.1c.4-.1.7-.1,1-.2v1.8a8.11,8.11,0,0,1-1.1.3,6.6,6.6,0,0,1-1.4.1,5.38,5.38,0,0,1-2.2-.4,4.28,4.28,0,0,1-1.6-1.4,5.55,5.55,0,0,1-.6-2.8v-8.9h-2.1v-1.1l2.1-.9.9-3.3H680v3.5h4.4v1.8H680v8.8a3.28,3.28,0,0,0,.6,2.1A2.81,2.81,0,0,0,682.5,1362.2Z" transform="translate(-466 -1217.84)"/><path d="M700.5,1348.6a5.8,5.8,0,0,1,4,1.2,4.87,4.87,0,0,1,1.3,3.8v10.2h-1.7l-.4-2.2h-.1a17.88,17.88,0,0,1-1.3,1.4,4.81,4.81,0,0,1-1.6.8,6.87,6.87,0,0,1-2.2.3,6,6,0,0,1-2.4-.5,3.91,3.91,0,0,1-1.7-1.4,4.63,4.63,0,0,1-.6-2.5,3.81,3.81,0,0,1,1.8-3.4,10.69,10.69,0,0,1,5.4-1.3l2.6-.1v-.9a3.78,3.78,0,0,0-.8-2.7,3.46,3.46,0,0,0-2.4-.8,7.8,7.8,0,0,0-2.2.3,11.92,11.92,0,0,0-2,.8l-.7-1.7c.7-.3,1.4-.6,2.3-.9A8,8,0,0,1,700.5,1348.6Zm3,7.8-2.3.1a8.71,8.71,0,0,0-4,.9,2.49,2.49,0,0,0-1.1,2.3,2.27,2.27,0,0,0,.8,1.9,3.28,3.28,0,0,0,2.1.6,5.24,5.24,0,0,0,3.3-1.1,3.9,3.9,0,0,0,1.3-3.3v-1.4Z" transform="translate(-466 -1217.84)"/><path d="M716.5,1364.1a8.63,8.63,0,0,1-3.6-.8,6.42,6.42,0,0,1-2.4-2.5,9.14,9.14,0,0,1-.9-4.3,10,10,0,0,1,.9-4.5,5.73,5.73,0,0,1,2.5-2.6,7.32,7.32,0,0,1,3.6-.8,16.35,16.35,0,0,1,2.2.2,3.78,3.78,0,0,1,1.7.6l-.7,1.9c-.5-.2-1-.3-1.6-.5a11.14,11.14,0,0,0-1.7-.2,4.41,4.41,0,0,0-2.6.7,3.47,3.47,0,0,0-1.5,2,9.77,9.77,0,0,0-.5,3.2,9.59,9.59,0,0,0,.5,3.1,3.82,3.82,0,0,0,1.5,2,4.09,4.09,0,0,0,2.5.7,6.65,6.65,0,0,0,2.1-.3c.6-.2,1.2-.4,1.7-.6v2a4.92,4.92,0,0,1-1.7.6A12.12,12.12,0,0,1,716.5,1364.1Z" transform="translate(-466 -1217.84)"/><path d="M729.9,1364.1a8.63,8.63,0,0,1-3.6-.8,6.42,6.42,0,0,1-2.4-2.5,9.14,9.14,0,0,1-.9-4.3,10,10,0,0,1,.9-4.5,5.73,5.73,0,0,1,2.5-2.6,7.32,7.32,0,0,1,3.6-.8,16.35,16.35,0,0,1,2.2.2,3.78,3.78,0,0,1,1.7.6l-.7,1.9c-.5-.2-1-.3-1.6-.5a11.14,11.14,0,0,0-1.7-.2,4.41,4.41,0,0,0-2.6.7,3.47,3.47,0,0,0-1.5,2,9.77,9.77,0,0,0-.5,3.2,9.59,9.59,0,0,0,.5,3.1,3.82,3.82,0,0,0,1.5,2,4.09,4.09,0,0,0,2.5.7,6.65,6.65,0,0,0,2.1-.3c.6-.2,1.2-.4,1.7-.6v2a4.92,4.92,0,0,1-1.7.6A12.12,12.12,0,0,1,729.9,1364.1Z" transform="translate(-466 -1217.84)"/><path d="M749.7,1348.8v15h-1.9l-.3-2.1h-.1a3.74,3.74,0,0,1-1.2,1.3,6.71,6.71,0,0,1-1.7.8,6.93,6.93,0,0,1-2,.3,6.68,6.68,0,0,1-3-.6,3.92,3.92,0,0,1-1.8-1.8,6.84,6.84,0,0,1-.6-3.1v-9.8h2.3v9.7a4.45,4.45,0,0,0,.8,2.8,3.42,3.42,0,0,0,2.6.9,5.4,5.4,0,0,0,2.7-.6,3.11,3.11,0,0,0,1.4-1.9,8.72,8.72,0,0,0,.4-3v-7.9Z" transform="translate(-466 -1217.84)"/><path d="M761.3,1348.5h.9c.3,0,.6.1.9.1l-.3,2.1c-.2-.1-.5-.1-.8-.2a2.49,2.49,0,0,0-.8-.1,3.29,3.29,0,0,0-1.7.4,7.1,7.1,0,0,0-1.4,1,5.07,5.07,0,0,0-.9,1.6,6.65,6.65,0,0,0-.3,2.1v8h-2.3v-15h1.9l.2,2.8h.1a6.12,6.12,0,0,1,2.6-2.6C759.9,1348.7,760.5,1348.5,761.3,1348.5Z" transform="translate(-466 -1217.84)"/><path d="M771.5,1348.6a5.8,5.8,0,0,1,4,1.2,4.87,4.87,0,0,1,1.3,3.8v10.2h-1.7l-.4-2.2h-.1a17.88,17.88,0,0,1-1.3,1.4,4.81,4.81,0,0,1-1.6.8,6.87,6.87,0,0,1-2.2.3,6,6,0,0,1-2.4-.5,3.91,3.91,0,0,1-1.7-1.4,4.63,4.63,0,0,1-.6-2.5,3.81,3.81,0,0,1,1.8-3.4,10.69,10.69,0,0,1,5.4-1.3l2.6-.1v-.9a3.78,3.78,0,0,0-.8-2.7,3.46,3.46,0,0,0-2.4-.8,7.8,7.8,0,0,0-2.2.3,11.92,11.92,0,0,0-2,.8l-.7-1.7c.7-.3,1.4-.6,2.3-.9A8,8,0,0,1,771.5,1348.6Zm3,7.8-2.3.1a8.71,8.71,0,0,0-4,.9,2.49,2.49,0,0,0-1.1,2.3,2.27,2.27,0,0,0,.8,1.9,3.28,3.28,0,0,0,2.1.6,5.24,5.24,0,0,0,3.3-1.1,3.9,3.9,0,0,0,1.3-3.3v-1.4Z" transform="translate(-466 -1217.84)"/><path d="M786.3,1362.2a3.75,3.75,0,0,0,1.1-.1c.4-.1.7-.1,1-.2v1.8a8.11,8.11,0,0,1-1.1.3,6.6,6.6,0,0,1-1.4.1,5.38,5.38,0,0,1-2.2-.4,4.28,4.28,0,0,1-1.6-1.4,5.55,5.55,0,0,1-.6-2.8v-8.9h-2.1v-1.1l2.1-.9.9-3.3h1.4v3.5h4.4v1.8h-4.4v8.8a3.28,3.28,0,0,0,.6,2.1A2.81,2.81,0,0,0,786.3,1362.2Z" transform="translate(-466 -1217.84)"/><path d="M797.2,1348.5a6.71,6.71,0,0,1,3.3.8,6.11,6.11,0,0,1,2.1,2.4,8,8,0,0,1,.7,3.6v1.4H793a5.81,5.81,0,0,0,1.3,4,4.59,4.59,0,0,0,3.6,1.4,9.52,9.52,0,0,0,2.5-.3,12.67,12.67,0,0,0,2.3-.8v2a11.09,11.09,0,0,1-2.2.7,10.17,10.17,0,0,1-2.6.2,7.9,7.9,0,0,1-3.8-.9,6.27,6.27,0,0,1-2.5-2.6,8.71,8.71,0,0,1-.9-4.2,10.84,10.84,0,0,1,.8-4.2,5.59,5.59,0,0,1,2.3-2.7A8.51,8.51,0,0,1,797.2,1348.5Zm0,1.9a3.7,3.7,0,0,0-2.9,1.2,6.21,6.21,0,0,0-1.3,3.3h7.9a6.05,6.05,0,0,0-.4-2.4,4,4,0,0,0-1.2-1.6A3.46,3.46,0,0,0,797.2,1350.4Z" transform="translate(-466 -1217.84)"/><path d="M826.6,1363.8l-2.7-8.7c-.1-.4-.2-.7-.3-1.1s-.2-.7-.3-1a2.92,2.92,0,0,1-.2-.9,1.45,1.45,0,0,0-.2-.7h-.1a1.85,1.85,0,0,1-.2.7c-.1.3-.1.6-.2.9s-.2.7-.3,1.1-.2.7-.3,1.1l-2.8,8.7h-2.6l-4.1-15h2.4l2.2,8.3c.1.5.3,1.1.4,1.6l.3,1.5a7.38,7.38,0,0,1,.2,1.2h.1c.1-.2.1-.5.2-.8s.1-.7.2-1,.2-.7.3-1.1.2-.7.3-1l2.8-8.7h2.4l2.7,8.7c.1.4.3.9.4,1.4s.3.9.4,1.4a6,6,0,0,1,.2,1.2h.1a5.16,5.16,0,0,1,.2-1.1l.3-1.5c.1-.5.3-1.1.4-1.7l2.2-8.3h2.3l-4.1,15h-2.6Z" transform="translate(-466 -1217.84)"/><path d="M841.9,1348.5a6.71,6.71,0,0,1,3.3.8,6.11,6.11,0,0,1,2.1,2.4,8,8,0,0,1,.7,3.6v1.4H837.7a5.81,5.81,0,0,0,1.3,4,4.59,4.59,0,0,0,3.6,1.4,9.52,9.52,0,0,0,2.5-.3,12.67,12.67,0,0,0,2.3-.8v2a11.09,11.09,0,0,1-2.2.7,10.17,10.17,0,0,1-2.6.2,7.9,7.9,0,0,1-3.8-.9,6.27,6.27,0,0,1-2.5-2.6,8.71,8.71,0,0,1-.9-4.2,10.84,10.84,0,0,1,.8-4.2,5.59,5.59,0,0,1,2.3-2.7A8.51,8.51,0,0,1,841.9,1348.5Zm0,1.9a3.7,3.7,0,0,0-2.9,1.2,6.21,6.21,0,0,0-1.3,3.3h7.9a6.05,6.05,0,0,0-.4-2.4,4,4,0,0,0-1.2-1.6A3.46,3.46,0,0,0,841.9,1350.4Z" transform="translate(-466 -1217.84)"/><path d="M857.5,1348.6a5.8,5.8,0,0,1,4,1.2,4.87,4.87,0,0,1,1.3,3.8v10.2h-1.7l-.4-2.2h-.1a17.88,17.88,0,0,1-1.3,1.4,4.81,4.81,0,0,1-1.6.8,6.87,6.87,0,0,1-2.2.3,6,6,0,0,1-2.4-.5,3.91,3.91,0,0,1-1.7-1.4,4.63,4.63,0,0,1-.6-2.5,3.81,3.81,0,0,1,1.8-3.4,10.69,10.69,0,0,1,5.4-1.3l2.6-.1v-.9a3.78,3.78,0,0,0-.8-2.7,3.46,3.46,0,0,0-2.4-.8,7.8,7.8,0,0,0-2.2.3,11.92,11.92,0,0,0-2,.8l-.7-1.7c.7-.3,1.4-.6,2.3-.9A8,8,0,0,1,857.5,1348.6Zm3,7.8-2.3.1a8.71,8.71,0,0,0-4,.9,2.49,2.49,0,0,0-1.1,2.3,2.27,2.27,0,0,0,.8,1.9,3.28,3.28,0,0,0,2.1.6,5.24,5.24,0,0,0,3.3-1.1,3.9,3.9,0,0,0,1.3-3.3v-1.4Z" transform="translate(-466 -1217.84)"/><path d="M872.2,1362.2a3.75,3.75,0,0,0,1.1-.1c.4-.1.7-.1,1-.2v1.8a8.11,8.11,0,0,1-1.1.3,6.6,6.6,0,0,1-1.4.1,5.38,5.38,0,0,1-2.2-.4,4.28,4.28,0,0,1-1.6-1.4,5.55,5.55,0,0,1-.6-2.8v-8.9h-2.1v-1.1l2.1-.9.9-3.3h1.4v3.5h4.4v1.8h-4.4v8.8a3.28,3.28,0,0,0,.6,2.1A3,3,0,0,0,872.2,1362.2Z" transform="translate(-466 -1217.84)"/><path d="M879.7,1342.5v7.5c0,.4-.1.7-.1,1h.2a3.74,3.74,0,0,1,1.2-1.3,8,8,0,0,1,1.6-.8,6.28,6.28,0,0,1,1.9-.3,6.68,6.68,0,0,1,3,.6,3.92,3.92,0,0,1,1.8,1.8,6.84,6.84,0,0,1,.6,3.1v9.8h-2.2v-9.6a3.93,3.93,0,0,0-.9-2.8,3.42,3.42,0,0,0-2.6-.9,5.4,5.4,0,0,0-2.7.6,3.11,3.11,0,0,0-1.4,1.9,9.09,9.09,0,0,0-.4,3v7.8h-2.3v-21.3h2.3Z" transform="translate(-466 -1217.84)"/><path d="M900.3,1348.5a6.71,6.71,0,0,1,3.3.8,6.11,6.11,0,0,1,2.1,2.4,8,8,0,0,1,.7,3.6v1.4H896.1a5.81,5.81,0,0,0,1.3,4,4.59,4.59,0,0,0,3.6,1.4,9.52,9.52,0,0,0,2.5-.3,12.67,12.67,0,0,0,2.3-.8v2a11.09,11.09,0,0,1-2.2.7,10.17,10.17,0,0,1-2.6.2,7.9,7.9,0,0,1-3.8-.9,6.27,6.27,0,0,1-2.5-2.6,8.71,8.71,0,0,1-.9-4.2,10.84,10.84,0,0,1,.8-4.2,5.59,5.59,0,0,1,2.3-2.7A8.51,8.51,0,0,1,900.3,1348.5Zm0,1.9a3.7,3.7,0,0,0-2.9,1.2,6.21,6.21,0,0,0-1.3,3.3H904a6.05,6.05,0,0,0-.4-2.4,4,4,0,0,0-1.2-1.6A3.28,3.28,0,0,0,900.3,1350.4Z" transform="translate(-466 -1217.84)"/><path d="M917.1,1348.5h.9c.3,0,.6.1.9.1l-.3,2.1c-.2-.1-.5-.1-.8-.2a2.49,2.49,0,0,0-.8-.1,3.29,3.29,0,0,0-1.7.4,7.1,7.1,0,0,0-1.4,1,5.07,5.07,0,0,0-.9,1.6,6.65,6.65,0,0,0-.3,2.1v8h-2.3v-15h1.9l.2,2.8h.1a6.12,6.12,0,0,1,2.6-2.6C915.7,1348.7,916.4,1348.5,917.1,1348.5Z" transform="translate(-466 -1217.84)"/><path d="M930.2,1343.2a1.28,1.28,0,0,1,1,.4,1.71,1.71,0,0,1,0,2.2,1.78,1.78,0,0,1-1,.4,1.28,1.28,0,0,1-1-.4,1.37,1.37,0,0,1-.4-1.1,1.25,1.25,0,0,1,.4-1.1A1.78,1.78,0,0,1,930.2,1343.2Zm1.1,5.6v15H929v-15Z" transform="translate(-466 -1217.84)"/><path d="M943.2,1348.5a5.36,5.36,0,0,1,4,1.3,5.74,5.74,0,0,1,1.4,4.2v9.8h-2.2v-9.6a3.93,3.93,0,0,0-.9-2.8,3.42,3.42,0,0,0-2.6-.9,4.1,4.1,0,0,0-3.5,1.4,6.71,6.71,0,0,0-1,4.1v7.8h-2.3v-15h1.8l.3,2.2h.1a3.74,3.74,0,0,1,1.2-1.3,6.71,6.71,0,0,1,1.7-.8A4.48,4.48,0,0,1,943.2,1348.5Z" transform="translate(-466 -1217.84)"/><path d="M960.9,1363.8v-20h2.3v20Z" transform="translate(-466 -1217.84)"/><path d="M974.3,1364.1a8.63,8.63,0,0,1-3.6-.8,6.42,6.42,0,0,1-2.4-2.5,9.14,9.14,0,0,1-.9-4.3,10,10,0,0,1,.9-4.5,5.73,5.73,0,0,1,2.5-2.6,7.32,7.32,0,0,1,3.6-.8,16.35,16.35,0,0,1,2.2.2,3.78,3.78,0,0,1,1.7.6l-.7,1.9c-.5-.2-1-.3-1.6-.5a11.14,11.14,0,0,0-1.7-.2,4.41,4.41,0,0,0-2.6.7,3.47,3.47,0,0,0-1.5,2,9.77,9.77,0,0,0-.5,3.2,9.59,9.59,0,0,0,.5,3.1,3.82,3.82,0,0,0,1.5,2,4.09,4.09,0,0,0,2.5.7,6.65,6.65,0,0,0,2.1-.3c.6-.2,1.2-.4,1.7-.6v2a4.92,4.92,0,0,1-1.7.6A11.52,11.52,0,0,1,974.3,1364.1Z" transform="translate(-466 -1217.84)"/><path d="M987.5,1348.5a6.71,6.71,0,0,1,3.3.8,6.11,6.11,0,0,1,2.1,2.4,8,8,0,0,1,.7,3.6v1.4H983.3a5.81,5.81,0,0,0,1.3,4,4.59,4.59,0,0,0,3.6,1.4,9.52,9.52,0,0,0,2.5-.3,12.67,12.67,0,0,0,2.3-.8v2a11.09,11.09,0,0,1-2.2.7,10.17,10.17,0,0,1-2.6.2,7.9,7.9,0,0,1-3.8-.9,6.27,6.27,0,0,1-2.5-2.6,8.71,8.71,0,0,1-.9-4.2,10.84,10.84,0,0,1,.8-4.2,5.59,5.59,0,0,1,2.3-2.7A8.51,8.51,0,0,1,987.5,1348.5Zm0,1.9a3.7,3.7,0,0,0-2.9,1.2,6.21,6.21,0,0,0-1.3,3.3h7.9a6.05,6.05,0,0,0-.4-2.4,4,4,0,0,0-1.2-1.6A3.46,3.46,0,0,0,987.5,1350.4Z" transform="translate(-466 -1217.84)"/><path d="M999.8,1363.8h-2.3v-21.3h2.3Z" transform="translate(-466 -1217.84)"/><path d="M1010.1,1348.6a5.8,5.8,0,0,1,4,1.2,4.87,4.87,0,0,1,1.3,3.8v10.2h-1.7l-.4-2.2h-.1a17.88,17.88,0,0,1-1.3,1.4,4.81,4.81,0,0,1-1.6.8,6.87,6.87,0,0,1-2.2.3,6,6,0,0,1-2.4-.5,3.91,3.91,0,0,1-1.7-1.4,4.63,4.63,0,0,1-.6-2.5,3.81,3.81,0,0,1,1.8-3.4,10.69,10.69,0,0,1,5.4-1.3l2.6-.1v-.9a3.78,3.78,0,0,0-.8-2.7,3.46,3.46,0,0,0-2.4-.8,7.8,7.8,0,0,0-2.2.3,11.92,11.92,0,0,0-2,.8l-.7-1.7c.7-.3,1.4-.6,2.3-.9A8.42,8.42,0,0,1,1010.1,1348.6Zm3.1,7.8-2.3.1a8.71,8.71,0,0,0-4,.9,2.49,2.49,0,0,0-1.1,2.3,2.27,2.27,0,0,0,.8,1.9,3.28,3.28,0,0,0,2.1.6,5.24,5.24,0,0,0,3.3-1.1,3.9,3.9,0,0,0,1.3-3.3v-1.4Z" transform="translate(-466 -1217.84)"/><path d="M1027.2,1348.5a5.36,5.36,0,0,1,4,1.3,5.74,5.74,0,0,1,1.4,4.2v9.8h-2.2v-9.6a3.93,3.93,0,0,0-.9-2.8,3.42,3.42,0,0,0-2.6-.9,4.1,4.1,0,0,0-3.5,1.4,6.71,6.71,0,0,0-1,4.1v7.8h-2.3v-15h1.8l.3,2.2h.1a3.74,3.74,0,0,1,1.2-1.3,6.71,6.71,0,0,1,1.7-.8A4.77,4.77,0,0,1,1027.2,1348.5Z" transform="translate(-466 -1217.84)"/><path d="M1042.6,1364.1a5.55,5.55,0,0,1-4.5-1.9,10.74,10.74,0,0,1,0-11.6,5.62,5.62,0,0,1,4.5-2,6.65,6.65,0,0,1,2.1.3,5.3,5.3,0,0,1,1.5.8,12,12,0,0,1,1.1,1.2h.2c0-.3-.1-.7-.1-1.2s-.1-.9-.1-1.2v-6h2.3v21.3h-1.8l-.3-2.1h-.1a4.15,4.15,0,0,1-1.1,1.2,3.77,3.77,0,0,1-1.5.9A7.8,7.8,0,0,1,1042.6,1364.1Zm.4-1.9a4,4,0,0,0,3.4-1.4,6.71,6.71,0,0,0,1-4.1v-.4a7.75,7.75,0,0,0-1-4.4c-.6-1-1.8-1.5-3.5-1.5a3.37,3.37,0,0,0-3.1,1.6,8,8,0,0,0-1,4.4,7.61,7.61,0,0,0,1,4.3A3.68,3.68,0,0,0,1043,1362.2Z" transform="translate(-466 -1217.84)"/><path d="M1055.9,1358.3v-.7a10.07,10.07,0,0,1,.2-1.9,5.07,5.07,0,0,1,.7-1.5,6.16,6.16,0,0,1,1.4-1.4c.7-.6,1.3-1.1,1.7-1.5a3.81,3.81,0,0,0,.9-1.3,3.34,3.34,0,0,0,.3-1.5,2.79,2.79,0,0,0-.9-2.2,4,4,0,0,0-2.6-.8,8.75,8.75,0,0,0-2.4.3,11.92,11.92,0,0,0-2,.8l-.8-1.8a17.25,17.25,0,0,1,2.4-1,8.85,8.85,0,0,1,2.9-.4,5.78,5.78,0,0,1,4.1,1.3,4.54,4.54,0,0,1,1.4,3.6,5.09,5.09,0,0,1-.4,2.2,6.1,6.1,0,0,1-1.2,1.6c-.5.5-1.1,1-1.8,1.6s-1.1,1-1.4,1.3a7.46,7.46,0,0,0-.7,1.2,6.05,6.05,0,0,0-.2,1.5v.5h-1.6Zm-.6,4.1a2,2,0,0,1,.5-1.4,1.59,1.59,0,0,1,1.2-.4,1.5,1.5,0,0,1,1.1.4,1.81,1.81,0,0,1,.5,1.4,2,2,0,0,1-.5,1.4,1.5,1.5,0,0,1-1.1.4,1.59,1.59,0,0,1-1.2-.4A2,2,0,0,1,1055.3,1362.4Z" transform="translate(-466 -1217.84)"/><path d="M490.9,1435.1l-5.3,20h-2.3l-4-13.5-.3-1.2c-.1-.4-.2-.8-.3-1.1a5.07,5.07,0,0,1-.2-.9,1.76,1.76,0,0,1-.1-.6,3.54,3.54,0,0,0-.1.6c-.1.3-.1.6-.2.9s-.2.7-.3,1.1l-.3,1.2-3.9,13.4h-2.3l-5.3-20h2.4l3.2,12.5.3,1.2.3,1.2c.1.4.1.8.2,1.1s.1.7.2,1.1a4.25,4.25,0,0,1,.2-1.1,5,5,0,0,0,.2-1.2l.3-1.2.3-1.2,3.6-12.4h2.4l3.7,12.5a6.47,6.47,0,0,0,.4,1.3,5.27,5.27,0,0,1,.3,1.2,5.16,5.16,0,0,1,.2,1.1,3.55,3.55,0,0,0,.2,1c.1-.4.1-.9.2-1.4l.3-1.5c.1-.5.3-1.1.4-1.7l3.2-12.5h2.4Z" transform="translate(-466 -1217.84)"/><path d="M496,1433.8v7.5c0,.4-.1.7-.1,1h.2a3.74,3.74,0,0,1,1.2-1.3,8,8,0,0,1,1.6-.8,6.28,6.28,0,0,1,1.9-.3,6.68,6.68,0,0,1,3,.6,3.92,3.92,0,0,1,1.8,1.8,6.84,6.84,0,0,1,.6,3.1v9.8H504v-9.6a3.93,3.93,0,0,0-.9-2.8,3.42,3.42,0,0,0-2.6-.9,5.4,5.4,0,0,0-2.7.6,3.11,3.11,0,0,0-1.4,1.9,9.09,9.09,0,0,0-.4,3v7.8h-2.3v-21.3H496Z" transform="translate(-466 -1217.84)"/><path d="M516.5,1439.9a5.8,5.8,0,0,1,4,1.2,4.87,4.87,0,0,1,1.3,3.8v10.2h-1.7l-.4-2.2h-.1a17.88,17.88,0,0,1-1.3,1.4,4.81,4.81,0,0,1-1.6.8,6.87,6.87,0,0,1-2.2.3,6,6,0,0,1-2.4-.5,3.91,3.91,0,0,1-1.7-1.4,4.63,4.63,0,0,1-.6-2.5,3.81,3.81,0,0,1,1.8-3.4,10.69,10.69,0,0,1,5.4-1.3l2.6-.1v-.9a3.78,3.78,0,0,0-.8-2.7,3.46,3.46,0,0,0-2.4-.8,7.8,7.8,0,0,0-2.2.3,11.92,11.92,0,0,0-2,.8l-.7-1.7c.7-.3,1.4-.6,2.3-.9A8,8,0,0,1,516.5,1439.9Zm3,7.8-2.3.1a8.71,8.71,0,0,0-4,.9,2.49,2.49,0,0,0-1.1,2.3,2.27,2.27,0,0,0,.8,1.9,3.28,3.28,0,0,0,2.1.6,5.24,5.24,0,0,0,3.3-1.1,3.9,3.9,0,0,0,1.3-3.3v-1.4Z" transform="translate(-466 -1217.84)"/><path d="M531.3,1453.5a3.75,3.75,0,0,0,1.1-.1c.4-.1.7-.1,1-.2v1.8a8.11,8.11,0,0,1-1.1.3,6.6,6.6,0,0,1-1.4.1,5.38,5.38,0,0,1-2.2-.4,4.28,4.28,0,0,1-1.6-1.4,5.55,5.55,0,0,1-.6-2.8v-8.9h-2.1v-1.1l2.1-.9.9-3.3h1.4v3.5h4.4v1.8h-4.4v8.8a3.28,3.28,0,0,0,.6,2.1A2.81,2.81,0,0,0,531.3,1453.5Z" transform="translate(-466 -1217.84)"/><path d="M544.9,1434.5a1.28,1.28,0,0,1,1,.4,1.71,1.71,0,0,1,0,2.2,1.78,1.78,0,0,1-1,.4,1.28,1.28,0,0,1-1-.4,1.37,1.37,0,0,1-.4-1.1,1.25,1.25,0,0,1,.4-1.1A1.78,1.78,0,0,1,544.9,1434.5Zm1.1,5.6v15h-2.3v-15Z" transform="translate(-466 -1217.84)"/><path d="M560.5,1451a3.61,3.61,0,0,1-.7,2.4,5.67,5.67,0,0,1-2.1,1.5,7.69,7.69,0,0,1-3.2.5,19.94,19.94,0,0,1-2.7-.2,6.79,6.79,0,0,1-2-.7v-2.1a9.27,9.27,0,0,0,2.2.8,11.71,11.71,0,0,0,2.6.4,5.06,5.06,0,0,0,2.8-.6,2,2,0,0,0,.9-1.7,2,2,0,0,0-.3-1.1,3.09,3.09,0,0,0-1.2-.9c-.6-.3-1.3-.6-2.3-1a20.49,20.49,0,0,1-2.5-1.1,5.34,5.34,0,0,1-1.6-1.3,3.17,3.17,0,0,1-.6-2,3.27,3.27,0,0,1,1.5-2.9,7,7,0,0,1,4-1,10.07,10.07,0,0,1,2.5.3,14.16,14.16,0,0,1,2.2.7l-.8,1.8a11.76,11.76,0,0,0-2-.7,7.61,7.61,0,0,0-2.1-.3,5.05,5.05,0,0,0-2.4.5,1.6,1.6,0,0,0-.8,1.4,1.37,1.37,0,0,0,.4,1.1,3.22,3.22,0,0,0,1.3.8c.6.2,1.3.6,2.3.9a10.76,10.76,0,0,1,2.4,1.1,7,7,0,0,1,1.6,1.3A3.48,3.48,0,0,1,560.5,1451Z" transform="translate(-466 -1217.84)"/><path d="M576.2,1453.5a3.75,3.75,0,0,0,1.1-.1c.4-.1.7-.1,1-.2v1.8a8.11,8.11,0,0,1-1.1.3,6.6,6.6,0,0,1-1.4.1,5.38,5.38,0,0,1-2.2-.4,4.28,4.28,0,0,1-1.6-1.4,5.55,5.55,0,0,1-.6-2.8v-8.9h-2.1v-1.1l2.1-.9.9-3.3h1.4v3.5h4.4v1.8h-4.4v8.8a3.28,3.28,0,0,0,.6,2.1A2.81,2.81,0,0,0,576.2,1453.5Z" transform="translate(-466 -1217.84)"/><path d="M583.6,1433.8v7.5c0,.4-.1.7-.1,1h.2a3.74,3.74,0,0,1,1.2-1.3,8,8,0,0,1,1.6-.8,6.28,6.28,0,0,1,1.9-.3,6.68,6.68,0,0,1,3,.6,3.92,3.92,0,0,1,1.8,1.8,6.84,6.84,0,0,1,.6,3.1v9.8h-2.2v-9.6a3.93,3.93,0,0,0-.9-2.8,3.42,3.42,0,0,0-2.6-.9,5.4,5.4,0,0,0-2.7.6,3.11,3.11,0,0,0-1.4,1.9,9.09,9.09,0,0,0-.4,3v7.8h-2.3v-21.3h2.3Z" transform="translate(-466 -1217.84)"/><path d="M604.3,1439.8a6.71,6.71,0,0,1,3.3.8,6.11,6.11,0,0,1,2.1,2.4,8,8,0,0,1,.7,3.6v1.4H600.1a5.81,5.81,0,0,0,1.3,4,4.59,4.59,0,0,0,3.6,1.4,9.52,9.52,0,0,0,2.5-.3,12.67,12.67,0,0,0,2.3-.8v2a11.09,11.09,0,0,1-2.2.7,10.17,10.17,0,0,1-2.6.2,7.9,7.9,0,0,1-3.8-.9,6.27,6.27,0,0,1-2.5-2.6,8.71,8.71,0,0,1-.9-4.2,10.84,10.84,0,0,1,.8-4.2,5.59,5.59,0,0,1,2.3-2.7A8.51,8.51,0,0,1,604.3,1439.8Zm0,1.9a3.7,3.7,0,0,0-2.9,1.2,6.21,6.21,0,0,0-1.3,3.3H608a6.05,6.05,0,0,0-.4-2.4,4,4,0,0,0-1.2-1.6A3.46,3.46,0,0,0,604.3,1441.7Z" transform="translate(-466 -1217.84)"/><path d="M623.8,1433.8v7.1c0,.6-.1,1-.1,1.3h.1a4.93,4.93,0,0,1,1.8-1.7,6.46,6.46,0,0,1,7.5,1.2,8.73,8.73,0,0,1,1.7,5.8,11,11,0,0,1-.8,4.3,5.17,5.17,0,0,1-2.2,2.6,6,6,0,0,1-3.3.9,5,5,0,0,1-2.9-.7,5.6,5.6,0,0,1-1.8-1.6h-.2l-.5,2h-1.6v-21.3h2.3Zm4.4,7.9a5,5,0,0,0-2.6.6,4,4,0,0,0-1.4,1.9,10,10,0,0,0-.4,3.2v.1a8.35,8.35,0,0,0,.9,4.3,3.71,3.71,0,0,0,3.4,1.5,3.5,3.5,0,0,0,3.1-1.5,10.18,10.18,0,0,0,0-8.8A3.56,3.56,0,0,0,628.2,1441.7Z" transform="translate(-466 -1217.84)"/><path d="M644.4,1439.8a6.71,6.71,0,0,1,3.3.8,6.11,6.11,0,0,1,2.1,2.4,8,8,0,0,1,.7,3.6v1.4H640.2a5.81,5.81,0,0,0,1.3,4,4.59,4.59,0,0,0,3.6,1.4,9.52,9.52,0,0,0,2.5-.3,12.67,12.67,0,0,0,2.3-.8v2a11.09,11.09,0,0,1-2.2.7,10.17,10.17,0,0,1-2.6.2,7.9,7.9,0,0,1-3.8-.9,6.27,6.27,0,0,1-2.5-2.6,8.71,8.71,0,0,1-.9-4.2,10.84,10.84,0,0,1,.8-4.2,5.59,5.59,0,0,1,2.3-2.7A8.51,8.51,0,0,1,644.4,1439.8Zm0,1.9a3.7,3.7,0,0,0-2.9,1.2,6.21,6.21,0,0,0-1.3,3.3h7.9a6.05,6.05,0,0,0-.4-2.4,4,4,0,0,0-1.2-1.6A3.28,3.28,0,0,0,644.4,1441.7Z" transform="translate(-466 -1217.84)"/><path d="M664.1,1451a3.61,3.61,0,0,1-.7,2.4,5.67,5.67,0,0,1-2.1,1.5,7.69,7.69,0,0,1-3.2.5,19.94,19.94,0,0,1-2.7-.2,6.79,6.79,0,0,1-2-.7v-2.1a9.27,9.27,0,0,0,2.2.8,11.71,11.71,0,0,0,2.6.4,5.06,5.06,0,0,0,2.8-.6,2,2,0,0,0,.9-1.7,2,2,0,0,0-.3-1.1,3.09,3.09,0,0,0-1.2-.9c-.6-.3-1.3-.6-2.3-1a20.49,20.49,0,0,1-2.5-1.1,5.34,5.34,0,0,1-1.6-1.3,3.17,3.17,0,0,1-.6-2,3.27,3.27,0,0,1,1.5-2.9,7,7,0,0,1,4-1,10.07,10.07,0,0,1,2.5.3,14.16,14.16,0,0,1,2.2.7l-.8,1.8a11.76,11.76,0,0,0-2-.7,7.61,7.61,0,0,0-2.1-.3,5.05,5.05,0,0,0-2.4.5,1.6,1.6,0,0,0-.8,1.4,1.37,1.37,0,0,0,.4,1.1,3.22,3.22,0,0,0,1.3.8c.6.2,1.3.6,2.3.9a10.76,10.76,0,0,1,2.4,1.1,7,7,0,0,1,1.6,1.3A3.48,3.48,0,0,1,664.1,1451Z" transform="translate(-466 -1217.84)"/><path d="M672.6,1453.5a3.75,3.75,0,0,0,1.1-.1c.4-.1.7-.1,1-.2v1.8a8.11,8.11,0,0,1-1.1.3,6.6,6.6,0,0,1-1.4.1,5.38,5.38,0,0,1-2.2-.4,4.28,4.28,0,0,1-1.6-1.4,5.55,5.55,0,0,1-.6-2.8v-8.9h-2.1v-1.1l2.1-.9.9-3.3h1.4v3.5h4.4v1.8h-4.4v8.8a3.28,3.28,0,0,0,.6,2.1A2.81,2.81,0,0,0,672.6,1453.5Z" transform="translate(-466 -1217.84)"/><path d="M697.2,1455.1l-2.7-8.7c-.1-.4-.2-.7-.3-1.1s-.2-.7-.3-1a2.92,2.92,0,0,1-.2-.9,1.45,1.45,0,0,0-.2-.7h-.1a1.85,1.85,0,0,1-.2.7c-.1.3-.1.6-.2.9s-.2.7-.3,1.1-.2.7-.3,1.1l-2.8,8.7H687l-4.1-15h2.4l2.2,8.3c.1.5.3,1.1.4,1.6l.3,1.5a7.38,7.38,0,0,1,.2,1.2h.1c.1-.2.1-.5.2-.8s.1-.7.2-1,.2-.7.3-1.1.2-.7.3-1l2.8-8.7h2.4l2.7,8.7c.1.4.3.9.4,1.4s.3.9.4,1.4a6,6,0,0,1,.2,1.2h.1a5.16,5.16,0,0,1,.2-1.1l.3-1.5c.1-.5.3-1.1.4-1.7l2.2-8.3h2.3l-4.1,15h-2.6Z" transform="translate(-466 -1217.84)"/><path d="M707.8,1434.5a1.28,1.28,0,0,1,1,.4,1.71,1.71,0,0,1,0,2.2,1.78,1.78,0,0,1-1,.4,1.28,1.28,0,0,1-1-.4,1.37,1.37,0,0,1-.4-1.1,1.25,1.25,0,0,1,.4-1.1A2.11,2.11,0,0,1,707.8,1434.5Zm1.2,5.6v15h-2.3v-15Z" transform="translate(-466 -1217.84)"/><path d="M720.6,1439.8h.9c.3,0,.6.1.9.1l-.3,2.1c-.2-.1-.5-.1-.8-.2a2.49,2.49,0,0,0-.8-.1,3.29,3.29,0,0,0-1.7.4,7.1,7.1,0,0,0-1.4,1,5.07,5.07,0,0,0-.9,1.6,6.65,6.65,0,0,0-.3,2.1v8h-2.3v-15h1.9l.2,2.8h.1a6.12,6.12,0,0,1,2.6-2.6C719.2,1440,719.8,1439.8,720.6,1439.8Z" transform="translate(-466 -1217.84)"/><path d="M731,1439.8a6.71,6.71,0,0,1,3.3.8,6.11,6.11,0,0,1,2.1,2.4,8,8,0,0,1,.7,3.6v1.4H726.8a5.81,5.81,0,0,0,1.3,4,4.59,4.59,0,0,0,3.6,1.4,9.52,9.52,0,0,0,2.5-.3,12.67,12.67,0,0,0,2.3-.8v2a11.09,11.09,0,0,1-2.2.7,10.17,10.17,0,0,1-2.6.2,7.9,7.9,0,0,1-3.8-.9,6.27,6.27,0,0,1-2.5-2.6,8.71,8.71,0,0,1-.9-4.2,10.84,10.84,0,0,1,.8-4.2,5.59,5.59,0,0,1,2.3-2.7A8.11,8.11,0,0,1,731,1439.8Zm-.1,1.9a3.7,3.7,0,0,0-2.9,1.2,6.21,6.21,0,0,0-1.3,3.3h7.9a6.05,6.05,0,0,0-.4-2.4,4,4,0,0,0-1.2-1.6A3.28,3.28,0,0,0,730.9,1441.7Z" transform="translate(-466 -1217.84)"/><path d="M743.2,1455.1h-2.3v-21.3h2.3Z" transform="translate(-466 -1217.84)"/><path d="M753.8,1439.8a6.71,6.71,0,0,1,3.3.8,6.11,6.11,0,0,1,2.1,2.4,8,8,0,0,1,.7,3.6v1.4H749.6a5.81,5.81,0,0,0,1.3,4,4.59,4.59,0,0,0,3.6,1.4,9.52,9.52,0,0,0,2.5-.3,12.67,12.67,0,0,0,2.3-.8v2a11.09,11.09,0,0,1-2.2.7,10.17,10.17,0,0,1-2.6.2,7.9,7.9,0,0,1-3.8-.9,6.27,6.27,0,0,1-2.5-2.6,8.71,8.71,0,0,1-.9-4.2,10.84,10.84,0,0,1,.8-4.2,5.59,5.59,0,0,1,2.3-2.7A7.73,7.73,0,0,1,753.8,1439.8Zm-.1,1.9a3.7,3.7,0,0,0-2.9,1.2,6.21,6.21,0,0,0-1.3,3.3h7.9a6.05,6.05,0,0,0-.4-2.4,4,4,0,0,0-1.2-1.6A3.28,3.28,0,0,0,753.7,1441.7Z" transform="translate(-466 -1217.84)"/><path d="M773.4,1451a3.61,3.61,0,0,1-.7,2.4,5.67,5.67,0,0,1-2.1,1.5,7.69,7.69,0,0,1-3.2.5,19.94,19.94,0,0,1-2.7-.2,6.79,6.79,0,0,1-2-.7v-2.1a9.27,9.27,0,0,0,2.2.8,11.71,11.71,0,0,0,2.6.4,5.06,5.06,0,0,0,2.8-.6,2,2,0,0,0,.9-1.7,2,2,0,0,0-.3-1.1,3.09,3.09,0,0,0-1.2-.9c-.6-.3-1.3-.6-2.3-1a20.49,20.49,0,0,1-2.5-1.1,5.34,5.34,0,0,1-1.6-1.3,3.17,3.17,0,0,1-.6-2,3.27,3.27,0,0,1,1.5-2.9,7,7,0,0,1,4-1,10.07,10.07,0,0,1,2.5.3,14.16,14.16,0,0,1,2.2.7l-.8,1.8a11.76,11.76,0,0,0-2-.7,7.61,7.61,0,0,0-2.1-.3,5.05,5.05,0,0,0-2.4.5,1.6,1.6,0,0,0-.8,1.4,1.37,1.37,0,0,0,.4,1.1,3.22,3.22,0,0,0,1.3.8c.6.2,1.3.6,2.3.9a10.76,10.76,0,0,1,2.4,1.1,7,7,0,0,1,1.6,1.3A3.48,3.48,0,0,1,773.4,1451Z" transform="translate(-466 -1217.84)"/><path d="M786.7,1451a3.61,3.61,0,0,1-.7,2.4,5.67,5.67,0,0,1-2.1,1.5,7.69,7.69,0,0,1-3.2.5,19.94,19.94,0,0,1-2.7-.2,6.79,6.79,0,0,1-2-.7v-2.1a9.27,9.27,0,0,0,2.2.8,11.71,11.71,0,0,0,2.6.4,5.06,5.06,0,0,0,2.8-.6,2,2,0,0,0,.9-1.7,2,2,0,0,0-.3-1.1,3.09,3.09,0,0,0-1.2-.9c-.6-.3-1.3-.6-2.3-1a20.49,20.49,0,0,1-2.5-1.1,5.34,5.34,0,0,1-1.6-1.3,3.17,3.17,0,0,1-.6-2,3.27,3.27,0,0,1,1.5-2.9,7,7,0,0,1,4-1,10.07,10.07,0,0,1,2.5.3,14.16,14.16,0,0,1,2.2.7l-.8,1.8a11.76,11.76,0,0,0-2-.7,7.61,7.61,0,0,0-2.1-.3,5.05,5.05,0,0,0-2.4.5,1.6,1.6,0,0,0-.8,1.4,1.37,1.37,0,0,0,.4,1.1,3.22,3.22,0,0,0,1.3.8c.6.2,1.3.6,2.3.9a10.76,10.76,0,0,1,2.4,1.1,7,7,0,0,1,1.6,1.3A3.48,3.48,0,0,1,786.7,1451Z" transform="translate(-466 -1217.84)"/><path d="M809.9,1455.1l-2.7-8.7c-.1-.4-.2-.7-.3-1.1s-.2-.7-.3-1a2.92,2.92,0,0,1-.2-.9,1.45,1.45,0,0,0-.2-.7h-.1a1.85,1.85,0,0,1-.2.7c-.1.3-.1.6-.2.9s-.2.7-.3,1.1-.2.7-.3,1.1l-2.8,8.7h-2.6l-4.1-15H798l2.2,8.3c.1.5.3,1.1.4,1.6l.3,1.5a7.38,7.38,0,0,1,.2,1.2h.1c.1-.2.1-.5.2-.8s.1-.7.2-1,.2-.7.3-1.1.2-.7.3-1l2.8-8.7h2.4l2.7,8.7c.1.4.3.9.4,1.4s.3.9.4,1.4a6,6,0,0,1,.2,1.2h.1a5.16,5.16,0,0,1,.2-1.1l.3-1.5c.1-.5.3-1.1.4-1.7l2.2-8.3h2.3l-4.1,15h-2.6Z" transform="translate(-466 -1217.84)"/><path d="M825.1,1439.8a6.71,6.71,0,0,1,3.3.8,6.11,6.11,0,0,1,2.1,2.4,8,8,0,0,1,.7,3.6v1.4H820.9a5.81,5.81,0,0,0,1.3,4,4.59,4.59,0,0,0,3.6,1.4,9.52,9.52,0,0,0,2.5-.3,12.67,12.67,0,0,0,2.3-.8v2a11.09,11.09,0,0,1-2.2.7,10.17,10.17,0,0,1-2.6.2,7.9,7.9,0,0,1-3.8-.9,6.27,6.27,0,0,1-2.5-2.6,8.71,8.71,0,0,1-.9-4.2,10.84,10.84,0,0,1,.8-4.2,5.59,5.59,0,0,1,2.3-2.7A8.51,8.51,0,0,1,825.1,1439.8Zm0,1.9a3.7,3.7,0,0,0-2.9,1.2,6.21,6.21,0,0,0-1.3,3.3h7.9a6.05,6.05,0,0,0-.4-2.4,4,4,0,0,0-1.2-1.6A3.28,3.28,0,0,0,825.1,1441.7Z" transform="translate(-466 -1217.84)"/><path d="M840.7,1439.9a5.8,5.8,0,0,1,4,1.2,4.87,4.87,0,0,1,1.3,3.8v10.2h-1.7l-.4-2.2h-.1a17.88,17.88,0,0,1-1.3,1.4,4.81,4.81,0,0,1-1.6.8,6.87,6.87,0,0,1-2.2.3,6,6,0,0,1-2.4-.5,3.91,3.91,0,0,1-1.7-1.4,4.63,4.63,0,0,1-.6-2.5,3.81,3.81,0,0,1,1.8-3.4,10.69,10.69,0,0,1,5.4-1.3l2.6-.1v-.9a3.78,3.78,0,0,0-.8-2.7,3.46,3.46,0,0,0-2.4-.8,7.8,7.8,0,0,0-2.2.3,11.92,11.92,0,0,0-2,.8l-.7-1.7c.7-.3,1.4-.6,2.3-.9A8,8,0,0,1,840.7,1439.9Zm3,7.8-2.3.1a8.71,8.71,0,0,0-4,.9,2.49,2.49,0,0,0-1.1,2.3,2.27,2.27,0,0,0,.8,1.9,3.28,3.28,0,0,0,2.1.6,5.24,5.24,0,0,0,3.3-1.1,3.9,3.9,0,0,0,1.3-3.3v-1.4Z" transform="translate(-466 -1217.84)"/><path d="M855.5,1453.5a3.75,3.75,0,0,0,1.1-.1c.4-.1.7-.1,1-.2v1.8a8.11,8.11,0,0,1-1.1.3,6.6,6.6,0,0,1-1.4.1,5.38,5.38,0,0,1-2.2-.4,4.28,4.28,0,0,1-1.6-1.4,5.55,5.55,0,0,1-.6-2.8v-8.9h-2.1v-1.1l2.1-.9.9-3.3H853v3.5h4.4v1.8H853v8.8a3.28,3.28,0,0,0,.6,2.1A2.81,2.81,0,0,0,855.5,1453.5Z" transform="translate(-466 -1217.84)"/><path d="M862.9,1433.8v7.5c0,.4-.1.7-.1,1h.2a3.74,3.74,0,0,1,1.2-1.3,8,8,0,0,1,1.6-.8,6.28,6.28,0,0,1,1.9-.3,6.68,6.68,0,0,1,3,.6,3.92,3.92,0,0,1,1.8,1.8,6.84,6.84,0,0,1,.6,3.1v9.8h-2.2v-9.6a3.93,3.93,0,0,0-.9-2.8,3.42,3.42,0,0,0-2.6-.9,5.4,5.4,0,0,0-2.7.6,3.11,3.11,0,0,0-1.4,1.9,9.09,9.09,0,0,0-.4,3v7.8h-2.3v-21.3h2.3Z" transform="translate(-466 -1217.84)"/><path d="M883.6,1439.8a6.71,6.71,0,0,1,3.3.8,6.11,6.11,0,0,1,2.1,2.4,8,8,0,0,1,.7,3.6v1.4H879.4a5.81,5.81,0,0,0,1.3,4,4.59,4.59,0,0,0,3.6,1.4,9.52,9.52,0,0,0,2.5-.3,12.67,12.67,0,0,0,2.3-.8v2a11.09,11.09,0,0,1-2.2.7,10.17,10.17,0,0,1-2.6.2,7.9,7.9,0,0,1-3.8-.9,6.27,6.27,0,0,1-2.5-2.6,8.71,8.71,0,0,1-.9-4.2,10.84,10.84,0,0,1,.8-4.2,5.59,5.59,0,0,1,2.3-2.7A8.11,8.11,0,0,1,883.6,1439.8Zm-.1,1.9a3.7,3.7,0,0,0-2.9,1.2,6.21,6.21,0,0,0-1.3,3.3h7.9a6.05,6.05,0,0,0-.4-2.4,4,4,0,0,0-1.2-1.6A3.28,3.28,0,0,0,883.5,1441.7Z" transform="translate(-466 -1217.84)"/><path d="M900.3,1439.8h.9c.3,0,.6.1.9.1l-.3,2.1c-.2-.1-.5-.1-.8-.2a2.49,2.49,0,0,0-.8-.1,3.29,3.29,0,0,0-1.7.4,7.1,7.1,0,0,0-1.4,1,5.07,5.07,0,0,0-.9,1.6,6.65,6.65,0,0,0-.3,2.1v8h-2.3v-15h1.9l.2,2.8h.1a6.12,6.12,0,0,1,2.6-2.6C899,1440,899.6,1439.8,900.3,1439.8Z" transform="translate(-466 -1217.84)"/><path d="M921.9,1451a3.61,3.61,0,0,1-.7,2.4,5.67,5.67,0,0,1-2.1,1.5,7.69,7.69,0,0,1-3.2.5,19.94,19.94,0,0,1-2.7-.2,6.79,6.79,0,0,1-2-.7v-2.1a9.27,9.27,0,0,0,2.2.8,11.71,11.71,0,0,0,2.6.4,5.06,5.06,0,0,0,2.8-.6,2,2,0,0,0,.9-1.7,2,2,0,0,0-.3-1.1,3.09,3.09,0,0,0-1.2-.9c-.6-.3-1.3-.6-2.3-1a20.49,20.49,0,0,1-2.5-1.1,5.34,5.34,0,0,1-1.6-1.3,3.17,3.17,0,0,1-.6-2,3.27,3.27,0,0,1,1.5-2.9,7,7,0,0,1,4-1,10.07,10.07,0,0,1,2.5.3,14.16,14.16,0,0,1,2.2.7l-.8,1.8a11.76,11.76,0,0,0-2-.7,7.61,7.61,0,0,0-2.1-.3,5.05,5.05,0,0,0-2.4.5,1.6,1.6,0,0,0-.8,1.4,1.37,1.37,0,0,0,.4,1.1,3.22,3.22,0,0,0,1.3.8c.6.2,1.3.6,2.3.9a10.76,10.76,0,0,1,2.4,1.1,7,7,0,0,1,1.6,1.3A3.48,3.48,0,0,1,921.9,1451Z" transform="translate(-466 -1217.84)"/><path d="M930.4,1453.5a3.75,3.75,0,0,0,1.1-.1c.4-.1.7-.1,1-.2v1.8a8.11,8.11,0,0,1-1.1.3,6.6,6.6,0,0,1-1.4.1,5.38,5.38,0,0,1-2.2-.4,4.28,4.28,0,0,1-1.6-1.4,5.55,5.55,0,0,1-.6-2.8v-8.9h-2.1v-1.1l2.1-.9.9-3.3h1.4v3.5h4.4v1.8H928v8.8a3.28,3.28,0,0,0,.6,2.1A2.41,2.41,0,0,0,930.4,1453.5Z" transform="translate(-466 -1217.84)"/><path d="M941.2,1439.9a5.8,5.8,0,0,1,4,1.2,4.87,4.87,0,0,1,1.3,3.8v10.2h-1.7l-.4-2.2h-.1a17.88,17.88,0,0,1-1.3,1.4,4.81,4.81,0,0,1-1.6.8,6.87,6.87,0,0,1-2.2.3,6,6,0,0,1-2.4-.5,3.91,3.91,0,0,1-1.7-1.4,4.63,4.63,0,0,1-.6-2.5,3.81,3.81,0,0,1,1.8-3.4,10.69,10.69,0,0,1,5.4-1.3l2.6-.1v-.9a3.78,3.78,0,0,0-.8-2.7,3.46,3.46,0,0,0-2.4-.8,7.8,7.8,0,0,0-2.2.3,11.92,11.92,0,0,0-2,.8l-.7-1.7c.7-.3,1.4-.6,2.3-.9A8,8,0,0,1,941.2,1439.9Zm3,7.8-2.3.1a8.71,8.71,0,0,0-4,.9,2.49,2.49,0,0,0-1.1,2.3,2.27,2.27,0,0,0,.8,1.9,3.28,3.28,0,0,0,2.1.6,5.24,5.24,0,0,0,3.3-1.1,3.9,3.9,0,0,0,1.3-3.3v-1.4Z" transform="translate(-466 -1217.84)"/><path d="M956,1453.5a3.75,3.75,0,0,0,1.1-.1c.4-.1.7-.1,1-.2v1.8a8.11,8.11,0,0,1-1.1.3,6.6,6.6,0,0,1-1.4.1,5.38,5.38,0,0,1-2.2-.4,4.28,4.28,0,0,1-1.6-1.4,5.55,5.55,0,0,1-.6-2.8v-8.9h-2.1v-1.1l2.1-.9.9-3.3h1.4v3.5h4.4v1.8h-4.4v8.8a3.28,3.28,0,0,0,.6,2.1A2.64,2.64,0,0,0,956,1453.5Z" transform="translate(-466 -1217.84)"/><path d="M962.3,1434.5a1.28,1.28,0,0,1,1,.4,1.71,1.71,0,0,1,0,2.2,1.78,1.78,0,0,1-1,.4,1.28,1.28,0,0,1-1-.4,1.37,1.37,0,0,1-.4-1.1,1.25,1.25,0,0,1,.4-1.1A1.78,1.78,0,0,1,962.3,1434.5Zm1.1,5.6v15h-2.3v-15Z" transform="translate(-466 -1217.84)"/><path d="M981.1,1447.6a11.42,11.42,0,0,1-.5,3.3,5.66,5.66,0,0,1-1.4,2.4,5.74,5.74,0,0,1-2.2,1.5,6.82,6.82,0,0,1-2.9.5,8.68,8.68,0,0,1-2.8-.5,5.74,5.74,0,0,1-2.2-1.5,7.22,7.22,0,0,1-1.4-2.4,11.42,11.42,0,0,1-.5-3.3,10.84,10.84,0,0,1,.8-4.2,6.08,6.08,0,0,1,2.4-2.6,7.24,7.24,0,0,1,3.7-.9,6.87,6.87,0,0,1,3.6.9,6.71,6.71,0,0,1,2.4,2.6A7.69,7.69,0,0,1,981.1,1447.6Zm-11.4,0a9.59,9.59,0,0,0,.5,3.1,4.08,4.08,0,0,0,1.5,2.1,4.21,4.21,0,0,0,2.6.7,4.41,4.41,0,0,0,2.6-.7,4.08,4.08,0,0,0,1.5-2.1,9.86,9.86,0,0,0,0-6.2,3.82,3.82,0,0,0-1.5-2,4.21,4.21,0,0,0-2.6-.7,3.82,3.82,0,0,0-3.4,1.5A7.33,7.33,0,0,0,969.7,1447.6Z" transform="translate(-466 -1217.84)"/><path d="M992.1,1439.8a5.36,5.36,0,0,1,4,1.3,5.74,5.74,0,0,1,1.4,4.2v9.8h-2.2v-9.6a3.93,3.93,0,0,0-.9-2.8,3.42,3.42,0,0,0-2.6-.9,4.1,4.1,0,0,0-3.5,1.4,6.71,6.71,0,0,0-1,4.1v7.8H985v-15h1.8l.3,2.2h.1a3.74,3.74,0,0,1,1.2-1.3,6.71,6.71,0,0,1,1.7-.8A4.77,4.77,0,0,1,992.1,1439.8Z" transform="translate(-466 -1217.84)"/><path d="M1003.7,1449.5v-.7a10.07,10.07,0,0,1,.2-1.9,5.07,5.07,0,0,1,.7-1.5,6.16,6.16,0,0,1,1.4-1.4c.7-.6,1.3-1.1,1.7-1.5a3.81,3.81,0,0,0,.9-1.3,3.34,3.34,0,0,0,.3-1.5,2.79,2.79,0,0,0-.9-2.2,4,4,0,0,0-2.6-.8,8.75,8.75,0,0,0-2.4.3,11.92,11.92,0,0,0-2,.8l-.8-1.8a17.25,17.25,0,0,1,2.4-1,8.85,8.85,0,0,1,2.9-.4,5.78,5.78,0,0,1,4.1,1.3,4.54,4.54,0,0,1,1.4,3.6,5.09,5.09,0,0,1-.4,2.2,6.1,6.1,0,0,1-1.2,1.6c-.5.5-1.1,1-1.8,1.6s-1.1,1-1.4,1.3a7.46,7.46,0,0,0-.7,1.2,6.05,6.05,0,0,0-.2,1.5v.5h-1.6Zm-.6,4.2a2,2,0,0,1,.5-1.4,1.59,1.59,0,0,1,1.2-.4,1.5,1.5,0,0,1,1.1.4,1.81,1.81,0,0,1,.5,1.4,2,2,0,0,1-.5,1.4,1.5,1.5,0,0,1-1.1.4,1.59,1.59,0,0,1-1.2-.4A2,2,0,0,1,1003.1,1453.7Z" transform="translate(-466 -1217.84)"/><path d="M482.2,1546.7h-2.3v-9.4H469.4v9.4h-2.3v-20h2.3v8.5h10.5v-8.5h2.3Z" transform="translate(-466 -1217.84)"/><path d="M500.3,1539.2a11.42,11.42,0,0,1-.5,3.3,5.66,5.66,0,0,1-1.4,2.4,5.74,5.74,0,0,1-2.2,1.5,6.82,6.82,0,0,1-2.9.5,8.68,8.68,0,0,1-2.8-.5,5.74,5.74,0,0,1-2.2-1.5,7.22,7.22,0,0,1-1.4-2.4,11.42,11.42,0,0,1-.5-3.3,10.84,10.84,0,0,1,.8-4.2,6.08,6.08,0,0,1,2.4-2.6,7.24,7.24,0,0,1,3.7-.9,6.87,6.87,0,0,1,3.6.9,6.71,6.71,0,0,1,2.4,2.6A7.69,7.69,0,0,1,500.3,1539.2Zm-11.4,0a9.59,9.59,0,0,0,.5,3.1,4.08,4.08,0,0,0,1.5,2.1,4.21,4.21,0,0,0,2.6.7,4.41,4.41,0,0,0,2.6-.7,4.08,4.08,0,0,0,1.5-2.1,9.86,9.86,0,0,0,0-6.2,3.82,3.82,0,0,0-1.5-2,4.21,4.21,0,0,0-2.6-.7,3.82,3.82,0,0,0-3.4,1.5A7.33,7.33,0,0,0,488.9,1539.2Z" transform="translate(-466 -1217.84)"/><path d="M516.4,1546.6l-2.7-8.7c-.1-.4-.2-.7-.3-1.1s-.2-.7-.3-1a2.92,2.92,0,0,1-.2-.9,1.45,1.45,0,0,0-.2-.7h-.1a1.85,1.85,0,0,1-.2.7c-.1.3-.1.6-.2.9s-.2.7-.3,1.1-.2.7-.3,1.1l-2.8,8.7h-2.6l-4.1-15h2.4l2.2,8.3c.1.5.3,1.1.4,1.6l.3,1.5a7.38,7.38,0,0,1,.2,1.2h.1c.1-.2.1-.5.2-.8s.1-.7.2-1,.2-.7.3-1.1.2-.7.3-1l2.8-8.7h2.4l2.7,8.7c.1.4.3.9.4,1.4s.3.9.4,1.4a6,6,0,0,1,.2,1.2h.1a5.16,5.16,0,0,1,.2-1.1l.3-1.5c.1-.5.3-1.1.4-1.7l2.2-8.3h2.3l-4.1,15h-2.6Z" transform="translate(-466 -1217.84)"/><path d="M538.5,1546.9a5.55,5.55,0,0,1-4.5-1.9,10.74,10.74,0,0,1,0-11.6,5.62,5.62,0,0,1,4.5-2,6.65,6.65,0,0,1,2.1.3,5.3,5.3,0,0,1,1.5.8,12,12,0,0,1,1.1,1.2h.2c0-.3-.1-.7-.1-1.2s-.1-.9-.1-1.2v-6h2.3v21.3h-1.8l-.3-2.1h-.1a4.15,4.15,0,0,1-1.1,1.2,3.77,3.77,0,0,1-1.5.9A7.8,7.8,0,0,1,538.5,1546.9Zm.4-1.8a4,4,0,0,0,3.4-1.4,6.71,6.71,0,0,0,1-4.1v-.4a7.75,7.75,0,0,0-1-4.4c-.6-1-1.8-1.5-3.5-1.5a3.37,3.37,0,0,0-3.1,1.6,8,8,0,0,0-1,4.4,7.61,7.61,0,0,0,1,4.3A3.68,3.68,0,0,0,538.9,1545.1Z" transform="translate(-466 -1217.84)"/><path d="M563.2,1539.2a11.42,11.42,0,0,1-.5,3.3,5.66,5.66,0,0,1-1.4,2.4,5.74,5.74,0,0,1-2.2,1.5,6.82,6.82,0,0,1-2.9.5,8.68,8.68,0,0,1-2.8-.5,5.74,5.74,0,0,1-2.2-1.5,7.22,7.22,0,0,1-1.4-2.4,11.42,11.42,0,0,1-.5-3.3,10.84,10.84,0,0,1,.8-4.2,6.08,6.08,0,0,1,2.4-2.6,7.24,7.24,0,0,1,3.7-.9,6.87,6.87,0,0,1,3.6.9,6.71,6.71,0,0,1,2.4,2.6A7.69,7.69,0,0,1,563.2,1539.2Zm-11.4,0a9.59,9.59,0,0,0,.5,3.1,4.08,4.08,0,0,0,1.5,2.1,4.21,4.21,0,0,0,2.6.7,4.41,4.41,0,0,0,2.6-.7,4.08,4.08,0,0,0,1.5-2.1,9.86,9.86,0,0,0,0-6.2,3.82,3.82,0,0,0-1.5-2,4.21,4.21,0,0,0-2.6-.7,3.82,3.82,0,0,0-3.4,1.5A7.33,7.33,0,0,0,551.8,1539.2Z" transform="translate(-466 -1217.84)"/><path d="M581.2,1531.4h.9c.3,0,.6.1.9.1l-.3,2.1c-.2-.1-.5-.1-.8-.2a2.49,2.49,0,0,0-.8-.1,3.29,3.29,0,0,0-1.7.4,7.1,7.1,0,0,0-1.4,1,5.07,5.07,0,0,0-.9,1.6,6.65,6.65,0,0,0-.3,2.1v8h-2.3v-15h1.9l.2,2.8h.1a6.12,6.12,0,0,1,2.6-2.6C579.9,1531.6,580.5,1531.4,581.2,1531.4Z" transform="translate(-466 -1217.84)"/><path d="M591.6,1531.4a6.71,6.71,0,0,1,3.3.8,6.11,6.11,0,0,1,2.1,2.4,8,8,0,0,1,.7,3.6v1.4H587.4a5.81,5.81,0,0,0,1.3,4,4.59,4.59,0,0,0,3.6,1.4,9.52,9.52,0,0,0,2.5-.3,12.67,12.67,0,0,0,2.3-.8v2a11.09,11.09,0,0,1-2.2.7,10.17,10.17,0,0,1-2.6.2,7.9,7.9,0,0,1-3.8-.9,6.27,6.27,0,0,1-2.5-2.6,8.71,8.71,0,0,1-.9-4.2,10.84,10.84,0,0,1,.8-4.2,5.59,5.59,0,0,1,2.3-2.7A7.12,7.12,0,0,1,591.6,1531.4Zm0,1.9a3.7,3.7,0,0,0-2.9,1.2,6.21,6.21,0,0,0-1.3,3.3h7.9a6.05,6.05,0,0,0-.4-2.4,4,4,0,0,0-1.2-1.6A3.28,3.28,0,0,0,591.6,1533.3Z" transform="translate(-466 -1217.84)"/><path d="M617.9,1531.4a4.78,4.78,0,0,1,3.7,1.3,5.91,5.91,0,0,1,1.3,4.1v9.8h-2.2v-9.7a4.14,4.14,0,0,0-.8-2.7,2.87,2.87,0,0,0-2.3-.9,3.82,3.82,0,0,0-3.2,1.3,5.82,5.82,0,0,0-1,3.7v8.4h-2.3V1537a5.62,5.62,0,0,0-.3-2,2.94,2.94,0,0,0-1-1.2,3.06,3.06,0,0,0-1.7-.4,4.27,4.27,0,0,0-2.4.6,3.52,3.52,0,0,0-1.3,1.8,8.72,8.72,0,0,0-.4,3v7.9h-2.3v-15h1.8l.3,2.1h.1a4.73,4.73,0,0,1,1.1-1.3,5.48,5.48,0,0,1,1.5-.8,5.66,5.66,0,0,1,1.8-.3,6.53,6.53,0,0,1,2.9.6,3.94,3.94,0,0,1,1.7,1.9h.1a4.56,4.56,0,0,1,2-1.9A6.84,6.84,0,0,1,617.9,1531.4Z" transform="translate(-466 -1217.84)"/><path d="M640.4,1539.2a11.42,11.42,0,0,1-.5,3.3,5.66,5.66,0,0,1-1.4,2.4,5.74,5.74,0,0,1-2.2,1.5,6.82,6.82,0,0,1-2.9.5,8.68,8.68,0,0,1-2.8-.5,5.74,5.74,0,0,1-2.2-1.5,7.22,7.22,0,0,1-1.4-2.4,11.42,11.42,0,0,1-.5-3.3,10.84,10.84,0,0,1,.8-4.2,6.08,6.08,0,0,1,2.4-2.6,7.24,7.24,0,0,1,3.7-.9,6.87,6.87,0,0,1,3.6.9,6.71,6.71,0,0,1,2.4,2.6A6.92,6.92,0,0,1,640.4,1539.2Zm-11.4,0a9.59,9.59,0,0,0,.5,3.1,4.08,4.08,0,0,0,1.5,2.1,4.21,4.21,0,0,0,2.6.7,4.41,4.41,0,0,0,2.6-.7,4.08,4.08,0,0,0,1.5-2.1,9.86,9.86,0,0,0,0-6.2,3.82,3.82,0,0,0-1.5-2,4.21,4.21,0,0,0-2.6-.7,3.82,3.82,0,0,0-3.4,1.5A7.33,7.33,0,0,0,629,1539.2Z" transform="translate(-466 -1217.84)"/><path d="M649.2,1545.1a3.75,3.75,0,0,0,1.1-.1c.4-.1.7-.1,1-.2v1.8a8.11,8.11,0,0,1-1.1.3,6.6,6.6,0,0,1-1.4.1,5.38,5.38,0,0,1-2.2-.4,4.28,4.28,0,0,1-1.6-1.4,5.55,5.55,0,0,1-.6-2.8v-8.9h-2.1v-1.1l2.1-.9.9-3.3h1.4v3.5h4.4v1.8h-4.4v8.8a3.28,3.28,0,0,0,.6,2.1A2.81,2.81,0,0,0,649.2,1545.1Z" transform="translate(-466 -1217.84)"/><path d="M660.1,1531.4a6.71,6.71,0,0,1,3.3.8,6.11,6.11,0,0,1,2.1,2.4,8,8,0,0,1,.7,3.6v1.4H655.9a5.81,5.81,0,0,0,1.3,4,4.59,4.59,0,0,0,3.6,1.4,9.52,9.52,0,0,0,2.5-.3,12.67,12.67,0,0,0,2.3-.8v2a11.09,11.09,0,0,1-2.2.7,10.17,10.17,0,0,1-2.6.2,7.9,7.9,0,0,1-3.8-.9,6.27,6.27,0,0,1-2.5-2.6,8.71,8.71,0,0,1-.9-4.2,10.84,10.84,0,0,1,.8-4.2,5.59,5.59,0,0,1,2.3-2.7A7.12,7.12,0,0,1,660.1,1531.4Zm0,1.9a3.7,3.7,0,0,0-2.9,1.2,6.21,6.21,0,0,0-1.3,3.3h7.9a6.05,6.05,0,0,0-.4-2.4,4,4,0,0,0-1.2-1.6A3.46,3.46,0,0,0,660.1,1533.3Z" transform="translate(-466 -1217.84)"/><path d="M689.5,1546.6l-2.7-8.7c-.1-.4-.2-.7-.3-1.1s-.2-.7-.3-1a2.92,2.92,0,0,1-.2-.9,1.45,1.45,0,0,0-.2-.7h-.1a1.85,1.85,0,0,1-.2.7c-.1.3-.1.6-.2.9s-.2.7-.3,1.1-.2.7-.3,1.1l-2.8,8.7h-2.6l-4.1-15h2.4l2.2,8.3c.1.5.3,1.1.4,1.6l.3,1.5a7.38,7.38,0,0,1,.2,1.2h.1c.1-.2.1-.5.2-.8s.1-.7.2-1,.2-.7.3-1.1.2-.7.3-1l2.8-8.7H687l2.7,8.7c.1.4.3.9.4,1.4s.3.9.4,1.4a6,6,0,0,1,.2,1.2h.1a5.16,5.16,0,0,1,.2-1.1l.3-1.5c.1-.5.3-1.1.4-1.7l2.2-8.3h2.3l-4.1,15h-2.6Z" transform="translate(-466 -1217.84)"/><path d="M704.8,1531.4a6.71,6.71,0,0,1,3.3.8,6.11,6.11,0,0,1,2.1,2.4,8,8,0,0,1,.7,3.6v1.4H700.6a5.81,5.81,0,0,0,1.3,4,4.59,4.59,0,0,0,3.6,1.4,9.52,9.52,0,0,0,2.5-.3,12.67,12.67,0,0,0,2.3-.8v2a11.09,11.09,0,0,1-2.2.7,10.17,10.17,0,0,1-2.6.2,7.9,7.9,0,0,1-3.8-.9,6.27,6.27,0,0,1-2.5-2.6,8.71,8.71,0,0,1-.9-4.2,10.84,10.84,0,0,1,.8-4.2,5.59,5.59,0,0,1,2.3-2.7A7.12,7.12,0,0,1,704.8,1531.4Zm0,1.9a3.7,3.7,0,0,0-2.9,1.2,6.21,6.21,0,0,0-1.3,3.3h7.9a6.05,6.05,0,0,0-.4-2.4,4,4,0,0,0-1.2-1.6A3.46,3.46,0,0,0,704.8,1533.3Z" transform="translate(-466 -1217.84)"/><path d="M720.4,1531.4a5.8,5.8,0,0,1,4,1.2,4.87,4.87,0,0,1,1.3,3.8v10.2H724l-.4-2.2h-.1a17.88,17.88,0,0,1-1.3,1.4,4.81,4.81,0,0,1-1.6.8,6.87,6.87,0,0,1-2.2.3,6,6,0,0,1-2.4-.5,3.91,3.91,0,0,1-1.7-1.4,4.63,4.63,0,0,1-.6-2.5,3.81,3.81,0,0,1,1.8-3.4,10.69,10.69,0,0,1,5.4-1.3l2.6-.1v-.9a3.78,3.78,0,0,0-.8-2.7,3.46,3.46,0,0,0-2.4-.8,7.8,7.8,0,0,0-2.2.3,11.92,11.92,0,0,0-2,.8l-.7-1.7c.7-.3,1.4-.6,2.3-.9A8,8,0,0,1,720.4,1531.4Zm3,7.9-2.3.1a8.71,8.71,0,0,0-4,.9,2.49,2.49,0,0,0-1.1,2.3,2.27,2.27,0,0,0,.8,1.9,3.28,3.28,0,0,0,2.1.6,5.24,5.24,0,0,0,3.3-1.1,3.9,3.9,0,0,0,1.3-3.3v-1.4Z" transform="translate(-466 -1217.84)"/><path d="M735.2,1545.1a3.75,3.75,0,0,0,1.1-.1c.4-.1.7-.1,1-.2v1.8a8.11,8.11,0,0,1-1.1.3,6.6,6.6,0,0,1-1.4.1,5.38,5.38,0,0,1-2.2-.4,4.28,4.28,0,0,1-1.6-1.4,5.55,5.55,0,0,1-.6-2.8v-8.9h-2.1v-1.1l2.1-.9.9-3.3h1.4v3.5h4.4v1.8h-4.4v8.8a3.28,3.28,0,0,0,.6,2.1A2.64,2.64,0,0,0,735.2,1545.1Z" transform="translate(-466 -1217.84)"/><path d="M742.6,1525.4v7.5c0,.4-.1.7-.1,1h.2a3.74,3.74,0,0,1,1.2-1.3,8,8,0,0,1,1.6-.8,6.28,6.28,0,0,1,1.9-.3,6.68,6.68,0,0,1,3,.6,3.92,3.92,0,0,1,1.8,1.8,6.84,6.84,0,0,1,.6,3.1v9.8h-2.2v-9.6a3.93,3.93,0,0,0-.9-2.8,3.42,3.42,0,0,0-2.6-.9,5.4,5.4,0,0,0-2.7.6,3.11,3.11,0,0,0-1.4,1.9,9.09,9.09,0,0,0-.4,3v7.8h-2.3v-21.3h2.3Z" transform="translate(-466 -1217.84)"/><path d="M763.2,1531.4a6.71,6.71,0,0,1,3.3.8,6.11,6.11,0,0,1,2.1,2.4,8,8,0,0,1,.7,3.6v1.4H759a5.81,5.81,0,0,0,1.3,4,4.59,4.59,0,0,0,3.6,1.4,9.52,9.52,0,0,0,2.5-.3,12.67,12.67,0,0,0,2.3-.8v2a11.09,11.09,0,0,1-2.2.7,10.17,10.17,0,0,1-2.6.2,7.9,7.9,0,0,1-3.8-.9,6.27,6.27,0,0,1-2.5-2.6,8.71,8.71,0,0,1-.9-4.2,10.84,10.84,0,0,1,.8-4.2,5.59,5.59,0,0,1,2.3-2.7A7.12,7.12,0,0,1,763.2,1531.4Zm0,1.9a3.7,3.7,0,0,0-2.9,1.2,6.21,6.21,0,0,0-1.3,3.3h7.9a6.05,6.05,0,0,0-.4-2.4,4,4,0,0,0-1.2-1.6A3.28,3.28,0,0,0,763.2,1533.3Z" transform="translate(-466 -1217.84)"/><path d="M780,1531.4h.9c.3,0,.6.1.9.1l-.3,2.1c-.2-.1-.5-.1-.8-.2a2.49,2.49,0,0,0-.8-.1,3.29,3.29,0,0,0-1.7.4,7.1,7.1,0,0,0-1.4,1,5.07,5.07,0,0,0-.9,1.6,6.65,6.65,0,0,0-.3,2.1v8h-2.3v-15h1.9l.2,2.8h.1a6.12,6.12,0,0,1,2.6-2.6C778.6,1531.6,779.3,1531.4,780,1531.4Z" transform="translate(-466 -1217.84)"/><path d="M801.6,1542.6a3.61,3.61,0,0,1-.7,2.4,5.67,5.67,0,0,1-2.1,1.5,7.69,7.69,0,0,1-3.2.5,19.94,19.94,0,0,1-2.7-.2,6.79,6.79,0,0,1-2-.7V1544a9.27,9.27,0,0,0,2.2.8,11.71,11.71,0,0,0,2.6.4,5.06,5.06,0,0,0,2.8-.6,2,2,0,0,0,.9-1.7,2,2,0,0,0-.3-1.1,3.09,3.09,0,0,0-1.2-.9c-.6-.3-1.3-.6-2.3-1a20.49,20.49,0,0,1-2.5-1.1,5.34,5.34,0,0,1-1.6-1.3,3.17,3.17,0,0,1-.6-2,3.27,3.27,0,0,1,1.5-2.9,7,7,0,0,1,4-1,10.07,10.07,0,0,1,2.5.3,14.16,14.16,0,0,1,2.2.7l-.8,1.8a11.76,11.76,0,0,0-2-.7,7.61,7.61,0,0,0-2.1-.3,5.05,5.05,0,0,0-2.4.5,1.6,1.6,0,0,0-.8,1.4,1.37,1.37,0,0,0,.4,1.1,3.22,3.22,0,0,0,1.3.8c.6.2,1.3.6,2.3.9a10.76,10.76,0,0,1,2.4,1.1,7,7,0,0,1,1.6,1.3A3.48,3.48,0,0,1,801.6,1542.6Z" transform="translate(-466 -1217.84)"/><path d="M810.1,1545.1a3.75,3.75,0,0,0,1.1-.1c.4-.1.7-.1,1-.2v1.8a8.11,8.11,0,0,1-1.1.3,6.6,6.6,0,0,1-1.4.1,5.38,5.38,0,0,1-2.2-.4,4.28,4.28,0,0,1-1.6-1.4,5.55,5.55,0,0,1-.6-2.8v-8.9h-2.1v-1.1l2.1-.9.9-3.3h1.4v3.5H812v1.8h-4.4v8.8a3.28,3.28,0,0,0,.6,2.1A2.81,2.81,0,0,0,810.1,1545.1Z" transform="translate(-466 -1217.84)"/><path d="M820.8,1531.4a5.8,5.8,0,0,1,4,1.2,4.87,4.87,0,0,1,1.3,3.8v10.2h-1.7l-.4-2.2h-.1a17.88,17.88,0,0,1-1.3,1.4,4.81,4.81,0,0,1-1.6.8,6.87,6.87,0,0,1-2.2.3,6,6,0,0,1-2.4-.5,3.91,3.91,0,0,1-1.7-1.4,4.63,4.63,0,0,1-.6-2.5,3.81,3.81,0,0,1,1.8-3.4,10.69,10.69,0,0,1,5.4-1.3l2.6-.1v-.9a3.78,3.78,0,0,0-.8-2.7,3.46,3.46,0,0,0-2.4-.8,7.8,7.8,0,0,0-2.2.3,11.92,11.92,0,0,0-2,.8l-.7-1.7c.7-.3,1.4-.6,2.3-.9A8.42,8.42,0,0,1,820.8,1531.4Zm3.1,7.9-2.3.1a8.71,8.71,0,0,0-4,.9,2.49,2.49,0,0,0-1.1,2.3,2.27,2.27,0,0,0,.8,1.9,3.28,3.28,0,0,0,2.1.6,5.24,5.24,0,0,0,3.3-1.1,3.9,3.9,0,0,0,1.3-3.3v-1.4Z" transform="translate(-466 -1217.84)"/><path d="M835.6,1545.1a3.75,3.75,0,0,0,1.1-.1c.4-.1.7-.1,1-.2v1.8a8.11,8.11,0,0,1-1.1.3,6.6,6.6,0,0,1-1.4.1,5.38,5.38,0,0,1-2.2-.4,4.28,4.28,0,0,1-1.6-1.4,5.55,5.55,0,0,1-.6-2.8v-8.9h-2.1v-1.1l2.1-.9.9-3.3h1.4v3.5h4.4v1.8h-4.4v8.8a3.28,3.28,0,0,0,.6,2.1A2.81,2.81,0,0,0,835.6,1545.1Z" transform="translate(-466 -1217.84)"/><path d="M841.9,1526.1a1.28,1.28,0,0,1,1,.4,1.71,1.71,0,0,1,0,2.2,1.78,1.78,0,0,1-1,.4,1.28,1.28,0,0,1-1-.4,1.37,1.37,0,0,1-.4-1.1,1.25,1.25,0,0,1,.4-1.1A1.78,1.78,0,0,1,841.9,1526.1Zm1.1,5.6v15h-2.3v-15Z" transform="translate(-466 -1217.84)"/><path d="M860.8,1539.2a11.42,11.42,0,0,1-.5,3.3,5.66,5.66,0,0,1-1.4,2.4,5.74,5.74,0,0,1-2.2,1.5,6.82,6.82,0,0,1-2.9.5,8.68,8.68,0,0,1-2.8-.5,5.74,5.74,0,0,1-2.2-1.5,7.22,7.22,0,0,1-1.4-2.4,11.42,11.42,0,0,1-.5-3.3,10.84,10.84,0,0,1,.8-4.2,6.08,6.08,0,0,1,2.4-2.6,7.24,7.24,0,0,1,3.7-.9,6.87,6.87,0,0,1,3.6.9,6.71,6.71,0,0,1,2.4,2.6A7.69,7.69,0,0,1,860.8,1539.2Zm-11.4,0a9.59,9.59,0,0,0,.5,3.1,4.08,4.08,0,0,0,1.5,2.1,4.21,4.21,0,0,0,2.6.7,4.41,4.41,0,0,0,2.6-.7,4.08,4.08,0,0,0,1.5-2.1,9.86,9.86,0,0,0,0-6.2,3.82,3.82,0,0,0-1.5-2,4.21,4.21,0,0,0-2.6-.7,3.82,3.82,0,0,0-3.4,1.5A7.33,7.33,0,0,0,849.4,1539.2Z" transform="translate(-466 -1217.84)"/><path d="M871.8,1531.4a5.36,5.36,0,0,1,4,1.3,5.74,5.74,0,0,1,1.4,4.2v9.8H875v-9.6a3.93,3.93,0,0,0-.9-2.8,3.42,3.42,0,0,0-2.6-.9,4.1,4.1,0,0,0-3.5,1.4,6.71,6.71,0,0,0-1,4.1v7.8h-2.3v-15h1.8l.3,2.2h.1a3.74,3.74,0,0,1,1.2-1.3,6.71,6.71,0,0,1,1.7-.8A4.77,4.77,0,0,1,871.8,1531.4Z" transform="translate(-466 -1217.84)"/><path d="M891.5,1542.6a3.61,3.61,0,0,1-.7,2.4,5.67,5.67,0,0,1-2.1,1.5,7.69,7.69,0,0,1-3.2.5,19.94,19.94,0,0,1-2.7-.2,6.79,6.79,0,0,1-2-.7V1544a9.27,9.27,0,0,0,2.2.8,11.71,11.71,0,0,0,2.6.4,5.06,5.06,0,0,0,2.8-.6,2,2,0,0,0,.9-1.7,2,2,0,0,0-.3-1.1,3.09,3.09,0,0,0-1.2-.9c-.6-.3-1.3-.6-2.3-1a20.49,20.49,0,0,1-2.5-1.1,5.34,5.34,0,0,1-1.6-1.3,3.17,3.17,0,0,1-.6-2,3.27,3.27,0,0,1,1.5-2.9,7,7,0,0,1,4-1,10.07,10.07,0,0,1,2.5.3,14.16,14.16,0,0,1,2.2.7l-.8,1.8a11.76,11.76,0,0,0-2-.7,7.61,7.61,0,0,0-2.1-.3,5.05,5.05,0,0,0-2.4.5,1.6,1.6,0,0,0-.8,1.4,1.37,1.37,0,0,0,.4,1.1,3.22,3.22,0,0,0,1.3.8c.6.2,1.3.6,2.3.9a10.76,10.76,0,0,1,2.4,1.1,7,7,0,0,1,1.6,1.3A3.48,3.48,0,0,1,891.5,1542.6Z" transform="translate(-466 -1217.84)"/><path d="M914.7,1546.6l-2.7-8.7c-.1-.4-.2-.7-.3-1.1s-.2-.7-.3-1a2.92,2.92,0,0,1-.2-.9,1.45,1.45,0,0,0-.2-.7h-.1a1.85,1.85,0,0,1-.2.7c-.1.3-.1.6-.2.9s-.2.7-.3,1.1-.2.7-.3,1.1l-2.8,8.7h-2.6l-4.1-15h2.4l2.2,8.3c.1.5.3,1.1.4,1.6l.3,1.5a7.38,7.38,0,0,1,.2,1.2h.1c.1-.2.1-.5.2-.8s.1-.7.2-1,.2-.7.3-1.1.2-.7.3-1l2.8-8.7h2.4l2.7,8.7c.1.4.3.9.4,1.4s.3.9.4,1.4a6,6,0,0,1,.2,1.2h.1a5.16,5.16,0,0,1,.2-1.1l.3-1.5c.1-.5.3-1.1.4-1.7l2.2-8.3h2.3l-4.1,15h-2.6Z" transform="translate(-466 -1217.84)"/><path d="M937.1,1539.2a11.42,11.42,0,0,1-.5,3.3,5.66,5.66,0,0,1-1.4,2.4,5.74,5.74,0,0,1-2.2,1.5,6.82,6.82,0,0,1-2.9.5,8.68,8.68,0,0,1-2.8-.5,5.74,5.74,0,0,1-2.2-1.5,7.22,7.22,0,0,1-1.4-2.4,11.42,11.42,0,0,1-.5-3.3,10.84,10.84,0,0,1,.8-4.2,6.08,6.08,0,0,1,2.4-2.6,7.24,7.24,0,0,1,3.7-.9,6.87,6.87,0,0,1,3.6.9,6.71,6.71,0,0,1,2.4,2.6A7.69,7.69,0,0,1,937.1,1539.2Zm-11.4,0a9.59,9.59,0,0,0,.5,3.1,4.08,4.08,0,0,0,1.5,2.1,4.21,4.21,0,0,0,2.6.7,4.41,4.41,0,0,0,2.6-.7,4.08,4.08,0,0,0,1.5-2.1,9.86,9.86,0,0,0,0-6.2,3.82,3.82,0,0,0-1.5-2,4.21,4.21,0,0,0-2.6-.7,3.82,3.82,0,0,0-3.4,1.5A7.33,7.33,0,0,0,925.7,1539.2Z" transform="translate(-466 -1217.84)"/><path d="M947.8,1531.4h.9c.3,0,.6.1.9.1l-.3,2.1c-.2-.1-.5-.1-.8-.2a2.49,2.49,0,0,0-.8-.1,3.29,3.29,0,0,0-1.7.4,7.1,7.1,0,0,0-1.4,1,5.07,5.07,0,0,0-.9,1.6,6.65,6.65,0,0,0-.3,2.1v8H941v-15h1.9l.2,2.8h.1a6.12,6.12,0,0,1,2.6-2.6C946.5,1531.6,947.1,1531.4,947.8,1531.4Z" transform="translate(-466 -1217.84)"/><path d="M954.7,1525.4v12.3c0,.5-.1,1-.1,1.4h.1a6.29,6.29,0,0,0,.8-1.1,13.5,13.5,0,0,1,.9-1.1l5-5.3h2.7l-6,6.4,6.5,8.6h-2.7l-5.3-7.1-1.8,1.7v5.4h-2.3v-21.3h2.2Z" transform="translate(-466 -1217.84)"/><path d="M968.7,1541.1v-.7a10.07,10.07,0,0,1,.2-1.9,5.07,5.07,0,0,1,.7-1.5,6.16,6.16,0,0,1,1.4-1.4c.7-.6,1.3-1.1,1.7-1.5a3.81,3.81,0,0,0,.9-1.3,3.34,3.34,0,0,0,.3-1.5,2.79,2.79,0,0,0-.9-2.2,4,4,0,0,0-2.6-.8,8.75,8.75,0,0,0-2.4.3,11.92,11.92,0,0,0-2,.8l-.8-1.8a17.25,17.25,0,0,1,2.4-1,8.85,8.85,0,0,1,2.9-.4,5.78,5.78,0,0,1,4.1,1.3,4.54,4.54,0,0,1,1.4,3.6,5.09,5.09,0,0,1-.4,2.2,6.1,6.1,0,0,1-1.2,1.6c-.5.5-1.1,1-1.8,1.6s-1.1,1-1.4,1.3a7.46,7.46,0,0,0-.7,1.2,6.05,6.05,0,0,0-.2,1.5v.5h-1.6Zm-.6,4.2a2,2,0,0,1,.5-1.4,1.59,1.59,0,0,1,1.2-.4,1.5,1.5,0,0,1,1.1.4,1.81,1.81,0,0,1,.5,1.4,2,2,0,0,1-.5,1.4,1.5,1.5,0,0,1-1.1.4,1.59,1.59,0,0,1-1.2-.4A2,2,0,0,1,968.1,1545.3Z" transform="translate(-466 -1217.84)"/><line class="cls-2" x1="2.4" y1="90.56" x2="1217.3" y2="90.56"/><path class="cls-1" d="M1669.8,1350.5l-8.5,8.5a.3.3,0,0,1-.4,0l-8.5-8.5" transform="translate(-466 -1217.84)"/><line class="cls-1" x1="1195.1" y1="141.36" x2="1195.1" y2="141.36"/><path class="cls-1" d="M1669.8,1440.4l-8.5,8.5a.3.3,0,0,1-.4,0l-8.5-8.5" transform="translate(-466 -1217.84)"/><line class="cls-1" x1="1195.1" y1="231.26" x2="1195.1" y2="231.26"/><path class="cls-1" d="M1669.8,1532.8l-8.5,8.5a.3.3,0,0,1-.4,0l-8.5-8.5" transform="translate(-466 -1217.84)"/><line class="cls-1" x1="1195.1" y1="323.66" x2="1195.1" y2="323.66"/></g></svg>