<svg id="Layer_1" data-name="Layer 1" xmlns="http://www.w3.org/2000/svg" xmlns:xlink="http://www.w3.org/1999/xlink" viewBox="0 0 474.37 65.42"><defs><style>.cls-1{fill:#4d4d4d;}.cls-2{fill:#989898;stroke:#989898;stroke-miterlimit:10;stroke-width:0.95px;}.cls-3{fill:url(#linear-gradient);}.cls-4{fill:#fff;}</style><linearGradient id="linear-gradient" x1="486.26" y1="198.58" x2="545.93" y2="198.58" gradientTransform="matrix(1, 0, 0, -1, 0, 2234)" gradientUnits="userSpaceOnUse"><stop offset="0" stop-color="#29aae1"/><stop offset="0.18" stop-color="#2685c2"/><stop offset="0.45" stop-color="#21559a"/><stop offset="0.68" stop-color="#1e317d"/><stop offset="0.88" stop-color="#1c1c6b"/><stop offset="1" stop-color="#1b1464"/></linearGradient></defs><g id="Layer_4" data-name="Layer 4"><path class="cls-1" d="M574,2029.18V2007h3.63v22.16Z" transform="translate(-486.26 -2005.59)"/><path class="cls-1" d="M589.59,2029.48a8.65,8.65,0,0,1-4.12-.91,6.17,6.17,0,0,1-2.69-2.84,11.08,11.08,0,0,1-.94-4.85,10.53,10.53,0,0,1,1-5,6.51,6.51,0,0,1,2.84-2.87,9.13,9.13,0,0,1,4.2-.92,11.28,11.28,0,0,1,2.72.29,9.59,9.59,0,0,1,2.07.72l-1.06,2.85q-.93-.36-1.89-.63a7.4,7.4,0,0,0-1.87-.26,4.33,4.33,0,0,0-2.45.66,3.89,3.89,0,0,0-1.45,1.94,9.12,9.12,0,0,0-.48,3.19A8.69,8.69,0,0,0,586,2024a3.91,3.91,0,0,0,1.44,1.91,4.07,4.07,0,0,0,2.35.64,8.6,8.6,0,0,0,2.47-.33,12,12,0,0,0,2.06-.86v3.09a8.27,8.27,0,0,1-2.05.81A11.47,11.47,0,0,1,589.59,2029.48Z" transform="translate(-486.26 -2005.59)"/><path class="cls-1" d="M604.38,2012.09a7.61,7.61,0,0,1,3.85.92,6.24,6.24,0,0,1,2.47,2.62,8.91,8.91,0,0,1,.86,4.06v1.91h-11.2a5.49,5.49,0,0,0,1.31,3.76,4.6,4.6,0,0,0,3.51,1.32,12.24,12.24,0,0,0,2.89-.31,15.28,15.28,0,0,0,2.64-.92v2.9a11.69,11.69,0,0,1-2.56.86,16.3,16.3,0,0,1-3.12.27,9.38,9.38,0,0,1-4.35-1,6.83,6.83,0,0,1-2.92-2.86,9.8,9.8,0,0,1-1-4.76,10.85,10.85,0,0,1,1-4.79,6.77,6.77,0,0,1,2.68-3A7.74,7.74,0,0,1,604.38,2012.09Zm0,2.68a3.57,3.57,0,0,0-2.72,1.09,5.17,5.17,0,0,0-1.22,3.2h7.62a6.24,6.24,0,0,0-.41-2.22,3.47,3.47,0,0,0-1.21-1.52A3.55,3.55,0,0,0,604.38,2014.77Z" transform="translate(-486.26 -2005.59)"/><path class="cls-1" d="M624.75,2017.15H633v11.12a22.92,22.92,0,0,1-7.79,1.21,11.24,11.24,0,0,1-5.71-1.34,8.66,8.66,0,0,1-3.55-3.88,14.38,14.38,0,0,1-1.21-6.17,12.74,12.74,0,0,1,1.35-6,9.36,9.36,0,0,1,3.93-4,12.77,12.77,0,0,1,6.24-1.4,17,17,0,0,1,6.59,1.33l-1.28,3a15.89,15.89,0,0,0-2.51-.88,11.73,11.73,0,0,0-2.89-.36,7.84,7.84,0,0,0-4.1,1,6.76,6.76,0,0,0-2.64,2.89,9.75,9.75,0,0,0-.93,4.41,11.7,11.7,0,0,0,.74,4.34,6,6,0,0,0,2.33,2.9,7.37,7.37,0,0,0,4.1,1,13.86,13.86,0,0,0,2.13-.14c.59-.09,1.13-.19,1.63-.3v-5.7h-4.69Z" transform="translate(-486.26 -2005.59)"/><path class="cls-1" d="M652.46,2012.4v16.78h-2.8l-.5-2.24H649a5,5,0,0,1-1.35,1.43,6,6,0,0,1-1.83.84,8.36,8.36,0,0,1-2.11.27,7.42,7.42,0,0,1-3.22-.64,4.44,4.44,0,0,1-2.06-2,7.4,7.4,0,0,1-.72-3.49v-11h3.59v10.3a4.46,4.46,0,0,0,.8,2.92,3,3,0,0,0,2.47,1,4.32,4.32,0,0,0,2.57-.67,3.62,3.62,0,0,0,1.36-2,10.82,10.82,0,0,0,.41-3.2v-8.35Z" transform="translate(-486.26 -2005.59)"/><path class="cls-1" d="M659,2006a2.29,2.29,0,0,1,1.41.44,1.74,1.74,0,0,1,.6,1.51,1.79,1.79,0,0,1-.6,1.52,2.48,2.48,0,0,1-2.85,0,1.79,1.79,0,0,1-.6-1.52,1.74,1.74,0,0,1,.6-1.51A2.32,2.32,0,0,1,659,2006Zm1.75,6.42v16.78h-3.57v-16.8Z" transform="translate(-486.26 -2005.59)"/><path class="cls-1" d="M671.12,2029.48a6,6,0,0,1-4.8-2.18c-1.21-1.46-1.82-3.62-1.81-6.47s.62-5,1.84-6.53a6,6,0,0,1,4.86-2.21,6.38,6.38,0,0,1,2.21.34,5.23,5.23,0,0,1,1.65.91,5.75,5.75,0,0,1,1.17,1.29h.17c0-.31-.11-.76-.17-1.35a16.37,16.37,0,0,1-.09-1.65v-6h3.58v23.58h-2.79l-.64-2.27h-.15a5.71,5.71,0,0,1-1.15,1.3,4.78,4.78,0,0,1-1.64.93A6.53,6.53,0,0,1,671.12,2029.48Zm1-2.89a3.68,3.68,0,0,0,3.22-1.32,6.8,6.8,0,0,0,1-4v-.47a8.39,8.39,0,0,0-.91-4.32,3.53,3.53,0,0,0-3.31-1.5,3.3,3.3,0,0,0-2.93,1.54,7.84,7.84,0,0,0-1,4.32,7.49,7.49,0,0,0,1,4.24,3.38,3.38,0,0,0,2.94,1.51Z" transform="translate(-486.26 -2005.59)"/><path class="cls-1" d="M691.2,2012.09a7.61,7.61,0,0,1,3.85.92,6.24,6.24,0,0,1,2.47,2.62,8.79,8.79,0,0,1,.86,4.06v1.91H687.19a5.4,5.4,0,0,0,1.31,3.76,4.57,4.57,0,0,0,3.5,1.32,12.24,12.24,0,0,0,2.89-.31,14.58,14.58,0,0,0,2.65-.92v2.9a12.13,12.13,0,0,1-2.57.86,14.84,14.84,0,0,1-3.12.27,9.38,9.38,0,0,1-4.35-1,6.83,6.83,0,0,1-2.92-2.86,9.7,9.7,0,0,1-1.05-4.76,10.85,10.85,0,0,1,1-4.79,6.77,6.77,0,0,1,2.68-3A7.74,7.74,0,0,1,691.2,2012.09Zm0,2.68a3.57,3.57,0,0,0-2.72,1.09,5.17,5.17,0,0,0-1.22,3.2h7.62a5.83,5.83,0,0,0-.41-2.22,3.47,3.47,0,0,0-1.21-1.52A3.55,3.55,0,0,0,691.2,2014.77Z" transform="translate(-486.26 -2005.59)"/><path class="cls-1" d="M575.66,2047.71v5.79a6.61,6.61,0,0,1-.09,1h.15a3.47,3.47,0,0,1,1-1.09,4.15,4.15,0,0,1,1.3-.64,5,5,0,0,1,1.54-.22,5.46,5.46,0,0,1,2.45.49,3.34,3.34,0,0,1,1.55,1.49,5.55,5.55,0,0,1,.54,2.63v8.2h-2.67v-7.7a3.35,3.35,0,0,0-.6-2.19,2.29,2.29,0,0,0-1.86-.74,3.21,3.21,0,0,0-1.93.51,2.81,2.81,0,0,0-1,1.48,8.11,8.11,0,0,0-.3,2.4v6.24H573v-17.68Z" transform="translate(-486.26 -2005.59)"/><path class="cls-1" d="M592.26,2063.46a4.78,4.78,0,0,0,1-.1,7.43,7.43,0,0,0,.93-.23v2a5.71,5.71,0,0,1-1.14.33,8,8,0,0,1-1.47.14,4.85,4.85,0,0,1-1.92-.36,2.79,2.79,0,0,1-1.35-1.23,4.82,4.82,0,0,1-.5-2.42v-6.75h-1.72v-1.2l1.84-.95.88-2.7h1.68v2.8h3.6v2.05h-3.6v6.71A1.9,1.9,0,0,0,591,2063,1.72,1.72,0,0,0,592.26,2063.46Z" transform="translate(-486.26 -2005.59)"/><path class="cls-1" d="M602.19,2063.46a4.78,4.78,0,0,0,1-.1,7.43,7.43,0,0,0,.93-.23v2a5.8,5.8,0,0,1-1.15.33,8,8,0,0,1-1.47.14,4.85,4.85,0,0,1-1.92-.36,2.79,2.79,0,0,1-1.35-1.23,4.93,4.93,0,0,1-.5-2.42v-6.75H596v-1.2l1.84-.95.88-2.7h1.68v2.8H604v2.05h-3.61v6.71a1.9,1.9,0,0,0,.48,1.42A1.75,1.75,0,0,0,602.19,2063.46Z" transform="translate(-486.26 -2005.59)"/><path class="cls-1" d="M613.1,2052.57a4.47,4.47,0,0,1,3.6,1.64,7.39,7.39,0,0,1,1.36,4.86,9,9,0,0,1-.63,3.6,5,5,0,0,1-1.76,2.21,4.75,4.75,0,0,1-2.64.74,5.21,5.21,0,0,1-1.66-.24,3.91,3.91,0,0,1-1.2-.66,4.94,4.94,0,0,1-.84-.87h-.16c0,.29.07.62.11,1a9.39,9.39,0,0,1,.05,1V2071h-2.7v-18.16h2.2l.37,1.74h.13a4.84,4.84,0,0,1,.86-1,3.68,3.68,0,0,1,1.22-.72A4.85,4.85,0,0,1,613.1,2052.57Zm-.71,2.19a3.14,3.14,0,0,0-1.77.44,2.42,2.42,0,0,0-1,1.31,7.08,7.08,0,0,0-.32,2.19v.37a8.24,8.24,0,0,0,.29,2.37,2.76,2.76,0,0,0,1,1.48,2.94,2.94,0,0,0,1.84.51,2.42,2.42,0,0,0,1.61-.54,3.17,3.17,0,0,0,1-1.52,8,8,0,0,0,.32-2.33,5.89,5.89,0,0,0-.72-3.16,2.45,2.45,0,0,0-2.25-1.12Z" transform="translate(-486.26 -2005.59)"/><path class="cls-1" d="M629.44,2061.8a3.46,3.46,0,0,1-.61,2.09,3.63,3.63,0,0,1-1.75,1.29,8,8,0,0,1-2.83.44,11.44,11.44,0,0,1-2.26-.19,8.27,8.27,0,0,1-1.81-.57v-2.31a14.52,14.52,0,0,0,2,.73,8.42,8.42,0,0,0,2.12.31,3.41,3.41,0,0,0,1.9-.42,1.31,1.31,0,0,0,.58-1.11,1.26,1.26,0,0,0-.23-.73,2.71,2.71,0,0,0-.87-.67,18,18,0,0,0-1.85-.83,13.83,13.83,0,0,1-2-1,3.51,3.51,0,0,1-1.24-1.15,3.2,3.2,0,0,1-.42-1.73,2.85,2.85,0,0,1,1.33-2.55,6.3,6.3,0,0,1,3.52-.87,10,10,0,0,1,2.18.23,10.71,10.71,0,0,1,2,.68l-.84,2a17.39,17.39,0,0,0-1.71-.61,6.41,6.41,0,0,0-1.74-.24,3.18,3.18,0,0,0-1.58.32,1,1,0,0,0-.54.9,1.2,1.2,0,0,0,.26.75,2.8,2.8,0,0,0,.91.61c.42.2,1,.46,1.79.76a14.37,14.37,0,0,1,2,.9A3.42,3.42,0,0,1,629,2060,3.08,3.08,0,0,1,629.44,2061.8Z" transform="translate(-486.26 -2005.59)"/><path class="cls-1" d="M639.51,2048.77l-6.19,16.62h-2.51l6.19-16.62Z" transform="translate(-486.26 -2005.59)"/><path class="cls-1" d="M647.18,2048.77,641,2065.39h-2.51l6.19-16.62Z" transform="translate(-486.26 -2005.59)"/><path class="cls-1" d="M653.22,2052.57a5.71,5.71,0,0,1,2.89.69,4.76,4.76,0,0,1,1.85,2,6.7,6.7,0,0,1,.65,3v1.43h-8.4a4.06,4.06,0,0,0,1,2.82,3.43,3.43,0,0,0,2.63,1,8.81,8.81,0,0,0,2.17-.24,10.71,10.71,0,0,0,2-.68v2.17a9.24,9.24,0,0,1-1.92.65,12.26,12.26,0,0,1-2.34.2,7.13,7.13,0,0,1-3.27-.72,5,5,0,0,1-2.19-2.14,7.48,7.48,0,0,1-.78-3.57,8.39,8.39,0,0,1,.71-3.6,5.25,5.25,0,0,1,2-2.25A6,6,0,0,1,653.22,2052.57Zm0,2a2.69,2.69,0,0,0-2,.82,3.85,3.85,0,0,0-.92,2.4H656a4.54,4.54,0,0,0-.31-1.67,2.46,2.46,0,0,0-.91-1.13,2.6,2.6,0,0,0-1.56-.41Z" transform="translate(-486.26 -2005.59)"/><path class="cls-1" d="M668,2052.57a4.72,4.72,0,0,1,3.32,1.1,4.59,4.59,0,0,1,1.18,3.52v8.2h-2.67v-7.7a3.35,3.35,0,0,0-.6-2.19,2.26,2.26,0,0,0-1.86-.74,2.75,2.75,0,0,0-2.54,1.13,6,6,0,0,0-.71,3.25v6.25h-2.69v-12.58h2.09l.38,1.7h.15a3.82,3.82,0,0,1,1-1.08,4.64,4.64,0,0,1,1.37-.64A5.63,5.63,0,0,1,668,2052.57Z" transform="translate(-486.26 -2005.59)"/><path class="cls-1" d="M675.77,2064a1.57,1.57,0,0,1,.48-1.31,2,2,0,0,1,2.37,0,1.54,1.54,0,0,1,.5,1.31,1.6,1.6,0,0,1-.5,1.32,2,2,0,0,1-2.37,0A1.63,1.63,0,0,1,675.77,2064Z" transform="translate(-486.26 -2005.59)"/><path class="cls-1" d="M683.69,2048a1.75,1.75,0,0,1,1.06.33,1.66,1.66,0,0,1,0,2.27,1.86,1.86,0,0,1-2.14,0,1.68,1.68,0,0,1,0-2.27A1.73,1.73,0,0,1,683.69,2048Zm1.32,4.82v12.58h-2.68v-12.58Z" transform="translate(-486.26 -2005.59)"/><path class="cls-1" d="M693.69,2065.62a6.5,6.5,0,0,1-3.09-.69,4.61,4.61,0,0,1-2-2.12,8.35,8.35,0,0,1-.71-3.65,8,8,0,0,1,.78-3.75,5,5,0,0,1,2.13-2.15,6.87,6.87,0,0,1,3.15-.69,8.46,8.46,0,0,1,2,.22,7.31,7.31,0,0,1,1.55.54l-.79,2.14a14.74,14.74,0,0,0-1.42-.47,5.57,5.57,0,0,0-1.4-.2,3.15,3.15,0,0,0-1.84.49,2.94,2.94,0,0,0-1.09,1.46,6.94,6.94,0,0,0-.36,2.39,6.41,6.41,0,0,0,.37,2.34,2.9,2.9,0,0,0,1.08,1.43,3,3,0,0,0,1.76.48,6.08,6.08,0,0,0,1.85-.25,7.82,7.82,0,0,0,1.55-.65v2.32a5.69,5.69,0,0,1-1.54.61A8.76,8.76,0,0,1,693.69,2065.62Z" transform="translate(-486.26 -2005.59)"/><path class="cls-1" d="M704.86,2052.57a5.68,5.68,0,0,1,2.88.69,4.73,4.73,0,0,1,1.86,2,6.69,6.69,0,0,1,.64,3v1.43h-8.4a4.06,4.06,0,0,0,1,2.82,3.43,3.43,0,0,0,2.63,1,8.73,8.73,0,0,0,2.16-.24,11.49,11.49,0,0,0,2-.68v2.17a9.24,9.24,0,0,1-1.92.65,12.36,12.36,0,0,1-2.35.2,7.06,7.06,0,0,1-3.26-.72,5,5,0,0,1-2.19-2.14,7.37,7.37,0,0,1-.79-3.57,8.12,8.12,0,0,1,.72-3.6,5.25,5.25,0,0,1,2-2.25A5.82,5.82,0,0,1,704.86,2052.57Zm0,2a2.69,2.69,0,0,0-2,.82,3.85,3.85,0,0,0-.92,2.4h5.72a4.54,4.54,0,0,0-.31-1.67,2.52,2.52,0,0,0-.91-1.13,2.66,2.66,0,0,0-1.58-.41Z" transform="translate(-486.26 -2005.59)"/><path class="cls-1" d="M716.75,2071a7,7,0,0,1-3.92-.93,2.9,2.9,0,0,1-1.37-2.58,2.77,2.77,0,0,1,.73-2,3.86,3.86,0,0,1,2.08-1.09,2.28,2.28,0,0,1-.88-.72,1.77,1.77,0,0,1-.38-1.08,1.86,1.86,0,0,1,.41-1.2,4.36,4.36,0,0,1,1.18-1A3.45,3.45,0,0,1,713,2059a4.07,4.07,0,0,1-.6-2.23,4.42,4.42,0,0,1,.59-2.33,3.67,3.67,0,0,1,1.7-1.46,7.31,7.31,0,0,1,3.43-.47l.75.09a3.12,3.12,0,0,1,.53.11h4.36v1.49l-2.14.4a3.72,3.72,0,0,1,.49,1,4.06,4.06,0,0,1,.18,1.2,3.75,3.75,0,0,1-1.35,3.07,5.61,5.61,0,0,1-3.71,1.12,10,10,0,0,1-1.1-.09,2.59,2.59,0,0,0-.63.56,1.13,1.13,0,0,0-.21.67.6.6,0,0,0,.21.49,1.4,1.4,0,0,0,.65.28,5.55,5.55,0,0,0,1,.09h2.17a4.88,4.88,0,0,1,3.16.88,3.08,3.08,0,0,1,1.09,2.57,3.74,3.74,0,0,1-1.77,3.31A9.37,9.37,0,0,1,716.75,2071Zm.1-1.88a8.49,8.49,0,0,0,2.35-.27,3.26,3.26,0,0,0,1.45-.78,1.69,1.69,0,0,0,.49-1.2,1.29,1.29,0,0,0-.31-.94,1.67,1.67,0,0,0-.92-.45,7.89,7.89,0,0,0-1.53-.12h-2a3.45,3.45,0,0,0-1.31.23,2.08,2.08,0,0,0-.88.67,1.8,1.8,0,0,0-.31,1.06,1.47,1.47,0,0,0,.77,1.33,4.2,4.2,0,0,0,2.2.46Zm.53-9.8a2.19,2.19,0,0,0,1.73-.64,2.69,2.69,0,0,0,.56-1.81,2.72,2.72,0,0,0-.58-1.9,2.6,2.6,0,0,0-3.43,0,2.74,2.74,0,0,0-.59,1.91,2.54,2.54,0,0,0,.59,1.79,2.2,2.2,0,0,0,1.72.64Z" transform="translate(-486.26 -2005.59)"/><path class="cls-1" d="M737.06,2052.81v12.58H735l-.38-1.68h-.13a3.65,3.65,0,0,1-1,1.07,4.24,4.24,0,0,1-1.36.64,6.54,6.54,0,0,1-1.59.2,5.6,5.6,0,0,1-2.42-.48,3.44,3.44,0,0,1-1.54-1.5A5.51,5.51,0,0,1,726,2061v-8.22h2.69v7.72a3.35,3.35,0,0,0,.6,2.19,2.25,2.25,0,0,0,1.86.73,3.31,3.31,0,0,0,1.92-.5,2.76,2.76,0,0,0,1-1.48,7.8,7.8,0,0,0,.31-2.4v-6.26Z" transform="translate(-486.26 -2005.59)"/><path class="cls-1" d="M742,2048a1.75,1.75,0,0,1,1.06.33,1.66,1.66,0,0,1,0,2.27,1.68,1.68,0,0,1-1.06.34,1.74,1.74,0,0,1-1.08-.34,1.68,1.68,0,0,1,0-2.27A1.73,1.73,0,0,1,742,2048Zm1.32,4.82v12.58h-2.68v-12.58Z" transform="translate(-486.26 -2005.59)"/><path class="cls-1" d="M751.19,2065.62a4.47,4.47,0,0,1-3.6-1.64,9.39,9.39,0,0,1,0-9.75,4.49,4.49,0,0,1,3.64-1.66,4.93,4.93,0,0,1,1.66.26,4.4,4.4,0,0,1,1.24.68,4.6,4.6,0,0,1,.87,1h.13c0-.23-.08-.57-.13-1a10.74,10.74,0,0,1-.07-1.23v-4.52h2.69v17.68h-2.09l-.48-1.7h0a4.51,4.51,0,0,1-.85,1,4,4,0,0,1-1.24.69A5,5,0,0,1,751.19,2065.62Zm.76-2.17a2.78,2.78,0,0,0,2.42-1,5.17,5.17,0,0,0,.72-3v-.35a6.38,6.38,0,0,0-.68-3.24,2.66,2.66,0,0,0-2.48-1.12,2.45,2.45,0,0,0-2.2,1.16,5.87,5.87,0,0,0-.76,3.23,5.62,5.62,0,0,0,.76,3.18,2.52,2.52,0,0,0,2.27,1.14Z" transform="translate(-486.26 -2005.59)"/><path class="cls-1" d="M766.32,2052.57a5.68,5.68,0,0,1,2.88.69,4.73,4.73,0,0,1,1.86,2,6.69,6.69,0,0,1,.64,3v1.43h-8.4a4.06,4.06,0,0,0,1,2.82,3.43,3.43,0,0,0,2.63,1,8.73,8.73,0,0,0,2.16-.24,11.49,11.49,0,0,0,2-.68v2.17a9.24,9.24,0,0,1-1.92.65,12.36,12.36,0,0,1-2.35.2,7.06,7.06,0,0,1-3.26-.72,5,5,0,0,1-2.19-2.14,7.37,7.37,0,0,1-.79-3.57,8.12,8.12,0,0,1,.72-3.6,5.25,5.25,0,0,1,2-2.25A5.82,5.82,0,0,1,766.32,2052.57Zm0,2a2.69,2.69,0,0,0-2,.82,3.85,3.85,0,0,0-.92,2.4h5.72a4.54,4.54,0,0,0-.31-1.67,2.52,2.52,0,0,0-.91-1.13,2.66,2.66,0,0,0-1.58-.41Z" transform="translate(-486.26 -2005.59)"/><path class="cls-1" d="M774,2064a1.56,1.56,0,0,1,.49-1.31,1.85,1.85,0,0,1,1.18-.38,1.88,1.88,0,0,1,1.19.38,1.56,1.56,0,0,1,.49,1.31,1.6,1.6,0,0,1-.49,1.32,1.84,1.84,0,0,1-1.19.4,1.8,1.8,0,0,1-1.18-.4A1.6,1.6,0,0,1,774,2064Z" transform="translate(-486.26 -2005.59)"/><path class="cls-1" d="M781.87,2048a1.75,1.75,0,0,1,1.06.33,1.66,1.66,0,0,1,0,2.27,1.68,1.68,0,0,1-1.06.34,1.74,1.74,0,0,1-1.08-.34,1.68,1.68,0,0,1,0-2.27A1.79,1.79,0,0,1,781.87,2048Zm1.32,4.82v12.58h-2.68v-12.58Z" transform="translate(-486.26 -2005.59)"/><path class="cls-1" d="M795.22,2061.8a3.61,3.61,0,0,1-.6,2.09,3.66,3.66,0,0,1-1.76,1.29,8.2,8.2,0,0,1-2.82.44,11.54,11.54,0,0,1-2.27-.19,8,8,0,0,1-1.8-.57v-2.31a12.93,12.93,0,0,0,2,.73,8,8,0,0,0,2.12.31,3.27,3.27,0,0,0,1.89-.42,1.31,1.31,0,0,0,.58-1.11,1.2,1.2,0,0,0-.23-.73,2.57,2.57,0,0,0-.86-.67,17.25,17.25,0,0,0-1.86-.83,12.88,12.88,0,0,1-2-1,3.42,3.42,0,0,1-1.24-1.15A3.28,3.28,0,0,1,786,2056a2.85,2.85,0,0,1,1.33-2.55,6.27,6.27,0,0,1,3.51-.87,9.69,9.69,0,0,1,4.19.91l-.85,2a15.14,15.14,0,0,0-1.71-.61,6.41,6.41,0,0,0-1.74-.24,3.18,3.18,0,0,0-1.58.32,1,1,0,0,0-.54.9,1.1,1.1,0,0,0,.27.75,2.76,2.76,0,0,0,.9.61c.43.2,1,.46,1.79.76a14.37,14.37,0,0,1,2,.9,3.72,3.72,0,0,1,1.27,1.16A3.27,3.27,0,0,1,795.22,2061.8Z" transform="translate(-486.26 -2005.59)"/><path class="cls-1" d="M805.3,2048.77l-6.2,16.62h-2.51l6.2-16.62Z" transform="translate(-486.26 -2005.59)"/><path class="cls-1" d="M817.93,2065.38l-1.59-5.84q-.11-.43-.27-1.05c-.11-.41-.21-.83-.32-1.26s-.2-.85-.29-1.22-.15-.67-.2-.87h-.09l-.18.87c-.08.37-.18.78-.28,1.22s-.21.87-.32,1.29-.19.77-.27,1.05l-1.68,5.81h-2.93L806,2052.8h2.7l1.64,6.25c.11.42.21.88.31,1.38s.19,1,.27,1.41.13.81.17,1.1h.09a4.83,4.83,0,0,1,.13-.78c.06-.31.11-.65.18-1s.14-.67.2-1a5.28,5.28,0,0,1,.2-.74l1.93-6.65h2.92l1.85,6.65c.09.29.18.65.28,1.08s.18.88.26,1.31.13.8.16,1.09h.09a5.8,5.8,0,0,1,.16-1c.08-.39.17-.92.28-1.43s.22-1,.33-1.4l1.67-6.25h2.66l-3.55,12.58Z" transform="translate(-486.26 -2005.59)"/><path class="cls-1" d="M831.42,2052.57a5.71,5.71,0,0,1,2.89.69,4.76,4.76,0,0,1,1.85,2,6.58,6.58,0,0,1,.65,3v1.43h-8.4a4.06,4.06,0,0,0,1,2.82,3.43,3.43,0,0,0,2.63,1,8.73,8.73,0,0,0,2.16-.24,11.49,11.49,0,0,0,2-.68v2.17a8.77,8.77,0,0,1-1.93.65,12.26,12.26,0,0,1-2.34.2,7.06,7.06,0,0,1-3.26-.72,5,5,0,0,1-2.19-2.14,7.35,7.35,0,0,1-.79-3.57,8.12,8.12,0,0,1,.72-3.6,5.25,5.25,0,0,1,2-2.25A5.79,5.79,0,0,1,831.42,2052.57Zm0,2a2.69,2.69,0,0,0-2,.82,4,4,0,0,0-.91,2.4h5.72a4.55,4.55,0,0,0-.32-1.67,2.44,2.44,0,0,0-.9-1.13,2.62,2.62,0,0,0-1.59-.41Z" transform="translate(-486.26 -2005.59)"/><path class="cls-1" d="M844.5,2052.57a5.29,5.29,0,0,1,3.6,1.06,4.12,4.12,0,0,1,1.23,3.29v8.47h-1.9l-.52-1.78h-.1a6.54,6.54,0,0,1-1.1,1.13,3.81,3.81,0,0,1-1.3.66,6.51,6.51,0,0,1-1.81.22,4.75,4.75,0,0,1-2-.41,3.16,3.16,0,0,1-1.39-1.27,4.17,4.17,0,0,1-.5-2.16,3.28,3.28,0,0,1,1.45-2.92,8.29,8.29,0,0,1,4.38-1.08l2.17-.08v-.7a2.07,2.07,0,0,0-1.68-2.4,2.22,2.22,0,0,0-.63,0,6.29,6.29,0,0,0-1.83.27,13.39,13.39,0,0,0-1.73.66l-.87-1.89a9.93,9.93,0,0,1,2.11-.79A9.36,9.36,0,0,1,844.5,2052.57Zm2.17,6.81-1.62.07a5.08,5.08,0,0,0-2.8.67,2,2,0,0,0-.81,1.68,1.57,1.57,0,0,0,.56,1.36,2.39,2.39,0,0,0,1.46.43,3.38,3.38,0,0,0,2.3-.79,2.93,2.93,0,0,0,.91-2.32Z" transform="translate(-486.26 -2005.59)"/><path class="cls-1" d="M857.61,2063.46a4.78,4.78,0,0,0,1-.1,7.43,7.43,0,0,0,.93-.23v2a5.8,5.8,0,0,1-1.15.33,7.94,7.94,0,0,1-1.46.14,4.85,4.85,0,0,1-1.92-.36,2.81,2.81,0,0,1-1.36-1.23,4.93,4.93,0,0,1-.5-2.42v-6.75h-1.71v-1.2l1.84-.95.87-2.7h1.69v2.8h3.6v2.05h-3.6v6.71a1.93,1.93,0,0,0,.47,1.42A1.75,1.75,0,0,0,857.61,2063.46Z" transform="translate(-486.26 -2005.59)"/><path class="cls-1" d="M864.73,2047.71v5.79a6.89,6.89,0,0,1-.08,1h.14a3.72,3.72,0,0,1,1-1.09,4.15,4.15,0,0,1,1.3-.64,5.36,5.36,0,0,1,1.54-.22,5.47,5.47,0,0,1,2.46.49,3.44,3.44,0,0,1,1.55,1.49,5.55,5.55,0,0,1,.54,2.63v8.2h-2.67v-7.7a3.36,3.36,0,0,0-.61-2.19,2.29,2.29,0,0,0-1.86-.74,3.18,3.18,0,0,0-1.92.51,2.76,2.76,0,0,0-1,1.48,8.12,8.12,0,0,0-.31,2.4v6.24h-2.68v-17.68Z" transform="translate(-486.26 -2005.59)"/><path class="cls-1" d="M881.72,2052.57a5.71,5.71,0,0,1,2.89.69,4.76,4.76,0,0,1,1.85,2,6.7,6.7,0,0,1,.65,3v1.43h-8.4a4.06,4.06,0,0,0,1,2.82,3.43,3.43,0,0,0,2.63,1,8.81,8.81,0,0,0,2.17-.24,10.71,10.71,0,0,0,2-.68v2.17a9.24,9.24,0,0,1-1.92.65,12.26,12.26,0,0,1-2.34.2,7.13,7.13,0,0,1-3.27-.72,5,5,0,0,1-2.19-2.14,7.48,7.48,0,0,1-.78-3.57,8.39,8.39,0,0,1,.71-3.6,5.25,5.25,0,0,1,2-2.25A6,6,0,0,1,881.72,2052.57Zm0,2a2.69,2.69,0,0,0-2,.82,3.85,3.85,0,0,0-.92,2.4h5.72a4.54,4.54,0,0,0-.31-1.67,2.46,2.46,0,0,0-.91-1.13,2.66,2.66,0,0,0-1.58-.41Z" transform="translate(-486.26 -2005.59)"/><path class="cls-1" d="M896.35,2052.57c.23,0,.47,0,.7,0s.43,0,.64.09l-.25,2.51a3.71,3.71,0,0,0-.58-.11h-.62a4,4,0,0,0-1.36.24,3.41,3.41,0,0,0-1.15.71,3.15,3.15,0,0,0-.79,1.18,4.31,4.31,0,0,0-.28,1.63v6.57H890v-12.58h2.11l.36,2.22h.13a5.31,5.31,0,0,1,.93-1.23,4.39,4.39,0,0,1,1.28-.89A3.57,3.57,0,0,1,896.35,2052.57Z" transform="translate(-486.26 -2005.59)"/><path class="cls-2" d="M958.22,2045.44h0a1.94,1.94,0,0,1,1.93,1.94h0a1.94,1.94,0,0,1-1.93,1.93h0a1.94,1.94,0,0,1-1.94-1.93h0A1.94,1.94,0,0,1,958.22,2045.44Z" transform="translate(-486.26 -2005.59)"/><path class="cls-2" d="M958.22,2052.85h0a1.94,1.94,0,0,1,1.93,1.94h0a1.94,1.94,0,0,1-1.93,1.93h0a1.94,1.94,0,0,1-1.94-1.93h0A1.94,1.94,0,0,1,958.22,2052.85Z" transform="translate(-486.26 -2005.59)"/><path class="cls-2" d="M958.22,2060.27h0a1.94,1.94,0,0,1,1.93,1.94h0a1.94,1.94,0,0,1-1.93,1.93h0a1.94,1.94,0,0,1-1.94-1.93h0A1.94,1.94,0,0,1,958.22,2060.27Z" transform="translate(-486.26 -2005.59)"/><path class="cls-3" d="M516.1,2005.59h0a29.84,29.84,0,0,1,29.84,29.83h0a29.84,29.84,0,0,1-29.84,29.83h0a29.84,29.84,0,0,1-29.84-29.83h0A29.84,29.84,0,0,1,516.1,2005.59Z" transform="translate(-486.26 -2005.59)"/><path class="cls-4" d="M491.07,2040l1.93-9.08h1.9L493,2040Z" transform="translate(-486.26 -2005.59)"/><path class="cls-4" d="M497.87,2040.11a3.1,3.1,0,0,1-1.31-.26,2.06,2.06,0,0,1-.93-.82,2.7,2.7,0,0,1-.34-1.47,7,7,0,0,1,.15-1.44,5.22,5.22,0,0,1,.46-1.27,3.86,3.86,0,0,1,.75-1,3.38,3.38,0,0,1,1-.67,3.31,3.31,0,0,1,1.28-.24,5.17,5.17,0,0,1,1.11.12,4.45,4.45,0,0,1,.93.32l-.57,1.43c-.23-.1-.45-.18-.66-.25a2.33,2.33,0,0,0-.74-.11,1.28,1.28,0,0,0-.78.26,2,2,0,0,0-.58.68,3.87,3.87,0,0,0-.37,1,4.9,4.9,0,0,0-.12,1.08,1.33,1.33,0,0,0,.13.65.85.85,0,0,0,.36.41,1.17,1.17,0,0,0,.58.13,2.83,2.83,0,0,0,.87-.14,6.79,6.79,0,0,0,.83-.37v1.53a5.26,5.26,0,0,1-.93.36A4.69,4.69,0,0,1,497.87,2040.11Z" transform="translate(-486.26 -2005.59)"/><path class="cls-4" d="M503.89,2040.11a3.36,3.36,0,0,1-1.43-.29,2.22,2.22,0,0,1-1-.89,2.91,2.91,0,0,1-.35-1.5,5.94,5.94,0,0,1,.25-1.68,4.74,4.74,0,0,1,.74-1.45,3.68,3.68,0,0,1,1.22-1,3.58,3.58,0,0,1,1.67-.37,2.5,2.5,0,0,1,1.75.53,1.76,1.76,0,0,1,.58,1.36,2,2,0,0,1-.24,1,2.13,2.13,0,0,1-.75.77,3.92,3.92,0,0,1-1.24.49,8.11,8.11,0,0,1-1.77.17H503v.26a1.14,1.14,0,0,0,.33.88,1.21,1.21,0,0,0,.91.33,4.21,4.21,0,0,0,1-.12,6.83,6.83,0,0,0,1.06-.41v1.41a5.45,5.45,0,0,1-1.11.4A5.67,5.67,0,0,1,503.89,2040.11Zm-.65-4.14h.28a3.84,3.84,0,0,0,1.17-.15,1.57,1.57,0,0,0,.66-.41.88.88,0,0,0,.21-.56.57.57,0,0,0-.17-.44.71.71,0,0,0-.48-.15,1.28,1.28,0,0,0-.69.22,2.18,2.18,0,0,0-.61.6,2.74,2.74,0,0,0-.37.92Z" transform="translate(-486.26 -2005.59)"/><path class="cls-4" d="M511.65,2040.11a3.28,3.28,0,0,1-2.47-.9,3.57,3.57,0,0,1-.89-2.63,7.19,7.19,0,0,1,.22-1.79,6.09,6.09,0,0,1,.64-1.59,4.8,4.8,0,0,1,2.56-2.13,5.63,5.63,0,0,1,4.44.31l-.72,1.56a6.13,6.13,0,0,0-.91-.4,3.77,3.77,0,0,0-1-.14,2.81,2.81,0,0,0-1.45.35,3.4,3.4,0,0,0-1,1,4.18,4.18,0,0,0-.61,1.3,5.36,5.36,0,0,0-.2,1.43,3.11,3.11,0,0,0,.18,1.13,1.46,1.46,0,0,0,.6.7,2,2,0,0,0,1,.24,2.77,2.77,0,0,0,1.06-.1l.4-1.86h-1.65l.34-1.6h3.5l-1,4.73a10.13,10.13,0,0,1-1.31.35A8.33,8.33,0,0,1,511.65,2040.11Z" transform="translate(-486.26 -2005.59)"/><path class="cls-4" d="M518.58,2040.11a1.83,1.83,0,0,1-1-.24,1.46,1.46,0,0,1-.58-.69,2.76,2.76,0,0,1-.19-1.06v-.59a3.8,3.8,0,0,1,.11-.73l.79-3.75h1.87l-.85,4a.79.79,0,0,1-.07.4,1.93,1.93,0,0,0,0,.34.92.92,0,0,0,.17.58.66.66,0,0,0,.5.18,1,1,0,0,0,.77-.36,3.61,3.61,0,0,0,.59-1,7.24,7.24,0,0,0,.41-1.35l.61-2.87h1.87l-1.47,6.94h-1.43l.13-1.29h-.07a3.78,3.78,0,0,1-.59.73,2.23,2.23,0,0,1-.71.5A2,2,0,0,1,518.58,2040.11Z" transform="translate(-486.26 -2005.59)"/><path class="cls-4" d="M523.92,2040l1.47-6.94h1.87l-1.47,6.94Zm2.71-7.81a1.2,1.2,0,0,1-.67-.17.65.65,0,0,1-.27-.59,1.25,1.25,0,0,1,.13-.6.93.93,0,0,1,.39-.37,1.42,1.42,0,0,1,.61-.12,1.23,1.23,0,0,1,.65.16.63.63,0,0,1,.27.58,1.2,1.2,0,0,1-.27.81,1.09,1.09,0,0,1-.84.29Z" transform="translate(-486.26 -2005.59)"/><path class="cls-4" d="M529.88,2040.11a1.93,1.93,0,0,1-1-.25,1.88,1.88,0,0,1-.73-.8,3.38,3.38,0,0,1-.28-1.47,6.14,6.14,0,0,1,.15-1.35,7,7,0,0,1,.42-1.27,4.52,4.52,0,0,1,.67-1.06,3,3,0,0,1,.89-.73,2.43,2.43,0,0,1,1.09-.26,1.48,1.48,0,0,1,1.2.5,2.14,2.14,0,0,1,.37.52h0v-.28a1.79,1.79,0,0,1,.06-.54,5.62,5.62,0,0,1,.09-.57l.47-2.22h1.87l-2,9.66H531.8l.11-.9h0a3.32,3.32,0,0,1-.53.53,2.76,2.76,0,0,1-.65.36A2.23,2.23,0,0,1,529.88,2040.11Zm.79-1.51a.92.92,0,0,0,.53-.16,1.4,1.4,0,0,0,.42-.42,2.59,2.59,0,0,0,.32-.59c.08-.22.16-.44.22-.67s.09-.44.12-.67a5.42,5.42,0,0,0,0-.57,1.19,1.19,0,0,0-.23-.79.76.76,0,0,0-.64-.3.85.85,0,0,0-.51.18,1.72,1.72,0,0,0-.45.48,3.09,3.09,0,0,0-.36.7,4.74,4.74,0,0,0-.23.84,4.3,4.3,0,0,0-.08.88,1.32,1.32,0,0,0,.22.82A.75.75,0,0,0,530.67,2038.6Z" transform="translate(-486.26 -2005.59)"/><path class="cls-4" d="M538.1,2040.11a3.36,3.36,0,0,1-1.43-.29,2.22,2.22,0,0,1-1-.89,2.91,2.91,0,0,1-.35-1.5,5.6,5.6,0,0,1,.25-1.68,4.33,4.33,0,0,1,.74-1.45,3.54,3.54,0,0,1,2.89-1.37,2.52,2.52,0,0,1,1.75.53,1.79,1.79,0,0,1,.58,1.36,2,2,0,0,1-.25,1,2.1,2.1,0,0,1-.74.77,4.07,4.07,0,0,1-1.25.49,8,8,0,0,1-1.76.17h-.32v.26a1.11,1.11,0,0,0,1,1.21h.21a4.21,4.21,0,0,0,1-.12,7.24,7.24,0,0,0,1-.41v1.41a4.91,4.91,0,0,1-1.11.4A5.63,5.63,0,0,1,538.1,2040.11Zm-.64-4.14h.28a3.84,3.84,0,0,0,1.17-.15,1.39,1.39,0,0,0,.65-.41.88.88,0,0,0,.21-.56.55.55,0,0,0-.17-.44.71.71,0,0,0-.48-.15,1.31,1.31,0,0,0-.69.22,2.14,2.14,0,0,0-.6.6,2.55,2.55,0,0,0-.37.92Z" transform="translate(-486.26 -2005.59)"/></g></svg>