<svg id="Layer_1" data-name="Layer 1" xmlns="http://www.w3.org/2000/svg" xmlns:xlink="http://www.w3.org/1999/xlink" viewBox="0 0 484.57 65.37"><defs><style>.cls-1{fill:#4d4d4d;}.cls-2{fill:#989898;stroke:#989898;stroke-miterlimit:10;stroke-width:0.95px;}.cls-3{fill:url(#linear-gradient);}.cls-4{fill:#2e3191;}.cls-5{fill:url(#linear-gradient-2);}</style><linearGradient id="linear-gradient" x1="505.03" y1="304.67" x2="530.62" y2="304.67" gradientTransform="matrix(1, 0, 0, -1, 0, 2234)" gradientUnits="userSpaceOnUse"><stop offset="0" stop-color="#1b1464"/><stop offset="0.16" stop-color="#221f75"/><stop offset="0.39" stop-color="#292985"/><stop offset="0.65" stop-color="#2d2f8e"/><stop offset="1" stop-color="#2e3191"/></linearGradient><linearGradient id="linear-gradient-2" x1="506.39" y1="304.32" x2="529.26" y2="304.32" gradientTransform="matrix(1, 0, 0, -1, 0, 2234)" gradientUnits="userSpaceOnUse"><stop offset="0" stop-color="#fff"/><stop offset="0.14" stop-color="#f4f4f4"/><stop offset="0.38" stop-color="#e9e9e9"/><stop offset="0.63" stop-color="#e5e5e5"/></linearGradient></defs><g id="Layer_4" data-name="Layer 4"><path class="cls-1" d="M581.33,1921.34h-3.65v-19.06h-6.49v-3.09H587.8v3.09h-6.47Z" transform="translate(-485.93 -1897.75)"/><path class="cls-1" d="M596.78,1904.25h.93a6.14,6.14,0,0,1,.86.12l-.33,3.35a5.32,5.32,0,0,0-.78-.14,5.75,5.75,0,0,0-.83,0,5.36,5.36,0,0,0-1.82.31,4.58,4.58,0,0,0-1.53.95,4.48,4.48,0,0,0-1,1.57,6,6,0,0,0-.38,2.18v8.76h-3.59v-16.77h2.8l.49,3h.16a7.66,7.66,0,0,1,1.25-1.64,5.93,5.93,0,0,1,1.7-1.19A5.12,5.12,0,0,1,596.78,1904.25Z" transform="translate(-485.93 -1897.75)"/><path class="cls-1" d="M607.85,1904.25a7.21,7.21,0,0,1,4.81,1.41,5.5,5.5,0,0,1,1.63,4.39v11.29h-2.53l-.7-2.38h-.12a8.76,8.76,0,0,1-1.47,1.51,5,5,0,0,1-1.74.89,8.56,8.56,0,0,1-2.41.29,6.29,6.29,0,0,1-2.7-.56,4.17,4.17,0,0,1-1.86-1.69,5.56,5.56,0,0,1-.67-2.88,4.36,4.36,0,0,1,1.93-3.89,11.25,11.25,0,0,1,5.84-1.44l2.9-.11v-.88a2.76,2.76,0,0,0-3.08-3.21,8.38,8.38,0,0,0-2.44.36,21.35,21.35,0,0,0-2.3.88l-1.17-2.51a12.89,12.89,0,0,1,2.81-1.06A12.48,12.48,0,0,1,607.85,1904.25Zm2.89,9.08-2.15.09a6.79,6.79,0,0,0-3.74.9,2.64,2.64,0,0,0-1.08,2.23,2.12,2.12,0,0,0,.74,1.81,3.17,3.17,0,0,0,2,.57,4.52,4.52,0,0,0,3.06-1,3.83,3.83,0,0,0,1.21-3.08Z" transform="translate(-485.93 -1897.75)"/><path class="cls-1" d="M622.75,1921.34l-6.38-16.77h3.77l3.46,9.85c.22.62.42,1.3.6,2a17.77,17.77,0,0,1,.38,1.83h.12a14.69,14.69,0,0,1,.41-1.86c.2-.72.41-1.39.62-2l3.46-9.85H633l-6.38,16.77Z" transform="translate(-485.93 -1897.75)"/><path class="cls-1" d="M641.77,1904.25a7.71,7.71,0,0,1,3.85.92,6.24,6.24,0,0,1,2.47,2.62,8.93,8.93,0,0,1,.86,4.07v1.9h-11.2a5.49,5.49,0,0,0,1.31,3.76,4.6,4.6,0,0,0,3.51,1.32,12.24,12.24,0,0,0,2.89-.31,15.28,15.28,0,0,0,2.64-.92v2.9a12.24,12.24,0,0,1-2.56.86,15.55,15.55,0,0,1-3.12.28,9.38,9.38,0,0,1-4.35-1,6.8,6.8,0,0,1-2.93-2.86,9.93,9.93,0,0,1-1-4.76,11,11,0,0,1,1-4.79,7,7,0,0,1,2.68-3A7.67,7.67,0,0,1,641.77,1904.25Zm0,2.68a3.57,3.57,0,0,0-2.72,1.09,5.07,5.07,0,0,0-1.22,3.2h7.62A5.83,5.83,0,0,0,645,1909a3.45,3.45,0,0,0-1.2-1.52A3.63,3.63,0,0,0,641.77,1906.93Z" transform="translate(-485.93 -1897.75)"/><path class="cls-1" d="M656.3,1921.34h-3.6v-23.58h3.6Z" transform="translate(-485.93 -1897.75)"/><path class="cls-1" d="M669.8,1921.34v-22.15h3.63v22.15Z" transform="translate(-485.93 -1897.75)"/><path class="cls-1" d="M685.4,1921.65a8.66,8.66,0,0,1-4.12-.92,6.15,6.15,0,0,1-2.68-2.84,10.92,10.92,0,0,1-.94-4.85,10.53,10.53,0,0,1,1-5,6.48,6.48,0,0,1,2.85-2.87,9.19,9.19,0,0,1,4.19-.92,12,12,0,0,1,2.73.29,10.07,10.07,0,0,1,2.06.72l-1.06,2.85q-.93-.36-1.89-.63a7.4,7.4,0,0,0-1.87-.26,4.3,4.3,0,0,0-2.44.66,3.88,3.88,0,0,0-1.46,1.94,9.12,9.12,0,0,0-.48,3.19,8.66,8.66,0,0,0,.49,3.11,3.85,3.85,0,0,0,1.44,1.91,4.08,4.08,0,0,0,2.35.65,8.57,8.57,0,0,0,2.47-.34,11.22,11.22,0,0,0,2.06-.86v3.09a8.07,8.07,0,0,1-2,.81A11.15,11.15,0,0,1,685.4,1921.65Z" transform="translate(-485.93 -1897.75)"/><path class="cls-1" d="M700.19,1904.25a7.61,7.61,0,0,1,3.85.92,6.24,6.24,0,0,1,2.47,2.62,8.81,8.81,0,0,1,.87,4.07v1.9h-11.2a5.4,5.4,0,0,0,1.31,3.76,4.6,4.6,0,0,0,3.51,1.32,12.1,12.1,0,0,0,2.88-.31,14.58,14.58,0,0,0,2.65-.92v2.9a12.24,12.24,0,0,1-2.56.86,15.64,15.64,0,0,1-3.13.28,9.51,9.51,0,0,1-4.35-1,6.83,6.83,0,0,1-2.92-2.86,9.7,9.7,0,0,1-1.05-4.76,10.85,10.85,0,0,1,1-4.79,7,7,0,0,1,2.68-3A7.63,7.63,0,0,1,700.19,1904.25Zm0,2.68a3.57,3.57,0,0,0-2.72,1.09,5.17,5.17,0,0,0-1.22,3.2h7.63a5.84,5.84,0,0,0-.42-2.22,3.47,3.47,0,0,0-1.21-1.52A3.55,3.55,0,0,0,700.19,1906.93Z" transform="translate(-485.93 -1897.75)"/><path class="cls-1" d="M714.72,1921.34h-3.59v-23.58h3.59Z" transform="translate(-485.93 -1897.75)"/><path class="cls-1" d="M725.94,1904.25a7.21,7.21,0,0,1,4.81,1.41,5.5,5.5,0,0,1,1.63,4.39v11.29h-2.53l-.7-2.38H729a8.76,8.76,0,0,1-1.47,1.51,5,5,0,0,1-1.74.89,8.56,8.56,0,0,1-2.41.29,6.29,6.29,0,0,1-2.7-.56,4.17,4.17,0,0,1-1.86-1.69,5.56,5.56,0,0,1-.67-2.88,4.36,4.36,0,0,1,1.93-3.89,11.29,11.29,0,0,1,5.85-1.44l2.89-.11v-.88a2.76,2.76,0,0,0-3.08-3.21,8.38,8.38,0,0,0-2.44.36,21.35,21.35,0,0,0-2.3.88l-1.17-2.51a12.89,12.89,0,0,1,2.81-1.06A12.7,12.7,0,0,1,725.94,1904.25Zm2.9,9.08-2.16.09a6.79,6.79,0,0,0-3.74.9,2.64,2.64,0,0,0-1.08,2.23,2.12,2.12,0,0,0,.75,1.81,3.15,3.15,0,0,0,1.95.57,4.52,4.52,0,0,0,3.06-1,3.84,3.84,0,0,0,1.22-3.08Z" transform="translate(-485.93 -1897.75)"/><path class="cls-1" d="M745.76,1904.25a6.28,6.28,0,0,1,4.42,1.46q1.58,1.47,1.58,4.69v10.94H748.2v-10.27a4.52,4.52,0,0,0-.8-2.92,3,3,0,0,0-2.49-1,3.68,3.68,0,0,0-3.39,1.5,8.17,8.17,0,0,0-.94,4.34v8.33H737v-16.77h2.79l.5,2.27h.19a5,5,0,0,1,1.36-1.45,6.06,6.06,0,0,1,1.82-.85A7.43,7.43,0,0,1,745.76,1904.25Z" transform="translate(-485.93 -1897.75)"/><path class="cls-1" d="M762.13,1921.65a5.94,5.94,0,0,1-4.8-2.19c-1.21-1.46-1.82-3.62-1.81-6.47s.61-5,1.84-6.53a6,6,0,0,1,4.86-2.21,6.38,6.38,0,0,1,2.21.34,5.25,5.25,0,0,1,1.65.92,5.7,5.7,0,0,1,1.17,1.28h.17c0-.31-.11-.76-.17-1.35a15.2,15.2,0,0,1-.09-1.65v-6h3.58v23.58H768l-.64-2.27h-.15a5.48,5.48,0,0,1-1.15,1.3,4.78,4.78,0,0,1-1.64.93A6.58,6.58,0,0,1,762.13,1921.65Zm1-2.9a3.68,3.68,0,0,0,3.22-1.32,7,7,0,0,0,1-4V1913a8.49,8.49,0,0,0-.91-4.32,3.53,3.53,0,0,0-3.31-1.5,3.3,3.3,0,0,0-2.93,1.54,7.84,7.84,0,0,0-1,4.32,7.49,7.49,0,0,0,1,4.24,3.37,3.37,0,0,0,2.94,1.47Z" transform="translate(-485.93 -1897.75)"/><path class="cls-1" d="M575.32,1939.87v5.79a6.47,6.47,0,0,1-.09,1h.15a3.72,3.72,0,0,1,1-1.09,4.15,4.15,0,0,1,1.3-.64,5.36,5.36,0,0,1,1.54-.22,5.47,5.47,0,0,1,2.46.49,3.44,3.44,0,0,1,1.55,1.49,5.55,5.55,0,0,1,.54,2.63v8.2H581v-7.7a3.42,3.42,0,0,0-.61-2.19,2.29,2.29,0,0,0-1.86-.73,3.29,3.29,0,0,0-1.93.5,2.78,2.78,0,0,0-1,1.49,7.74,7.74,0,0,0-.31,2.39v6.24h-2.68v-17.68Z" transform="translate(-485.93 -1897.75)"/><path class="cls-1" d="M591.92,1955.62a4.78,4.78,0,0,0,1-.1,6.14,6.14,0,0,0,.94-.23v2a6.54,6.54,0,0,1-1.15.32,7.25,7.25,0,0,1-1.47.14,4.85,4.85,0,0,1-1.92-.36,2.79,2.79,0,0,1-1.35-1.23,4.93,4.93,0,0,1-.5-2.42V1947h-1.72v-1.2l1.84-1,.88-2.7h1.68v2.8h3.6v2h-3.6v6.71a1.92,1.92,0,0,0,.48,1.43A1.73,1.73,0,0,0,591.92,1955.62Z" transform="translate(-485.93 -1897.75)"/><path class="cls-1" d="M601.85,1955.62a4.78,4.78,0,0,0,1-.1,7.43,7.43,0,0,0,.93-.23v2a6.54,6.54,0,0,1-1.15.32,7.15,7.15,0,0,1-1.46.14,4.9,4.9,0,0,1-1.93-.36,2.83,2.83,0,0,1-1.35-1.23,4.93,4.93,0,0,1-.5-2.42V1947h-1.71v-1.2l1.84-1,.87-2.7h1.68v2.8h3.61v2h-3.61v6.71a1.92,1.92,0,0,0,.48,1.43A1.74,1.74,0,0,0,601.85,1955.62Z" transform="translate(-485.93 -1897.75)"/><path class="cls-1" d="M612.77,1944.73a4.41,4.41,0,0,1,3.59,1.64,7.39,7.39,0,0,1,1.36,4.86,9,9,0,0,1-.63,3.6,5,5,0,0,1-1.76,2.21,4.7,4.7,0,0,1-2.63.74,5.21,5.21,0,0,1-1.66-.24,4,4,0,0,1-1.21-.66,4.94,4.94,0,0,1-.84-.87h-.16c0,.29.08.62.11,1s0,.71,0,1v5.11H606.3V1945h2.19l.38,1.74H609a4.84,4.84,0,0,1,.86-1,3.9,3.9,0,0,1,1.23-.72A4.83,4.83,0,0,1,612.77,1944.73Zm-.72,2.2a3.23,3.23,0,0,0-1.77.43,2.6,2.6,0,0,0-1,1.31,7.4,7.4,0,0,0-.32,2.19v.37a8.24,8.24,0,0,0,.29,2.37,2.76,2.76,0,0,0,1,1.48,3,3,0,0,0,1.83.51,2.42,2.42,0,0,0,1.61-.54,3.1,3.1,0,0,0,1-1.52,7.67,7.67,0,0,0,.32-2.33,5.85,5.85,0,0,0-.72-3.15,2.42,2.42,0,0,0-2.24-1.12Z" transform="translate(-485.93 -1897.75)"/><path class="cls-1" d="M629.1,1954a3.47,3.47,0,0,1-.6,2.09,3.66,3.66,0,0,1-1.76,1.29,8.2,8.2,0,0,1-2.82.44,11.54,11.54,0,0,1-2.27-.19,8,8,0,0,1-1.8-.57v-2.31a12.56,12.56,0,0,0,2,.73,8,8,0,0,0,2.12.31,3.27,3.27,0,0,0,1.89-.42,1.3,1.3,0,0,0,.58-1.11,1.2,1.2,0,0,0-.23-.73,2.57,2.57,0,0,0-.86-.67,15.43,15.43,0,0,0-1.86-.82,14.93,14.93,0,0,1-2-1,3.54,3.54,0,0,1-1.24-1.16,3.2,3.2,0,0,1-.42-1.73,2.85,2.85,0,0,1,1.33-2.55,6.27,6.27,0,0,1,3.51-.87,10.71,10.71,0,0,1,2.19.23,11.49,11.49,0,0,1,2,.68l-.84,2a13.35,13.35,0,0,0-1.71-.6,6,6,0,0,0-1.74-.25,3.18,3.18,0,0,0-1.58.32,1,1,0,0,0-.54.9,1.1,1.1,0,0,0,.27.75,2.76,2.76,0,0,0,.9.61c.43.21,1,.46,1.79.76a14.37,14.37,0,0,1,2,.91,3.69,3.69,0,0,1,1.27,1.15A3.19,3.19,0,0,1,629.1,1954Z" transform="translate(-485.93 -1897.75)"/><path class="cls-1" d="M639.18,1940.94l-6.2,16.61h-2.51l6.19-16.61Z" transform="translate(-485.93 -1897.75)"/><path class="cls-1" d="M646.85,1940.94l-6.2,16.61h-2.51l6.19-16.61Z" transform="translate(-485.93 -1897.75)"/><path class="cls-1" d="M652.88,1944.73a5.6,5.6,0,0,1,2.89.7,4.64,4.64,0,0,1,1.85,2,6.63,6.63,0,0,1,.65,3v1.43h-8.4a4.15,4.15,0,0,0,1,2.82,3.43,3.43,0,0,0,2.63,1,9.31,9.31,0,0,0,2.17-.23,11.82,11.82,0,0,0,2-.69v2.17a9.24,9.24,0,0,1-1.92.65,12.26,12.26,0,0,1-2.34.2,7.21,7.21,0,0,1-3.26-.71,5.24,5.24,0,0,1-2.2-2.15,7.48,7.48,0,0,1-.78-3.57,8.07,8.07,0,0,1,.72-3.59,5,5,0,0,1,2-2.26A5.8,5.8,0,0,1,652.88,1944.73Zm0,2a2.69,2.69,0,0,0-2,.82,3.84,3.84,0,0,0-.91,2.4h5.71a4.29,4.29,0,0,0-.31-1.66,2.46,2.46,0,0,0-.9-1.14,2.69,2.69,0,0,0-1.59-.41Z" transform="translate(-485.93 -1897.75)"/><path class="cls-1" d="M667.69,1944.73a4.71,4.71,0,0,1,3.32,1.1,4.56,4.56,0,0,1,1.19,3.52v8.2h-2.68v-7.7a3.35,3.35,0,0,0-.6-2.19,2.25,2.25,0,0,0-1.86-.73,2.76,2.76,0,0,0-2.54,1.12,6,6,0,0,0-.71,3.25v6.25h-2.68V1945h2.09l.37,1.71h.15a3.72,3.72,0,0,1,1-1.09,4.47,4.47,0,0,1,1.36-.64A5.34,5.34,0,0,1,667.69,1944.73Z" transform="translate(-485.93 -1897.75)"/><path class="cls-1" d="M675.43,1956.14a1.56,1.56,0,0,1,.49-1.31,1.85,1.85,0,0,1,1.18-.38,1.88,1.88,0,0,1,1.19.38,1.56,1.56,0,0,1,.49,1.31,1.6,1.6,0,0,1-.49,1.32,1.84,1.84,0,0,1-1.19.4,1.8,1.8,0,0,1-1.18-.4A1.6,1.6,0,0,1,675.43,1956.14Z" transform="translate(-485.93 -1897.75)"/><path class="cls-1" d="M683.35,1940.15a1.75,1.75,0,0,1,1.06.33,1.66,1.66,0,0,1,0,2.27,1.69,1.69,0,0,1-1.06.35,1.75,1.75,0,0,1-1.08-.35,1.68,1.68,0,0,1,0-2.27A1.79,1.79,0,0,1,683.35,1940.15Zm1.32,4.82v12.58H682V1945Z" transform="translate(-485.93 -1897.75)"/><path class="cls-1" d="M693.35,1957.78a6.5,6.5,0,0,1-3.09-.69,4.61,4.61,0,0,1-2-2.12,8.13,8.13,0,0,1-.7-3.64,7.87,7.87,0,0,1,.77-3.76,4.92,4.92,0,0,1,2.14-2.14,6.68,6.68,0,0,1,3.14-.7,9,9,0,0,1,2,.22,7.78,7.78,0,0,1,1.56.54l-.8,2.14a13.88,13.88,0,0,0-1.42-.47,5.57,5.57,0,0,0-1.4-.2,3.27,3.27,0,0,0-1.83.49,3,3,0,0,0-1.1,1.47,7.12,7.12,0,0,0-.35,2.38,6.62,6.62,0,0,0,.36,2.34,2.9,2.9,0,0,0,1.08,1.43,3.14,3.14,0,0,0,1.76.48,6.08,6.08,0,0,0,1.85-.25,7.79,7.79,0,0,0,1.55-.64V1957a5.63,5.63,0,0,1-1.53.61A8.82,8.82,0,0,1,693.35,1957.78Z" transform="translate(-485.93 -1897.75)"/><path class="cls-1" d="M704.52,1944.73a5.6,5.6,0,0,1,2.89.7,4.64,4.64,0,0,1,1.85,2,6.63,6.63,0,0,1,.65,3v1.43h-8.4a4.06,4.06,0,0,0,1,2.82,3.43,3.43,0,0,0,2.63,1,9.31,9.31,0,0,0,2.17-.23,11.82,11.82,0,0,0,2-.69v2.17a9.24,9.24,0,0,1-1.92.65,12.26,12.26,0,0,1-2.34.2,7.25,7.25,0,0,1-3.27-.71,5.22,5.22,0,0,1-2.19-2.15,7.48,7.48,0,0,1-.78-3.57,8.38,8.38,0,0,1,.71-3.59,5.27,5.27,0,0,1,2-2.26A5.84,5.84,0,0,1,704.52,1944.73Zm0,2a2.69,2.69,0,0,0-2,.82,3.85,3.85,0,0,0-.92,2.4h5.72a4.49,4.49,0,0,0-.31-1.66,2.48,2.48,0,0,0-.91-1.14,2.59,2.59,0,0,0-1.58-.41Z" transform="translate(-485.93 -1897.75)"/><path class="cls-1" d="M717.51,1955.62a4.78,4.78,0,0,0,1-.1,7.43,7.43,0,0,0,.93-.23v2a6.54,6.54,0,0,1-1.15.32,7.15,7.15,0,0,1-1.46.14,4.85,4.85,0,0,1-1.92-.36,2.81,2.81,0,0,1-1.36-1.23,4.93,4.93,0,0,1-.5-2.42V1947h-1.71v-1.2l1.84-1,.87-2.7h1.69v2.8h3.6v2h-3.6v6.71a2,2,0,0,0,.47,1.43A1.74,1.74,0,0,0,717.51,1955.62Z" transform="translate(-485.93 -1897.75)"/><path class="cls-1" d="M728.34,1944.73H729c.22,0,.44,0,.65.09l-.25,2.51a3.84,3.84,0,0,0-.59-.11h-.62a4,4,0,0,0-1.36.24,3.41,3.41,0,0,0-1.15.71,3.33,3.33,0,0,0-.78,1.18,4.31,4.31,0,0,0-.29,1.63v6.57H722V1945h2.1l.37,2.22h.12a5.31,5.31,0,0,1,.93-1.23,4.39,4.39,0,0,1,1.28-.89A3.6,3.6,0,0,1,728.34,1944.73Z" transform="translate(-485.93 -1897.75)"/><path class="cls-1" d="M736.7,1944.73a5.44,5.44,0,0,1,3.61,1.06,4.14,4.14,0,0,1,1.22,3.3v8.46h-1.9l-.52-1.78H739a6.54,6.54,0,0,1-1.1,1.13,4.07,4.07,0,0,1-1.31.67,6.89,6.89,0,0,1-1.81.21,4.75,4.75,0,0,1-2-.41,3.16,3.16,0,0,1-1.39-1.27,4.18,4.18,0,0,1-.51-2.16,3.28,3.28,0,0,1,1.45-2.92,8.5,8.5,0,0,1,4.38-1.08l2.17-.08v-.66a2.07,2.07,0,0,0-1.66-2.4,2.29,2.29,0,0,0-.64,0,6.29,6.29,0,0,0-1.83.27,13.39,13.39,0,0,0-1.73.66l-.88-1.88a9.45,9.45,0,0,1,2.11-.8A9.62,9.62,0,0,1,736.7,1944.73Zm2.17,6.81-1.61.07a5,5,0,0,0-2.81.68,2,2,0,0,0-.81,1.67,1.63,1.63,0,0,0,.56,1.36,2.41,2.41,0,0,0,1.47.43A3.4,3.4,0,0,0,738,1955a2.9,2.9,0,0,0,.91-2.32Z" transform="translate(-485.93 -1897.75)"/><path class="cls-1" d="M747.94,1957.55,743.16,1945H746l2.59,7.39c.17.47.32,1,.46,1.52a10.89,10.89,0,0,1,.28,1.38h.09a9.6,9.6,0,0,1,.31-1.39c.15-.55.3-1,.46-1.51l2.6-7.39h2.81l-4.78,12.58Z" transform="translate(-485.93 -1897.75)"/><path class="cls-1" d="M762.28,1944.73a5.6,5.6,0,0,1,2.89.7,4.64,4.64,0,0,1,1.85,2,6.63,6.63,0,0,1,.65,3v1.43h-8.4a4.15,4.15,0,0,0,1,2.82,3.43,3.43,0,0,0,2.63,1,9.31,9.31,0,0,0,2.17-.23,11.82,11.82,0,0,0,2-.69v2.17a9.24,9.24,0,0,1-1.92.65,12.26,12.26,0,0,1-2.34.2,7.21,7.21,0,0,1-3.26-.71,5.13,5.13,0,0,1-2.2-2.15,7.48,7.48,0,0,1-.78-3.57,8.38,8.38,0,0,1,.71-3.59,5.16,5.16,0,0,1,2-2.26A5.84,5.84,0,0,1,762.28,1944.73Zm0,2a2.69,2.69,0,0,0-2,.82,3.85,3.85,0,0,0-.92,2.4H765a4.49,4.49,0,0,0-.31-1.66,2.48,2.48,0,0,0-.91-1.14,2.58,2.58,0,0,0-1.5-.41Z" transform="translate(-485.93 -1897.75)"/><path class="cls-1" d="M773.24,1957.55h-2.69v-17.68h2.69Z" transform="translate(-485.93 -1897.75)"/><path class="cls-1" d="M776.51,1956.14a1.58,1.58,0,0,1,.49-1.31,2,2,0,0,1,2.37,0,1.57,1.57,0,0,1,.5,1.31,1.6,1.6,0,0,1-.5,1.32,1.84,1.84,0,0,1-1.19.4,1.8,1.8,0,0,1-1.18-.4A1.66,1.66,0,0,1,776.51,1956.14Z" transform="translate(-485.93 -1897.75)"/><path class="cls-1" d="M784.43,1940.15a1.78,1.78,0,0,1,1.07.33,1.66,1.66,0,0,1,0,2.27,1.72,1.72,0,0,1-1.07.35,1.49,1.49,0,0,1-1.07-2.62A1.72,1.72,0,0,1,784.43,1940.15Zm1.32,4.82v12.58h-2.68V1945Z" transform="translate(-485.93 -1897.75)"/><path class="cls-1" d="M797.78,1954a3.47,3.47,0,0,1-.6,2.09,3.63,3.63,0,0,1-1.75,1.29,8,8,0,0,1-2.83.44,11.54,11.54,0,0,1-2.27-.19,8,8,0,0,1-1.8-.57v-2.31a12.56,12.56,0,0,0,2,.73,8,8,0,0,0,2.12.31,3.27,3.27,0,0,0,1.89-.42,1.29,1.29,0,0,0,.59-1.11,1.26,1.26,0,0,0-.23-.73,2.71,2.71,0,0,0-.87-.67,15.43,15.43,0,0,0-1.86-.82,16.22,16.22,0,0,1-2-1,3.62,3.62,0,0,1-1.24-1.16,3.2,3.2,0,0,1-.42-1.73,2.85,2.85,0,0,1,1.33-2.55,6.35,6.35,0,0,1,3.51-.87,10.06,10.06,0,0,1,2.19.23,10.71,10.71,0,0,1,2,.68l-.84,2a13.35,13.35,0,0,0-1.71-.6,6.12,6.12,0,0,0-1.75-.25,3.17,3.17,0,0,0-1.57.32,1,1,0,0,0-.54.9,1.2,1.2,0,0,0,.26.75,2.76,2.76,0,0,0,.9.61c.43.21,1,.46,1.79.76a13.34,13.34,0,0,1,2,.91,3.51,3.51,0,0,1,1.27,1.15A3.2,3.2,0,0,1,797.78,1954Z" transform="translate(-485.93 -1897.75)"/><path class="cls-1" d="M807.86,1940.94l-6.19,16.61h-2.51l6.19-16.61Z" transform="translate(-485.93 -1897.75)"/><path class="cls-1" d="M820.5,1957.54l-1.59-5.84-.27-1c-.11-.4-.22-.83-.32-1.26s-.21-.84-.29-1.22-.16-.66-.2-.87h-.09q-.06.32-.18.87c-.09.38-.18.78-.29,1.22s-.21.87-.31,1.29-.2.77-.28,1l-1.67,5.81h-2.93L808.55,1945h2.71l1.63,6.25c.11.43.22.88.32,1.38s.19,1,.27,1.41.13.81.16,1.1h.1a3.23,3.23,0,0,1,.12-.78,6.85,6.85,0,0,1,.18-1c.06-.36.14-.67.21-1a7.6,7.6,0,0,1,.19-.74l1.93-6.65h2.92l1.86,6.65q.12.44.27,1.08c.1.44.19.88.27,1.31a9.85,9.85,0,0,1,.15,1.09h.09a6,6,0,0,1,.17-1c.08-.39.17-.92.27-1.42s.22-1,.33-1.41l1.68-6.25H827l-3.55,12.58Z" transform="translate(-485.93 -1897.75)"/><path class="cls-1" d="M834,1944.73a5.6,5.6,0,0,1,2.89.7,4.64,4.64,0,0,1,1.85,2,6.63,6.63,0,0,1,.65,3v1.43H831a4.15,4.15,0,0,0,1,2.82,3.43,3.43,0,0,0,2.63,1,9.31,9.31,0,0,0,2.17-.23,11.82,11.82,0,0,0,2-.69v2.17a9.24,9.24,0,0,1-1.92.65,12.26,12.26,0,0,1-2.34.2,7.21,7.21,0,0,1-3.26-.71,5.13,5.13,0,0,1-2.2-2.15,7.48,7.48,0,0,1-.78-3.57,8.38,8.38,0,0,1,.71-3.59,5.16,5.16,0,0,1,2-2.26A5.8,5.8,0,0,1,834,1944.73Zm0,2a2.69,2.69,0,0,0-2,.82,3.85,3.85,0,0,0-.92,2.4h5.72a4.49,4.49,0,0,0-.31-1.66,2.48,2.48,0,0,0-.91-1.14,2.59,2.59,0,0,0-1.58-.41Z" transform="translate(-485.93 -1897.75)"/><path class="cls-1" d="M847.06,1944.73a5.44,5.44,0,0,1,3.61,1.06,4.14,4.14,0,0,1,1.22,3.3v8.46H850l-.52-1.78h-.09a6.54,6.54,0,0,1-1.1,1.13,4.07,4.07,0,0,1-1.31.67,6.89,6.89,0,0,1-1.81.21,4.75,4.75,0,0,1-2-.41,3.11,3.11,0,0,1-1.39-1.27,4.18,4.18,0,0,1-.51-2.16,3.28,3.28,0,0,1,1.45-2.92,8.5,8.5,0,0,1,4.38-1.08l2.17-.08v-.66a2.07,2.07,0,0,0-1.66-2.4,2.29,2.29,0,0,0-.64,0,6.29,6.29,0,0,0-1.83.27,13.39,13.39,0,0,0-1.73.66l-.88-1.88a9.45,9.45,0,0,1,2.11-.8A9.85,9.85,0,0,1,847.06,1944.73Zm2.17,6.81-1.61.07a5,5,0,0,0-2.81.68A2,2,0,0,0,844,1954a1.63,1.63,0,0,0,.56,1.36,2.41,2.41,0,0,0,1.47.43,3.37,3.37,0,0,0,2.29-.79,2.9,2.9,0,0,0,.91-2.32Z" transform="translate(-485.93 -1897.75)"/><path class="cls-1" d="M860.17,1955.62a4.78,4.78,0,0,0,1-.1,6.14,6.14,0,0,0,.94-.23v2a6.54,6.54,0,0,1-1.15.32,7.25,7.25,0,0,1-1.47.14,4.85,4.85,0,0,1-1.92-.36,2.79,2.79,0,0,1-1.35-1.23,4.93,4.93,0,0,1-.5-2.42V1947H854v-1.2l1.84-1,.88-2.7h1.68v2.8H862v2h-3.6v6.71a1.92,1.92,0,0,0,.48,1.43A1.73,1.73,0,0,0,860.17,1955.62Z" transform="translate(-485.93 -1897.75)"/><path class="cls-1" d="M867.3,1939.87v5.79a6.47,6.47,0,0,1-.09,1h.15a3.72,3.72,0,0,1,1-1.09,4.15,4.15,0,0,1,1.3-.64,5.36,5.36,0,0,1,1.54-.22,5.46,5.46,0,0,1,2.45.49,3.34,3.34,0,0,1,1.55,1.49,5.55,5.55,0,0,1,.54,2.63v8.2H873v-7.7a3.36,3.36,0,0,0-.61-2.19,2.23,2.23,0,0,0-1.85-.73,3.2,3.2,0,0,0-1.93.5,2.78,2.78,0,0,0-1,1.49,8,8,0,0,0-.3,2.39v6.24h-2.69v-17.68Z" transform="translate(-485.93 -1897.75)"/><path class="cls-1" d="M884.28,1944.73a5.6,5.6,0,0,1,2.89.7,4.64,4.64,0,0,1,1.85,2,6.63,6.63,0,0,1,.65,3v1.43h-8.4a4.15,4.15,0,0,0,1,2.82,3.51,3.51,0,0,0,2.64,1,9.22,9.22,0,0,0,2.16-.23,11.82,11.82,0,0,0,2-.69v2.17a8.69,8.69,0,0,1-1.92.65,12.26,12.26,0,0,1-2.34.2,7.21,7.21,0,0,1-3.26-.71,5.11,5.11,0,0,1-2.19-2.15,7.35,7.35,0,0,1-.79-3.57,8.07,8.07,0,0,1,.72-3.59,5.27,5.27,0,0,1,2-2.26A5.8,5.8,0,0,1,884.28,1944.73Zm0,2a2.69,2.69,0,0,0-2,.82,3.84,3.84,0,0,0-.91,2.4h5.72a4.5,4.5,0,0,0-.32-1.66,2.46,2.46,0,0,0-.9-1.14,2.62,2.62,0,0,0-1.59-.41Z" transform="translate(-485.93 -1897.75)"/><path class="cls-1" d="M898.92,1944.73h.69c.22,0,.44,0,.65.09l-.25,2.51a3.84,3.84,0,0,0-.59-.11h-.62a4,4,0,0,0-1.36.24,3.41,3.41,0,0,0-1.15.71,3.33,3.33,0,0,0-.78,1.18,4.31,4.31,0,0,0-.29,1.63v6.57h-2.69V1945h2.1l.37,2.22h.12a5.31,5.31,0,0,1,.93-1.23,4.39,4.39,0,0,1,1.28-.89A3.67,3.67,0,0,1,898.92,1944.73Z" transform="translate(-485.93 -1897.75)"/><path class="cls-2" d="M968.09,1942.28h0a1.94,1.94,0,0,1,1.93,1.94h0a1.94,1.94,0,0,1-1.93,1.94h0a1.94,1.94,0,0,1-1.94-1.94h0A1.94,1.94,0,0,1,968.09,1942.28Z" transform="translate(-485.93 -1897.75)"/><path class="cls-2" d="M968.09,1949.69h0a1.94,1.94,0,0,1,1.93,1.93h0a1.94,1.94,0,0,1-1.93,1.94h0a1.94,1.94,0,0,1-1.94-1.94h0A1.94,1.94,0,0,1,968.09,1949.69Z" transform="translate(-485.93 -1897.75)"/><path class="cls-2" d="M968.09,1957.11h0a1.94,1.94,0,0,1,1.93,1.94h0a1.94,1.94,0,0,1-1.93,1.94h0a1.94,1.94,0,0,1-1.94-1.94h0A1.94,1.94,0,0,1,968.09,1957.11Z" transform="translate(-485.93 -1897.75)"/><path d="M515.77,1897.75h0a29.84,29.84,0,0,1,29.84,29.83h0a29.84,29.84,0,0,1-29.84,29.83h0a29.84,29.84,0,0,1-29.84-29.83h0A29.84,29.84,0,0,1,515.77,1897.75Z" transform="translate(-485.93 -1897.75)"/><path class="cls-3" d="M507.38,1946.9l6.11-28.94H505l1.32-6.2h24.27l-1.32,6.2h-8.48l-6.11,28.94Z" transform="translate(-485.93 -1897.75)"/><path class="cls-4" d="M515.77,1897.75h0a29.84,29.84,0,0,1,29.84,29.83h0a29.84,29.84,0,0,1-29.84,29.83h0a29.84,29.84,0,0,1-29.84-29.83h0A29.84,29.84,0,0,1,515.77,1897.75Z" transform="translate(-485.93 -1897.75)"/><path class="cls-5" d="M508.5,1945.38l5.45-25.86h-7.56l1.18-5.54h21.69l-1.18,5.54H520.5l-5.45,25.86Z" transform="translate(-485.93 -1897.75)"/></g></svg>