<svg id="Layer_1" data-name="Layer 1" xmlns="http://www.w3.org/2000/svg" viewBox="0 0 1320.37 437.77"><defs><style>.cls-1,.cls-2,.cls-5{fill:none;}.cls-1,.cls-2{stroke:#b2b2b2;stroke-miterlimit:10;}.cls-1{stroke-width:1.42px;}.cls-2{stroke-width:1.34px;}.cls-3{opacity:0.5;}.cls-4,.cls-5{stroke:#fff;stroke-linecap:round;stroke-linejoin:round;stroke-width:2.89px;}</style></defs><g id="Layer_3" data-name="Layer 3"><path d="M479.34,1160.32q5.75,0,8.39,2.35a8.45,8.45,0,0,1,2.63,6.62,11.52,11.52,0,0,1-.59,3.64,8,8,0,0,1-2,3.08,9.45,9.45,0,0,1-3.59,2.11,17.19,17.19,0,0,1-5.47.77h-3.16V1190h-4.88v-29.67Zm-.32,4.06h-3.43v10.43h2.66a12.18,12.18,0,0,0,3.88-.54,4.83,4.83,0,0,0,2.43-1.71,5.28,5.28,0,0,0,.83-3.09,4.67,4.67,0,0,0-1.55-3.84,7.61,7.61,0,0,0-4.84-1.25Z" transform="translate(-470.43 -1158.41)"/><path d="M504.74,1167.1a10.17,10.17,0,0,1,5.15,1.24,8.19,8.19,0,0,1,3.31,3.51,11.9,11.9,0,0,1,1.16,5.44v2.55h-15a7.31,7.31,0,0,0,1.75,5,6.14,6.14,0,0,0,4.7,1.76,16.27,16.27,0,0,0,3.87-.41,22.13,22.13,0,0,0,3.54-1.23v3.88a16.09,16.09,0,0,1-3.43,1.15,20.25,20.25,0,0,1-4.18.37,12.76,12.76,0,0,1-5.83-1.28,9,9,0,0,1-3.91-3.84,13,13,0,0,1-1.41-6.37,14.71,14.71,0,0,1,1.28-6.41,9.29,9.29,0,0,1,3.6-4A10.31,10.31,0,0,1,504.74,1167.1Zm0,3.59a4.84,4.84,0,0,0-3.65,1.46,6.93,6.93,0,0,0-1.63,4.28h10.21a7.87,7.87,0,0,0-.56-3,4.5,4.5,0,0,0-1.61-2A4.8,4.8,0,0,0,504.74,1170.69Z" transform="translate(-470.43 -1158.41)"/><path d="M539.63,1178.71a15.42,15.42,0,0,1-.73,5,10.15,10.15,0,0,1-2.13,3.68,9.09,9.09,0,0,1-3.37,2.27,12.27,12.27,0,0,1-4.45.77,11.58,11.58,0,0,1-4.24-.77,9.23,9.23,0,0,1-3.34-2.27,10.42,10.42,0,0,1-2.18-3.68,14.89,14.89,0,0,1-.77-5,14.17,14.17,0,0,1,1.29-6.31,9,9,0,0,1,3.68-3.94,11.26,11.26,0,0,1,5.71-1.36,10.82,10.82,0,0,1,5.48,1.36,9.31,9.31,0,0,1,3.71,4A13.78,13.78,0,0,1,539.63,1178.71Zm-16.3,0a13,13,0,0,0,.6,4.2,5.33,5.33,0,0,0,10.19,0,13,13,0,0,0,.6-4.2,12.68,12.68,0,0,0-.6-4.15,5.19,5.19,0,0,0-1.86-2.62A5.48,5.48,0,0,0,529,1171a4.88,4.88,0,0,0-4.32,2A10,10,0,0,0,523.33,1178.71Z" transform="translate(-470.43 -1158.41)"/><path d="M556.64,1167.1a7.92,7.92,0,0,1,6.43,2.92c1.61,2,2.42,4.84,2.42,8.69a16.38,16.38,0,0,1-1.12,6.42,8.7,8.7,0,0,1-3.15,3.94,8.34,8.34,0,0,1-4.7,1.33,9,9,0,0,1-3-.44,7,7,0,0,1-2.15-1.16,8.32,8.32,0,0,1-1.51-1.57h-.28c.07.53.13,1.12.19,1.78s.09,1.26.09,1.82V1200h-4.81v-32.44h4l.67,3.11h.22a8.67,8.67,0,0,1,1.54-1.77,6.81,6.81,0,0,1,2.19-1.29A8.87,8.87,0,0,1,556.64,1167.1Zm-1.28,3.91a5.63,5.63,0,0,0-3.15.79,4.44,4.44,0,0,0-1.73,2.33,13,13,0,0,0-.58,3.91v.67a15.09,15.09,0,0,0,.52,4.23,4.92,4.92,0,0,0,1.73,2.64,5.34,5.34,0,0,0,3.27.9,4.38,4.38,0,0,0,2.88-1,5.75,5.75,0,0,0,1.71-2.72,13.62,13.62,0,0,0,.57-4.16,10.46,10.46,0,0,0-1.28-5.64,4.34,4.34,0,0,0-3.94-2Z" transform="translate(-470.43 -1158.41)"/><path d="M575.78,1190H571v-31.58h4.81Z" transform="translate(-470.43 -1158.41)"/><path d="M591.54,1167.1a10.17,10.17,0,0,1,5.15,1.24,8.19,8.19,0,0,1,3.31,3.51,11.9,11.9,0,0,1,1.16,5.44v2.55h-15a7.31,7.31,0,0,0,1.75,5,6.14,6.14,0,0,0,4.7,1.76,16.27,16.27,0,0,0,3.87-.41A20.83,20.83,0,0,0,600,1185v3.88a15.38,15.38,0,0,1-3.43,1.15,20.25,20.25,0,0,1-4.18.37,12.76,12.76,0,0,1-5.83-1.28,9.12,9.12,0,0,1-3.91-3.84,13,13,0,0,1-1.4-6.37,14.56,14.56,0,0,1,1.27-6.41,9.29,9.29,0,0,1,3.6-4A10.3,10.3,0,0,1,591.54,1167.1Zm0,3.59a4.85,4.85,0,0,0-3.65,1.46,6.93,6.93,0,0,0-1.63,4.28h10.21a7.87,7.87,0,0,0-.56-3,4.45,4.45,0,0,0-1.61-2A4.8,4.8,0,0,0,591.54,1170.69Z" transform="translate(-470.43 -1158.41)"/><path d="M626.15,1167.1c2.84,0,5,.62,6.44,1.88s2.19,3.23,2.19,5.89V1190h-3.39l-.94-3.18h-.16a12.61,12.61,0,0,1-2,2A7,7,0,0,1,626,1190a12.1,12.1,0,0,1-3.23.38,8.46,8.46,0,0,1-3.61-.74,5.62,5.62,0,0,1-2.49-2.26,7.53,7.53,0,0,1-.9-3.86,5.89,5.89,0,0,1,2.58-5.22q2.6-1.74,7.83-1.93l3.88-.14v-1.18a3.69,3.69,0,0,0-4.12-4.3,10.67,10.67,0,0,0-3.27.49,24.51,24.51,0,0,0-3.09,1.17l-1.56-3.36a17.62,17.62,0,0,1,8.14-2Zm3.88,12.16-2.89.12q-3.57.12-5,1.21a3.54,3.54,0,0,0-1.44,3,2.89,2.89,0,0,0,1,2.43,4.3,4.3,0,0,0,2.62.76,6,6,0,0,0,4.1-1.41,5.21,5.21,0,0,0,1.63-4.14Z" transform="translate(-470.43 -1158.41)"/><path d="M646.25,1190h-4.82v-31.58h4.82Z" transform="translate(-470.43 -1158.41)"/><path d="M668.15,1183.58a6.26,6.26,0,0,1-1.08,3.73,6.46,6.46,0,0,1-3.13,2.31,14.42,14.42,0,0,1-5.05.78,21.46,21.46,0,0,1-4-.33,15,15,0,0,1-3.22-1V1185a24.51,24.51,0,0,0,3.63,1.3,14.63,14.63,0,0,0,3.78.55,6,6,0,0,0,3.38-.74,2.33,2.33,0,0,0,1-2,2.13,2.13,0,0,0-.42-1.31,4.4,4.4,0,0,0-1.54-1.2,29.67,29.67,0,0,0-3.32-1.47,25.16,25.16,0,0,1-3.59-1.72,6.23,6.23,0,0,1-2.21-2.06,5.62,5.62,0,0,1-.76-3.08,5.09,5.09,0,0,1,2.38-4.56,11.2,11.2,0,0,1,6.27-1.55,17.73,17.73,0,0,1,3.91.41,19.05,19.05,0,0,1,3.6,1.21l-1.5,3.59a26.82,26.82,0,0,0-3-1.08,11.31,11.31,0,0,0-3.12-.44,5.57,5.57,0,0,0-2.81.57,1.79,1.79,0,0,0-1,1.6,2,2,0,0,0,.47,1.34,4.85,4.85,0,0,0,1.62,1.1c.76.36,1.83.82,3.19,1.36a24.92,24.92,0,0,1,3.48,1.61,6.51,6.51,0,0,1,2.27,2.06A5.84,5.84,0,0,1,668.15,1183.58Z" transform="translate(-470.43 -1158.41)"/><path d="M693.18,1178.71a15.69,15.69,0,0,1-.73,5,10.15,10.15,0,0,1-2.13,3.68,9.22,9.22,0,0,1-3.37,2.27,12.27,12.27,0,0,1-4.45.77,11.37,11.37,0,0,1-4.24-.77,9.23,9.23,0,0,1-3.34-2.27,10.42,10.42,0,0,1-2.18-3.68,14.65,14.65,0,0,1-.78-5,14.17,14.17,0,0,1,1.29-6.31,9,9,0,0,1,3.69-3.94,11.43,11.43,0,0,1,5.7-1.36,10.82,10.82,0,0,1,5.48,1.36,9.33,9.33,0,0,1,3.72,4A13.78,13.78,0,0,1,693.18,1178.71Zm-16.3,0a13,13,0,0,0,.6,4.2,5.32,5.32,0,0,0,9.33,1.66,5.47,5.47,0,0,0,.86-1.66,13,13,0,0,0,.6-4.2,12.68,12.68,0,0,0-.6-4.15,5.19,5.19,0,0,0-1.86-2.62,5.44,5.44,0,0,0-3.25-.91,4.87,4.87,0,0,0-4.32,2A10,10,0,0,0,676.88,1178.71Z" transform="translate(-470.43 -1158.41)"/><path d="M718.27,1167.1c2.84,0,5,.62,6.44,1.88s2.19,3.23,2.19,5.89V1190h-3.39l-.94-3.18h-.16a12.61,12.61,0,0,1-2,2,7,7,0,0,1-2.33,1.19,12.1,12.1,0,0,1-3.23.38,8.51,8.51,0,0,1-3.62-.74,5.59,5.59,0,0,1-2.48-2.26,7.53,7.53,0,0,1-.91-3.86,5.9,5.9,0,0,1,2.59-5.22q2.6-1.74,7.83-1.93l3.88-.14v-1.18a3.69,3.69,0,0,0-4.12-4.3,10.67,10.67,0,0,0-3.27.49,24.51,24.51,0,0,0-3.09,1.17l-1.56-3.36a17.62,17.62,0,0,1,8.14-2Zm3.88,12.16-2.89.12q-3.57.12-5,1.21a3.54,3.54,0,0,0-1.44,3,2.89,2.89,0,0,0,1,2.43,4.3,4.3,0,0,0,2.62.76,6,6,0,0,0,4.1-1.41,5.21,5.21,0,0,0,1.63-4.14Z" transform="translate(-470.43 -1158.41)"/><path d="M748.68,1183.58a6.26,6.26,0,0,1-1.08,3.73,6.5,6.5,0,0,1-3.13,2.31,14.42,14.42,0,0,1-5.05.78,21.46,21.46,0,0,1-4-.33,15,15,0,0,1-3.22-1V1185a24.51,24.51,0,0,0,3.63,1.3,14.63,14.63,0,0,0,3.78.55,6,6,0,0,0,3.38-.74,2.33,2.33,0,0,0,1-2,2.13,2.13,0,0,0-.42-1.31,4.62,4.62,0,0,0-1.54-1.2,29.67,29.67,0,0,0-3.32-1.47,25.16,25.16,0,0,1-3.59-1.72,6.27,6.27,0,0,1-2.22-2.06,5.82,5.82,0,0,1-.75-3.08,5.09,5.09,0,0,1,2.38-4.56,11.2,11.2,0,0,1,6.27-1.55,17.73,17.73,0,0,1,3.91.41,19.05,19.05,0,0,1,3.6,1.21l-1.5,3.59a27.78,27.78,0,0,0-3.06-1.08,11.29,11.29,0,0,0-3.11-.44,5.57,5.57,0,0,0-2.81.57,1.76,1.76,0,0,0-1,1.6,2,2,0,0,0,.47,1.34,5.07,5.07,0,0,0,1.61,1.1c.77.36,1.83.82,3.2,1.36a24.92,24.92,0,0,1,3.48,1.61,6.51,6.51,0,0,1,2.27,2.06A5.79,5.79,0,0,1,748.68,1183.58Z" transform="translate(-470.43 -1158.41)"/><path d="M758.58,1158.41v15.26c0,.69,0,1.45-.08,2.27s-.11,1.58-.16,2.3h.1c.35-.47.78-1,1.27-1.66s1-1.19,1.41-1.67l6.86-7.39h5.48l-9,9.67L774,1190h-5.6l-7.19-9.86-2.68,2.31V1190h-4.79v-31.58Z" transform="translate(-470.43 -1158.41)"/><path d="M819.36,1167.78h0a2.46,2.46,0,0,1,2.46,2.45h0a2.46,2.46,0,0,1-2.46,2.45h0a2.45,2.45,0,0,1-2.45-2.45h0A2.45,2.45,0,0,1,819.36,1167.78Z" transform="translate(-470.43 -1158.41)"/><path d="M819.36,1176.73h0a2.46,2.46,0,0,1,2.46,2.45h0a2.46,2.46,0,0,1-2.46,2.45h0a2.45,2.45,0,0,1-2.45-2.45h0A2.45,2.45,0,0,1,819.36,1176.73Z" transform="translate(-470.43 -1158.41)"/><path d="M819.36,1185.68h0a2.46,2.46,0,0,1,2.46,2.46h0a2.46,2.46,0,0,1-2.46,2.45h0a2.45,2.45,0,0,1-2.45-2.45h0A2.46,2.46,0,0,1,819.36,1185.68Z" transform="translate(-470.43 -1158.41)"/><path d="M498.38,1253.53,492.79,1275H489l-3.57-12.84c-.09-.31-.19-.68-.3-1.1s-.21-.86-.31-1.31-.19-.86-.27-1.24-.12-.67-.15-.89a5.48,5.48,0,0,1-.13.88q-.11.55-.24,1.23l-.3,1.31c-.11.44-.21.82-.3,1.15L479.87,1275H476l-5.57-21.42H474l3.09,12.55c.1.4.2.84.3,1.3l.3,1.4c.1.47.18.93.25,1.37s.15.85.19,1.21c.05-.37.12-.79.19-1.24s.17-.92.26-1.39.19-.93.29-1.37.21-.84.32-1.19l3.47-12.64h3.44l3.56,12.69c.11.36.22.76.32,1.21l.3,1.38c.1.47.18.92.26,1.36s.14.84.19,1.19c.07-.48.16-1,.27-1.64s.23-1.24.36-1.88.28-1.22.41-1.76l3.08-12.55Z" transform="translate(-470.43 -1158.41)"/><path d="M504.51,1252.15v5.73c0,.6,0,1.18-.05,1.74s-.08,1-.11,1.32h.19a4.81,4.81,0,0,1,1.26-1.4,5.2,5.2,0,0,1,1.67-.82,6.76,6.76,0,0,1,2-.28,7.28,7.28,0,0,1,3.16.62,4.4,4.4,0,0,1,2,1.93,7.28,7.28,0,0,1,.7,3.38V1275h-3.45v-10a4.36,4.36,0,0,0-.78-2.82,3,3,0,0,0-2.39-.94,4.2,4.2,0,0,0-2.49.65,3.69,3.69,0,0,0-1.31,1.91,10.78,10.78,0,0,0-.39,3.09v8h-3.46v-22.8Z" transform="translate(-470.43 -1158.41)"/><path d="M526.48,1258.42a6.93,6.93,0,0,1,4.65,1.37,5.29,5.29,0,0,1,1.57,4.24v11h-2.44l-.68-2.3h-.11a8.86,8.86,0,0,1-1.42,1.45,4.67,4.67,0,0,1-1.69.86,8.31,8.31,0,0,1-2.33.28,6,6,0,0,1-2.6-.54,4,4,0,0,1-1.8-1.63,5.38,5.38,0,0,1-.65-2.78,4.23,4.23,0,0,1,1.87-3.77,10.81,10.81,0,0,1,5.64-1.39l2.8-.1v-.85a3.2,3.2,0,0,0-.77-2.39,3.13,3.13,0,0,0-2.2-.72,7.85,7.85,0,0,0-2.36.36,16.24,16.24,0,0,0-2.23.85l-1.13-2.44a12.69,12.69,0,0,1,2.72-1A12.52,12.52,0,0,1,526.48,1258.42Zm2.8,8.78-2.08.09a6.47,6.47,0,0,0-3.62.87,2.56,2.56,0,0,0-1,2.16,2,2,0,0,0,.72,1.75,3,3,0,0,0,1.89.55,4.32,4.32,0,0,0,3-1,3.72,3.72,0,0,0,1.18-3Z" transform="translate(-470.43 -1158.41)"/><path d="M543.56,1272.46a6.59,6.59,0,0,0,1.33-.13,8.1,8.1,0,0,0,1.2-.3v2.61a7.58,7.58,0,0,1-1.48.42,10,10,0,0,1-1.89.18,6.3,6.3,0,0,1-2.47-.46,3.63,3.63,0,0,1-1.74-1.59,6.36,6.36,0,0,1-.65-3.12v-8.7h-2.21v-1.54l2.37-1.23,1.13-3.47h2.17v3.6H546v2.64h-4.64V1270a2.53,2.53,0,0,0,.61,1.84A2.24,2.24,0,0,0,543.56,1272.46Z" transform="translate(-470.43 -1158.41)"/><path d="M558.93,1252.52a2.28,2.28,0,0,1,1.36.42,1.91,1.91,0,0,1-1.36,3.37,2.2,2.2,0,0,1-1.4-.44,2.17,2.17,0,0,1,0-2.93A2.27,2.27,0,0,1,558.93,1252.52Zm1.69,6.21V1275h-3.45v-16.22Z" transform="translate(-470.43 -1158.41)"/><path d="M576.44,1270.32a4.57,4.57,0,0,1-.77,2.69,4.77,4.77,0,0,1-2.26,1.67,10.46,10.46,0,0,1-3.64.56,16,16,0,0,1-2.93-.24,11,11,0,0,1-2.32-.74v-3a15.15,15.15,0,0,0,2.62.94,10.13,10.13,0,0,0,2.73.4,4.24,4.24,0,0,0,2.44-.54,1.67,1.67,0,0,0,.75-1.43,1.57,1.57,0,0,0-.3-.94,3.38,3.38,0,0,0-1.11-.87,23.32,23.32,0,0,0-2.4-1.06,20.45,20.45,0,0,1-2.59-1.23,4.75,4.75,0,0,1-1.6-1.49,4.15,4.15,0,0,1-.54-2.23,3.7,3.7,0,0,1,1.71-3.29,8.26,8.26,0,0,1,4.53-1.12,12.18,12.18,0,0,1,2.82.3,14.18,14.18,0,0,1,2.6.87l-1.08,2.6a19.38,19.38,0,0,0-2.21-.79,8.15,8.15,0,0,0-2.25-.31,4.07,4.07,0,0,0-2,.41,1.26,1.26,0,0,0-.7,1.16,1.4,1.4,0,0,0,.34,1,3.42,3.42,0,0,0,1.16.79c.55.27,1.32.6,2.31,1a19.64,19.64,0,0,1,2.51,1.16,4.66,4.66,0,0,1,1.63,1.49A4.1,4.1,0,0,1,576.44,1270.32Z" transform="translate(-470.43 -1158.41)"/><path d="M594,1272.46a6.59,6.59,0,0,0,1.33-.13,8.1,8.1,0,0,0,1.2-.3v2.61a7.58,7.58,0,0,1-1.48.42,10,10,0,0,1-1.89.18,6.3,6.3,0,0,1-2.47-.46,3.59,3.59,0,0,1-1.74-1.59,6.36,6.36,0,0,1-.65-3.12v-8.7h-2.21v-1.54l2.37-1.23,1.13-3.47h2.17v3.6h4.64v2.64h-4.64V1270a2.53,2.53,0,0,0,.61,1.84A2.25,2.25,0,0,0,594,1272.46Z" transform="translate(-470.43 -1158.41)"/><path d="M603.25,1252.15v7.47a9.62,9.62,0,0,1-.11,1.32h.19a4.81,4.81,0,0,1,1.26-1.4,5.36,5.36,0,0,1,1.68-.82,6.76,6.76,0,0,1,2-.28,7.36,7.36,0,0,1,3.17.62,4.4,4.4,0,0,1,2,1.93,7.15,7.15,0,0,1,.69,3.38V1275h-3.44v-10a4.36,4.36,0,0,0-.78-2.82,3,3,0,0,0-2.4-.94,4.26,4.26,0,0,0-2.48.65,3.54,3.54,0,0,0-1.31,1.91,10.1,10.1,0,0,0-.4,3.09v8h-3.46v-22.8Z" transform="translate(-470.43 -1158.41)"/><path d="M625.33,1258.42a7.32,7.32,0,0,1,3.72.9,6,6,0,0,1,2.39,2.53,8.61,8.61,0,0,1,.83,3.93v1.84H621.44a5.32,5.32,0,0,0,1.27,3.64,4.49,4.49,0,0,0,3.39,1.27,11.87,11.87,0,0,0,2.79-.3,15.2,15.2,0,0,0,2.56-.89v2.8a11.33,11.33,0,0,1-2.48.84,15.08,15.08,0,0,1-3,.26,9.27,9.27,0,0,1-4.21-.92,6.56,6.56,0,0,1-2.82-2.77,9.4,9.4,0,0,1-1-4.6,10.41,10.41,0,0,1,.93-4.63,6.67,6.67,0,0,1,2.59-2.9A7.5,7.5,0,0,1,625.33,1258.42Zm0,2.6a3.48,3.48,0,0,0-2.63,1,5,5,0,0,0-1.18,3.09h7.37a5.83,5.83,0,0,0-.41-2.15,3.27,3.27,0,0,0-1.16-1.46,3.4,3.4,0,0,0-2-.5Z" transform="translate(-470.43 -1158.41)"/><path d="M662.27,1258.42a5.53,5.53,0,0,1,4.11,1.41,6.24,6.24,0,0,1,1.38,4.51V1275h-3.44v-10a4.52,4.52,0,0,0-.72-2.79,2.57,2.57,0,0,0-2.18-.93,3.32,3.32,0,0,0-2.95,1.3,6.74,6.74,0,0,0-.9,3.8v8.6h-3.44v-10a5.86,5.86,0,0,0-.32-2.07,2.44,2.44,0,0,0-1-1.24,3,3,0,0,0-1.62-.41,3.65,3.65,0,0,0-2.27.64,3.51,3.51,0,0,0-1.21,1.89,11.32,11.32,0,0,0-.36,3.07v8.1h-3.46v-16.22h2.7l.48,2.18h.19a4.62,4.62,0,0,1,1.24-1.4,5.66,5.66,0,0,1,1.65-.82,6.63,6.63,0,0,1,1.88-.27,6.78,6.78,0,0,1,3.07.64A4.13,4.13,0,0,1,657,1261h.26a4.77,4.77,0,0,1,2.12-2A6.85,6.85,0,0,1,662.27,1258.42Z" transform="translate(-470.43 -1158.41)"/><path d="M686.92,1266.8a11.19,11.19,0,0,1-.52,3.59,7.21,7.21,0,0,1-1.54,2.65,6.7,6.7,0,0,1-2.43,1.64,8.59,8.59,0,0,1-3.21.56,8.18,8.18,0,0,1-3.06-.56,6.63,6.63,0,0,1-2.41-1.64,7.23,7.23,0,0,1-1.58-2.65,10.69,10.69,0,0,1-.55-3.59,10,10,0,0,1,.93-4.55,6.58,6.58,0,0,1,2.65-2.85,8.32,8.32,0,0,1,4.12-1,7.87,7.87,0,0,1,4,1,6.91,6.91,0,0,1,2.68,2.86A9.89,9.89,0,0,1,686.92,1266.8Zm-11.76,0a9.24,9.24,0,0,0,.43,3,3.92,3.92,0,0,0,1.34,1.93,4.44,4.44,0,0,0,4.68,0,3.92,3.92,0,0,0,1.34-1.93,9.51,9.51,0,0,0,.43-3,9.24,9.24,0,0,0-.43-3,3.57,3.57,0,0,0-3.69-2.55,3.53,3.53,0,0,0-3.12,1.44A7.21,7.21,0,0,0,675.16,1266.8Z" transform="translate(-470.43 -1158.41)"/><path d="M701.78,1270.32A4.5,4.5,0,0,1,701,1273a4.71,4.71,0,0,1-2.26,1.67,10.46,10.46,0,0,1-3.64.56,16,16,0,0,1-2.93-.24,11,11,0,0,1-2.32-.74v-3a16,16,0,0,0,2.62.94,10.13,10.13,0,0,0,2.73.4,4.24,4.24,0,0,0,2.44-.54,1.67,1.67,0,0,0,.75-1.43,1.57,1.57,0,0,0-.3-.94,3.38,3.38,0,0,0-1.11-.87,23.32,23.32,0,0,0-2.4-1.06,20.45,20.45,0,0,1-2.59-1.23,4.72,4.72,0,0,1-1.59-1.49,4.15,4.15,0,0,1-.55-2.23,3.68,3.68,0,0,1,1.72-3.29,8.24,8.24,0,0,1,4.52-1.12,12.75,12.75,0,0,1,2.82.3,13.47,13.47,0,0,1,2.6.87l-1.08,2.6a19.38,19.38,0,0,0-2.21-.79,8.08,8.08,0,0,0-2.24-.31,4.07,4.07,0,0,0-2,.41,1.26,1.26,0,0,0-.7,1.16,1.4,1.4,0,0,0,.34,1,3.42,3.42,0,0,0,1.16.79c.55.27,1.32.6,2.31,1a18.36,18.36,0,0,1,2.51,1.16,4.69,4.69,0,0,1,1.64,1.49A4.1,4.1,0,0,1,701.78,1270.32Z" transform="translate(-470.43 -1158.41)"/><path d="M711.52,1272.46a6.59,6.59,0,0,0,1.33-.13,8.1,8.1,0,0,0,1.2-.3v2.61a7.58,7.58,0,0,1-1.48.42,10,10,0,0,1-1.89.18,6.3,6.3,0,0,1-2.47-.46,3.65,3.65,0,0,1-1.75-1.59,6.24,6.24,0,0,1-.64-3.12v-8.7h-2.21v-1.54l2.37-1.23,1.13-3.47h2.17v3.6h4.64v2.64h-4.64V1270a2.53,2.53,0,0,0,.61,1.84A2.25,2.25,0,0,0,711.52,1272.46Z" transform="translate(-470.43 -1158.41)"/><path d="M731.5,1258.42a6.93,6.93,0,0,1,4.65,1.37,5.29,5.29,0,0,1,1.57,4.24v11h-2.44l-.68-2.3h-.11a8.86,8.86,0,0,1-1.42,1.45,4.67,4.67,0,0,1-1.69.86,8.31,8.31,0,0,1-2.33.28,6.17,6.17,0,0,1-2.61-.54,4,4,0,0,1-1.79-1.63,5.38,5.38,0,0,1-.65-2.78,4.23,4.23,0,0,1,1.87-3.77,10.81,10.81,0,0,1,5.64-1.39l2.8-.1v-.85a3.16,3.16,0,0,0-.78-2.39,3.11,3.11,0,0,0-2.19-.72,7.85,7.85,0,0,0-2.36.36,16.24,16.24,0,0,0-2.23.85l-1.13-2.44a12.69,12.69,0,0,1,2.72-1A12.08,12.08,0,0,1,731.5,1258.42Zm2.8,8.78-2.08.09a6.47,6.47,0,0,0-3.62.87,2.53,2.53,0,0,0-1,2.16,2,2,0,0,0,.72,1.75,3,3,0,0,0,1.89.55,4.32,4.32,0,0,0,3-1,3.72,3.72,0,0,0,1.18-3Z" transform="translate(-470.43 -1158.41)"/><path d="M749.08,1275.24a8.52,8.52,0,0,1-4-.89,5.93,5.93,0,0,1-2.59-2.74,10.51,10.51,0,0,1-.91-4.69,10.19,10.19,0,0,1,1-4.83,6.29,6.29,0,0,1,2.75-2.77,8.77,8.77,0,0,1,4.06-.9,11,11,0,0,1,2.63.29,10.06,10.06,0,0,1,2,.69l-1,2.76a17.07,17.07,0,0,0-1.83-.61,6.87,6.87,0,0,0-1.8-.26,4.13,4.13,0,0,0-2.37.64,3.81,3.81,0,0,0-1.4,1.88,8.93,8.93,0,0,0-.46,3.08,8.48,8.48,0,0,0,.46,3,3.78,3.78,0,0,0,1.4,1.85,4,4,0,0,0,2.27.62,8.33,8.33,0,0,0,2.38-.32,11.29,11.29,0,0,0,2-.84v3a8,8,0,0,1-2,.78A11.27,11.27,0,0,1,749.08,1275.24Z" transform="translate(-470.43 -1158.41)"/><path d="M764,1275.24a8.4,8.4,0,0,1-4-.89,5.93,5.93,0,0,1-2.59-2.74,10.51,10.51,0,0,1-.91-4.69,10.33,10.33,0,0,1,1-4.83,6.37,6.37,0,0,1,2.76-2.77,8.77,8.77,0,0,1,4.06-.9,11,11,0,0,1,2.63.29,10.06,10.06,0,0,1,2,.69l-1,2.76a17.07,17.07,0,0,0-1.83-.61,6.87,6.87,0,0,0-1.8-.26,4.13,4.13,0,0,0-2.37.64,3.7,3.7,0,0,0-1.4,1.88,8.7,8.7,0,0,0-.47,3.08,8.49,8.49,0,0,0,.47,3,3.82,3.82,0,0,0,1.39,1.85,4,4,0,0,0,2.27.62,8.4,8.4,0,0,0,2.39-.32,10.59,10.59,0,0,0,2-.84v3a7.63,7.63,0,0,1-2,.78A11.36,11.36,0,0,1,764,1275.24Z" transform="translate(-470.43 -1158.41)"/><path d="M786.47,1258.73V1275h-2.71l-.48-2.17h-.18a4.39,4.39,0,0,1-1.3,1.38,5.77,5.77,0,0,1-1.76.82,8,8,0,0,1-2,.26,7.09,7.09,0,0,1-3.11-.62,4.4,4.4,0,0,1-2-1.93,7,7,0,0,1-.7-3.37v-10.59h3.47v10a4.41,4.41,0,0,0,.77,2.82,2.9,2.9,0,0,0,2.4.94,4.25,4.25,0,0,0,2.48-.64,3.51,3.51,0,0,0,1.31-1.91,10.1,10.1,0,0,0,.4-3.09v-8.07Z" transform="translate(-470.43 -1158.41)"/><path d="M799.61,1258.42h.9a4.52,4.52,0,0,1,.83.11l-.32,3.24a6.58,6.58,0,0,0-.75-.14h-.8a5,5,0,0,0-1.76.31,4.36,4.36,0,0,0-1.48.91,4.28,4.28,0,0,0-1,1.52,5.62,5.62,0,0,0-.37,2.11V1275h-3.47v-16.22h2.71l.47,2.86h.16a6.8,6.8,0,0,1,1.2-1.58,5.93,5.93,0,0,1,1.65-1.16A4.92,4.92,0,0,1,799.61,1258.42Z" transform="translate(-470.43 -1158.41)"/><path d="M810.7,1258.42a6.93,6.93,0,0,1,4.65,1.37,5.33,5.33,0,0,1,1.58,4.24v11h-2.45l-.67-2.3h-.12a8.47,8.47,0,0,1-1.42,1.45,4.71,4.71,0,0,1-1.68.86,8.31,8.31,0,0,1-2.33.28,6,6,0,0,1-2.61-.54,4.12,4.12,0,0,1-1.8-1.63,5.38,5.38,0,0,1-.65-2.78,4.28,4.28,0,0,1,1.87-3.77,10.85,10.85,0,0,1,5.65-1.39l2.8-.1v-.85a2.67,2.67,0,0,0-2.16-3.1,3,3,0,0,0-.84,0,7.85,7.85,0,0,0-2.36.36,16.12,16.12,0,0,0-2.22.85l-1.13-2.44a12.69,12.69,0,0,1,2.72-1A12.16,12.16,0,0,1,810.7,1258.42Zm2.8,8.78-2.08.09a6.47,6.47,0,0,0-3.62.87,2.56,2.56,0,0,0-1,2.16,2,2,0,0,0,.72,1.75,3,3,0,0,0,1.89.55,4.36,4.36,0,0,0,3-1,3.75,3.75,0,0,0,1.17-3Z" transform="translate(-470.43 -1158.41)"/><path d="M827.78,1272.46a6.69,6.69,0,0,0,1.34-.13,8.1,8.1,0,0,0,1.2-.3v2.61a7.58,7.58,0,0,1-1.48.42,10,10,0,0,1-1.89.18,6.21,6.21,0,0,1-2.48-.46,3.63,3.63,0,0,1-1.74-1.59,6.36,6.36,0,0,1-.65-3.12v-8.7h-2.21v-1.54l2.38-1.23,1.12-3.47h2.17v3.6h4.65v2.64h-4.65V1270a2.48,2.48,0,0,0,.62,1.84A2.21,2.21,0,0,0,827.78,1272.46Z" transform="translate(-470.43 -1158.41)"/><path d="M840.07,1258.42a7.22,7.22,0,0,1,3.72.9,6,6,0,0,1,2.39,2.53,8.46,8.46,0,0,1,.84,3.93v1.84H836.19a5.27,5.27,0,0,0,1.27,3.64,4.45,4.45,0,0,0,3.39,1.27,11.87,11.87,0,0,0,2.79-.3,15.52,15.52,0,0,0,2.56-.89v2.8a11.33,11.33,0,0,1-2.48.84,15.86,15.86,0,0,1-3,.26,9.26,9.26,0,0,1-4.2-.92,6.63,6.63,0,0,1-2.83-2.77,9.54,9.54,0,0,1-1-4.6,10.68,10.68,0,0,1,.92-4.63,6.58,6.58,0,0,1,2.6-2.9A7.47,7.47,0,0,1,840.07,1258.42Zm0,2.6a3.48,3.48,0,0,0-2.63,1,5,5,0,0,0-1.18,3.09h7.37a5.62,5.62,0,0,0-.4-2.15,3.29,3.29,0,0,0-1.17-1.46,3.4,3.4,0,0,0-2-.5Z" transform="translate(-470.43 -1158.41)"/><path d="M872,1274.93l-2-7.53c-.1-.37-.22-.82-.35-1.35s-.28-1.07-.41-1.63-.27-1.08-.38-1.57-.2-.85-.25-1.12h-.12a6.74,6.74,0,0,1-.24,1.12l-.36,1.58c-.13.58-.27,1.12-.41,1.65s-.25,1-.35,1.37l-2.16,7.48h-3.78l-4.54-16.21H860l2.11,8c.13.55.27,1.14.4,1.78s.25,1.24.35,1.81.17,1,.21,1.42h.12a7.19,7.19,0,0,1,.16-1c.07-.4.15-.83.24-1.27s.17-.87.26-1.26.17-.72.25-1l2.49-8.57h3.77l2.38,8.57c.11.37.23.83.35,1.39s.25,1.13.35,1.69.17,1,.2,1.4h.11a8.85,8.85,0,0,1,.22-1.36c.11-.57.22-1.18.35-1.83s.28-1.25.43-1.81l2.15-8h3.43l-4.57,16.21Z" transform="translate(-470.43 -1158.41)"/><path d="M889.61,1258.42a7.22,7.22,0,0,1,3.72.9,5.9,5.9,0,0,1,2.39,2.53,8.46,8.46,0,0,1,.84,3.93v1.84H885.73a5.27,5.27,0,0,0,1.27,3.64,4.49,4.49,0,0,0,3.39,1.27,11.87,11.87,0,0,0,2.79-.3,15.2,15.2,0,0,0,2.56-.89v2.8a11.33,11.33,0,0,1-2.48.84,15.86,15.86,0,0,1-3,.26,9.26,9.26,0,0,1-4.2-.92,6.63,6.63,0,0,1-2.83-2.77,9.54,9.54,0,0,1-1-4.6,10.68,10.68,0,0,1,.92-4.63,6.58,6.58,0,0,1,2.6-2.9A7.47,7.47,0,0,1,889.61,1258.42Zm0,2.6a3.48,3.48,0,0,0-2.63,1,5,5,0,0,0-1.17,3.09h7.36a5.62,5.62,0,0,0-.4-2.15,3.32,3.32,0,0,0-1.16-1.46,3.44,3.44,0,0,0-2-.5Z" transform="translate(-470.43 -1158.41)"/><path d="M906.8,1258.42a6.93,6.93,0,0,1,4.65,1.37A5.32,5.32,0,0,1,913,1264v11h-2.44l-.68-2.3h-.12a8.12,8.12,0,0,1-1.42,1.45,4.71,4.71,0,0,1-1.68.86,8.31,8.31,0,0,1-2.33.28,6,6,0,0,1-2.61-.54,4,4,0,0,1-1.79-1.63,5.28,5.28,0,0,1-.65-2.78,4.25,4.25,0,0,1,1.86-3.77,10.85,10.85,0,0,1,5.65-1.39l2.8-.1v-.85a2.67,2.67,0,0,0-2.16-3.1,3,3,0,0,0-.84,0,7.85,7.85,0,0,0-2.36.36,16.24,16.24,0,0,0-2.23.85l-1.13-2.44a12.69,12.69,0,0,1,2.72-1A12,12,0,0,1,906.8,1258.42Zm2.79,8.78-2.08.09a6.43,6.43,0,0,0-3.61.87,2.53,2.53,0,0,0-1,2.16,2.09,2.09,0,0,0,.71,1.75,3,3,0,0,0,1.89.55,4.36,4.36,0,0,0,3-1,3.75,3.75,0,0,0,1.17-3Z" transform="translate(-470.43 -1158.41)"/><path d="M923.88,1272.46a6.59,6.59,0,0,0,1.33-.13,8.1,8.1,0,0,0,1.2-.3v2.61a7.58,7.58,0,0,1-1.48.42,10,10,0,0,1-1.89.18,6.13,6.13,0,0,1-2.47-.46,3.61,3.61,0,0,1-1.75-1.59,6.24,6.24,0,0,1-.64-3.12v-8.7H916v-1.54l2.37-1.23,1.13-3.47h2.17v3.6h4.64v2.64h-4.64V1270a2.53,2.53,0,0,0,.61,1.84A2.27,2.27,0,0,0,923.88,1272.46Z" transform="translate(-470.43 -1158.41)"/><path d="M933.15,1252.15v7.47a9.62,9.62,0,0,1-.11,1.32h.19a4.81,4.81,0,0,1,1.26-1.4,5.36,5.36,0,0,1,1.68-.82,6.76,6.76,0,0,1,2-.28,7.28,7.28,0,0,1,3.16.62,4.4,4.4,0,0,1,2,1.93,7,7,0,0,1,.7,3.38V1275h-3.44v-10a4.37,4.37,0,0,0-.79-2.82,3,3,0,0,0-2.39-.94,4.19,4.19,0,0,0-2.48.65,3.65,3.65,0,0,0-1.32,1.91,10.78,10.78,0,0,0-.39,3.09v8h-3.46v-22.8Z" transform="translate(-470.43 -1158.41)"/><path d="M955.22,1258.42a7.22,7.22,0,0,1,3.72.9,5.9,5.9,0,0,1,2.39,2.53,8.46,8.46,0,0,1,.84,3.93v1.84H951.34a5.27,5.27,0,0,0,1.27,3.64,4.49,4.49,0,0,0,3.39,1.27,11.87,11.87,0,0,0,2.79-.3,15.2,15.2,0,0,0,2.56-.89v2.8a11.33,11.33,0,0,1-2.48.84,15.86,15.86,0,0,1-3,.26,9.26,9.26,0,0,1-4.2-.92,6.63,6.63,0,0,1-2.83-2.77,9.54,9.54,0,0,1-1-4.6,10.68,10.68,0,0,1,.92-4.63,6.58,6.58,0,0,1,2.6-2.9A7.47,7.47,0,0,1,955.22,1258.42Zm0,2.6a3.48,3.48,0,0,0-2.63,1,5,5,0,0,0-1.17,3.09h7.36a5.62,5.62,0,0,0-.4-2.15,3.32,3.32,0,0,0-1.16-1.46,3.44,3.44,0,0,0-2-.5Z" transform="translate(-470.43 -1158.41)"/><path d="M974.27,1258.42h.89a4.77,4.77,0,0,1,.84.11l-.33,3.24a4.94,4.94,0,0,0-.75-.14h-.8a5,5,0,0,0-1.76.31,4.36,4.36,0,0,0-1.48.91,4.28,4.28,0,0,0-1,1.52,5.82,5.82,0,0,0-.36,2.11V1275H966v-16.22h2.71l.47,2.86h.16a7.13,7.13,0,0,1,1.21-1.58,5.56,5.56,0,0,1,1.64-1.16A5,5,0,0,1,974.27,1258.42Z" transform="translate(-470.43 -1158.41)"/><path d="M988.53,1252.52a2.24,2.24,0,0,1,1.37.42,2.15,2.15,0,0,1,0,2.93,2.12,2.12,0,0,1-1.37.44,1.91,1.91,0,0,1-1.39-3.37A2.3,2.3,0,0,1,988.53,1252.52Zm1.7,6.21V1275h-3.45v-16.22Z" transform="translate(-470.43 -1158.41)"/><path d="M1003.61,1258.42a6,6,0,0,1,4.27,1.42q1.53,1.41,1.53,4.53V1275H1006v-10a4.36,4.36,0,0,0-.78-2.82,3,3,0,0,0-2.4-.94,3.57,3.57,0,0,0-3.28,1.45,7.94,7.94,0,0,0-.91,4.19V1275h-3.46v-16.22h2.7l.48,2.2h.19a4.73,4.73,0,0,1,1.31-1.4,6,6,0,0,1,1.76-.83A7.54,7.54,0,0,1,1003.61,1258.42Z" transform="translate(-470.43 -1158.41)"/><path d="M1022.36,1275v-21.42h3.51V1275Z" transform="translate(-470.43 -1158.41)"/><path d="M1037.69,1275.24a8.4,8.4,0,0,1-4-.89,5.93,5.93,0,0,1-2.59-2.74,10.51,10.51,0,0,1-.91-4.69,10.19,10.19,0,0,1,1-4.83,6.29,6.29,0,0,1,2.75-2.77,8.77,8.77,0,0,1,4.06-.9,11,11,0,0,1,2.63.29,10.06,10.06,0,0,1,2,.69l-1,2.76a17.07,17.07,0,0,0-1.83-.61,6.87,6.87,0,0,0-1.8-.26,4.13,4.13,0,0,0-2.37.64,3.7,3.7,0,0,0-1.4,1.88,8.7,8.7,0,0,0-.47,3.08,8.49,8.49,0,0,0,.47,3,3.87,3.87,0,0,0,1.39,1.85,4,4,0,0,0,2.28.62,8.33,8.33,0,0,0,2.38-.32,11.29,11.29,0,0,0,2-.84v3a8,8,0,0,1-2,.78A11.27,11.27,0,0,1,1037.69,1275.24Z" transform="translate(-470.43 -1158.41)"/><path d="M1052.52,1258.42a7.32,7.32,0,0,1,3.72.9,6,6,0,0,1,2.39,2.53,8.61,8.61,0,0,1,.83,3.93v1.84h-10.82a5.31,5.31,0,0,0,1.26,3.64,4.51,4.51,0,0,0,3.4,1.27,11.87,11.87,0,0,0,2.79-.3,15.41,15.41,0,0,0,2.55-.89v2.8a11.43,11.43,0,0,1-2.47.84,15.86,15.86,0,0,1-3,.26,9.27,9.27,0,0,1-4.21-.92,6.56,6.56,0,0,1-2.82-2.77,9.4,9.4,0,0,1-1-4.6,10.54,10.54,0,0,1,.92-4.63,6.73,6.73,0,0,1,2.59-2.9A7.5,7.5,0,0,1,1052.52,1258.42Zm0,2.6a3.48,3.48,0,0,0-2.63,1,5,5,0,0,0-1.18,3.09h7.37a6.07,6.07,0,0,0-.4-2.15,3.29,3.29,0,0,0-1.17-1.46,3.4,3.4,0,0,0-2-.5Z" transform="translate(-470.43 -1158.41)"/><path d="M1066.8,1275h-3.47v-22.8h3.47Z" transform="translate(-470.43 -1158.41)"/><path d="M1078.07,1258.42a6.93,6.93,0,0,1,4.65,1.37,5.29,5.29,0,0,1,1.57,4.24v11h-2.44l-.68-2.3h-.12a8.12,8.12,0,0,1-1.42,1.45,4.71,4.71,0,0,1-1.68.86,8.31,8.31,0,0,1-2.33.28,6,6,0,0,1-2.61-.54,4,4,0,0,1-1.79-1.63,5.28,5.28,0,0,1-.65-2.78,4.25,4.25,0,0,1,1.86-3.77,10.85,10.85,0,0,1,5.65-1.39l2.8-.1v-.85a2.67,2.67,0,0,0-2.16-3.1,3,3,0,0,0-.84,0,7.79,7.79,0,0,0-2.35.36,16.24,16.24,0,0,0-2.23.85l-1.13-2.44a12.69,12.69,0,0,1,2.72-1A12.17,12.17,0,0,1,1078.07,1258.42Zm2.79,8.78-2.08.09a6.43,6.43,0,0,0-3.61.87,2.53,2.53,0,0,0-1,2.16,2,2,0,0,0,.71,1.75,3,3,0,0,0,1.89.55,4.36,4.36,0,0,0,3-1,3.75,3.75,0,0,0,1.17-3Z" transform="translate(-470.43 -1158.41)"/><path d="M1097.56,1258.42a6,6,0,0,1,4.27,1.42q1.53,1.41,1.53,4.53V1275h-3.44v-10a4.43,4.43,0,0,0-.77-2.82,3,3,0,0,0-2.41-.94,3.55,3.55,0,0,0-3.27,1.45,7.83,7.83,0,0,0-.92,4.19V1275h-3.45v-16.22h2.69l.48,2.2h.2a4.61,4.61,0,0,1,1.31-1.4,5.87,5.87,0,0,1,1.75-.83A7.76,7.76,0,0,1,1097.56,1258.42Z" transform="translate(-470.43 -1158.41)"/><path d="M1113.6,1275.24a5.72,5.72,0,0,1-4.63-2.12c-1.17-1.41-1.76-3.49-1.75-6.24s.59-4.89,1.78-6.32a5.79,5.79,0,0,1,4.69-2.14,6.47,6.47,0,0,1,2.14.33,5.25,5.25,0,0,1,1.6.89,5.75,5.75,0,0,1,1.12,1.24h.17c0-.3-.11-.74-.17-1.31a15.1,15.1,0,0,1-.08-1.59v-5.83h3.45V1275h-2.69l-.62-2.2h-.14a6,6,0,0,1-1.11,1.26,4.92,4.92,0,0,1-1.59.9A6.39,6.39,0,0,1,1113.6,1275.24Zm1-2.8a3.57,3.57,0,0,0,3.12-1.27,6.68,6.68,0,0,0,.93-3.83v-.45a8.26,8.26,0,0,0-.87-4.17,3.43,3.43,0,0,0-3.2-1.46,3.16,3.16,0,0,0-2.84,1.5,7.61,7.61,0,0,0-1,4.17,7.19,7.19,0,0,0,1,4.1,3.26,3.26,0,0,0,2.84,1.41Z" transform="translate(-470.43 -1158.41)"/><path d="M1128.52,1268.41v-.92a6.72,6.72,0,0,1,.24-1.89,4.4,4.4,0,0,1,.84-1.51,10.14,10.14,0,0,1,1.58-1.49c.67-.54,1.21-1,1.62-1.39a4.27,4.27,0,0,0,.89-1.18,3.32,3.32,0,0,0,.27-1.39,2.26,2.26,0,0,0-.84-1.89,3.74,3.74,0,0,0-2.36-.66,8.41,8.41,0,0,0-2.54.38,16.63,16.63,0,0,0-2.34,1l-1.23-2.59a14.31,14.31,0,0,1,2.9-1.17,12.14,12.14,0,0,1,3.44-.46,6.76,6.76,0,0,1,4.62,1.45,4.92,4.92,0,0,1,1.64,3.84,5.44,5.44,0,0,1-.41,2.22,5.54,5.54,0,0,1-1.21,1.71,20.24,20.24,0,0,1-1.93,1.65,13,13,0,0,0-1.41,1.27,3.14,3.14,0,0,0-.68,1.08,4.09,4.09,0,0,0-.18,1.3v.67Zm-.56,4.72a2.05,2.05,0,0,1,.62-1.69,2.41,2.41,0,0,1,1.53-.49,2.36,2.36,0,0,1,1.51.49,2,2,0,0,1,.63,1.69,2.06,2.06,0,0,1-.63,1.69,2.24,2.24,0,0,1-1.51.52,2.29,2.29,0,0,1-1.53-.52,2.08,2.08,0,0,1-.58-1.69Z" transform="translate(-470.43 -1158.41)"/><path d="M498.38,1343.53,492.79,1365H489l-3.57-12.84c-.09-.31-.19-.68-.3-1.1s-.21-.86-.31-1.31-.19-.86-.27-1.24-.12-.67-.15-.89a5.48,5.48,0,0,1-.13.88q-.11.55-.24,1.23l-.3,1.31c-.11.44-.21.82-.3,1.15L479.87,1365H476l-5.57-21.42H474l3.09,12.55c.1.4.2.84.3,1.3l.3,1.4c.1.47.18.93.25,1.37s.15.85.19,1.21c.05-.37.12-.79.19-1.24s.17-.92.26-1.39.19-.93.29-1.37.21-.84.32-1.19l3.47-12.64h3.44l3.56,12.69c.11.36.22.76.32,1.21l.3,1.38c.1.47.18.92.26,1.36s.14.84.19,1.19c.07-.48.16-1,.27-1.64s.23-1.24.36-1.88.28-1.22.41-1.76l3.08-12.55Z" transform="translate(-470.43 -1158.41)"/><path d="M504.51,1342.15v5.73c0,.6,0,1.18-.05,1.74s-.08,1-.11,1.32h.19a4.81,4.81,0,0,1,1.26-1.4,5.2,5.2,0,0,1,1.67-.82,6.76,6.76,0,0,1,2-.28,7.28,7.28,0,0,1,3.16.62,4.4,4.4,0,0,1,2,1.93,7.28,7.28,0,0,1,.7,3.38V1365h-3.45v-10a4.36,4.36,0,0,0-.78-2.82,3,3,0,0,0-2.39-.94,4.2,4.2,0,0,0-2.49.65,3.69,3.69,0,0,0-1.31,1.91,10.78,10.78,0,0,0-.39,3.09v8h-3.46v-22.8Z" transform="translate(-470.43 -1158.41)"/><path d="M526.48,1348.42a6.93,6.93,0,0,1,4.65,1.37,5.29,5.29,0,0,1,1.57,4.24v11h-2.44l-.68-2.3h-.11a8.86,8.86,0,0,1-1.42,1.45,4.67,4.67,0,0,1-1.69.86,8.31,8.31,0,0,1-2.33.28,6,6,0,0,1-2.6-.54,4,4,0,0,1-1.8-1.63,5.38,5.38,0,0,1-.65-2.78,4.23,4.23,0,0,1,1.87-3.77,10.81,10.81,0,0,1,5.64-1.39l2.8-.1v-.85a3.2,3.2,0,0,0-.77-2.39,3.13,3.13,0,0,0-2.2-.72,7.85,7.85,0,0,0-2.36.36,16.24,16.24,0,0,0-2.23.85l-1.13-2.44a12.69,12.69,0,0,1,2.72-1A12.52,12.52,0,0,1,526.48,1348.42Zm2.8,8.78-2.08.09a6.47,6.47,0,0,0-3.62.87,2.56,2.56,0,0,0-1,2.16,2,2,0,0,0,.72,1.75,3,3,0,0,0,1.89.55,4.32,4.32,0,0,0,3-1,3.72,3.72,0,0,0,1.18-3Z" transform="translate(-470.43 -1158.41)"/><path d="M543.56,1362.46a6.59,6.59,0,0,0,1.33-.13,8.1,8.1,0,0,0,1.2-.3v2.61a7.58,7.58,0,0,1-1.48.42,10,10,0,0,1-1.89.18,6.3,6.3,0,0,1-2.47-.46,3.63,3.63,0,0,1-1.74-1.59,6.36,6.36,0,0,1-.65-3.12v-8.7h-2.21v-1.54l2.37-1.23,1.13-3.47h2.17v3.6H546v2.64h-4.64V1360a2.53,2.53,0,0,0,.61,1.84A2.24,2.24,0,0,0,543.56,1362.46Z" transform="translate(-470.43 -1158.41)"/><path d="M558.93,1342.52a2.28,2.28,0,0,1,1.36.42,1.91,1.91,0,0,1-1.36,3.37,2.2,2.2,0,0,1-1.4-.44,2.17,2.17,0,0,1,0-2.93A2.27,2.27,0,0,1,558.93,1342.52Zm1.69,6.21V1365h-3.45v-16.22Z" transform="translate(-470.43 -1158.41)"/><path d="M576.44,1360.32a4.57,4.57,0,0,1-.77,2.69,4.77,4.77,0,0,1-2.26,1.67,10.46,10.46,0,0,1-3.64.56,16,16,0,0,1-2.93-.24,11,11,0,0,1-2.32-.74v-3a15.15,15.15,0,0,0,2.62.94,10.13,10.13,0,0,0,2.73.4,4.24,4.24,0,0,0,2.44-.54,1.67,1.67,0,0,0,.75-1.43,1.57,1.57,0,0,0-.3-.94,3.38,3.38,0,0,0-1.11-.87,23.32,23.32,0,0,0-2.4-1.06,20.45,20.45,0,0,1-2.59-1.23,4.75,4.75,0,0,1-1.6-1.49,4.15,4.15,0,0,1-.54-2.23,3.7,3.7,0,0,1,1.71-3.29,8.26,8.26,0,0,1,4.53-1.12,12.18,12.18,0,0,1,2.82.3,14.18,14.18,0,0,1,2.6.87l-1.08,2.6a19.38,19.38,0,0,0-2.21-.79,8.15,8.15,0,0,0-2.25-.31,4.07,4.07,0,0,0-2,.41,1.26,1.26,0,0,0-.7,1.16,1.4,1.4,0,0,0,.34,1,3.42,3.42,0,0,0,1.16.79c.55.27,1.32.6,2.31,1a19.64,19.64,0,0,1,2.51,1.16,4.66,4.66,0,0,1,1.63,1.49A4.1,4.1,0,0,1,576.44,1360.32Z" transform="translate(-470.43 -1158.41)"/><path d="M594,1362.46a6.59,6.59,0,0,0,1.33-.13,8.1,8.1,0,0,0,1.2-.3v2.61a7.58,7.58,0,0,1-1.48.42,10,10,0,0,1-1.89.18,6.3,6.3,0,0,1-2.47-.46,3.59,3.59,0,0,1-1.74-1.59,6.36,6.36,0,0,1-.65-3.12v-8.7h-2.21v-1.54l2.37-1.23,1.13-3.47h2.17v3.6h4.64v2.64h-4.64V1360a2.53,2.53,0,0,0,.61,1.84A2.25,2.25,0,0,0,594,1362.46Z" transform="translate(-470.43 -1158.41)"/><path d="M603.25,1342.15v7.47a9.62,9.62,0,0,1-.11,1.32h.19a4.81,4.81,0,0,1,1.26-1.4,5.36,5.36,0,0,1,1.68-.82,6.76,6.76,0,0,1,2-.28,7.36,7.36,0,0,1,3.17.62,4.4,4.4,0,0,1,2,1.93,7.15,7.15,0,0,1,.69,3.38V1365h-3.44v-10a4.36,4.36,0,0,0-.78-2.82,3,3,0,0,0-2.4-.94,4.26,4.26,0,0,0-2.48.65,3.54,3.54,0,0,0-1.31,1.91,10.1,10.1,0,0,0-.4,3.09v8h-3.46v-22.8Z" transform="translate(-470.43 -1158.41)"/><path d="M625.33,1348.42a7.32,7.32,0,0,1,3.72.9,6,6,0,0,1,2.39,2.53,8.61,8.61,0,0,1,.83,3.93v1.84H621.44a5.32,5.32,0,0,0,1.27,3.64,4.49,4.49,0,0,0,3.39,1.27,11.87,11.87,0,0,0,2.79-.3,15.2,15.2,0,0,0,2.56-.89v2.8a11.33,11.33,0,0,1-2.48.84,15.08,15.08,0,0,1-3,.26,9.27,9.27,0,0,1-4.21-.92,6.56,6.56,0,0,1-2.82-2.77,9.4,9.4,0,0,1-1-4.6,10.41,10.41,0,0,1,.93-4.63,6.67,6.67,0,0,1,2.59-2.9A7.5,7.5,0,0,1,625.33,1348.42Zm0,2.6a3.48,3.48,0,0,0-2.63,1,5,5,0,0,0-1.18,3.09h7.37a5.83,5.83,0,0,0-.41-2.15,3.27,3.27,0,0,0-1.16-1.46,3.4,3.4,0,0,0-2-.5Z" transform="translate(-470.43 -1158.41)"/><path d="M647.39,1342.15v7.36a13.78,13.78,0,0,1-.1,1.43h.15a5.59,5.59,0,0,1,1.84-1.78,6.35,6.35,0,0,1,7.66,1.39c1.18,1.42,1.76,3.5,1.76,6.27a12,12,0,0,1-.8,4.63,6.24,6.24,0,0,1-2.27,2.83,6,6,0,0,1-3.42,1,5.9,5.9,0,0,1-3-.67,5.69,5.69,0,0,1-1.78-1.6h-.25l-.63,2H644v-22.8Zm4,9.1a4.12,4.12,0,0,0-2.32.58,3.35,3.35,0,0,0-1.24,1.74,10.14,10.14,0,0,0-.39,3v.31a8.29,8.29,0,0,0,.85,4.15,3.35,3.35,0,0,0,3.13,1.43,3.1,3.1,0,0,0,2.77-1.46,7.56,7.56,0,0,0,1-4.18,7.29,7.29,0,0,0-1-4.13,3.18,3.18,0,0,0-2.85-1.44Z" transform="translate(-470.43 -1158.41)"/><path d="M669.08,1348.42a7.22,7.22,0,0,1,3.72.9,6,6,0,0,1,2.39,2.53,8.48,8.48,0,0,1,.83,3.93v1.84H665.2a5.27,5.27,0,0,0,1.27,3.64,4.45,4.45,0,0,0,3.39,1.27,11.87,11.87,0,0,0,2.79-.3,15.1,15.1,0,0,0,2.55-.89v2.8a11.43,11.43,0,0,1-2.47.84,15.86,15.86,0,0,1-3,.26,9.26,9.26,0,0,1-4.2-.92,6.58,6.58,0,0,1-2.83-2.77,9.54,9.54,0,0,1-1-4.6,10.68,10.68,0,0,1,.92-4.63,6.58,6.58,0,0,1,2.6-2.9A7.47,7.47,0,0,1,669.08,1348.42Zm0,2.6a3.48,3.48,0,0,0-2.63,1,5,5,0,0,0-1.18,3.09h7.37a5.62,5.62,0,0,0-.4-2.15,3.29,3.29,0,0,0-1.17-1.46,3.4,3.4,0,0,0-2-.5Z" transform="translate(-470.43 -1158.41)"/><path d="M690.81,1360.32A4.5,4.5,0,0,1,690,1363a4.71,4.71,0,0,1-2.26,1.67,10.46,10.46,0,0,1-3.64.56,16,16,0,0,1-2.93-.24,11,11,0,0,1-2.32-.74v-3a15.15,15.15,0,0,0,2.62.94,10.13,10.13,0,0,0,2.73.4,4.24,4.24,0,0,0,2.44-.54,1.67,1.67,0,0,0,.75-1.43,1.57,1.57,0,0,0-.3-.94,3.38,3.38,0,0,0-1.11-.87,23.32,23.32,0,0,0-2.4-1.06,20.45,20.45,0,0,1-2.59-1.23,4.66,4.66,0,0,1-1.6-1.49,4.15,4.15,0,0,1-.54-2.23,3.68,3.68,0,0,1,1.72-3.29,8.24,8.24,0,0,1,4.52-1.12,12.75,12.75,0,0,1,2.82.3,13.47,13.47,0,0,1,2.6.87l-1.08,2.6a19.38,19.38,0,0,0-2.21-.79,8.15,8.15,0,0,0-2.25-.31,4.07,4.07,0,0,0-2,.41,1.26,1.26,0,0,0-.7,1.16,1.4,1.4,0,0,0,.34,1,3.42,3.42,0,0,0,1.16.79c.55.27,1.32.6,2.31,1a18.36,18.36,0,0,1,2.51,1.16,4.66,4.66,0,0,1,1.63,1.49A4.06,4.06,0,0,1,690.81,1360.32Z" transform="translate(-470.43 -1158.41)"/><path d="M700.55,1362.46a6.59,6.59,0,0,0,1.33-.13,8.1,8.1,0,0,0,1.2-.3v2.61a7.58,7.58,0,0,1-1.48.42,10,10,0,0,1-1.89.18,6.13,6.13,0,0,1-2.47-.46,3.61,3.61,0,0,1-1.75-1.59,6.24,6.24,0,0,1-.64-3.12v-8.7h-2.21v-1.54l2.37-1.23,1.13-3.47h2.17v3.6H703v2.64h-4.64V1360a2.53,2.53,0,0,0,.61,1.84A2.2,2.2,0,0,0,700.55,1362.46Z" transform="translate(-470.43 -1158.41)"/><path d="M727.43,1364.93l-2-7.53-.36-1.35-.41-1.63c-.13-.56-.26-1.08-.37-1.57s-.2-.85-.26-1.12h-.11a6.74,6.74,0,0,1-.24,1.12l-.36,1.58c-.14.57-.27,1.12-.41,1.65s-.25,1-.36,1.37l-2.15,7.48h-3.78L712,1348.72h3.49l2.11,8c.13.55.27,1.14.4,1.78s.25,1.24.34,1.81.17,1,.22,1.42h.12a7.19,7.19,0,0,1,.16-1c.07-.4.15-.83.24-1.27s.17-.87.26-1.26.17-.72.25-1l2.49-8.57h3.76l2.39,8.57c.11.37.23.83.35,1.39s.24,1.13.35,1.69a13.08,13.08,0,0,1,.19,1.4h.12a10,10,0,0,1,.21-1.36c.1-.57.23-1.18.36-1.83s.28-1.25.43-1.81l2.15-8h3.43l-4.57,16.21Z" transform="translate(-470.43 -1158.41)"/><path d="M745.09,1348.42a7.22,7.22,0,0,1,3.72.9,6,6,0,0,1,2.39,2.53,8.46,8.46,0,0,1,.84,3.93v1.84H741.21a5.27,5.27,0,0,0,1.27,3.64,4.45,4.45,0,0,0,3.39,1.27,11.87,11.87,0,0,0,2.79-.3,15.52,15.52,0,0,0,2.56-.89v2.8a11.88,11.88,0,0,1-2.48.84,15.86,15.86,0,0,1-3,.26,9.26,9.26,0,0,1-4.2-.92,6.58,6.58,0,0,1-2.83-2.77,9.54,9.54,0,0,1-1-4.6,10.68,10.68,0,0,1,.92-4.63,6.58,6.58,0,0,1,2.6-2.9A7.47,7.47,0,0,1,745.09,1348.42Zm0,2.6a3.48,3.48,0,0,0-2.63,1,5,5,0,0,0-1.18,3.09h7.37a5.62,5.62,0,0,0-.4-2.15,3.29,3.29,0,0,0-1.17-1.46,3.4,3.4,0,0,0-2-.5Z" transform="translate(-470.43 -1158.41)"/><path d="M762.27,1348.42a7,7,0,0,1,4.66,1.37,5.29,5.29,0,0,1,1.57,4.24v11h-2.45l-.67-2.3h-.12a8.47,8.47,0,0,1-1.42,1.45,4.71,4.71,0,0,1-1.68.86,8.31,8.31,0,0,1-2.33.28,6,6,0,0,1-2.61-.54,4,4,0,0,1-1.79-1.63,5.29,5.29,0,0,1-.66-2.78,4.28,4.28,0,0,1,1.87-3.77,10.85,10.85,0,0,1,5.65-1.39l2.8-.1v-.85a2.67,2.67,0,0,0-2.16-3.1,3,3,0,0,0-.84,0,7.79,7.79,0,0,0-2.35.36,16.24,16.24,0,0,0-2.23.85l-1.13-2.44a12.69,12.69,0,0,1,2.72-1A12.16,12.16,0,0,1,762.27,1348.42Zm2.8,8.78-2.08.09a6.47,6.47,0,0,0-3.62.87,2.56,2.56,0,0,0-1,2.16,2,2,0,0,0,.72,1.75,3,3,0,0,0,1.89.55,4.36,4.36,0,0,0,3-1,3.75,3.75,0,0,0,1.17-3Z" transform="translate(-470.43 -1158.41)"/><path d="M779.35,1362.46a6.69,6.69,0,0,0,1.34-.13,8.1,8.1,0,0,0,1.2-.3v2.61a7.58,7.58,0,0,1-1.48.42,10,10,0,0,1-1.89.18,6.39,6.39,0,0,1-2.48-.46,3.63,3.63,0,0,1-1.74-1.59,6.24,6.24,0,0,1-.64-3.12v-8.7h-2.22v-1.54l2.38-1.23,1.13-3.47h2.16v3.6h4.65v2.64h-4.65V1360a2.48,2.48,0,0,0,.62,1.84A2.21,2.21,0,0,0,779.35,1362.46Z" transform="translate(-470.43 -1158.41)"/><path d="M788.63,1342.15v7.47a9.62,9.62,0,0,1-.11,1.32h.19a4.81,4.81,0,0,1,1.26-1.4,5.2,5.2,0,0,1,1.67-.82,6.76,6.76,0,0,1,2-.28,7.28,7.28,0,0,1,3.16.62,4.4,4.4,0,0,1,2,1.93,7,7,0,0,1,.7,3.38V1365H796v-10a4.37,4.37,0,0,0-.79-2.82,3,3,0,0,0-2.39-.94,4.2,4.2,0,0,0-2.49.65,3.69,3.69,0,0,0-1.31,1.91,10.78,10.78,0,0,0-.39,3.09v8h-3.46v-22.8Z" transform="translate(-470.43 -1158.41)"/><path d="M810.7,1348.42a7.22,7.22,0,0,1,3.72.9,6,6,0,0,1,2.39,2.53,8.46,8.46,0,0,1,.84,3.93v1.84H806.82a5.27,5.27,0,0,0,1.27,3.64,4.45,4.45,0,0,0,3.39,1.27,11.87,11.87,0,0,0,2.79-.3,15.52,15.52,0,0,0,2.56-.89v2.8a11.33,11.33,0,0,1-2.48.84,15.86,15.86,0,0,1-3,.26,9.26,9.26,0,0,1-4.2-.92,6.63,6.63,0,0,1-2.83-2.77,9.54,9.54,0,0,1-1-4.6,10.68,10.68,0,0,1,.92-4.63,6.58,6.58,0,0,1,2.6-2.9A7.47,7.47,0,0,1,810.7,1348.42Zm0,2.6a3.48,3.48,0,0,0-2.63,1,5,5,0,0,0-1.18,3.09h7.37a5.62,5.62,0,0,0-.4-2.15,3.29,3.29,0,0,0-1.17-1.46,3.4,3.4,0,0,0-2-.5Z" transform="translate(-470.43 -1158.41)"/><path d="M829.75,1348.42h.89a4.52,4.52,0,0,1,.83.11l-.32,3.24a4.94,4.94,0,0,0-.75-.14h-.8a5,5,0,0,0-1.76.31,4.13,4.13,0,0,0-2.49,2.43,5.62,5.62,0,0,0-.37,2.11V1365h-3.47v-16.22h2.71l.47,2.86h.16a7.4,7.4,0,0,1,1.2-1.58,5.93,5.93,0,0,1,1.65-1.16A4.85,4.85,0,0,1,829.75,1348.42Z" transform="translate(-470.43 -1158.41)"/><path d="M853.17,1360.32a4.51,4.51,0,0,1-.78,2.69,4.77,4.77,0,0,1-2.26,1.67,10.46,10.46,0,0,1-3.64.56,15.84,15.84,0,0,1-2.92-.24,11.28,11.28,0,0,1-2.33-.74v-3a16,16,0,0,0,2.62.94,10.13,10.13,0,0,0,2.73.4,4.24,4.24,0,0,0,2.44-.54,1.67,1.67,0,0,0,.75-1.43,1.57,1.57,0,0,0-.3-.94,3.38,3.38,0,0,0-1.11-.87,23.15,23.15,0,0,0-2.39-1.06,20.58,20.58,0,0,1-2.6-1.23,4.72,4.72,0,0,1-1.59-1.49,4.15,4.15,0,0,1-.55-2.23,3.7,3.7,0,0,1,1.72-3.29,8.24,8.24,0,0,1,4.52-1.12,12.18,12.18,0,0,1,2.82.3,13.24,13.24,0,0,1,2.6.87l-1.08,2.6a19.22,19.22,0,0,0-2.2-.79,8.15,8.15,0,0,0-2.25-.31,4.07,4.07,0,0,0-2,.41,1.3,1.3,0,0,0-.7,1.16,1.42,1.42,0,0,0,.34,1,3.42,3.42,0,0,0,1.16.79c.56.27,1.33.6,2.31,1a18.36,18.36,0,0,1,2.51,1.16,4.69,4.69,0,0,1,1.64,1.49A4.09,4.09,0,0,1,853.17,1360.32Z" transform="translate(-470.43 -1158.41)"/><path d="M862.91,1362.46a6.59,6.59,0,0,0,1.33-.13,8.1,8.1,0,0,0,1.2-.3v2.61a7.58,7.58,0,0,1-1.48.42,10,10,0,0,1-1.89.18,6.3,6.3,0,0,1-2.47-.46,3.63,3.63,0,0,1-1.74-1.59,6.36,6.36,0,0,1-.65-3.12v-8.7H855v-1.54l2.37-1.23,1.13-3.47h2.17v3.6h4.64v2.64h-4.64V1360a2.53,2.53,0,0,0,.61,1.84A2.25,2.25,0,0,0,862.91,1362.46Z" transform="translate(-470.43 -1158.41)"/><path d="M875.1,1348.42a6.93,6.93,0,0,1,4.65,1.37,5.29,5.29,0,0,1,1.57,4.24v11h-2.44l-.68-2.3h-.11a8.53,8.53,0,0,1-1.43,1.45,4.71,4.71,0,0,1-1.68.86,8.31,8.31,0,0,1-2.33.28,6,6,0,0,1-2.61-.54,4,4,0,0,1-1.79-1.63,5.28,5.28,0,0,1-.65-2.78,4.25,4.25,0,0,1,1.86-3.77,10.85,10.85,0,0,1,5.65-1.39l2.8-.1v-.85a3.16,3.16,0,0,0-.78-2.39,3.11,3.11,0,0,0-2.19-.72,7.85,7.85,0,0,0-2.36.36,16.24,16.24,0,0,0-2.23.85l-1.13-2.44a12.69,12.69,0,0,1,2.72-1A12.08,12.08,0,0,1,875.1,1348.42Zm2.8,8.78-2.09.09a6.43,6.43,0,0,0-3.61.87,2.53,2.53,0,0,0-1,2.16,2.09,2.09,0,0,0,.71,1.75,3,3,0,0,0,1.89.55,4.32,4.32,0,0,0,3-1,3.72,3.72,0,0,0,1.18-3Z" transform="translate(-470.43 -1158.41)"/><path d="M892.18,1362.46a6.59,6.59,0,0,0,1.33-.13,8.1,8.1,0,0,0,1.2-.3v2.61a7.58,7.58,0,0,1-1.48.42,10,10,0,0,1-1.89.18,6.13,6.13,0,0,1-2.47-.46,3.61,3.61,0,0,1-1.75-1.59,6.24,6.24,0,0,1-.64-3.12v-8.7h-2.21v-1.54l2.37-1.23,1.13-3.47h2.17v3.6h4.64v2.64h-4.64V1360a2.53,2.53,0,0,0,.61,1.84A2.25,2.25,0,0,0,892.18,1362.46Z" transform="translate(-470.43 -1158.41)"/><path d="M899.75,1342.52a2.31,2.31,0,0,1,1.37.42,2.15,2.15,0,0,1,0,2.93,2.37,2.37,0,0,1-2.76,0,2.17,2.17,0,0,1,0-2.93A2.22,2.22,0,0,1,899.75,1342.52Zm1.7,6.21V1365H898v-16.22Z" transform="translate(-470.43 -1158.41)"/><path d="M920.73,1356.8a11.2,11.2,0,0,1-.53,3.59,7,7,0,0,1-1.54,2.65,6.5,6.5,0,0,1-2.43,1.64,8.59,8.59,0,0,1-3.21.56,8.18,8.18,0,0,1-3.06-.56,6.63,6.63,0,0,1-2.41-1.64,7.43,7.43,0,0,1-1.57-2.65,10.66,10.66,0,0,1-.56-3.59,10,10,0,0,1,.93-4.55,6.6,6.6,0,0,1,2.66-2.85,8.2,8.2,0,0,1,4.11-1,7.87,7.87,0,0,1,4,1,6.79,6.79,0,0,1,2.68,2.86A9.75,9.75,0,0,1,920.73,1356.8Zm-11.77,0a9.24,9.24,0,0,0,.44,3,4,4,0,0,0,5.13,2.37,4,4,0,0,0,.87-.44,3.8,3.8,0,0,0,1.34-1.93,9.24,9.24,0,0,0,.43-3,9,9,0,0,0-.43-3,3.66,3.66,0,0,0-1.34-1.89,4,4,0,0,0-2.34-.66,3.51,3.51,0,0,0-3.12,1.44,7.14,7.14,0,0,0-.94,4.11Z" transform="translate(-470.43 -1158.41)"/><path d="M933.13,1348.42a6,6,0,0,1,4.27,1.42,5.89,5.89,0,0,1,1.54,4.53V1365h-3.45v-10a4.43,4.43,0,0,0-.77-2.82,3,3,0,0,0-2.41-.94,3.55,3.55,0,0,0-3.27,1.45,7.83,7.83,0,0,0-.92,4.19V1365h-3.45v-16.22h2.69l.49,2.2H928a4.73,4.73,0,0,1,1.31-1.4,6,6,0,0,1,1.76-.83A7.21,7.21,0,0,1,933.13,1348.42Z" transform="translate(-470.43 -1158.41)"/><path d="M957.57,1362.46a6.59,6.59,0,0,0,1.33-.13,8.1,8.1,0,0,0,1.2-.3v2.61a7.58,7.58,0,0,1-1.48.42,10,10,0,0,1-1.89.18,6.13,6.13,0,0,1-2.47-.46,3.61,3.61,0,0,1-1.75-1.59,6.24,6.24,0,0,1-.64-3.12v-8.7h-2.21v-1.54l2.37-1.23,1.13-3.47h2.17v3.6H960v2.64h-4.64V1360a2.53,2.53,0,0,0,.61,1.84A2.27,2.27,0,0,0,957.57,1362.46Z" transform="translate(-470.43 -1158.41)"/><path d="M977.75,1356.8a11.19,11.19,0,0,1-.52,3.59,7.21,7.21,0,0,1-1.54,2.65,6.7,6.7,0,0,1-2.43,1.64,8.59,8.59,0,0,1-3.21.56,8.18,8.18,0,0,1-3.06-.56,6.63,6.63,0,0,1-2.41-1.64,7.23,7.23,0,0,1-1.58-2.65,10.69,10.69,0,0,1-.55-3.59,10,10,0,0,1,.93-4.55,6.58,6.58,0,0,1,2.65-2.85,8.32,8.32,0,0,1,4.12-1,7.87,7.87,0,0,1,4,1,6.91,6.91,0,0,1,2.68,2.86A9.89,9.89,0,0,1,977.75,1356.8Zm-11.76,0a9.24,9.24,0,0,0,.43,3,3.92,3.92,0,0,0,1.34,1.93,4.44,4.44,0,0,0,4.68,0,3.92,3.92,0,0,0,1.34-1.93,9.51,9.51,0,0,0,.43-3,9.24,9.24,0,0,0-.43-3,3.57,3.57,0,0,0-3.69-2.55,3.53,3.53,0,0,0-3.12,1.44,7.28,7.28,0,0,0-1,4.11Z" transform="translate(-470.43 -1158.41)"/><path d="M992.94,1342.15v5.5c0,.63,0,1.25-.05,1.86s-.06,1.09-.09,1.43h.14a6.07,6.07,0,0,1,8.48-1.34,6.18,6.18,0,0,1,1,1c1.17,1.42,1.76,3.5,1.76,6.27a11.64,11.64,0,0,1-.81,4.63,6.16,6.16,0,0,1-2.26,2.83,6,6,0,0,1-3.42,1,5.9,5.9,0,0,1-3-.67A5.63,5.63,0,0,1,993,1363h-.25l-.63,2h-2.59v-22.8Zm4,9.1a4,4,0,0,0-2.32.58,3.26,3.26,0,0,0-1.24,1.74,10.15,10.15,0,0,0-.4,3v.31a8.17,8.17,0,0,0,.86,4.15,3.33,3.33,0,0,0,3.13,1.43,3.1,3.1,0,0,0,2.77-1.46,7.56,7.56,0,0,0,1-4.18,7.37,7.37,0,0,0-1-4.13,3.19,3.19,0,0,0-2.84-1.44Z" transform="translate(-470.43 -1158.41)"/><path d="M1022.31,1348.73V1365h-2.71l-.48-2.17h-.18a4.39,4.39,0,0,1-1.3,1.38,5.77,5.77,0,0,1-1.76.82,8,8,0,0,1-2,.26,7.09,7.09,0,0,1-3.11-.62,4.4,4.4,0,0,1-2-1.93,7,7,0,0,1-.7-3.37v-10.59h3.47v10a4.41,4.41,0,0,0,.77,2.82,2.9,2.9,0,0,0,2.4.94,4.25,4.25,0,0,0,2.48-.64,3.51,3.51,0,0,0,1.31-1.91,10.1,10.1,0,0,0,.4-3.09v-8.07Z" transform="translate(-470.43 -1158.41)"/><path d="M1024.79,1348.73h3.75l3.32,9.26c.15.42.29.83.41,1.24s.23.8.32,1.19.17.78.23,1.17h.08c.1-.51.24-1.08.42-1.7s.39-1.27.61-1.9l3.18-9.26h3.72l-7,18.44a10.48,10.48,0,0,1-1.47,2.71,6,6,0,0,1-2.06,1.7,6.2,6.2,0,0,1-2.71.57,7.74,7.74,0,0,1-1.27-.08,3.86,3.86,0,0,1-.93-.17v-2.75a7,7,0,0,0,.78.13,8.39,8.39,0,0,0,1,.06,3.16,3.16,0,0,0,1.59-.37,3.26,3.26,0,0,0,1.15-1,6.52,6.52,0,0,0,.77-1.51l.57-1.53Z" transform="translate(-470.43 -1158.41)"/><path d="M1059.18,1351.37h-3.94V1365h-3.45v-13.58h-2.64v-1.67l2.64-1v-1.13a6.87,6.87,0,0,1,.66-3.28,3.81,3.81,0,0,1,1.88-1.75,7.15,7.15,0,0,1,2.92-.54,10.24,10.24,0,0,1,3.59.62l-.89,2.59c-.34-.11-.71-.2-1.12-.29a6.49,6.49,0,0,0-1.32-.13,2,2,0,0,0-1.72.73,3.52,3.52,0,0,0-.55,2.12v1.1h3.94Z" transform="translate(-470.43 -1158.41)"/><path d="M1076.29,1356.8a11.19,11.19,0,0,1-.52,3.59,7.21,7.21,0,0,1-1.54,2.65,6.7,6.7,0,0,1-2.43,1.64,8.59,8.59,0,0,1-3.21.56,8.18,8.18,0,0,1-3.06-.56,6.63,6.63,0,0,1-2.41-1.64,7.23,7.23,0,0,1-1.58-2.65,10.69,10.69,0,0,1-.55-3.59,10,10,0,0,1,.93-4.55,6.58,6.58,0,0,1,2.65-2.85,8.32,8.32,0,0,1,4.12-1,7.87,7.87,0,0,1,4,1,6.91,6.91,0,0,1,2.68,2.86A9.89,9.89,0,0,1,1076.29,1356.8Zm-11.76,0a9.24,9.24,0,0,0,.43,3,3.92,3.92,0,0,0,1.34,1.93,4.44,4.44,0,0,0,4.68,0,3.92,3.92,0,0,0,1.34-1.93,9.51,9.51,0,0,0,.43-3,9.24,9.24,0,0,0-.43-3,3.57,3.57,0,0,0-3.69-2.55,3.53,3.53,0,0,0-3.12,1.44A7.21,7.21,0,0,0,1064.53,1356.8Z" transform="translate(-470.43 -1158.41)"/><path d="M1088.47,1348.42h.89a4.52,4.52,0,0,1,.83.11l-.32,3.24a4.94,4.94,0,0,0-.75-.14h-.8a5,5,0,0,0-1.76.31,4.36,4.36,0,0,0-1.48.91,4.28,4.28,0,0,0-1,1.52,5.82,5.82,0,0,0-.36,2.11V1365h-3.48v-16.22H1083l.47,2.86h.16a7.4,7.4,0,0,1,1.2-1.58,5.93,5.93,0,0,1,1.65-1.16A5,5,0,0,1,1088.47,1348.42Z" transform="translate(-470.43 -1158.41)"/><path d="M1104.43,1342.15v7.47a9.62,9.62,0,0,1-.11,1.32h.19a4.81,4.81,0,0,1,1.26-1.4,5.36,5.36,0,0,1,1.68-.82,6.76,6.76,0,0,1,2-.28,7.36,7.36,0,0,1,3.17.62,4.4,4.4,0,0,1,2,1.93,7.15,7.15,0,0,1,.69,3.38V1365h-3.44v-10a4.36,4.36,0,0,0-.78-2.82,3,3,0,0,0-2.4-.94,4.26,4.26,0,0,0-2.48.65,3.54,3.54,0,0,0-1.31,1.91,10.1,10.1,0,0,0-.4,3.09v8H1101v-22.8Z" transform="translate(-470.43 -1158.41)"/><path d="M1134.4,1356.8a11.19,11.19,0,0,1-.52,3.59,7.21,7.21,0,0,1-1.54,2.65,6.7,6.7,0,0,1-2.43,1.64,8.59,8.59,0,0,1-3.21.56,8.18,8.18,0,0,1-3.06-.56,6.63,6.63,0,0,1-2.41-1.64,7.23,7.23,0,0,1-1.58-2.65,10.69,10.69,0,0,1-.55-3.59,10,10,0,0,1,.93-4.55,6.54,6.54,0,0,1,2.66-2.85,8.2,8.2,0,0,1,4.11-1,7.87,7.87,0,0,1,4,1,6.91,6.91,0,0,1,2.68,2.86A9.89,9.89,0,0,1,1134.4,1356.8Zm-11.76,0a9.51,9.51,0,0,0,.43,3,3.92,3.92,0,0,0,1.34,1.93,4.44,4.44,0,0,0,4.68,0,3.92,3.92,0,0,0,1.34-1.93,9.51,9.51,0,0,0,.43-3,9.24,9.24,0,0,0-.43-3,3.57,3.57,0,0,0-3.69-2.55,3.53,3.53,0,0,0-3.12,1.44A7.21,7.21,0,0,0,1122.64,1356.8Z" transform="translate(-470.43 -1158.41)"/><path d="M1156.68,1348.42a5.53,5.53,0,0,1,4.11,1.41c.93.94,1.39,2.44,1.39,4.51V1365h-3.45v-10a4.58,4.58,0,0,0-.71-2.79,2.59,2.59,0,0,0-2.19-.93,3.34,3.34,0,0,0-2.95,1.3,6.74,6.74,0,0,0-.9,3.8v8.6h-3.44v-10a5.86,5.86,0,0,0-.32-2.07,2.49,2.49,0,0,0-1-1.24,3,3,0,0,0-1.63-.41,3.64,3.64,0,0,0-2.26.64,3.46,3.46,0,0,0-1.21,1.89,10.94,10.94,0,0,0-.37,3.07v8.1h-3.46v-16.22h2.7l.48,2.18h.19a4.89,4.89,0,0,1,1.24-1.4,5.66,5.66,0,0,1,1.65-.82,7.28,7.28,0,0,1,5,.37,4.07,4.07,0,0,1,1.86,1.94h.26a4.69,4.69,0,0,1,2.13-2A6.86,6.86,0,0,1,1156.68,1348.42Z" transform="translate(-470.43 -1158.41)"/><path d="M1173.44,1348.42a7.22,7.22,0,0,1,3.72.9,6,6,0,0,1,2.39,2.53,8.46,8.46,0,0,1,.84,3.93v1.84h-10.83a5.27,5.27,0,0,0,1.27,3.64,4.45,4.45,0,0,0,3.39,1.27,11.87,11.87,0,0,0,2.79-.3,15.1,15.1,0,0,0,2.55-.89v2.8a11.43,11.43,0,0,1-2.47.84,15.86,15.86,0,0,1-3,.26,9.26,9.26,0,0,1-4.2-.92,6.58,6.58,0,0,1-2.83-2.77,9.54,9.54,0,0,1-1-4.6,10.68,10.68,0,0,1,.92-4.63,6.58,6.58,0,0,1,2.6-2.9A7.47,7.47,0,0,1,1173.44,1348.42Zm0,2.6a3.48,3.48,0,0,0-2.63,1,5,5,0,0,0-1.18,3.09H1177a5.62,5.62,0,0,0-.4-2.15,3.29,3.29,0,0,0-1.17-1.46,3.4,3.4,0,0,0-2-.5Z" transform="translate(-470.43 -1158.41)"/><path d="M1185.94,1358.41v-.92a6.34,6.34,0,0,1,.25-1.89,4.22,4.22,0,0,1,.83-1.51,10.14,10.14,0,0,1,1.58-1.49c.68-.54,1.22-1,1.62-1.39a4.27,4.27,0,0,0,.89-1.18,3.32,3.32,0,0,0,.28-1.39,2.23,2.23,0,0,0-.85-1.89,3.74,3.74,0,0,0-2.36-.66,8.41,8.41,0,0,0-2.54.38,16.63,16.63,0,0,0-2.34,1l-1.23-2.59a14.92,14.92,0,0,1,2.9-1.17,12.14,12.14,0,0,1,3.44-.46,6.76,6.76,0,0,1,4.62,1.45,4.92,4.92,0,0,1,1.64,3.84,5.44,5.44,0,0,1-.41,2.22,5.54,5.54,0,0,1-1.21,1.71,20.24,20.24,0,0,1-1.93,1.65,13,13,0,0,0-1.41,1.27,3,3,0,0,0-.67,1.08,3.83,3.83,0,0,0-.19,1.3v.67Zm-.56,4.72a2,2,0,0,1,.62-1.69,2.41,2.41,0,0,1,1.53-.49,2.36,2.36,0,0,1,1.51.49,2,2,0,0,1,.63,1.69,2.06,2.06,0,0,1-.63,1.69,2.24,2.24,0,0,1-1.51.52,2.29,2.29,0,0,1-1.53-.52,2.09,2.09,0,0,1-.62-1.69Z" transform="translate(-470.43 -1158.41)"/><path d="M490,1455h-3.52v-9.67h-9.86V1455h-3.51v-21.42h3.51v8.76h9.86v-8.76H490Z" transform="translate(-470.43 -1158.41)"/><path d="M509.6,1446.8a11.19,11.19,0,0,1-.52,3.59,7.21,7.21,0,0,1-1.54,2.65,6.7,6.7,0,0,1-2.43,1.64,8.59,8.59,0,0,1-3.21.56,8.22,8.22,0,0,1-3.06-.56,6.63,6.63,0,0,1-2.41-1.64,7.23,7.23,0,0,1-1.58-2.65,10.69,10.69,0,0,1-.55-3.59,10,10,0,0,1,.93-4.55,6.6,6.6,0,0,1,2.66-2.85,8.2,8.2,0,0,1,4.11-1,7.87,7.87,0,0,1,4,1,6.91,6.91,0,0,1,2.68,2.86A9.89,9.89,0,0,1,509.6,1446.8Zm-11.76,0a9.51,9.51,0,0,0,.43,3,3.92,3.92,0,0,0,1.34,1.93,4.44,4.44,0,0,0,4.68,0,3.92,3.92,0,0,0,1.34-1.93,9.24,9.24,0,0,0,.43-3,9,9,0,0,0-.43-3,3.57,3.57,0,0,0-3.69-2.55,3.53,3.53,0,0,0-3.12,1.44A7.21,7.21,0,0,0,497.84,1446.8Z" transform="translate(-470.43 -1158.41)"/><path d="M526.82,1454.93l-2.05-7.53-.36-1.35-.41-1.63c-.13-.56-.26-1.08-.37-1.57s-.2-.85-.26-1.12h-.11a6.74,6.74,0,0,1-.24,1.12l-.36,1.58-.41,1.65c-.13.54-.25,1-.36,1.37l-2.15,7.48H516l-4.54-16.21H515l2.11,8c.13.55.27,1.14.4,1.78s.25,1.24.34,1.81.17,1,.22,1.42h.12a7.19,7.19,0,0,1,.16-1c.07-.4.15-.83.24-1.27s.17-.87.26-1.26.17-.72.25-1l2.49-8.57h3.76l2.39,8.57c.11.37.23.83.35,1.39s.24,1.13.35,1.69a13.08,13.08,0,0,1,.19,1.4h.12a10,10,0,0,1,.21-1.36c.1-.57.23-1.18.36-1.83s.28-1.25.43-1.81l2.15-8h3.43l-4.57,16.21Z" transform="translate(-470.43 -1158.41)"/><path d="M560,1438.73V1455h-2.71l-.48-2.17h-.18a4.39,4.39,0,0,1-1.3,1.38,5.83,5.83,0,0,1-1.77.82,8,8,0,0,1-2,.26,7.09,7.09,0,0,1-3.11-.62,4.4,4.4,0,0,1-2-1.93,7.14,7.14,0,0,1-.69-3.37v-10.59h3.47v10a4.41,4.41,0,0,0,.77,2.82,2.88,2.88,0,0,0,2.39.94,4.19,4.19,0,0,0,2.49-.64,3.54,3.54,0,0,0,1.31-1.91,10.78,10.78,0,0,0,.39-3.09v-8.07Z" transform="translate(-470.43 -1158.41)"/><path d="M573.32,1438.42a6,6,0,0,1,4.27,1.42q1.54,1.41,1.54,4.53V1455h-3.45v-10a4.43,4.43,0,0,0-.77-2.82,3,3,0,0,0-2.41-.94,3.55,3.55,0,0,0-3.27,1.45,7.83,7.83,0,0,0-.92,4.19V1455h-3.45v-16.22h2.69l.49,2.2h.19a4.73,4.73,0,0,1,1.31-1.4,6,6,0,0,1,1.76-.83A7.69,7.69,0,0,1,573.32,1438.42Z" transform="translate(-470.43 -1158.41)"/><path d="M592.25,1438.42a5.73,5.73,0,0,1,4.64,2.11c1.16,1.41,1.75,3.5,1.75,6.27a11.49,11.49,0,0,1-.82,4.64,6.27,6.27,0,0,1-2.27,2.84,6,6,0,0,1-3.39,1A6.72,6.72,0,0,1,590,1455a5.1,5.1,0,0,1-1.55-.85,6.08,6.08,0,0,1-1.08-1.13h-.21c.05.39.1.81.14,1.29a11.5,11.5,0,0,1,.07,1.31v6.59h-3.47v-23.41h2.82l.49,2.24h.16a6.36,6.36,0,0,1,1.1-1.27,5,5,0,0,1,1.59-.93A6.17,6.17,0,0,1,592.25,1438.42Zm-.92,2.83a4.14,4.14,0,0,0-2.28.56,3.26,3.26,0,0,0-1.25,1.69,9.57,9.57,0,0,0-.41,2.82v.48a10.92,10.92,0,0,0,.37,3.06,3.49,3.49,0,0,0,1.25,1.9,3.79,3.79,0,0,0,2.36.65,3.1,3.1,0,0,0,2.07-.69,4,4,0,0,0,1.24-2,9.79,9.79,0,0,0,.41-3,7.58,7.58,0,0,0-.92-4.07A3.14,3.14,0,0,0,591.33,1441.25Z" transform="translate(-470.43 -1158.41)"/><path d="M610.82,1438.42h.9a4.52,4.52,0,0,1,.83.11l-.32,3.24a6.58,6.58,0,0,0-.75-.14h-.8a5,5,0,0,0-1.76.31,4.36,4.36,0,0,0-1.48.91,4.28,4.28,0,0,0-1,1.52,5.62,5.62,0,0,0-.37,2.11V1455H602.6v-16.22h2.71l.47,2.86h.16a6.8,6.8,0,0,1,1.2-1.58,5.93,5.93,0,0,1,1.65-1.16A4.92,4.92,0,0,1,610.82,1438.42Z" transform="translate(-470.43 -1158.41)"/><path d="M622,1438.42a7.32,7.32,0,0,1,3.72.9,5.93,5.93,0,0,1,2.38,2.53,8.46,8.46,0,0,1,.84,3.93v1.84H618.13a5.32,5.32,0,0,0,1.27,3.64,4.49,4.49,0,0,0,3.39,1.27,11.87,11.87,0,0,0,2.79-.3,15.2,15.2,0,0,0,2.56-.89v2.8a11.33,11.33,0,0,1-2.48.84,15.08,15.08,0,0,1-3,.26,9.27,9.27,0,0,1-4.21-.92,6.63,6.63,0,0,1-2.83-2.77,9.54,9.54,0,0,1-1-4.6,10.41,10.41,0,0,1,.93-4.63,6.67,6.67,0,0,1,2.59-2.9A7.47,7.47,0,0,1,622,1438.42Zm0,2.6a3.48,3.48,0,0,0-2.63,1,4.87,4.87,0,0,0-1.18,3.09h7.37a5.83,5.83,0,0,0-.41-2.15,3.27,3.27,0,0,0-1.16-1.46,3.4,3.4,0,0,0-2-.5Z" transform="translate(-470.43 -1158.41)"/><path d="M638.28,1455.24a5.74,5.74,0,0,1-4.64-2.12q-1.75-2.11-1.75-6.24c0-2.79.59-4.89,1.78-6.32a5.86,5.86,0,0,1,4.69-2.14,6.47,6.47,0,0,1,2.14.33,5.25,5.25,0,0,1,1.6.89,6.34,6.34,0,0,1,1.13,1.24h.16c0-.3-.1-.74-.16-1.31a14.12,14.12,0,0,1-.09-1.59v-5.83h3.46V1455h-2.7l-.61-2.2h-.15A5.41,5.41,0,0,1,642,1454a4.92,4.92,0,0,1-1.59.9A6.46,6.46,0,0,1,638.28,1455.24Zm1-2.8a3.56,3.56,0,0,0,3.11-1.27,6.68,6.68,0,0,0,.93-3.83v-.45a8.26,8.26,0,0,0-.87-4.17,3.43,3.43,0,0,0-3.2-1.46,3.17,3.17,0,0,0-2.84,1.5,7.61,7.61,0,0,0-1,4.17,7.19,7.19,0,0,0,1,4.1,3.28,3.28,0,0,0,2.85,1.41Z" transform="translate(-470.43 -1158.41)"/><path d="M653.26,1432.52a2.24,2.24,0,0,1,1.37.42,2.15,2.15,0,0,1,0,2.93,2.37,2.37,0,0,1-2.76,0,2.17,2.17,0,0,1,0-2.93A2.22,2.22,0,0,1,653.26,1432.52Zm1.7,6.21V1455H651.5v-16.22Z" transform="translate(-470.43 -1158.41)"/><path d="M666.42,1455.24a8.4,8.4,0,0,1-4-.89,5.93,5.93,0,0,1-2.59-2.74,10.51,10.51,0,0,1-.91-4.69,10.19,10.19,0,0,1,1-4.83,6.29,6.29,0,0,1,2.75-2.77,8.77,8.77,0,0,1,4.06-.9,11.1,11.1,0,0,1,2.63.29,10.06,10.06,0,0,1,2,.69l-1,2.76a17.07,17.07,0,0,0-1.83-.61,6.87,6.87,0,0,0-1.8-.26,4.13,4.13,0,0,0-2.37.64,3.7,3.7,0,0,0-1.4,1.88,8.93,8.93,0,0,0-.46,3.08,8.48,8.48,0,0,0,.46,3,3.78,3.78,0,0,0,1.4,1.85,4,4,0,0,0,2.27.62A8.33,8.33,0,0,0,669,1452a11.29,11.29,0,0,0,2-.84v3a8,8,0,0,1-2,.78A11.27,11.27,0,0,1,666.42,1455.24Z" transform="translate(-470.43 -1158.41)"/><path d="M680.81,1452.46a6.69,6.69,0,0,0,1.34-.13,8.1,8.1,0,0,0,1.2-.3v2.61a7.58,7.58,0,0,1-1.48.42,10,10,0,0,1-1.89.18,6.39,6.39,0,0,1-2.48-.46,3.63,3.63,0,0,1-1.74-1.59,6.24,6.24,0,0,1-.64-3.12v-8.7H672.9v-1.54l2.38-1.23,1.13-3.47h2.16v3.6h4.65v2.64h-4.65V1450a2.48,2.48,0,0,0,.62,1.84A2.21,2.21,0,0,0,680.81,1452.46Z" transform="translate(-470.43 -1158.41)"/><path d="M693,1438.42a6.93,6.93,0,0,1,4.65,1.37,5.33,5.33,0,0,1,1.58,4.24v11h-2.45l-.67-2.3H696a8.47,8.47,0,0,1-1.42,1.45,4.71,4.71,0,0,1-1.68.86,8.31,8.31,0,0,1-2.33.28,6,6,0,0,1-2.61-.54,4.12,4.12,0,0,1-1.8-1.63,5.38,5.38,0,0,1-.65-2.78,4.23,4.23,0,0,1,1.87-3.77,10.85,10.85,0,0,1,5.65-1.39l2.79-.1v-.85a2.65,2.65,0,0,0-2.14-3.09,2.48,2.48,0,0,0-.86,0,7.85,7.85,0,0,0-2.36.36,16.12,16.12,0,0,0-2.22.85l-1.13-2.44a12.5,12.5,0,0,1,2.72-1A12.16,12.16,0,0,1,693,1438.42Zm2.8,8.78-2.08.09a6.47,6.47,0,0,0-3.62.87,2.56,2.56,0,0,0-1,2.16,2,2,0,0,0,.72,1.75,3,3,0,0,0,1.89.55,4.36,4.36,0,0,0,3-1,3.75,3.75,0,0,0,1.17-3Z" transform="translate(-470.43 -1158.41)"/><path d="M707.49,1432.15v7.36a13.78,13.78,0,0,1-.1,1.43h.15a5.59,5.59,0,0,1,1.84-1.78,6.36,6.36,0,0,1,7.67,1.39c1.17,1.42,1.75,3.5,1.75,6.27a11.63,11.63,0,0,1-.8,4.63,6.22,6.22,0,0,1-2.26,2.83,6.13,6.13,0,0,1-3.42,1,5.9,5.9,0,0,1-3-.67,5.8,5.8,0,0,1-1.78-1.6h-.24l-.63,2H704v-22.8Zm4,9.1a4.12,4.12,0,0,0-2.32.58,3.19,3.19,0,0,0-1.23,1.74,9.83,9.83,0,0,0-.4,3v.31a8.17,8.17,0,0,0,.86,4.15,3.33,3.33,0,0,0,3.12,1.43,3.1,3.1,0,0,0,2.77-1.46,7.56,7.56,0,0,0,1-4.18,7.21,7.21,0,0,0-1-4.13,3.16,3.16,0,0,0-2.85-1.44Z" transform="translate(-470.43 -1158.41)"/><path d="M726.18,1455h-3.47v-22.8h3.47Z" transform="translate(-470.43 -1158.41)"/><path d="M737.55,1438.42a7.32,7.32,0,0,1,3.72.9,6,6,0,0,1,2.39,2.53,8.61,8.61,0,0,1,.83,3.93v1.84H733.67a5.31,5.31,0,0,0,1.26,3.64,4.49,4.49,0,0,0,3.39,1.27,12,12,0,0,0,2.8-.3,15.41,15.41,0,0,0,2.55-.89v2.8a11.43,11.43,0,0,1-2.47.84,15.86,15.86,0,0,1-3,.26,9.27,9.27,0,0,1-4.21-.92,6.56,6.56,0,0,1-2.82-2.77,9.4,9.4,0,0,1-1-4.6,10.4,10.4,0,0,1,.92-4.63,6.67,6.67,0,0,1,2.59-2.9A7.5,7.5,0,0,1,737.55,1438.42Zm0,2.6a3.48,3.48,0,0,0-2.63,1,5,5,0,0,0-1.18,3.09h7.37a6.07,6.07,0,0,0-.4-2.15,3.29,3.29,0,0,0-1.17-1.46,3.4,3.4,0,0,0-2-.5Z" transform="translate(-470.43 -1158.41)"/><path d="M757.91,1432.52a2.31,2.31,0,0,1,1.37.42,2.15,2.15,0,0,1,0,2.93,2.37,2.37,0,0,1-2.76,0,2.17,2.17,0,0,1,0-2.93A2.22,2.22,0,0,1,757.91,1432.52Zm1.7,6.21V1455h-3.46v-16.22Z" transform="translate(-470.43 -1158.41)"/><path d="M775.43,1450.32a4.51,4.51,0,0,1-.78,2.69,4.66,4.66,0,0,1-2.26,1.67,10.46,10.46,0,0,1-3.64.56,15.84,15.84,0,0,1-2.92-.24,10.45,10.45,0,0,1-2.32-.74v-3a15.92,15.92,0,0,0,2.61.94,10.13,10.13,0,0,0,2.73.4,4.24,4.24,0,0,0,2.44-.54,1.67,1.67,0,0,0,.76-1.43,1.57,1.57,0,0,0-.3-.94,3.53,3.53,0,0,0-1.12-.87,23.15,23.15,0,0,0-2.39-1.06,20.58,20.58,0,0,1-2.6-1.23,4.72,4.72,0,0,1-1.59-1.49,4.15,4.15,0,0,1-.54-2.23,3.7,3.7,0,0,1,1.71-3.29,8.26,8.26,0,0,1,4.53-1.12,13.38,13.38,0,0,1,2.82.3,14.18,14.18,0,0,1,2.6.87l-1.09,2.6a19.22,19.22,0,0,0-2.2-.79,8.15,8.15,0,0,0-2.25-.31,4.07,4.07,0,0,0-2,.41,1.3,1.3,0,0,0-.7,1.16,1.42,1.42,0,0,0,.34,1,3.46,3.46,0,0,0,1.17.79c.55.27,1.32.6,2.3,1a18.36,18.36,0,0,1,2.51,1.16,4.69,4.69,0,0,1,1.64,1.49A4.09,4.09,0,0,1,775.43,1450.32Z" transform="translate(-470.43 -1158.41)"/><path d="M800.19,1454.93l-2.06-7.53c-.09-.37-.21-.82-.35-1.35l-.41-1.63c-.13-.56-.26-1.08-.37-1.57s-.2-.85-.26-1.12h-.11a6.74,6.74,0,0,1-.24,1.12c-.11.48-.23,1-.37,1.58l-.4,1.65c-.13.53-.25,1-.36,1.37l-2.15,7.48h-3.78l-4.54-16.21h3.49l2.11,8c.13.55.27,1.14.4,1.78s.24,1.24.34,1.81.17,1,.22,1.42h.12a7.19,7.19,0,0,1,.16-1c.07-.4.15-.83.23-1.27s.18-.87.27-1.26.17-.72.25-1l2.49-8.57h3.76l2.39,8.57c.11.37.22.83.35,1.39s.24,1.13.35,1.69a11.44,11.44,0,0,1,.19,1.4H802a10,10,0,0,1,.21-1.36c.1-.57.23-1.18.36-1.83s.28-1.25.43-1.81l2.15-8h3.43L804,1454.93Z" transform="translate(-470.43 -1158.41)"/><path d="M817.85,1438.42a7.22,7.22,0,0,1,3.72.9,6,6,0,0,1,2.39,2.53,8.48,8.48,0,0,1,.83,3.93v1.84H814a5.27,5.27,0,0,0,1.27,3.64,4.45,4.45,0,0,0,3.39,1.27,11.87,11.87,0,0,0,2.79-.3,15.1,15.1,0,0,0,2.55-.89v2.8a11.43,11.43,0,0,1-2.47.84,15.86,15.86,0,0,1-3,.26,9.26,9.26,0,0,1-4.2-.92,6.58,6.58,0,0,1-2.83-2.77,9.54,9.54,0,0,1-1-4.6,10.68,10.68,0,0,1,.92-4.63,6.73,6.73,0,0,1,2.59-2.9A7.49,7.49,0,0,1,817.85,1438.42Zm0,2.6a3.48,3.48,0,0,0-2.63,1,5,5,0,0,0-1.18,3.09h7.37a5.62,5.62,0,0,0-.4-2.15,3.29,3.29,0,0,0-1.17-1.46,3.4,3.4,0,0,0-2-.5Z" transform="translate(-470.43 -1158.41)"/><path d="M835,1438.42a6.93,6.93,0,0,1,4.65,1.37,5.33,5.33,0,0,1,1.58,4.24v11h-2.45l-.67-2.3H838a8.47,8.47,0,0,1-1.42,1.45,4.71,4.71,0,0,1-1.68.86,8.31,8.31,0,0,1-2.33.28,6,6,0,0,1-2.61-.54,4,4,0,0,1-1.79-1.63,5.29,5.29,0,0,1-.66-2.78,4.28,4.28,0,0,1,1.87-3.77,10.85,10.85,0,0,1,5.65-1.39l2.8-.1v-.85a2.67,2.67,0,0,0-2.16-3.1,3,3,0,0,0-.84,0,7.85,7.85,0,0,0-2.36.36,16.12,16.12,0,0,0-2.22.85l-1.13-2.44a12.69,12.69,0,0,1,2.72-1A12.08,12.08,0,0,1,835,1438.42Zm2.8,8.78-2.08.09a6.47,6.47,0,0,0-3.62.87,2.56,2.56,0,0,0-1,2.16,2,2,0,0,0,.72,1.75,3,3,0,0,0,1.89.55,4.36,4.36,0,0,0,3-1,3.75,3.75,0,0,0,1.17-3Z" transform="translate(-470.43 -1158.41)"/><path d="M852.11,1452.46a6.69,6.69,0,0,0,1.34-.13,8.1,8.1,0,0,0,1.2-.3v2.61a7.58,7.58,0,0,1-1.48.42,10,10,0,0,1-1.89.18,6.39,6.39,0,0,1-2.48-.46,3.63,3.63,0,0,1-1.74-1.59,6.24,6.24,0,0,1-.64-3.12v-8.7H844.2v-1.54l2.38-1.23,1.12-3.47h2.17v3.6h4.65v2.64h-4.65V1450a2.48,2.48,0,0,0,.62,1.84A2.21,2.21,0,0,0,852.11,1452.46Z" transform="translate(-470.43 -1158.41)"/><path d="M861.39,1432.15v5.73q0,.9-.06,1.74a11.75,11.75,0,0,1-.1,1.32h.19a4.81,4.81,0,0,1,1.26-1.4,5.2,5.2,0,0,1,1.67-.82,6.76,6.76,0,0,1,2-.28,7.28,7.28,0,0,1,3.16.62,4.4,4.4,0,0,1,2,1.93,7.28,7.28,0,0,1,.7,3.38V1455h-3.45v-10a4.36,4.36,0,0,0-.78-2.82,3,3,0,0,0-2.39-.94,4.2,4.2,0,0,0-2.49.65,3.69,3.69,0,0,0-1.31,1.91,10.78,10.78,0,0,0-.39,3.09v8h-3.46v-22.8Z" transform="translate(-470.43 -1158.41)"/><path d="M883.46,1438.42a7.22,7.22,0,0,1,3.72.9,6,6,0,0,1,2.39,2.53,8.48,8.48,0,0,1,.83,3.93v1.84H879.58a5.27,5.27,0,0,0,1.27,3.64,4.45,4.45,0,0,0,3.39,1.27,11.87,11.87,0,0,0,2.79-.3,15.1,15.1,0,0,0,2.55-.89v2.8a11.43,11.43,0,0,1-2.47.84,15.86,15.86,0,0,1-3,.26,9.26,9.26,0,0,1-4.2-.92,6.58,6.58,0,0,1-2.83-2.77,9.54,9.54,0,0,1-1-4.6,10.68,10.68,0,0,1,.92-4.63,6.73,6.73,0,0,1,2.59-2.9A7.5,7.5,0,0,1,883.46,1438.42Zm0,2.6a3.48,3.48,0,0,0-2.63,1,5,5,0,0,0-1.18,3.09H887a5.62,5.62,0,0,0-.4-2.15,3.29,3.29,0,0,0-1.17-1.46,3.42,3.42,0,0,0-2-.5Z" transform="translate(-470.43 -1158.41)"/><path d="M902.5,1438.42h.9a4.52,4.52,0,0,1,.83.11l-.32,3.24a6.58,6.58,0,0,0-.75-.14h-.8a5,5,0,0,0-1.76.31,4.36,4.36,0,0,0-1.48.91,4.28,4.28,0,0,0-1,1.52,5.62,5.62,0,0,0-.37,2.11V1455h-3.47v-16.22H897l.47,2.86h.16a6.8,6.8,0,0,1,1.2-1.58,5.93,5.93,0,0,1,1.65-1.16A4.87,4.87,0,0,1,902.5,1438.42Z" transform="translate(-470.43 -1158.41)"/><path d="M916.77,1432.52a2.24,2.24,0,0,1,1.37.42,2.15,2.15,0,0,1,0,2.93,2.12,2.12,0,0,1-1.37.44,1.91,1.91,0,0,1-1.39-3.37A2.3,2.3,0,0,1,916.77,1432.52Zm1.7,6.21V1455H915v-16.22Z" transform="translate(-470.43 -1158.41)"/><path d="M931.85,1438.42a6.1,6.1,0,0,1,4.27,1.42q1.53,1.41,1.53,4.53V1455H934.2v-10a4.43,4.43,0,0,0-.77-2.82,3,3,0,0,0-2.41-.94,3.55,3.55,0,0,0-3.27,1.45,7.94,7.94,0,0,0-.91,4.19V1455h-3.46v-16.22h2.69l.49,2.2h.19a4.73,4.73,0,0,1,1.31-1.4,6,6,0,0,1,1.76-.83A7.76,7.76,0,0,1,931.85,1438.42Z" transform="translate(-470.43 -1158.41)"/><path d="M950.6,1455v-21.42h3.51V1455Z" transform="translate(-470.43 -1158.41)"/><path d="M965.93,1455.24a8.4,8.4,0,0,1-4-.89,6,6,0,0,1-2.6-2.74,10.67,10.67,0,0,1-.9-4.69,10.33,10.33,0,0,1,1-4.83,6.32,6.32,0,0,1,2.76-2.77,8.77,8.77,0,0,1,4-.9,11,11,0,0,1,2.63.29,9.47,9.47,0,0,1,2,.69l-1,2.76a17.07,17.07,0,0,0-1.83-.61,6.87,6.87,0,0,0-1.8-.26,4.13,4.13,0,0,0-2.37.64,3.78,3.78,0,0,0-1.41,1.88,9.17,9.17,0,0,0-.46,3.08,8.49,8.49,0,0,0,.47,3,3.82,3.82,0,0,0,1.39,1.85,4,4,0,0,0,2.27.62,8.4,8.4,0,0,0,2.39-.32,10.59,10.59,0,0,0,2-.84v3a7.29,7.29,0,0,1-2,.78A11.41,11.41,0,0,1,965.93,1455.24Z" transform="translate(-470.43 -1158.41)"/><path d="M980.76,1438.42a7.32,7.32,0,0,1,3.72.9,5.93,5.93,0,0,1,2.38,2.53,8.46,8.46,0,0,1,.84,3.93v1.84H976.87a5.32,5.32,0,0,0,1.27,3.64,4.49,4.49,0,0,0,3.39,1.27,11.87,11.87,0,0,0,2.79-.3,15.2,15.2,0,0,0,2.56-.89v2.8a11.33,11.33,0,0,1-2.48.84,15.08,15.08,0,0,1-3,.26,9.27,9.27,0,0,1-4.21-.92,6.63,6.63,0,0,1-2.83-2.77,9.54,9.54,0,0,1-1-4.6,10.41,10.41,0,0,1,.93-4.63,6.67,6.67,0,0,1,2.59-2.9A7.44,7.44,0,0,1,980.76,1438.42Zm0,2.6a3.48,3.48,0,0,0-2.63,1,4.87,4.87,0,0,0-1.18,3.09h7.37a5.83,5.83,0,0,0-.41-2.15,3.27,3.27,0,0,0-1.16-1.46,3.4,3.4,0,0,0-2-.5Z" transform="translate(-470.43 -1158.41)"/><path d="M995,1455h-3.47v-22.8H995Z" transform="translate(-470.43 -1158.41)"/><path d="M1006.3,1438.42a6.93,6.93,0,0,1,4.65,1.37,5.33,5.33,0,0,1,1.58,4.24v11h-2.45l-.67-2.3h-.12a8.47,8.47,0,0,1-1.42,1.45,4.71,4.71,0,0,1-1.68.86,8.31,8.31,0,0,1-2.33.28,6,6,0,0,1-2.61-.54,4,4,0,0,1-1.79-1.63,5.29,5.29,0,0,1-.66-2.78,4.28,4.28,0,0,1,1.87-3.77,10.85,10.85,0,0,1,5.65-1.39l2.8-.1v-.85a2.67,2.67,0,0,0-2.16-3.1,3,3,0,0,0-.84,0,7.85,7.85,0,0,0-2.36.36,16.12,16.12,0,0,0-2.22.85l-1.13-2.44a12.69,12.69,0,0,1,2.72-1A12.16,12.16,0,0,1,1006.3,1438.42Zm2.8,8.78-2.08.09a6.47,6.47,0,0,0-3.62.87,2.56,2.56,0,0,0-1,2.16,2,2,0,0,0,.72,1.75,3,3,0,0,0,1.89.55,4.36,4.36,0,0,0,3-1,3.75,3.75,0,0,0,1.17-3Z" transform="translate(-470.43 -1158.41)"/><path d="M1025.8,1438.42a6,6,0,0,1,4.27,1.42q1.53,1.41,1.53,4.53V1455h-3.44v-10a4.36,4.36,0,0,0-.78-2.82,3,3,0,0,0-2.4-.94,3.55,3.55,0,0,0-3.27,1.45,7.83,7.83,0,0,0-.92,4.19V1455h-3.46v-16.22h2.7l.48,2.2h.19a4.73,4.73,0,0,1,1.31-1.4,6,6,0,0,1,1.76-.83A7.76,7.76,0,0,1,1025.8,1438.42Z" transform="translate(-470.43 -1158.41)"/><path d="M1041.84,1455.24a5.74,5.74,0,0,1-4.64-2.12c-1.16-1.41-1.75-3.49-1.75-6.24s.6-4.89,1.78-6.32a5.82,5.82,0,0,1,4.7-2.14,6.47,6.47,0,0,1,2.14.33,5.2,5.2,0,0,1,1.59.89,5.54,5.54,0,0,1,1.13,1.24h.16c0-.3-.1-.74-.16-1.31a14.12,14.12,0,0,1-.09-1.59v-5.83h3.46V1455h-2.69l-.62-2.2h-.15a5.51,5.51,0,0,1-1.1,1.26,5.11,5.11,0,0,1-1.59.9A6.39,6.39,0,0,1,1041.84,1455.24Zm1-2.8a3.56,3.56,0,0,0,3.11-1.27,6.68,6.68,0,0,0,.93-3.83v-.45a8.26,8.26,0,0,0-.87-4.17,3.42,3.42,0,0,0-3.2-1.46,3.17,3.17,0,0,0-2.83,1.5,7.61,7.61,0,0,0-1,4.17,7.19,7.19,0,0,0,1,4.1,3.26,3.26,0,0,0,2.84,1.41Z" transform="translate(-470.43 -1158.41)"/><path d="M1056.75,1448.41v-.92a6.68,6.68,0,0,1,.25-1.89,4.4,4.4,0,0,1,.84-1.51,10.14,10.14,0,0,1,1.58-1.49c.67-.54,1.21-1,1.62-1.39a4.23,4.23,0,0,0,.88-1.18,3.18,3.18,0,0,0,.28-1.39,2.26,2.26,0,0,0-.84-1.89,3.77,3.77,0,0,0-2.37-.66,8.34,8.34,0,0,0-2.53.38,16.63,16.63,0,0,0-2.34,1l-1.23-2.59a13.76,13.76,0,0,1,2.9-1.17,12.14,12.14,0,0,1,3.44-.46,6.76,6.76,0,0,1,4.62,1.45,4.87,4.87,0,0,1,1.63,3.84,5.06,5.06,0,0,1-1.62,3.93,19,19,0,0,1-1.92,1.65,12.26,12.26,0,0,0-1.42,1.27,3.11,3.11,0,0,0-.67,1.08,4.09,4.09,0,0,0-.18,1.3v.67Zm-.55,4.72a2,2,0,0,1,.62-1.69,2.58,2.58,0,0,1,3,0,2,2,0,0,1,.63,1.69,2.06,2.06,0,0,1-.63,1.69,2.49,2.49,0,0,1-3,0A2.09,2.09,0,0,1,1056.2,1453.13Z" transform="translate(-470.43 -1158.41)"/><path d="M473.06,1545v-21.42h3.51V1545Z" transform="translate(-470.43 -1158.41)"/><path d="M492.76,1540.32A4.48,4.48,0,0,1,492,1543a4.71,4.71,0,0,1-2.26,1.67,10.46,10.46,0,0,1-3.64.56,15.84,15.84,0,0,1-2.92-.24,11.28,11.28,0,0,1-2.33-.74v-3a16,16,0,0,0,2.62.94,10.13,10.13,0,0,0,2.73.4,4.24,4.24,0,0,0,2.44-.54,1.67,1.67,0,0,0,.75-1.43,1.57,1.57,0,0,0-.3-.94,3.38,3.38,0,0,0-1.11-.87,23.15,23.15,0,0,0-2.39-1.06,21.26,21.26,0,0,1-2.6-1.23,4.72,4.72,0,0,1-1.59-1.49,4.15,4.15,0,0,1-.55-2.23,3.7,3.7,0,0,1,1.72-3.29,8.24,8.24,0,0,1,4.52-1.12,12.75,12.75,0,0,1,2.82.3,13.24,13.24,0,0,1,2.6.87l-1.08,2.6a19.22,19.22,0,0,0-2.2-.79,8.15,8.15,0,0,0-2.25-.31,4.07,4.07,0,0,0-2,.41,1.26,1.26,0,0,0-.7,1.16,1.42,1.42,0,0,0,.34,1,3.42,3.42,0,0,0,1.16.79c.56.27,1.33.6,2.31,1a17.83,17.83,0,0,1,2.51,1.16,4.69,4.69,0,0,1,1.64,1.49A4,4,0,0,1,492.76,1540.32Z" transform="translate(-470.43 -1158.41)"/><path d="M504.61,1545v-21.42h3.51V1545Z" transform="translate(-470.43 -1158.41)"/><path d="M520,1545.24a8.4,8.4,0,0,1-4-.89,5.93,5.93,0,0,1-2.59-2.74,10.51,10.51,0,0,1-.91-4.69,10.19,10.19,0,0,1,1-4.83,6.29,6.29,0,0,1,2.75-2.77,8.77,8.77,0,0,1,4.06-.9,11,11,0,0,1,2.63.29,10.06,10.06,0,0,1,2,.69l-1,2.76a17.07,17.07,0,0,0-1.83-.61,6.87,6.87,0,0,0-1.8-.26,4.13,4.13,0,0,0-2.37.64,3.7,3.7,0,0,0-1.4,1.88,8.93,8.93,0,0,0-.46,3.08,8.48,8.48,0,0,0,.46,3,3.78,3.78,0,0,0,1.4,1.85,4,4,0,0,0,2.27.62,8.33,8.33,0,0,0,2.38-.32,11.29,11.29,0,0,0,2-.84v3a8,8,0,0,1-2,.78A11.27,11.27,0,0,1,520,1545.24Z" transform="translate(-470.43 -1158.41)"/><path d="M534.77,1528.42a7.22,7.22,0,0,1,3.72.9,6,6,0,0,1,2.39,2.53,8.48,8.48,0,0,1,.83,3.93v1.84H530.89a5.27,5.27,0,0,0,1.27,3.64,4.45,4.45,0,0,0,3.39,1.27,11.87,11.87,0,0,0,2.79-.3,15.41,15.41,0,0,0,2.55-.89v2.8a11.43,11.43,0,0,1-2.47.84,15.86,15.86,0,0,1-3,.26,9.26,9.26,0,0,1-4.2-.92,6.53,6.53,0,0,1-2.83-2.77,9.4,9.4,0,0,1-1-4.6,10.68,10.68,0,0,1,.92-4.63,6.73,6.73,0,0,1,2.59-2.9A7.5,7.5,0,0,1,534.77,1528.42Zm0,2.6a3.48,3.48,0,0,0-2.63,1,5,5,0,0,0-1.18,3.09h7.37a5.62,5.62,0,0,0-.4-2.15,3.29,3.29,0,0,0-1.17-1.46,3.4,3.4,0,0,0-2-.5Z" transform="translate(-470.43 -1158.41)"/><path d="M549.05,1545h-3.47v-22.8h3.47Z" transform="translate(-470.43 -1158.41)"/><path d="M560.32,1528.42a6.93,6.93,0,0,1,4.65,1.37,5.29,5.29,0,0,1,1.57,4.24v11H564.1l-.68-2.3h-.11a8.53,8.53,0,0,1-1.43,1.45,4.71,4.71,0,0,1-1.68.86,8.31,8.31,0,0,1-2.33.28,6,6,0,0,1-2.61-.54,4,4,0,0,1-1.79-1.63,5.28,5.28,0,0,1-.65-2.78,4.25,4.25,0,0,1,1.86-3.77,10.85,10.85,0,0,1,5.65-1.39l2.8-.1v-.85a3.16,3.16,0,0,0-.78-2.39,3.11,3.11,0,0,0-2.19-.72,7.85,7.85,0,0,0-2.36.36,16.24,16.24,0,0,0-2.23.85l-1.13-2.44a12.69,12.69,0,0,1,2.72-1A12.08,12.08,0,0,1,560.32,1528.42Zm2.79,8.78-2.08.09a6.43,6.43,0,0,0-3.61.87,2.53,2.53,0,0,0-1,2.16,2.09,2.09,0,0,0,.71,1.75,3,3,0,0,0,1.89.55,4.32,4.32,0,0,0,3-1,3.75,3.75,0,0,0,1.17-3Z" transform="translate(-470.43 -1158.41)"/><path d="M579.81,1528.42a6,6,0,0,1,4.27,1.42q1.53,1.41,1.53,4.53V1545h-3.44v-10a4.43,4.43,0,0,0-.77-2.82,3,3,0,0,0-2.41-.94,3.55,3.55,0,0,0-3.27,1.45,7.83,7.83,0,0,0-.92,4.19V1545h-3.45v-16.22H574l.49,2.2h.19a4.61,4.61,0,0,1,1.31-1.4,6,6,0,0,1,1.76-.83A7.21,7.21,0,0,1,579.81,1528.42Z" transform="translate(-470.43 -1158.41)"/><path d="M595.85,1545.24a5.72,5.72,0,0,1-4.63-2.12c-1.17-1.41-1.76-3.49-1.75-6.24s.59-4.89,1.78-6.32a5.79,5.79,0,0,1,4.69-2.14,6.47,6.47,0,0,1,2.14.33,5.25,5.25,0,0,1,1.6.89,6.34,6.34,0,0,1,1.13,1.24H601c0-.3-.11-.74-.16-1.31a14.12,14.12,0,0,1-.09-1.59v-5.83h3.45V1545h-2.69l-.62-2.2h-.14a5.81,5.81,0,0,1-1.11,1.26,4.92,4.92,0,0,1-1.59.9A6.56,6.56,0,0,1,595.85,1545.24Zm1-2.8a3.56,3.56,0,0,0,3.11-1.27,6.68,6.68,0,0,0,.93-3.83v-.45a8.26,8.26,0,0,0-.87-4.17,3.43,3.43,0,0,0-3.2-1.46,3.17,3.17,0,0,0-2.84,1.5,7.61,7.61,0,0,0-1,4.17,7.19,7.19,0,0,0,1,4.1,3.28,3.28,0,0,0,2.86,1.41Z" transform="translate(-470.43 -1158.41)"/><path d="M623.42,1545.24a8.4,8.4,0,0,1-4-.89,5.88,5.88,0,0,1-2.59-2.74,10.51,10.51,0,0,1-.91-4.69,10.33,10.33,0,0,1,1-4.83,6.37,6.37,0,0,1,2.76-2.77,8.77,8.77,0,0,1,4-.9,11,11,0,0,1,2.63.29,9.47,9.47,0,0,1,2,.69l-1,2.76a17.07,17.07,0,0,0-1.83-.61,6.87,6.87,0,0,0-1.8-.26,4.13,4.13,0,0,0-2.37.64,3.78,3.78,0,0,0-1.41,1.88,9.17,9.17,0,0,0-.46,3.08,8.49,8.49,0,0,0,.47,3,3.82,3.82,0,0,0,1.39,1.85,4,4,0,0,0,2.27.62A8.4,8.4,0,0,0,626,1542a10.59,10.59,0,0,0,2-.84v3a7.63,7.63,0,0,1-2,.78A11.41,11.41,0,0,1,623.42,1545.24Z" transform="translate(-470.43 -1158.41)"/><path d="M646.14,1536.8a11.2,11.2,0,0,1-.53,3.59,7.05,7.05,0,0,1-1.53,2.65,6.7,6.7,0,0,1-2.43,1.64,8.59,8.59,0,0,1-3.21.56,8.18,8.18,0,0,1-3.06-.56A6.66,6.66,0,0,1,633,1543a7.23,7.23,0,0,1-1.58-2.65,10.7,10.7,0,0,1-.56-3.59,10,10,0,0,1,.93-4.55,6.6,6.6,0,0,1,2.66-2.85,8.32,8.32,0,0,1,4.12-1,7.87,7.87,0,0,1,4,1,6.81,6.81,0,0,1,2.69,2.86A9.74,9.74,0,0,1,646.14,1536.8Zm-11.76,0a9.24,9.24,0,0,0,.43,3,3.92,3.92,0,0,0,1.34,1.93,3.84,3.84,0,0,0,2.35.67,3.76,3.76,0,0,0,2.32-.67,3.88,3.88,0,0,0,1.35-1.93,9.51,9.51,0,0,0,.43-3,9.24,9.24,0,0,0-.43-3,3.73,3.73,0,0,0-1.35-1.89,3.82,3.82,0,0,0-2.34-.66,3.53,3.53,0,0,0-3.12,1.44A7.21,7.21,0,0,0,634.38,1536.8Z" transform="translate(-470.43 -1158.41)"/><path d="M653.55,1545h-3.47v-22.8h3.47Z" transform="translate(-470.43 -1158.41)"/><path d="M663.9,1545.24a5.74,5.74,0,0,1-4.64-2.12q-1.75-2.11-1.75-6.24c0-2.79.59-4.89,1.78-6.32a5.86,5.86,0,0,1,4.69-2.14,6.47,6.47,0,0,1,2.14.33,5.25,5.25,0,0,1,1.6.89,6.34,6.34,0,0,1,1.13,1.24H669c0-.3-.1-.74-.16-1.31a14.12,14.12,0,0,1-.09-1.59v-5.83h3.46V1545h-2.7l-.61-2.2h-.15a5.55,5.55,0,0,1-1.11,1.26,4.92,4.92,0,0,1-1.59.9A6.27,6.27,0,0,1,663.9,1545.24Zm1-2.8a3.56,3.56,0,0,0,3.11-1.27,6.68,6.68,0,0,0,.93-3.83v-.45a8.26,8.26,0,0,0-.87-4.17,3.43,3.43,0,0,0-3.2-1.46,3.17,3.17,0,0,0-2.84,1.5,7.61,7.61,0,0,0-1,4.17,7.19,7.19,0,0,0,1,4.1,3.28,3.28,0,0,0,2.85,1.41Z" transform="translate(-470.43 -1158.41)"/><path d="M683.6,1528.42a7.32,7.32,0,0,1,3.72.9,6,6,0,0,1,2.39,2.53,8.61,8.61,0,0,1,.83,3.93v1.84H679.72a5.31,5.31,0,0,0,1.26,3.64,4.49,4.49,0,0,0,3.39,1.27,12,12,0,0,0,2.8-.3,15.41,15.41,0,0,0,2.55-.89v2.8a11.43,11.43,0,0,1-2.47.84,15.86,15.86,0,0,1-3,.26,9.27,9.27,0,0,1-4.21-.92,6.56,6.56,0,0,1-2.82-2.77,9.4,9.4,0,0,1-1-4.6,10.4,10.4,0,0,1,.92-4.63,6.67,6.67,0,0,1,2.59-2.9A7.5,7.5,0,0,1,683.6,1528.42Zm0,2.6a3.48,3.48,0,0,0-2.63,1,5,5,0,0,0-1.18,3.09h7.37a5.83,5.83,0,0,0-.41-2.15,3.2,3.2,0,0,0-1.16-1.46,3.4,3.4,0,0,0-2-.5Z" transform="translate(-470.43 -1158.41)"/><path d="M702.64,1528.42h.89a4.64,4.64,0,0,1,.84.11l-.32,3.24a6.36,6.36,0,0,0-.76-.14c-.27,0-.53,0-.8,0a5,5,0,0,0-1.75.31,4.36,4.36,0,0,0-1.48.91,4.28,4.28,0,0,0-1,1.52,5.43,5.43,0,0,0-.37,2.11V1545h-3.47v-16.22h2.71l.47,2.86h.16A6.88,6.88,0,0,1,699,1530a5.93,5.93,0,0,1,1.65-1.16A4.87,4.87,0,0,1,702.64,1528.42Z" transform="translate(-470.43 -1158.41)"/><path d="M721.2,1542.46a6.59,6.59,0,0,0,1.33-.13,8.1,8.1,0,0,0,1.2-.3v2.61a7.48,7.48,0,0,1-1.47.42,10,10,0,0,1-1.89.18,6.21,6.21,0,0,1-2.48-.46,3.63,3.63,0,0,1-1.74-1.59,6.36,6.36,0,0,1-.65-3.12v-8.7h-2.21v-1.54l2.37-1.23,1.13-3.47H719v3.6h4.64v2.64H719V1540a2.53,2.53,0,0,0,.61,1.84A2.24,2.24,0,0,0,721.2,1542.46Z" transform="translate(-470.43 -1158.41)"/><path d="M730.47,1522.15v5.73c0,.6,0,1.18-.05,1.74s-.07,1-.11,1.32h.19a4.81,4.81,0,0,1,1.26-1.4,5.36,5.36,0,0,1,1.68-.82,6.76,6.76,0,0,1,2-.28,7.36,7.36,0,0,1,3.17.62,4.4,4.4,0,0,1,2,1.93,7.15,7.15,0,0,1,.69,3.38V1545h-3.44v-10a4.36,4.36,0,0,0-.78-2.82,3,3,0,0,0-2.4-.94,4.26,4.26,0,0,0-2.48.65,3.54,3.54,0,0,0-1.31,1.91,10.1,10.1,0,0,0-.4,3.09v8H727v-22.8Z" transform="translate(-470.43 -1158.41)"/><path d="M752.45,1528.42a6.93,6.93,0,0,1,4.65,1.37,5.29,5.29,0,0,1,1.57,4.24v11h-2.44l-.68-2.3h-.12a8.12,8.12,0,0,1-1.42,1.45,4.71,4.71,0,0,1-1.68.86,8.31,8.31,0,0,1-2.33.28,6,6,0,0,1-2.61-.54,4,4,0,0,1-1.79-1.63,5.28,5.28,0,0,1-.65-2.78,4.25,4.25,0,0,1,1.86-3.77,10.85,10.85,0,0,1,5.65-1.39l2.8-.1v-.85a2.67,2.67,0,0,0-2.16-3.1,3,3,0,0,0-.84,0,7.79,7.79,0,0,0-2.35.36,16.24,16.24,0,0,0-2.23.85l-1.13-2.44a12.69,12.69,0,0,1,2.72-1A12.17,12.17,0,0,1,752.45,1528.42Zm2.79,8.78-2.08.09a6.43,6.43,0,0,0-3.61.87,2.53,2.53,0,0,0-1,2.16,2,2,0,0,0,.71,1.75,3,3,0,0,0,1.89.55,4.36,4.36,0,0,0,3-1,3.75,3.75,0,0,0,1.17-3Z" transform="translate(-470.43 -1158.41)"/><path d="M771.94,1528.42a6,6,0,0,1,4.27,1.42q1.53,1.41,1.53,4.53V1545H774.3v-10a4.36,4.36,0,0,0-.78-2.82,2.94,2.94,0,0,0-2.4-.94,3.55,3.55,0,0,0-3.27,1.45,7.83,7.83,0,0,0-.92,4.19V1545h-3.45v-16.22h2.69l.48,2.2h.2a4.61,4.61,0,0,1,1.31-1.4,5.87,5.87,0,0,1,1.75-.83A7.76,7.76,0,0,1,771.94,1528.42Z" transform="translate(-470.43 -1158.41)"/><path d="M799.82,1526.21a6.67,6.67,0,0,0-2.75.56,5.59,5.59,0,0,0-2,1.61,7.42,7.42,0,0,0-1.28,2.54,11.86,11.86,0,0,0-.44,3.35,11.72,11.72,0,0,0,.71,4.27,5.71,5.71,0,0,0,2.14,2.75,6.32,6.32,0,0,0,3.61,1,14,14,0,0,0,2.67-.26,25.07,25.07,0,0,0,2.67-.72v3a13.47,13.47,0,0,1-2.64.75,18.71,18.71,0,0,1-3.08.23,10,10,0,0,1-5.45-1.36,8.33,8.33,0,0,1-3.22-3.84,14.76,14.76,0,0,1-1-5.8,14.29,14.29,0,0,1,.66-4.45,9.85,9.85,0,0,1,2-3.48,8.7,8.7,0,0,1,3.18-2.28,11,11,0,0,1,4.35-.81,13.53,13.53,0,0,1,3.17.37,14.21,14.21,0,0,1,2.9,1l-1.23,2.9a19.48,19.48,0,0,0-2.34-.9A8.07,8.07,0,0,0,799.82,1526.21Z" transform="translate(-470.43 -1158.41)"/><path d="M815.71,1528.42a6.93,6.93,0,0,1,4.65,1.37,5.33,5.33,0,0,1,1.58,4.24v11h-2.45l-.67-2.3h-.12a8.47,8.47,0,0,1-1.42,1.45,4.71,4.71,0,0,1-1.68.86,8.31,8.31,0,0,1-2.33.28,6,6,0,0,1-2.61-.54,4.12,4.12,0,0,1-1.8-1.63,5.38,5.38,0,0,1-.65-2.78,4.23,4.23,0,0,1,1.87-3.77,10.85,10.85,0,0,1,5.65-1.39l2.79-.1v-.85a2.65,2.65,0,0,0-2.14-3.09,2.48,2.48,0,0,0-.86,0,7.85,7.85,0,0,0-2.36.36,16.12,16.12,0,0,0-2.22.85l-1.13-2.44a12.5,12.5,0,0,1,2.72-1A12.17,12.17,0,0,1,815.71,1528.42Zm2.8,8.78-2.08.09a6.47,6.47,0,0,0-3.62.87,2.56,2.56,0,0,0-1,2.16,2,2,0,0,0,.72,1.75,3,3,0,0,0,1.89.55,4.36,4.36,0,0,0,3-1,3.75,3.75,0,0,0,1.17-3Z" transform="translate(-470.43 -1158.41)"/><path d="M835.21,1528.42a6,6,0,0,1,4.27,1.42q1.53,1.41,1.53,4.53V1545h-3.44v-10a4.36,4.36,0,0,0-.78-2.82,3,3,0,0,0-2.4-.94,3.55,3.55,0,0,0-3.27,1.45,7.81,7.81,0,0,0-.92,4.19V1545h-3.46v-16.22h2.7l.48,2.2h.19a4.73,4.73,0,0,1,1.31-1.4,6,6,0,0,1,1.76-.83A7.76,7.76,0,0,1,835.21,1528.42Z" transform="translate(-470.43 -1158.41)"/><path d="M852.17,1528.42a6.93,6.93,0,0,1,4.65,1.37,5.33,5.33,0,0,1,1.58,4.24v11H856l-.67-2.3h-.12a8.47,8.47,0,0,1-1.42,1.45,4.71,4.71,0,0,1-1.68.86,8.31,8.31,0,0,1-2.33.28,6,6,0,0,1-2.61-.54,4.12,4.12,0,0,1-1.8-1.63,5.38,5.38,0,0,1-.65-2.78,4.23,4.23,0,0,1,1.87-3.77,10.85,10.85,0,0,1,5.65-1.39l2.79-.1v-.85a2.65,2.65,0,0,0-2.14-3.09,2.48,2.48,0,0,0-.86,0,7.85,7.85,0,0,0-2.36.36,16.12,16.12,0,0,0-2.22.85l-1.13-2.44a12.5,12.5,0,0,1,2.72-1A12.29,12.29,0,0,1,852.17,1528.42Zm2.8,8.78-2.08.09a6.47,6.47,0,0,0-3.62.87,2.56,2.56,0,0,0-1,2.16,2,2,0,0,0,.72,1.75,3,3,0,0,0,1.89.55,4.36,4.36,0,0,0,3-1,3.75,3.75,0,0,0,1.17-3Z" transform="translate(-470.43 -1158.41)"/><path d="M868.65,1545.24a5.72,5.72,0,0,1-4.63-2.12q-1.75-2.11-1.75-6.24c0-2.79.59-4.89,1.77-6.32a5.85,5.85,0,0,1,4.7-2.14,6.47,6.47,0,0,1,2.14.33,5.25,5.25,0,0,1,1.6.89,6,6,0,0,1,1.12,1.24h.16c0-.3-.1-.74-.16-1.31s-.08-1.06-.08-1.59v-5.83H877V1545h-2.69l-.62-2.2h-.14a6,6,0,0,1-1.11,1.26,4.92,4.92,0,0,1-1.59.9A6.56,6.56,0,0,1,868.65,1545.24Zm1-2.8a3.57,3.57,0,0,0,3.12-1.27,6.68,6.68,0,0,0,.93-3.83v-.45a8,8,0,0,0-.88-4.17,3.42,3.42,0,0,0-3.2-1.46,3.17,3.17,0,0,0-2.83,1.5,7.61,7.61,0,0,0-1,4.17,7.19,7.19,0,0,0,1,4.1,3.26,3.26,0,0,0,2.84,1.41Z" transform="translate(-470.43 -1158.41)"/><path d="M888.25,1528.42a6.93,6.93,0,0,1,4.65,1.37,5.33,5.33,0,0,1,1.58,4.24v11H892l-.67-2.3h-.12a8.47,8.47,0,0,1-1.42,1.45,4.67,4.67,0,0,1-1.69.86,8.28,8.28,0,0,1-2.32.28,6,6,0,0,1-2.61-.54,4.12,4.12,0,0,1-1.8-1.63,5.38,5.38,0,0,1-.65-2.78,4.23,4.23,0,0,1,1.87-3.77,10.85,10.85,0,0,1,5.65-1.39l2.79-.1v-.85a2.65,2.65,0,0,0-2.14-3.09,2.48,2.48,0,0,0-.86,0,7.85,7.85,0,0,0-2.36.36,16.12,16.12,0,0,0-2.22.85l-1.13-2.44a12.42,12.42,0,0,1,2.71-1A12.11,12.11,0,0,1,888.25,1528.42Zm2.8,8.78-2.08.09a6.47,6.47,0,0,0-3.62.87,2.56,2.56,0,0,0-1,2.16,2,2,0,0,0,.72,1.75,3,3,0,0,0,1.89.55,4.36,4.36,0,0,0,3-1,3.75,3.75,0,0,0,1.17-3Z" transform="translate(-470.43 -1158.41)"/><path d="M901,1538.41v-.92a6.34,6.34,0,0,1,.25-1.89,4.22,4.22,0,0,1,.83-1.51,10.14,10.14,0,0,1,1.58-1.49c.68-.54,1.22-1,1.62-1.39a4.27,4.27,0,0,0,.89-1.18,3.32,3.32,0,0,0,.28-1.39,2.27,2.27,0,0,0-.85-1.89,3.74,3.74,0,0,0-2.36-.66,8.41,8.41,0,0,0-2.54.38,16.63,16.63,0,0,0-2.34,1l-1.23-2.59a14.31,14.31,0,0,1,2.9-1.17,12.14,12.14,0,0,1,3.44-.46,6.76,6.76,0,0,1,4.62,1.45,4.92,4.92,0,0,1,1.64,3.84,5.44,5.44,0,0,1-.41,2.22,5.54,5.54,0,0,1-1.21,1.71,20.24,20.24,0,0,1-1.93,1.65,13,13,0,0,0-1.41,1.27,3.14,3.14,0,0,0-.68,1.08,4.09,4.09,0,0,0-.18,1.3v.67Zm-.56,4.72a2.05,2.05,0,0,1,.62-1.69,2.41,2.41,0,0,1,1.53-.49,2.36,2.36,0,0,1,1.51.49,2,2,0,0,1,.63,1.69,2.06,2.06,0,0,1-.63,1.69,2.24,2.24,0,0,1-1.51.52,2.29,2.29,0,0,1-1.53-.52,2.11,2.11,0,0,1-.65-1.69Z" transform="translate(-470.43 -1158.41)"/><line class="cls-1" x1="0.28" y1="61.5" x2="1318.01" y2="61.5"/><line class="cls-1" x1="0.28" y1="151.97" x2="1317.09" y2="151.97"/><line class="cls-1" x1="0.28" y1="242.66" x2="1317.09" y2="242.66"/><line class="cls-1" x1="0.28" y1="333.23" x2="1320.37" y2="333.23"/><line class="cls-2" x1="0.28" y1="437.1" x2="1184.53" y2="437.1"/><g class="cls-3"><path class="cls-4" d="M1776.1,1251.9l-9.25,9.25a.31.31,0,0,1-.44,0h0l-9.26-9.25" transform="translate(-470.43 -1158.41)"/><line class="cls-5" x1="1296.19" y1="102.97" x2="1296.19" y2="102.97"/></g><g class="cls-3"><path class="cls-4" d="M1776.1,1342.48l-9.25,9.25a.31.31,0,0,1-.44,0h0l-9.26-9.25" transform="translate(-470.43 -1158.41)"/><line class="cls-5" x1="1296.19" y1="193.55" x2="1296.19" y2="193.55"/></g><g class="cls-3"><path class="cls-4" d="M1776.1,1433.11l-9.25,9.25a.31.31,0,0,1-.44,0h0l-9.26-9.25" transform="translate(-470.43 -1158.41)"/><line class="cls-5" x1="1296.19" y1="284.18" x2="1296.19" y2="284.18"/></g><g class="cls-3"><path class="cls-4" d="M1776.24,1523.68l-9.25,9.25a.32.32,0,0,1-.45,0h0l-9.25-9.25" transform="translate(-470.43 -1158.41)"/><line class="cls-5" x1="1296.33" y1="374.75" x2="1296.33" y2="374.75"/></g></g></svg>