<svg id="Layer_1" data-name="Layer 1" xmlns="http://www.w3.org/2000/svg" viewBox="0 0 720.28 65.59"><defs><style>.cls-1{fill:none;stroke-width:1.44px;}.cls-1,.cls-3{stroke:#989898;stroke-miterlimit:10;}.cls-2{fill:#4d4d4d;}.cls-3{fill:#989898;stroke-width:0.95px;}.cls-4{fill:#0071bb;}.cls-5{fill:#fff;}</style></defs><g id="Layer_4" data-name="Layer 4"><polyline class="cls-1" points="494.54 47.82 498.78 53.83 494.54 59.85"/><polyline class="cls-1" points="384.37 47.82 388.6 53.83 384.37 59.85"/><path class="cls-2" d="M562.86,1565v-22.16h3.63V1565Z" transform="translate(-475.13 -1541.24)"/><path class="cls-2" d="M578.46,1565.31a8.66,8.66,0,0,1-4.12-.92,6.2,6.2,0,0,1-2.69-2.83,11.13,11.13,0,0,1-.94-4.86,10.53,10.53,0,0,1,1-5,6.49,6.49,0,0,1,2.84-2.86,9.14,9.14,0,0,1,4.2-.93,11.29,11.29,0,0,1,2.72.3,8.92,8.92,0,0,1,2.07.72l-1.06,2.85a16.11,16.11,0,0,0-1.89-.63,7.41,7.41,0,0,0-1.87-.27,4.33,4.33,0,0,0-2.45.66,3.84,3.84,0,0,0-1.45,2,9,9,0,0,0-.48,3.18,8.71,8.71,0,0,0,.49,3.12,3.91,3.91,0,0,0,1.44,1.91,4.07,4.07,0,0,0,2.35.64,8.56,8.56,0,0,0,2.47-.33,11.26,11.26,0,0,0,2.06-.87v3.09a7.58,7.58,0,0,1-2,.82A11.67,11.67,0,0,1,578.46,1565.31Z" transform="translate(-475.13 -1541.24)"/><path class="cls-2" d="M593.25,1547.91a7.52,7.52,0,0,1,3.85.93,6.24,6.24,0,0,1,2.47,2.62,8.91,8.91,0,0,1,.86,4.06v1.91h-11.2a5.49,5.49,0,0,0,1.31,3.76,4.6,4.6,0,0,0,3.51,1.32,12.79,12.79,0,0,0,2.89-.31,16.17,16.17,0,0,0,2.64-.92v2.89a10.89,10.89,0,0,1-2.56.87,16.3,16.3,0,0,1-3.12.27,9.51,9.51,0,0,1-4.35-1,6.74,6.74,0,0,1-2.92-2.87,9.8,9.8,0,0,1-1-4.76,11,11,0,0,1,1-4.79,6.89,6.89,0,0,1,2.68-3A7.74,7.74,0,0,1,593.25,1547.91Zm0,2.68a3.58,3.58,0,0,0-2.72,1.1,5.12,5.12,0,0,0-1.22,3.19h7.62a6.24,6.24,0,0,0-.41-2.22,3.39,3.39,0,0,0-1.21-1.51,3.56,3.56,0,0,0-2.06-.56Z" transform="translate(-475.13 -1541.24)"/><path class="cls-2" d="M607.78,1565h-3.59v-23.59h3.59Z" transform="translate(-475.13 -1541.24)"/><path class="cls-2" d="M619,1547.91a7.21,7.21,0,0,1,4.81,1.41,5.51,5.51,0,0,1,1.63,4.4V1565h-2.53l-.7-2.38h-.12a9.55,9.55,0,0,1-1.47,1.51,5.2,5.2,0,0,1-1.74.88,8.56,8.56,0,0,1-2.41.29,6.28,6.28,0,0,1-2.7-.55,4.17,4.17,0,0,1-1.86-1.69,5.56,5.56,0,0,1-.67-2.88,4.39,4.39,0,0,1,1.93-3.9,11.25,11.25,0,0,1,5.84-1.44l2.9-.1v-.88a2.77,2.77,0,0,0-2.26-3.2,2.82,2.82,0,0,0-.82,0,8.39,8.39,0,0,0-2.44.37,16.78,16.78,0,0,0-2.3.88l-1.17-2.52a13.21,13.21,0,0,1,6.08-1.46Zm2.89,9.08-2.15.09a6.79,6.79,0,0,0-3.74.9,2.66,2.66,0,0,0-1.08,2.24,2.15,2.15,0,0,0,.74,1.81,3.17,3.17,0,0,0,2,.57,4.49,4.49,0,0,0,3.06-1.06,3.83,3.83,0,0,0,1.21-3.08Z" transform="translate(-475.13 -1541.24)"/><path class="cls-2" d="M638.82,1547.91a6.27,6.27,0,0,1,4.41,1.46q1.59,1.47,1.59,4.69v11h-3.56v-10.28a4.53,4.53,0,0,0-.81-2.92,3,3,0,0,0-2.48-1,3.68,3.68,0,0,0-3.39,1.5,8.16,8.16,0,0,0-1,4.33V1565H630v-16.78h2.79l.5,2.27h.19a4.79,4.79,0,0,1,1.36-1.44,5.85,5.85,0,0,1,1.82-.86A7.79,7.79,0,0,1,638.82,1547.91Z" transform="translate(-475.13 -1541.24)"/><path class="cls-2" d="M655.18,1565.31a5.92,5.92,0,0,1-4.79-2.19c-1.21-1.46-1.82-3.61-1.81-6.46s.62-5,1.84-6.54a6,6,0,0,1,4.86-2.21,6.9,6.9,0,0,1,2.21.34,5.46,5.46,0,0,1,1.65.92,6.24,6.24,0,0,1,1.17,1.29h.16c-.05-.32-.1-.77-.16-1.36a14.88,14.88,0,0,1-.09-1.64v-6h3.57V1565H661l-.63-2.28h-.15a6.25,6.25,0,0,1-1.15,1.31,5.44,5.44,0,0,1-1.64.93A6.62,6.62,0,0,1,655.18,1565.31Zm1-2.89a3.68,3.68,0,0,0,3.22-1.32,7,7,0,0,0,1-4v-.47a8.42,8.42,0,0,0-.9-4.32,3.53,3.53,0,0,0-3.31-1.5,3.29,3.29,0,0,0-2.93,1.55,7.84,7.84,0,0,0-1,4.32,7.38,7.38,0,0,0,1,4.23,3.36,3.36,0,0,0,2.94,1.51Z" transform="translate(-475.13 -1541.24)"/><path class="cls-2" d="M670.28,1541.8a2.29,2.29,0,0,1,1.41.44,2.22,2.22,0,0,1,0,3,2.45,2.45,0,0,1-2.85,0,2.22,2.22,0,0,1,0-3A2.32,2.32,0,0,1,670.28,1541.8Zm1.75,6.43V1565h-3.57v-16.78Z" transform="translate(-475.13 -1541.24)"/><path class="cls-2" d="M683.51,1565.31a8.78,8.78,0,0,1-4.12-.92,6.08,6.08,0,0,1-2.68-2.83,11,11,0,0,1-.94-4.86,10.53,10.53,0,0,1,1-5,6.56,6.56,0,0,1,2.85-2.86,9.14,9.14,0,0,1,4.2-.93,11.29,11.29,0,0,1,2.72.3,9.4,9.4,0,0,1,2.07.72l-1.07,2.85a16.11,16.11,0,0,0-1.89-.63,7.33,7.33,0,0,0-1.86-.27,4.33,4.33,0,0,0-2.45.66,3.91,3.91,0,0,0-1.46,2,9.3,9.3,0,0,0-.47,3.18,8.93,8.93,0,0,0,.48,3.12,3.91,3.91,0,0,0,1.44,1.91,4.07,4.07,0,0,0,2.35.64,8.6,8.6,0,0,0,2.47-.33,11.26,11.26,0,0,0,2.06-.87v3.09a8.1,8.1,0,0,1-2,.82A12.25,12.25,0,0,1,683.51,1565.31Z" transform="translate(-475.13 -1541.24)"/><path class="cls-2" d="M710.16,1565l-6.38-18.49h-.14c0,.41.06,1,.11,1.69s.07,1.48.1,2.3,0,1.61,0,2.34V1565h-3.31v-22.16h5.11l6.14,17.69h.09l6.33-17.69h5.11V1565H719.9v-14.53c0-.78.05-1.53.08-2.23s.07-1.28.1-1.7H720L713.37,1565Z" transform="translate(-475.13 -1541.24)"/><path class="cls-2" d="M735.23,1547.91a7.52,7.52,0,0,1,3.85.93,6.24,6.24,0,0,1,2.47,2.62,8.91,8.91,0,0,1,.86,4.06v1.91h-11.2a5.49,5.49,0,0,0,1.31,3.76,4.6,4.6,0,0,0,3.51,1.32,12.79,12.79,0,0,0,2.89-.31,16.51,16.51,0,0,0,2.64-.92v2.89a10.89,10.89,0,0,1-2.56.87,16.3,16.3,0,0,1-3.12.27,9.51,9.51,0,0,1-4.35-1,6.74,6.74,0,0,1-2.92-2.87,9.7,9.7,0,0,1-1.05-4.76,11,11,0,0,1,1-4.79,6.89,6.89,0,0,1,2.68-3A7.74,7.74,0,0,1,735.23,1547.91Zm0,2.68a3.58,3.58,0,0,0-2.72,1.1,5.12,5.12,0,0,0-1.22,3.19h7.62a6.24,6.24,0,0,0-.41-2.22,3.39,3.39,0,0,0-1.21-1.51,3.56,3.56,0,0,0-2.06-.56Z" transform="translate(-475.13 -1541.24)"/><path class="cls-2" d="M752.46,1562.43a7,7,0,0,0,1.37-.13,9.13,9.13,0,0,0,1.25-.31v2.7a7.43,7.43,0,0,1-1.53.44,11.19,11.19,0,0,1-2,.18,6.58,6.58,0,0,1-2.56-.48,3.68,3.68,0,0,1-1.8-1.64,6.44,6.44,0,0,1-.67-3.23v-9h-2.29v-1.59l2.46-1.28,1.16-3.59h2.25v3.73h4.8V1551h-4.8v9a2.56,2.56,0,0,0,.63,1.89A2.35,2.35,0,0,0,752.46,1562.43Z" transform="translate(-475.13 -1541.24)"/><path class="cls-2" d="M781.4,1556.58a11.66,11.66,0,0,1-.54,3.71,7.51,7.51,0,0,1-1.59,2.75,6.75,6.75,0,0,1-2.52,1.69,9,9,0,0,1-3.32.58,8.4,8.4,0,0,1-3.17-.58,6.93,6.93,0,0,1-2.49-1.69,7.61,7.61,0,0,1-1.63-2.75,11.16,11.16,0,0,1-.58-3.71,10.47,10.47,0,0,1,1-4.7,6.71,6.71,0,0,1,2.75-3,8.44,8.44,0,0,1,4.26-1,8.1,8.1,0,0,1,4.09,1,7,7,0,0,1,2.77,3A10.06,10.06,0,0,1,781.4,1556.58Zm-12.17,0a9.82,9.82,0,0,0,.45,3.14,4,4,0,0,0,7.61,0,9.58,9.58,0,0,0,.44-3.14,9.31,9.31,0,0,0-.44-3.1,3.87,3.87,0,0,0-1.39-2,4,4,0,0,0-2.42-.68,3.62,3.62,0,0,0-3.23,1.49,7.41,7.41,0,0,0-1,4.29Z" transform="translate(-475.13 -1541.24)"/><path class="cls-2" d="M793.51,1551h-4.08v14h-3.57v-14h-2.73v-1.73l2.73-1V1547a7.25,7.25,0,0,1,.68-3.4,3.93,3.93,0,0,1,2-1.81,7.33,7.33,0,0,1,3-.55,9.93,9.93,0,0,1,2.11.2,11.11,11.11,0,0,1,1.6.43l-.92,2.69c-.34-.11-.73-.21-1.15-.31a7,7,0,0,0-1.37-.13,2.07,2.07,0,0,0-1.78.76,3.61,3.61,0,0,0-.57,2.19v1.14h4.08Zm11.23,0h-4.08v14h-3.57v-14h-2.73v-1.73l2.73-1V1547a7.25,7.25,0,0,1,.68-3.4,4,4,0,0,1,2-1.81,7.33,7.33,0,0,1,3-.55,9.93,9.93,0,0,1,2.11.2,11.11,11.11,0,0,1,1.6.43l-.92,2.69c-.34-.11-.73-.21-1.15-.31a7,7,0,0,0-1.37-.13,2.07,2.07,0,0,0-1.78.76,3.61,3.61,0,0,0-.57,2.19v1.14h4.08Zm4.65-9.16a2.32,2.32,0,0,1,1.42.44,2.22,2.22,0,0,1,0,3,2.28,2.28,0,0,1-1.42.46,2.32,2.32,0,0,1-1.44-.46,2.24,2.24,0,0,1,0-3,2.42,2.42,0,0,1,1.44-.48Zm1.76,6.43V1565h-3.57v-16.78Z" transform="translate(-475.13 -1541.24)"/><path class="cls-2" d="M822.72,1565.31a8.66,8.66,0,0,1-4.12-.92,6.1,6.1,0,0,1-2.69-2.83,11.13,11.13,0,0,1-.94-4.86,10.53,10.53,0,0,1,1-5,6.49,6.49,0,0,1,2.84-2.86,9.14,9.14,0,0,1,4.2-.93,11.29,11.29,0,0,1,2.72.3,8.92,8.92,0,0,1,2.07.72l-1.06,2.85a16.11,16.11,0,0,0-1.89-.63,7.41,7.41,0,0,0-1.87-.27,4.33,4.33,0,0,0-2.45.66,3.84,3.84,0,0,0-1.45,2,9,9,0,0,0-.48,3.18,8.71,8.71,0,0,0,.49,3.12,3.91,3.91,0,0,0,1.44,1.91,4.07,4.07,0,0,0,2.35.64,8.6,8.6,0,0,0,2.47-.33,11.26,11.26,0,0,0,2.06-.87v3.09a7.58,7.58,0,0,1-2,.82A11.72,11.72,0,0,1,822.72,1565.31Z" transform="translate(-475.13 -1541.24)"/><path class="cls-2" d="M837.51,1547.91a7.52,7.52,0,0,1,3.85.93,6.24,6.24,0,0,1,2.47,2.62,8.91,8.91,0,0,1,.86,4.06v1.91h-11.2a5.49,5.49,0,0,0,1.31,3.76,4.6,4.6,0,0,0,3.51,1.32,12.79,12.79,0,0,0,2.89-.31,16.51,16.51,0,0,0,2.64-.92v2.89a10.89,10.89,0,0,1-2.56.87,16.3,16.3,0,0,1-3.12.27,9.51,9.51,0,0,1-4.35-1,6.74,6.74,0,0,1-2.92-2.87,9.8,9.8,0,0,1-1-4.76,11,11,0,0,1,1-4.79,6.89,6.89,0,0,1,2.68-3A7.74,7.74,0,0,1,837.51,1547.91Zm0,2.68a3.58,3.58,0,0,0-2.72,1.1,5.12,5.12,0,0,0-1.22,3.19h7.62a6.24,6.24,0,0,0-.41-2.22,3.39,3.39,0,0,0-1.21-1.51,3.56,3.56,0,0,0-2.06-.56Z" transform="translate(-475.13 -1541.24)"/><path class="cls-2" d="M564.53,1583.53v5.82a6.61,6.61,0,0,1-.09,1h.15a3.44,3.44,0,0,1,1-1.08,4.18,4.18,0,0,1,1.3-.65,6.19,6.19,0,0,1,4,.27,3.34,3.34,0,0,1,1.56,1.5A5.78,5.78,0,0,1,573,1593v8.21H570.3v-7.71a3.35,3.35,0,0,0-.6-2.19,2.29,2.29,0,0,0-1.86-.73,3.21,3.21,0,0,0-1.93.51,2.76,2.76,0,0,0-1,1.48,8.11,8.11,0,0,0-.3,2.4v6.24h-2.69v-17.69Z" transform="translate(-475.13 -1541.24)"/><path class="cls-2" d="M581.13,1599.29a5.56,5.56,0,0,0,1-.1,7.43,7.43,0,0,0,.93-.23v2a5.71,5.71,0,0,1-1.14.33,8,8,0,0,1-1.47.14,4.85,4.85,0,0,1-1.92-.36,2.72,2.72,0,0,1-1.35-1.24,4.82,4.82,0,0,1-.5-2.42v-6.75H575v-1.19l1.84-1,.88-2.69h1.68v2.79H583v2h-3.6v6.72a1.9,1.9,0,0,0,.48,1.42A1.72,1.72,0,0,0,581.13,1599.29Z" transform="translate(-475.13 -1541.24)"/><path class="cls-2" d="M591.06,1599.29a6.64,6.64,0,0,0,1-.1,7.43,7.43,0,0,0,.93-.23v2a5.8,5.8,0,0,1-1.15.33,8,8,0,0,1-1.47.14,4.85,4.85,0,0,1-1.92-.36,2.72,2.72,0,0,1-1.35-1.24,4.93,4.93,0,0,1-.5-2.42v-6.75h-1.72v-1.19l1.85-1,.87-2.69h1.68v2.79h3.61v2h-3.61v6.72a1.9,1.9,0,0,0,.48,1.42A1.74,1.74,0,0,0,591.06,1599.29Z" transform="translate(-475.13 -1541.24)"/><path class="cls-2" d="M602,1588.4a4.43,4.43,0,0,1,3.6,1.63,7.44,7.44,0,0,1,1.36,4.87,9.24,9.24,0,0,1-.63,3.6,4.88,4.88,0,0,1-1.76,2.2,4.66,4.66,0,0,1-2.64.75,5.22,5.22,0,0,1-1.66-.25,3.68,3.68,0,0,1-1.2-.65,5.83,5.83,0,0,1-.84-.88H598c0,.3.07.63.11,1a9.15,9.15,0,0,1,0,1v5.12h-2.69v-18.17h2.19l.37,1.74h.13a5.11,5.11,0,0,1,.86-1,3.68,3.68,0,0,1,1.22-.72A5.24,5.24,0,0,1,602,1588.4Zm-.71,2.19a3.14,3.14,0,0,0-1.77.44,2.47,2.47,0,0,0-1,1.31,7,7,0,0,0-.32,2.18v.38a8.24,8.24,0,0,0,.29,2.37,2.76,2.76,0,0,0,1,1.48,3.09,3.09,0,0,0,1.84.5,2.48,2.48,0,0,0,1.61-.53,3.23,3.23,0,0,0,1-1.53,7.67,7.67,0,0,0,.32-2.33,5.85,5.85,0,0,0-.72-3.15,2.43,2.43,0,0,0-2.28-1.12Z" transform="translate(-475.13 -1541.24)"/><path class="cls-2" d="M618.31,1597.63a3.53,3.53,0,0,1-.61,2.09A3.66,3.66,0,0,1,616,1601a8,8,0,0,1-2.83.44,12.24,12.24,0,0,1-2.26-.19,8.22,8.22,0,0,1-1.8-.58v-2.3a11.93,11.93,0,0,0,2,.72,8,8,0,0,0,2.12.31,3.4,3.4,0,0,0,1.9-.41,1.33,1.33,0,0,0,.35-1.85,2.71,2.71,0,0,0-.87-.67,17.94,17.94,0,0,0-1.85-.82,14.93,14.93,0,0,1-2-1,3.66,3.66,0,0,1-1.23-1.15,3.15,3.15,0,0,1-.42-1.73,2.84,2.84,0,0,1,1.32-2.55,6.3,6.3,0,0,1,3.52-.87,9.48,9.48,0,0,1,2.19.23,10.71,10.71,0,0,1,2,.68l-.84,2a15.14,15.14,0,0,0-1.71-.61,6.42,6.42,0,0,0-1.74-.25,3.18,3.18,0,0,0-1.58.32,1,1,0,0,0-.54.9,1.09,1.09,0,0,0,.26.75,3,3,0,0,0,.91.62c.42.2,1,.45,1.79.76a14.37,14.37,0,0,1,2,.9,3.57,3.57,0,0,1,1.26,1.15A3.15,3.15,0,0,1,618.31,1597.63Z" transform="translate(-475.13 -1541.24)"/><path class="cls-2" d="M628.38,1584.6l-6.19,16.62h-2.51l6.19-16.62Z" transform="translate(-475.13 -1541.24)"/><path class="cls-2" d="M636.05,1584.6l-6.19,16.62h-2.51l6.19-16.62Z" transform="translate(-475.13 -1541.24)"/><path class="cls-2" d="M642.09,1588.4a5.71,5.71,0,0,1,2.89.69,4.64,4.64,0,0,1,1.85,2,6.63,6.63,0,0,1,.65,3v1.43h-8.4a4.06,4.06,0,0,0,1,2.82,3.43,3.43,0,0,0,2.63,1,9.31,9.31,0,0,0,2.17-.23,11.82,11.82,0,0,0,2-.69v2.17a8.69,8.69,0,0,1-1.92.65,11.45,11.45,0,0,1-2.34.21,7.13,7.13,0,0,1-3.27-.72,5.11,5.11,0,0,1-2.19-2.15,7.37,7.37,0,0,1-.78-3.57,8.38,8.38,0,0,1,.71-3.59,5.13,5.13,0,0,1,2-2.25A5.84,5.84,0,0,1,642.09,1588.4Zm0,2a2.69,2.69,0,0,0-2,.82,3.85,3.85,0,0,0-.92,2.4h5.72a4.54,4.54,0,0,0-.31-1.67,2.48,2.48,0,0,0-.91-1.14,2.73,2.73,0,0,0-1.58-.4Z" transform="translate(-475.13 -1541.24)"/><path class="cls-2" d="M656.9,1588.4a4.76,4.76,0,0,1,3.32,1.09,4.6,4.6,0,0,1,1.18,3.52v8.21h-2.67v-7.71a3.35,3.35,0,0,0-.6-2.19,2.25,2.25,0,0,0-1.86-.73,2.75,2.75,0,0,0-2.54,1.13A6,6,0,0,0,653,1595v6.25h-2.69v-12.59h2.09l.38,1.71H653a3.72,3.72,0,0,1,1-1.09,4.58,4.58,0,0,1,1.36-.64A5.75,5.75,0,0,1,656.9,1588.4Z" transform="translate(-475.13 -1541.24)"/><path class="cls-2" d="M664.64,1599.81a1.56,1.56,0,0,1,.49-1.31,2,2,0,0,1,2.36,0,1.54,1.54,0,0,1,.5,1.31,1.58,1.58,0,0,1-.5,1.31,2,2,0,0,1-2.36,0A1.58,1.58,0,0,1,664.64,1599.81Z" transform="translate(-475.13 -1541.24)"/><path class="cls-2" d="M673.08,1601.22l-4.79-12.59h2.83l2.6,7.39q.24.7.45,1.53a12.79,12.79,0,0,1,.28,1.37h.1a11.1,11.1,0,0,1,.3-1.39c.15-.54.31-1,.47-1.51l2.59-7.39h2.82l-4.79,12.59Z" transform="translate(-475.13 -1541.24)"/><path class="cls-2" d="M687.41,1588.4a5.71,5.71,0,0,1,2.89.69,4.64,4.64,0,0,1,1.85,2,6.63,6.63,0,0,1,.65,3v1.43h-8.4a4.15,4.15,0,0,0,1,2.82,3.51,3.51,0,0,0,2.64,1,9.22,9.22,0,0,0,2.16-.23,11.82,11.82,0,0,0,2-.69v2.17a8.69,8.69,0,0,1-1.92.65,11.45,11.45,0,0,1-2.34.21,7.06,7.06,0,0,1-3.26-.72,5,5,0,0,1-2.19-2.15,7.24,7.24,0,0,1-.79-3.57,8.07,8.07,0,0,1,.72-3.59,5.07,5.07,0,0,1,2-2.25A5.71,5.71,0,0,1,687.41,1588.4Zm0,2a2.69,2.69,0,0,0-2,.82,3.84,3.84,0,0,0-.91,2.4h5.72a4.55,4.55,0,0,0-.32-1.67,2.58,2.58,0,0,0-.9-1.14,2.78,2.78,0,0,0-1.59-.4Z" transform="translate(-475.13 -1541.24)"/><path class="cls-2" d="M700,1601.45a4.44,4.44,0,0,1-3.6-1.65,9.37,9.37,0,0,1,0-9.74,4.49,4.49,0,0,1,3.64-1.66,5,5,0,0,1,1.66.25,4,4,0,0,1,2.11,1.69h.13c0-.24-.08-.58-.13-1a10.64,10.64,0,0,1-.06-1.23v-4.53h2.68v17.69h-2.09l-.48-1.71h-.11a4.84,4.84,0,0,1-.86,1,3.82,3.82,0,0,1-1.24.7A4.85,4.85,0,0,1,700,1601.45Zm.76-2.18a2.8,2.8,0,0,0,2.42-1,5.17,5.17,0,0,0,.72-3V1595a6.38,6.38,0,0,0-.68-3.24,2.64,2.64,0,0,0-2.48-1.13,2.47,2.47,0,0,0-2.2,1.16,6,6,0,0,0-.75,3.24,5.62,5.62,0,0,0,.75,3.18,2.55,2.55,0,0,0,2.19,1.06Z" transform="translate(-475.13 -1541.24)"/><path class="cls-2" d="M721,1588.63v12.59h-2.1l-.38-1.68h-.14a3.4,3.4,0,0,1-1,1.07,4.37,4.37,0,0,1-1.37.63,6,6,0,0,1-1.58.21A5.65,5.65,0,0,1,712,1601a3.42,3.42,0,0,1-1.54-1.49,5.54,5.54,0,0,1-.54-2.62v-8.22h2.69v7.72a3.38,3.38,0,0,0,.6,2.2,2.28,2.28,0,0,0,1.86.72,3.24,3.24,0,0,0,1.92-.5,2.64,2.64,0,0,0,1-1.47,8.46,8.46,0,0,0,.31-2.4v-6.27Z" transform="translate(-475.13 -1541.24)"/><path class="cls-2" d="M731,1588.4h.69c.22,0,.44,0,.65.09l-.25,2.51a3.83,3.83,0,0,0-.59-.1h-.62a4,4,0,0,0-1.36.23,3.29,3.29,0,0,0-1.93,1.89,4.37,4.37,0,0,0-.29,1.64v6.57h-2.69v-12.59h2.1l.37,2.22h.12a5.85,5.85,0,0,1,.93-1.23,4.53,4.53,0,0,1,1.28-.89A3.79,3.79,0,0,1,731,1588.4Z" transform="translate(-475.13 -1541.24)"/><path class="cls-2" d="M739.34,1588.4a5.42,5.42,0,0,1,3.61,1,4.18,4.18,0,0,1,1.22,3.3v8.47h-1.9l-.52-1.79h-.09a6.54,6.54,0,0,1-1.1,1.13,3.79,3.79,0,0,1-1.31.67,6.51,6.51,0,0,1-1.81.22,4.61,4.61,0,0,1-2-.42,3.11,3.11,0,0,1-1.39-1.27,4.18,4.18,0,0,1-.51-2.16,3.28,3.28,0,0,1,1.45-2.92,8.5,8.5,0,0,1,4.38-1.08l2.17-.08v-.66a2.07,2.07,0,0,0-1.66-2.4,2.29,2.29,0,0,0-.64,0,6.3,6.3,0,0,0-1.83.28,13.39,13.39,0,0,0-1.73.66l-.88-1.89a10.54,10.54,0,0,1,2.11-.8A9.93,9.93,0,0,1,739.34,1588.4Zm2.17,6.81-1.61.06a5.12,5.12,0,0,0-2.81.68,2,2,0,0,0-.81,1.68,1.61,1.61,0,0,0,.56,1.35,2.29,2.29,0,0,0,1.47.43,3.35,3.35,0,0,0,2.29-.79,2.87,2.87,0,0,0,.91-2.31Z" transform="translate(-475.13 -1541.24)"/><path class="cls-2" d="M752.45,1599.29a5.56,5.56,0,0,0,1-.1,7.58,7.58,0,0,0,.94-.23v2a5.8,5.8,0,0,1-1.15.33,8,8,0,0,1-1.47.14,4.85,4.85,0,0,1-1.92-.36,2.72,2.72,0,0,1-1.35-1.24,4.82,4.82,0,0,1-.5-2.42v-6.75h-1.72v-1.19l1.84-1,.88-2.69h1.68v2.79h3.6v2h-3.6v6.72a1.9,1.9,0,0,0,.48,1.42A1.73,1.73,0,0,0,752.45,1599.29Z" transform="translate(-475.13 -1541.24)"/><path class="cls-2" d="M759.58,1583.53v5.82a6.61,6.61,0,0,1-.09,1h.15a3.44,3.44,0,0,1,1-1.08,4.18,4.18,0,0,1,1.3-.65,6.19,6.19,0,0,1,4,.27,3.27,3.27,0,0,1,1.55,1.5A5.58,5.58,0,0,1,768,1593v8.21h-2.67v-7.71a3.36,3.36,0,0,0-.61-2.19,2.23,2.23,0,0,0-1.85-.73,3.21,3.21,0,0,0-1.93.51,2.76,2.76,0,0,0-1,1.48,8.11,8.11,0,0,0-.3,2.4v6.24H757v-17.69Z" transform="translate(-475.13 -1541.24)"/><path class="cls-2" d="M782.46,1588.63v12.59h-2.1l-.38-1.68h-.13a3.65,3.65,0,0,1-1,1.07,4.61,4.61,0,0,1-1.37.63,6.09,6.09,0,0,1-1.59.21,5.57,5.57,0,0,1-2.41-.49,3.44,3.44,0,0,1-1.55-1.49,5.54,5.54,0,0,1-.54-2.62v-8.22h2.69v7.72a3.38,3.38,0,0,0,.6,2.2,2.28,2.28,0,0,0,1.86.72,3.29,3.29,0,0,0,1.93-.5,2.69,2.69,0,0,0,1-1.47,8.12,8.12,0,0,0,.31-2.4v-6.27Z" transform="translate(-475.13 -1541.24)"/><path class="cls-2" d="M789.72,1606.81a7.07,7.07,0,0,1-3.92-.92,2.9,2.9,0,0,1-1.37-2.58,2.77,2.77,0,0,1,.73-2,3.81,3.81,0,0,1,2.08-1.1,2.25,2.25,0,0,1-.88-.71,1.77,1.77,0,0,1-.38-1.08,1.83,1.83,0,0,1,.41-1.21,4.36,4.36,0,0,1,1.18-1,3.56,3.56,0,0,1-1.58-1.37,4.1,4.1,0,0,1-.6-2.24,4.39,4.39,0,0,1,.59-2.32,3.74,3.74,0,0,1,1.7-1.47,6.38,6.38,0,0,1,2.69-.51h.74l.75.1a4.51,4.51,0,0,1,.53.1h4.36V1590l-2.14.4a3.87,3.87,0,0,1,.49,1,4.06,4.06,0,0,1,.18,1.2,3.76,3.76,0,0,1-1.35,3.08,5.63,5.63,0,0,1-3.71,1.12,10,10,0,0,1-1.1-.09,2.55,2.55,0,0,0-.63.55,1.16,1.16,0,0,0-.21.67.64.64,0,0,0,.21.5,1.52,1.52,0,0,0,.65.28,5.55,5.55,0,0,0,1,.09h2.17a5,5,0,0,1,3.16.87,3.12,3.12,0,0,1,1.09,2.57,3.76,3.76,0,0,1-1.77,3.32A9.4,9.4,0,0,1,789.72,1606.81Zm.1-1.88a8.49,8.49,0,0,0,2.35-.27,3.26,3.26,0,0,0,1.45-.78,1.69,1.69,0,0,0,.49-1.2,1.34,1.34,0,0,0-.31-.94,1.67,1.67,0,0,0-.92-.45,7.89,7.89,0,0,0-1.53-.12h-2a3.27,3.27,0,0,0-1.31.24,2,2,0,0,0-.88.67,1.74,1.74,0,0,0-.31,1.06,1.49,1.49,0,0,0,.77,1.33,4.2,4.2,0,0,0,2.2.46Zm.53-9.79a2.19,2.19,0,0,0,1.73-.65,2.68,2.68,0,0,0,.56-1.81,2.72,2.72,0,0,0-.58-1.9,2.2,2.2,0,0,0-1.72-.63,2.15,2.15,0,0,0-1.71.65,2.73,2.73,0,0,0-.59,1.9,2.54,2.54,0,0,0,.59,1.79A2.21,2.21,0,0,0,790.35,1595.14Z" transform="translate(-475.13 -1541.24)"/><path class="cls-2" d="M810,1588.63v12.59h-2.1l-.38-1.68h-.13a3.65,3.65,0,0,1-1,1.07,4.22,4.22,0,0,1-1.36.63,6.09,6.09,0,0,1-1.59.21A5.66,5.66,0,0,1,801,1601a3.42,3.42,0,0,1-1.54-1.49,5.54,5.54,0,0,1-.54-2.62v-8.22h2.69v7.72a3.38,3.38,0,0,0,.6,2.2,2.28,2.28,0,0,0,1.86.72,3.24,3.24,0,0,0,1.92-.5,2.64,2.64,0,0,0,1-1.47,8.12,8.12,0,0,0,.31-2.4v-6.27Z" transform="translate(-475.13 -1541.24)"/><path class="cls-2" d="M820.17,1588.4a4.69,4.69,0,0,1,3.31,1.09,4.59,4.59,0,0,1,1.19,3.52v8.21H822v-7.71a3.35,3.35,0,0,0-.6-2.19,2.28,2.28,0,0,0-1.87-.73,2.75,2.75,0,0,0-2.54,1.13,6.12,6.12,0,0,0-.71,3.25v6.25H813.6v-12.59h2.09l.38,1.71h.14a4,4,0,0,1,1-1.09,4.9,4.9,0,0,1,1.37-.64A6.09,6.09,0,0,1,820.17,1588.4Z" transform="translate(-475.13 -1541.24)"/><path class="cls-2" d="M827.9,1599.81a1.58,1.58,0,0,1,.49-1.31,2,2,0,0,1,2.37,0,1.54,1.54,0,0,1,.5,1.31,1.58,1.58,0,0,1-.5,1.31,2,2,0,0,1-2.37,0A1.64,1.64,0,0,1,827.9,1599.81Z" transform="translate(-475.13 -1541.24)"/><path class="cls-2" d="M835.83,1583.82a1.75,1.75,0,0,1,1.06.33,1.28,1.28,0,0,1,.45,1.13,1.37,1.37,0,0,1-.45,1.14,1.86,1.86,0,0,1-2.14,0,1.37,1.37,0,0,1-.45-1.14,1.28,1.28,0,0,1,.45-1.13A1.73,1.73,0,0,1,835.83,1583.82Zm1.31,4.81v12.59h-2.68v-12.59Z" transform="translate(-475.13 -1541.24)"/><path class="cls-2" d="M849.18,1597.63a3.53,3.53,0,0,1-.61,2.09,3.63,3.63,0,0,1-1.75,1.29,8,8,0,0,1-2.83.44,12.24,12.24,0,0,1-2.26-.19,8.3,8.3,0,0,1-1.81-.58v-2.3a12.89,12.89,0,0,0,2,.72,8,8,0,0,0,2.12.31,3.4,3.4,0,0,0,1.9-.41,1.33,1.33,0,0,0,.35-1.85,2.71,2.71,0,0,0-.87-.67,17.94,17.94,0,0,0-1.85-.82,14.93,14.93,0,0,1-2-1,3.59,3.59,0,0,1-1.24-1.15,3.29,3.29,0,0,1-.42-1.73,2.85,2.85,0,0,1,1.33-2.55,6.3,6.3,0,0,1,3.52-.87,9.45,9.45,0,0,1,2.18.23,10.71,10.71,0,0,1,2,.68l-.84,2a15.14,15.14,0,0,0-1.71-.61,6.42,6.42,0,0,0-1.74-.25,3.18,3.18,0,0,0-1.58.32,1,1,0,0,0-.54.9,1.09,1.09,0,0,0,.26.75,3,3,0,0,0,.91.62c.42.2,1,.45,1.79.76a14.37,14.37,0,0,1,2,.9,3.57,3.57,0,0,1,1.26,1.15A3.21,3.21,0,0,1,849.18,1597.63Z" transform="translate(-475.13 -1541.24)"/><path class="cls-2" d="M880.48,1601.21l-1.59-5.85c-.08-.28-.17-.63-.28-1s-.21-.83-.31-1.27-.21-.84-.29-1.21-.16-.67-.2-.88h-.09a5.07,5.07,0,0,1-.19.88c-.09.38-.17.78-.28,1.22s-.21.86-.31,1.28-.2.77-.28,1.06l-1.67,5.81h-2.93l-3.53-12.59h2.71l1.63,6.26c.11.42.22.88.32,1.37s.19,1,.26,1.41.14.81.17,1.1h.1l.12-.78a5.73,5.73,0,0,1,.18-1c.07-.36.14-.68.21-1s.13-.56.19-.75l1.93-6.65h2.92l1.86,6.65c.08.29.17.65.27,1.09s.19.87.27,1.31a10,10,0,0,1,.15,1.08h.09a6,6,0,0,1,.17-1c.08-.39.17-.92.27-1.42s.22-1,.33-1.4l1.67-6.26H887l-3.55,12.59Z" transform="translate(-475.13 -1541.24)"/><path class="cls-2" d="M894,1588.4a5.71,5.71,0,0,1,2.89.69,4.64,4.64,0,0,1,1.85,2,6.63,6.63,0,0,1,.65,3v1.43H891a4.06,4.06,0,0,0,1,2.82,3.43,3.43,0,0,0,2.63,1,9.31,9.31,0,0,0,2.17-.23,11.82,11.82,0,0,0,2-.69v2.17a8.69,8.69,0,0,1-1.92.65,11.45,11.45,0,0,1-2.34.21,7.13,7.13,0,0,1-3.27-.72,5.11,5.11,0,0,1-2.19-2.15,7.37,7.37,0,0,1-.78-3.57,8.38,8.38,0,0,1,.71-3.59,5.13,5.13,0,0,1,2-2.25A5.8,5.8,0,0,1,894,1588.4Zm0,2a2.69,2.69,0,0,0-2,.82,3.85,3.85,0,0,0-.92,2.4h5.72a4.54,4.54,0,0,0-.31-1.67,2.48,2.48,0,0,0-.91-1.14,2.73,2.73,0,0,0-1.58-.4Z" transform="translate(-475.13 -1541.24)"/><path class="cls-2" d="M907,1588.4a5.42,5.42,0,0,1,3.61,1,4.18,4.18,0,0,1,1.22,3.3v8.47H910l-.52-1.79h-.09a6.54,6.54,0,0,1-1.1,1.13,3.79,3.79,0,0,1-1.31.67,6.51,6.51,0,0,1-1.81.22,4.61,4.61,0,0,1-2-.42,3.11,3.11,0,0,1-1.39-1.27,4.18,4.18,0,0,1-.51-2.16,3.28,3.28,0,0,1,1.45-2.92,8.5,8.5,0,0,1,4.38-1.08l2.17-.08v-.66a2.07,2.07,0,0,0-1.66-2.4,2.29,2.29,0,0,0-.64,0,6.3,6.3,0,0,0-1.83.28,13.39,13.39,0,0,0-1.73.66l-.88-1.89a10.54,10.54,0,0,1,2.11-.8A9.86,9.86,0,0,1,907,1588.4Zm2.17,6.81-1.61.06a5.12,5.12,0,0,0-2.81.68,2,2,0,0,0-.81,1.68,1.61,1.61,0,0,0,.56,1.35,2.29,2.29,0,0,0,1.47.43,3.35,3.35,0,0,0,2.29-.79,2.87,2.87,0,0,0,.91-2.31Z" transform="translate(-475.13 -1541.24)"/><path class="cls-2" d="M920.15,1599.29a5.56,5.56,0,0,0,1-.1,7.58,7.58,0,0,0,.94-.23v2a5.8,5.8,0,0,1-1.15.33,8,8,0,0,1-1.47.14,4.85,4.85,0,0,1-1.92-.36,2.72,2.72,0,0,1-1.35-1.24,4.82,4.82,0,0,1-.5-2.42v-6.75H914v-1.19l1.84-1,.88-2.69h1.68v2.79H922v2h-3.6v6.72a1.9,1.9,0,0,0,.48,1.42A1.74,1.74,0,0,0,920.15,1599.29Z" transform="translate(-475.13 -1541.24)"/><path class="cls-2" d="M927.27,1583.53v5.82a6.89,6.89,0,0,1-.08,1h.15a3.82,3.82,0,0,1,1-1.08,4.34,4.34,0,0,1,1.31-.65,6.19,6.19,0,0,1,4,.27,3.27,3.27,0,0,1,1.55,1.5,5.54,5.54,0,0,1,.54,2.62v8.21H933v-7.71a3.36,3.36,0,0,0-.61-2.19,2.25,2.25,0,0,0-1.86-.73,3.18,3.18,0,0,0-1.92.51,2.76,2.76,0,0,0-1,1.48,8.12,8.12,0,0,0-.31,2.4v6.24h-2.68v-17.69Z" transform="translate(-475.13 -1541.24)"/><path class="cls-2" d="M944.26,1588.4a5.71,5.71,0,0,1,2.89.69,4.64,4.64,0,0,1,1.85,2,6.63,6.63,0,0,1,.65,3v1.43h-8.4a4.15,4.15,0,0,0,1,2.82,3.48,3.48,0,0,0,2.63,1,9.31,9.31,0,0,0,2.17-.23,11.82,11.82,0,0,0,2-.69v2.17a8.69,8.69,0,0,1-1.92.65,11.45,11.45,0,0,1-2.34.21,7.06,7.06,0,0,1-3.26-.72,5,5,0,0,1-2.19-2.15,7.24,7.24,0,0,1-.79-3.57,8.07,8.07,0,0,1,.72-3.59,5.07,5.07,0,0,1,2-2.25A5.71,5.71,0,0,1,944.26,1588.4Zm0,2a2.69,2.69,0,0,0-2,.82,3.84,3.84,0,0,0-.91,2.4H947a4.34,4.34,0,0,0-.31-1.67,2.58,2.58,0,0,0-.9-1.14,2.74,2.74,0,0,0-1.53-.4Z" transform="translate(-475.13 -1541.24)"/><path class="cls-2" d="M958.9,1588.4h.69c.22,0,.44,0,.65.09L960,1591a3.83,3.83,0,0,0-.59-.1h-.62a4,4,0,0,0-1.36.23,3.29,3.29,0,0,0-1.93,1.89,4.37,4.37,0,0,0-.29,1.64v6.57h-2.69v-12.59h2.1l.37,2.22h.12a5.85,5.85,0,0,1,.93-1.23,4.53,4.53,0,0,1,1.28-.89A3.74,3.74,0,0,1,958.9,1588.4Z" transform="translate(-475.13 -1541.24)"/><path class="cls-2" d="M987,1590.68h-3v10.54h-2.69v-10.54h-2v-1.3l2-.78v-.87a5.34,5.34,0,0,1,.52-2.55,3,3,0,0,1,1.46-1.36,5.66,5.66,0,0,1,2.26-.41,8,8,0,0,1,2.79.47l-.69,2c-.29-.09-.58-.17-.87-.23a4.78,4.78,0,0,0-1-.1,1.6,1.6,0,0,0-1.34.56,2.74,2.74,0,0,0-.42,1.65v.85h3Z" transform="translate(-475.13 -1541.24)"/><path class="cls-2" d="M1000,1594.9a9,9,0,0,1-.41,2.78,5.54,5.54,0,0,1-1.19,2.06,5,5,0,0,1-1.89,1.27,6.81,6.81,0,0,1-2.49.44,6.19,6.19,0,0,1-2.37-.44,5,5,0,0,1-1.87-1.27,5.77,5.77,0,0,1-1.23-2.06,8.5,8.5,0,0,1-.43-2.78,7.82,7.82,0,0,1,.72-3.53,5.08,5.08,0,0,1,2.07-2.21,6.34,6.34,0,0,1,3.19-.76,6.11,6.11,0,0,1,3.07.76,5.16,5.16,0,0,1,2.08,2.21A7.56,7.56,0,0,1,1000,1594.9Zm-9.13,0a7.19,7.19,0,0,0,.34,2.35,3,3,0,0,0,5.7,0,7.19,7.19,0,0,0,.34-2.35,7.08,7.08,0,0,0-.34-2.33,2.86,2.86,0,0,0-1-1.46,3,3,0,0,0-1.81-.51,2.73,2.73,0,0,0-2.43,1.12,5.65,5.65,0,0,0-.79,3.18Z" transform="translate(-475.13 -1541.24)"/><path class="cls-2" d="M1009.31,1588.4h.69c.22,0,.44,0,.65.09l-.25,2.51a3.7,3.7,0,0,0-.58-.1h-.62a3.76,3.76,0,0,0-1.37.23,3.29,3.29,0,0,0-1.93,1.89,4.36,4.36,0,0,0-.28,1.64v6.57h-2.7v-12.59H1005l.36,2.22h.13a5.85,5.85,0,0,1,.93-1.23,4.39,4.39,0,0,1,1.28-.89A3.7,3.7,0,0,1,1009.31,1588.4Z" transform="translate(-475.13 -1541.24)"/><path class="cls-2" d="M1017.67,1588.4a5.71,5.71,0,0,1,2.89.69,4.64,4.64,0,0,1,1.85,2,6.6,6.6,0,0,1,.65,3v1.43h-8.4a4.15,4.15,0,0,0,1,2.82,3.51,3.51,0,0,0,2.64,1,9.22,9.22,0,0,0,2.16-.23,13.14,13.14,0,0,0,2-.69v2.17a8.77,8.77,0,0,1-1.93.65,11.45,11.45,0,0,1-2.34.21,7.06,7.06,0,0,1-3.26-.72,5,5,0,0,1-2.19-2.15,7.24,7.24,0,0,1-.79-3.57,8.07,8.07,0,0,1,.72-3.59,5.13,5.13,0,0,1,2-2.25A5.74,5.74,0,0,1,1017.67,1588.4Zm0,2a2.69,2.69,0,0,0-2,.82,3.84,3.84,0,0,0-.91,2.4h5.72a4.55,4.55,0,0,0-.32-1.67,2.58,2.58,0,0,0-.9-1.14,2.78,2.78,0,0,0-1.59-.4Z" transform="translate(-475.13 -1541.24)"/><path class="cls-2" d="M1031.08,1601.45a6.5,6.5,0,0,1-3.09-.69,4.64,4.64,0,0,1-2-2.13,8.13,8.13,0,0,1-.7-3.64,8,8,0,0,1,.77-3.75,4.89,4.89,0,0,1,2.14-2.15,6.83,6.83,0,0,1,3.14-.69,8.46,8.46,0,0,1,2,.22,7.78,7.78,0,0,1,1.56.54l-.8,2.14a11.85,11.85,0,0,0-1.42-.48,5.57,5.57,0,0,0-1.4-.2,3.18,3.18,0,0,0-1.83.5,3,3,0,0,0-1.1,1.46,7.18,7.18,0,0,0-.35,2.39,6.6,6.6,0,0,0,.36,2.33,2.9,2.9,0,0,0,1.08,1.43,3,3,0,0,0,1.76.49,6.4,6.4,0,0,0,1.85-.25,7.82,7.82,0,0,0,1.55-.65v2.32a6.52,6.52,0,0,1-1.53.61A8.84,8.84,0,0,1,1031.08,1601.45Z" transform="translate(-475.13 -1541.24)"/><path class="cls-2" d="M1042.66,1588.4a5.42,5.42,0,0,1,3.61,1,4.18,4.18,0,0,1,1.22,3.3v8.47h-1.9l-.52-1.79H1045a6.59,6.59,0,0,1-1.11,1.13,3.74,3.74,0,0,1-1.3.67,6.51,6.51,0,0,1-1.81.22,4.76,4.76,0,0,1-2-.42,3.16,3.16,0,0,1-1.39-1.27,4.27,4.27,0,0,1-.5-2.16,3.28,3.28,0,0,1,1.45-2.92,8.5,8.5,0,0,1,4.38-1.08l2.17-.08v-.66a2.07,2.07,0,0,0-1.68-2.4,2.22,2.22,0,0,0-.63,0,6.3,6.3,0,0,0-1.83.28,13.39,13.39,0,0,0-1.73.66l-.87-1.89a9.77,9.77,0,0,1,4.56-1.1Zm2.17,6.81-1.62.06a5.09,5.09,0,0,0-2.8.68,2,2,0,0,0-.81,1.68,1.55,1.55,0,0,0,.56,1.35,2.25,2.25,0,0,0,1.46.43,3.38,3.38,0,0,0,2.3-.79,2.91,2.91,0,0,0,.91-2.31Z" transform="translate(-475.13 -1541.24)"/><path class="cls-2" d="M1059.49,1597.63a3.55,3.55,0,0,1-.61,2.09,3.63,3.63,0,0,1-1.75,1.29,8,8,0,0,1-2.83.44,12.35,12.35,0,0,1-2.27-.19,8.22,8.22,0,0,1-1.8-.58v-2.3a12.89,12.89,0,0,0,2,.72,8,8,0,0,0,2.12.31,3.36,3.36,0,0,0,1.89-.41,1.33,1.33,0,0,0,.36-1.85h0a2.71,2.71,0,0,0-.87-.67,17.19,17.19,0,0,0-1.86-.82,16.22,16.22,0,0,1-2-1,3.59,3.59,0,0,1-1.24-1.15,3.29,3.29,0,0,1-.42-1.73,2.85,2.85,0,0,1,1.33-2.55,6.3,6.3,0,0,1,3.52-.87,9.45,9.45,0,0,1,2.18.23,10.71,10.71,0,0,1,2,.68l-.84,2a15.14,15.14,0,0,0-1.71-.61,6.49,6.49,0,0,0-1.75-.25,3.17,3.17,0,0,0-1.57.32,1,1,0,0,0-.54.9,1.09,1.09,0,0,0,.26.75,3,3,0,0,0,.91.62c.42.2,1,.45,1.79.76a13.66,13.66,0,0,1,1.94.9,3.69,3.69,0,0,1,1.27,1.15A3.24,3.24,0,0,1,1059.49,1597.63Z" transform="translate(-475.13 -1541.24)"/><path class="cls-2" d="M1067.4,1599.29a5.56,5.56,0,0,0,1-.1,6.14,6.14,0,0,0,.94-.23v2a5.8,5.8,0,0,1-1.15.33,8,8,0,0,1-1.47.14,4.85,4.85,0,0,1-1.92-.36,2.72,2.72,0,0,1-1.35-1.24,4.93,4.93,0,0,1-.5-2.42v-6.75h-1.72v-1.19l1.84-1,.88-2.69h1.68v2.79h3.61v2h-3.61v6.72a1.9,1.9,0,0,0,.48,1.42A1.73,1.73,0,0,0,1067.4,1599.29Z" transform="translate(-475.13 -1541.24)"/><path class="cls-2" d="M1080.73,1597.63a3.55,3.55,0,0,1-.61,2.09,3.63,3.63,0,0,1-1.75,1.29,8,8,0,0,1-2.83.44,12.35,12.35,0,0,1-2.27-.19,8.22,8.22,0,0,1-1.8-.58v-2.3a12.89,12.89,0,0,0,2,.72,8,8,0,0,0,2.12.31,3.4,3.4,0,0,0,1.9-.41,1.33,1.33,0,0,0,.35-1.85,2.71,2.71,0,0,0-.87-.67,17.19,17.19,0,0,0-1.86-.82,16.22,16.22,0,0,1-2-1,3.59,3.59,0,0,1-1.24-1.15,3.29,3.29,0,0,1-.42-1.73,2.85,2.85,0,0,1,1.33-2.55,6.3,6.3,0,0,1,3.52-.87,9.45,9.45,0,0,1,2.18.23,10.71,10.71,0,0,1,2,.68l-.84,2a15.14,15.14,0,0,0-1.71-.61,6.42,6.42,0,0,0-1.74-.25,3.18,3.18,0,0,0-1.58.32,1,1,0,0,0-.54.9,1.09,1.09,0,0,0,.26.75,3,3,0,0,0,.91.62c.42.2,1,.45,1.79.76a14.37,14.37,0,0,1,2,.9,3.66,3.66,0,0,1,1.26,1.15A3.14,3.14,0,0,1,1080.73,1597.63Z" transform="translate(-475.13 -1541.24)"/><path class="cls-2" d="M1106.68,1588.4a5.38,5.38,0,0,1,3.6,1,4.14,4.14,0,0,1,1.23,3.3v8.47h-1.9l-.53-1.79H1109a6.54,6.54,0,0,1-1.1,1.13,3.62,3.62,0,0,1-1.31.67,6.44,6.44,0,0,1-1.8.22,4.76,4.76,0,0,1-2-.42,3.16,3.16,0,0,1-1.39-1.27,4.17,4.17,0,0,1-.5-2.16,3.28,3.28,0,0,1,1.45-2.92,8.5,8.5,0,0,1,4.38-1.08l2.17-.08v-.66a2.07,2.07,0,0,0-2.31-2.41,6.3,6.3,0,0,0-1.83.28,13.39,13.39,0,0,0-1.73.66l-.87-1.89a9.77,9.77,0,0,1,4.56-1.1Zm2.17,6.81-1.62.06a5.12,5.12,0,0,0-2.81.68,2,2,0,0,0-.8,1.68,1.58,1.58,0,0,0,.55,1.35,2.29,2.29,0,0,0,1.47.43,3.38,3.38,0,0,0,2.3-.79,2.91,2.91,0,0,0,.91-2.31Z" transform="translate(-475.13 -1541.24)"/><path class="cls-2" d="M1121.43,1588.4h.69c.22,0,.44,0,.65.09l-.25,2.51a3.83,3.83,0,0,0-.59-.1h-.62a4,4,0,0,0-1.36.23A3.29,3.29,0,0,0,1118,1593a4.37,4.37,0,0,0-.29,1.64v6.57H1115v-12.59h2.1l.37,2.22h.12a5.85,5.85,0,0,1,.93-1.23,4.53,4.53,0,0,1,1.28-.89A3.82,3.82,0,0,1,1121.43,1588.4Z" transform="translate(-475.13 -1541.24)"/><path class="cls-2" d="M1129.79,1588.4a5.71,5.71,0,0,1,2.89.69,4.64,4.64,0,0,1,1.85,2,6.63,6.63,0,0,1,.65,3v1.43h-8.4a4.15,4.15,0,0,0,1,2.82,3.43,3.43,0,0,0,2.63,1,9.31,9.31,0,0,0,2.17-.23,11.82,11.82,0,0,0,2-.69v2.17a8.69,8.69,0,0,1-1.92.65,11.45,11.45,0,0,1-2.34.21,6.94,6.94,0,0,1-3.26-.72,5,5,0,0,1-2.2-2.15,7.37,7.37,0,0,1-.78-3.57,8.38,8.38,0,0,1,.71-3.59,5.13,5.13,0,0,1,2-2.25A5.74,5.74,0,0,1,1129.79,1588.4Zm0,2a2.69,2.69,0,0,0-2,.82,3.85,3.85,0,0,0-.92,2.4h5.72a4.54,4.54,0,0,0-.31-1.67,2.48,2.48,0,0,0-.91-1.14,2.73,2.73,0,0,0-1.58-.4Z" transform="translate(-475.13 -1541.24)"/><path class="cls-2" d="M1142.86,1588.4a5.42,5.42,0,0,1,3.61,1,4.18,4.18,0,0,1,1.22,3.3v8.47h-1.9l-.52-1.79h-.09a6.54,6.54,0,0,1-1.1,1.13,3.79,3.79,0,0,1-1.31.67,6.51,6.51,0,0,1-1.81.22,4.61,4.61,0,0,1-2-.42,3.11,3.11,0,0,1-1.39-1.27,4.18,4.18,0,0,1-.51-2.16,3.28,3.28,0,0,1,1.45-2.92,8.5,8.5,0,0,1,4.38-1.08l2.17-.08v-.66a2.07,2.07,0,0,0-1.66-2.4,2.29,2.29,0,0,0-.64,0,6.3,6.3,0,0,0-1.83.28,13.39,13.39,0,0,0-1.73.66l-.88-1.89a10.54,10.54,0,0,1,2.11-.8A9.93,9.93,0,0,1,1142.86,1588.4Zm2.17,6.81-1.61.06a5.12,5.12,0,0,0-2.81.68,2,2,0,0,0-.81,1.68,1.61,1.61,0,0,0,.56,1.35,2.29,2.29,0,0,0,1.47.43,3.35,3.35,0,0,0,2.29-.79,2.87,2.87,0,0,0,.91-2.31Z" transform="translate(-475.13 -1541.24)"/><path class="cls-2" d="M1159.69,1597.63a3.61,3.61,0,0,1-.6,2.09,3.66,3.66,0,0,1-1.76,1.29,8.2,8.2,0,0,1-2.82.44,12.35,12.35,0,0,1-2.27-.19,8.22,8.22,0,0,1-1.8-.58v-2.3a11.62,11.62,0,0,0,2,.72,7.6,7.6,0,0,0,2.12.31,3.36,3.36,0,0,0,1.89-.41,1.31,1.31,0,0,0,.58-1.11,1.14,1.14,0,0,0-.23-.74,2.67,2.67,0,0,0-.86-.67,17.19,17.19,0,0,0-1.86-.82,14.93,14.93,0,0,1-2-1,3.51,3.51,0,0,1-1.24-1.15,3.29,3.29,0,0,1-.42-1.73,2.85,2.85,0,0,1,1.33-2.55,6.27,6.27,0,0,1,3.51-.87,9.48,9.48,0,0,1,2.19.23,10.71,10.71,0,0,1,2,.68l-.85,2a13.4,13.4,0,0,0-1.71-.61,6.42,6.42,0,0,0-1.74-.25,3.17,3.17,0,0,0-1.57.32,1,1,0,0,0-.54.9,1.09,1.09,0,0,0,.26.75,2.55,2.55,0,0,0,.9.62c.43.2,1,.45,1.79.76a14.37,14.37,0,0,1,2,.9,3.69,3.69,0,0,1,1.27,1.15A3.21,3.21,0,0,1,1159.69,1597.63Z" transform="translate(-475.13 -1541.24)"/><polyline class="cls-1" points="616.75 47.82 620.98 53.83 616.75 59.85"/><path class="cls-3" d="M1193,1584h0a1.94,1.94,0,0,1,1.94,1.94h0a1.94,1.94,0,0,1-1.94,1.94h0a1.94,1.94,0,0,1-1.94-1.94h0A1.94,1.94,0,0,1,1193,1584Z" transform="translate(-475.13 -1541.24)"/><path class="cls-3" d="M1193,1591.42h0a1.94,1.94,0,0,1,1.94,1.94h0a1.94,1.94,0,0,1-1.94,1.94h0a1.94,1.94,0,0,1-1.94-1.94h0A1.94,1.94,0,0,1,1193,1591.42Z" transform="translate(-475.13 -1541.24)"/><path class="cls-3" d="M1193,1598.83h0a1.94,1.94,0,0,1,1.94,1.94h0a1.94,1.94,0,0,1-1.94,1.94h0a1.94,1.94,0,0,1-1.94-1.94h0A1.94,1.94,0,0,1,1193,1598.83Z" transform="translate(-475.13 -1541.24)"/><path d="M505,1541.42h0a29.84,29.84,0,0,1,29.84,29.84h0A29.84,29.84,0,0,1,505,1601.09h0a29.84,29.84,0,0,1-29.83-29.83h0A29.84,29.84,0,0,1,505,1541.42Z" transform="translate(-475.13 -1541.24)"/><path class="cls-4" d="M505,1541.42h0a29.84,29.84,0,0,1,29.84,29.84h0A29.84,29.84,0,0,1,505,1601.09h0a29.84,29.84,0,0,1-29.83-29.83h0A29.84,29.84,0,0,1,505,1541.42Z" transform="translate(-475.13 -1541.24)"/><path class="cls-5" d="M504.25,1557.92a10.49,10.49,0,0,0-16.77,9.47,10.52,10.52,0,0,0,2.22,5.42,10.46,10.46,0,0,0,16,13.23,10.4,10.4,0,0,0,7.44,2.07h0a10.5,10.5,0,0,0,7.09-17,10.65,10.65,0,0,0,1.25-2.9,10.46,10.46,0,0,0-17.23-10.31Zm14.1,15.46a7.76,7.76,0,0,1,1.27,3.48,7.64,7.64,0,0,1-12.39,6.76h0a7.67,7.67,0,0,1-2-9.51,10.47,10.47,0,0,0,1.71,1,9.42,9.42,0,0,0,1.61.59h.05a10.85,10.85,0,0,0,2.72.35A10.48,10.48,0,0,0,518.35,1573.38Zm-26.75-2.8a7.64,7.64,0,1,1,13-.65,10.56,10.56,0,0,0-1.72-1,9.67,9.67,0,0,0-1.66-.6h0a10.49,10.49,0,0,0-9.65,2.26Zm1.5,13.27a7.67,7.67,0,0,1,0-10.85h0l-.31-.31h0l.31.31a7.65,7.65,0,0,1,9.95-.77,10.3,10.3,0,0,0-1.39,3.8h0a10.52,10.52,0,0,0,.58,5.44,10.32,10.32,0,0,0,1.47,2.61A7.66,7.66,0,0,1,493.1,1583.85Zm23.67-23.67a7.64,7.64,0,0,1,.6,10.17,6.28,6.28,0,0,1-.59.67h0a7.65,7.65,0,0,1-9.93.78,10.6,10.6,0,0,0,1-2.16,10.16,10.16,0,0,0,.42-1.71h0a10.13,10.13,0,0,0,.07-2.75,10.45,10.45,0,0,0-2.11-5.29,7.66,7.66,0,0,1,10.53.3Z" transform="translate(-475.13 -1541.24)"/></g></svg>