<svg id="Layer_1" data-name="Layer 1" xmlns="http://www.w3.org/2000/svg" viewBox="0 0 690.52 65.37"><defs><style>.cls-1{fill:none;stroke-width:1.44px;}.cls-1,.cls-3{stroke:#989898;stroke-miterlimit:10;}.cls-2{fill:#4d4d4d;}.cls-3{fill:#989898;stroke-width:0.95px;}.cls-4{fill:#fff;}</style></defs><g id="Layer_4" data-name="Layer 4"><polyline class="cls-1" points="560.53 47.86 564.76 53.86 560.53 59.89"/><polyline class="cls-1" points="435.42 47.86 439.65 53.86 435.42 59.89"/><path class="cls-2" d="M561.54,585.12h-3.65V566.05H551.4v-3H568v3.09h-6.47Z" transform="translate(-466.14 -561.53)"/><path class="cls-2" d="M574.71,561.54v5.92a17.94,17.94,0,0,1-.06,1.81c-.06.59-.07,1-.11,1.36h.2a4.75,4.75,0,0,1,1.3-1.45,5.74,5.74,0,0,1,1.74-.85,7.15,7.15,0,0,1,2.05-.29,7.67,7.67,0,0,1,3.27.64,4.46,4.46,0,0,1,2.07,2,7.42,7.42,0,0,1,.72,3.5v10.94h-3.56V574.84a4.46,4.46,0,0,0-.81-2.91,3,3,0,0,0-2.48-1,4.32,4.32,0,0,0-2.57.67,3.69,3.69,0,0,0-1.35,2,10.5,10.5,0,0,0-.41,3.2v8.32h-3.58V561.54Z" transform="translate(-466.14 -561.53)"/><path class="cls-2" d="M597.27,568a7.52,7.52,0,0,1,3.85.93,6.24,6.24,0,0,1,2.47,2.62,8.91,8.91,0,0,1,.86,4.06v1.91h-11.2a5.49,5.49,0,0,0,1.31,3.76,4.6,4.6,0,0,0,3.51,1.32,12.24,12.24,0,0,0,2.89-.31,15.28,15.28,0,0,0,2.64-.92v2.9a12.24,12.24,0,0,1-2.56.86,16.3,16.3,0,0,1-3.12.27,9.49,9.49,0,0,1-4.35-.95,6.69,6.69,0,0,1-2.92-2.87,9.76,9.76,0,0,1-1-4.75,11,11,0,0,1,1-4.79,6.86,6.86,0,0,1,2.69-3A7.71,7.71,0,0,1,597.27,568Zm0,2.69a3.57,3.57,0,0,0-2.72,1.09,5.17,5.17,0,0,0-1.22,3.2H601a6.24,6.24,0,0,0-.41-2.22,3.28,3.28,0,0,0-1.21-1.52,3.56,3.56,0,0,0-2.11-.53Z" transform="translate(-466.14 -561.53)"/><path class="cls-2" d="M634.88,573.83a12.67,12.67,0,0,1-1.39,6.25,8.85,8.85,0,0,1-4,3.77,14.64,14.64,0,0,1-6.39,1.27h-6.2V563h6.81a13.42,13.42,0,0,1,5.95,1.24,8.84,8.84,0,0,1,3.86,3.65A11.93,11.93,0,0,1,634.88,573.83Zm-3.8.11a10.29,10.29,0,0,0-.86-4.48,5.59,5.59,0,0,0-2.51-2.62,9,9,0,0,0-4.07-.85h-3.11v16.08h2.58c2.67,0,4.66-.68,6-2S631.08,576.63,631.08,573.94Z" transform="translate(-466.14 -561.53)"/><path class="cls-2" d="M654,576.69a11.72,11.72,0,0,1-.54,3.72,7.5,7.5,0,0,1-1.6,2.74,6.82,6.82,0,0,1-2.51,1.7,9.17,9.17,0,0,1-3.32.57,8.59,8.59,0,0,1-3.17-.57,7,7,0,0,1-2.49-1.7,7.71,7.71,0,0,1-1.63-2.74,11.22,11.22,0,0,1-.58-3.72,10.34,10.34,0,0,1,1-4.7,6.71,6.71,0,0,1,2.75-3,8.44,8.44,0,0,1,4.26-1,8.1,8.1,0,0,1,4.09,1,7,7,0,0,1,2.77,3A10.06,10.06,0,0,1,654,576.69Zm-12.17,0a9.82,9.82,0,0,0,.45,3.14,4,4,0,0,0,7.61,0,10.15,10.15,0,0,0,.44-3.14,9.85,9.85,0,0,0-.44-3.1,3.93,3.93,0,0,0-1.39-2A4.06,4.06,0,0,0,646,571a3.63,3.63,0,0,0-3.22,1.49,7.44,7.44,0,0,0-1,4.2Z" transform="translate(-466.14 -561.53)"/><path class="cls-2" d="M664.65,585.42a8.77,8.77,0,0,1-4.12-.91,6.15,6.15,0,0,1-2.68-2.84,10.92,10.92,0,0,1-.94-4.85,10.65,10.65,0,0,1,1-5,6.56,6.56,0,0,1,2.85-2.86,9,9,0,0,1,4.24-1,11.29,11.29,0,0,1,2.72.3,10.8,10.8,0,0,1,2.07.72l-1.06,2.85c-.62-.24-1.25-.45-1.9-.63A7.07,7.07,0,0,0,665,571a4.24,4.24,0,0,0-2.45.65,3.91,3.91,0,0,0-1.46,2,9.3,9.3,0,0,0-.47,3.18,8.71,8.71,0,0,0,.48,3.12,4,4,0,0,0,1.44,1.91,4.07,4.07,0,0,0,2.35.64,8.6,8.6,0,0,0,2.47-.33,10.56,10.56,0,0,0,2.06-.86v3.09a8.07,8.07,0,0,1-2,.81A11.69,11.69,0,0,1,664.65,585.42Z" transform="translate(-466.14 -561.53)"/><path class="cls-2" d="M676.53,561.54v11.4c0,.51,0,1.07-.06,1.69s-.08,1.18-.12,1.71h.08c.26-.35.58-.76,1-1.24s.65-.84,1-1.24l5.12-5.52h4.09l-6.71,7.22,7.15,9.56H683.9l-5.36-7.37-2,1.73v5.64H673V561.54Z" transform="translate(-466.14 -561.53)"/><path class="cls-2" d="M555.53,603.64v5.8a6.61,6.61,0,0,1-.09,1h.15a3.82,3.82,0,0,1,1-1.08,4,4,0,0,1,1.3-.64,5.36,5.36,0,0,1,1.54-.22,5.75,5.75,0,0,1,2.46.48,3.41,3.41,0,0,1,1.55,1.5,5.54,5.54,0,0,1,.54,2.62v8.21h-2.67v-7.7a3.36,3.36,0,0,0-.61-2.19,2.29,2.29,0,0,0-1.86-.74,3.21,3.21,0,0,0-1.93.51,2.76,2.76,0,0,0-1,1.48,7.8,7.8,0,0,0-.31,2.4v6.24h-2.68V603.64Z" transform="translate(-466.14 -561.53)"/><path class="cls-2" d="M572.13,619.4a4.78,4.78,0,0,0,1-.1,7.43,7.43,0,0,0,.93-.23v2a5.8,5.8,0,0,1-1.15.33,8,8,0,0,1-1.47.14,4.85,4.85,0,0,1-1.92-.36,2.79,2.79,0,0,1-1.35-1.23,4.93,4.93,0,0,1-.5-2.42v-6.76H566V609.6l1.84-1,.88-2.7h1.68v2.8H574v2h-3.61v6.72a1.9,1.9,0,0,0,.48,1.42A1.76,1.76,0,0,0,572.13,619.4Z" transform="translate(-466.14 -561.53)"/><path class="cls-2" d="M582.06,619.4a4.78,4.78,0,0,0,1-.1,7.43,7.43,0,0,0,.93-.23v2a5.8,5.8,0,0,1-1.15.33,7.94,7.94,0,0,1-1.46.14,4.85,4.85,0,0,1-1.92-.36A2.81,2.81,0,0,1,578.1,620a4.93,4.93,0,0,1-.5-2.42v-6.76h-1.71V609.6l1.84-1,.87-2.7h1.69v2.8h3.6v2h-3.6v6.72a1.85,1.85,0,0,0,.47,1.42A1.73,1.73,0,0,0,582.06,619.4Z" transform="translate(-466.14 -561.53)"/><path class="cls-2" d="M593,608.51a4.41,4.41,0,0,1,3.59,1.64A7.39,7.39,0,0,1,598,615a9.06,9.06,0,0,1-.63,3.6,4.88,4.88,0,0,1-1.76,2.2,4.63,4.63,0,0,1-2.63.75,4.92,4.92,0,0,1-1.66-.25,4.16,4.16,0,0,1-1.21-.65,4.94,4.94,0,0,1-.84-.87H589c0,.29.08.62.11,1s0,.71,0,1v5.11h-2.69V608.75h2.19l.38,1.74h.12a4.84,4.84,0,0,1,.86-1,3.9,3.9,0,0,1,1.23-.72A5,5,0,0,1,593,608.51Zm-.72,2.19a3.14,3.14,0,0,0-1.77.44,2.47,2.47,0,0,0-1,1.31,6.81,6.81,0,0,0-.33,2.19V615a8.24,8.24,0,0,0,.29,2.37,2.76,2.76,0,0,0,1,1.48,3,3,0,0,0,1.83.5,2.36,2.36,0,0,0,1.61-.53,3.25,3.25,0,0,0,1-1.52,7.67,7.67,0,0,0,.32-2.33,5.89,5.89,0,0,0-.72-3.16,2.42,2.42,0,0,0-2.25-1.11Z" transform="translate(-466.14 -561.53)"/><path class="cls-2" d="M609.31,617.74a3.61,3.61,0,0,1-.6,2.09,3.66,3.66,0,0,1-1.76,1.29,8.2,8.2,0,0,1-2.82.44,11.54,11.54,0,0,1-2.27-.19,8.19,8.19,0,0,1-1.8-.57v-2.31a12.93,12.93,0,0,0,2,.73,8.41,8.41,0,0,0,2.12.3,3.36,3.36,0,0,0,1.89-.41,1.31,1.31,0,0,0,.58-1.11,1.14,1.14,0,0,0-.23-.73,2.57,2.57,0,0,0-.86-.67,17.25,17.25,0,0,0-1.86-.83,14.93,14.93,0,0,1-2-1,3.42,3.42,0,0,1-1.24-1.15,3.2,3.2,0,0,1-.42-1.73,2.85,2.85,0,0,1,1.33-2.55,6.27,6.27,0,0,1,3.51-.87,9.69,9.69,0,0,1,4.19.91l-.85,2a15.14,15.14,0,0,0-1.71-.61,6.41,6.41,0,0,0-1.74-.24,3,3,0,0,0-1.58.32,1,1,0,0,0-.54.9,1.1,1.1,0,0,0,.27.75,2.76,2.76,0,0,0,.9.61c.43.2,1,.46,1.79.76a14.37,14.37,0,0,1,2,.9,3.72,3.72,0,0,1,1.27,1.16A3.2,3.2,0,0,1,609.31,617.74Z" transform="translate(-466.14 -561.53)"/><path class="cls-2" d="M619.39,604.71l-6.2,16.62h-2.51l6.19-16.62Z" transform="translate(-466.14 -561.53)"/><path class="cls-2" d="M627.06,604.71l-6.2,16.62h-2.51l6.19-16.62Z" transform="translate(-466.14 -561.53)"/><path class="cls-2" d="M639.69,621.32l-1.59-5.84c-.07-.29-.17-.64-.27-1.05s-.21-.83-.32-1.27-.2-.84-.29-1.21-.15-.67-.2-.87h-.09l-.18.87c-.08.37-.18.78-.29,1.22s-.21.87-.31,1.28-.19.77-.28,1.06l-1.67,5.81h-2.93l-3.52-12.58h2.7l1.64,6.25c.1.42.21.88.31,1.37s.19,1,.27,1.41.13.82.17,1.11h.09a3.23,3.23,0,0,1,.12-.78c.06-.32.12-.65.19-1s.13-.67.2-1a7.6,7.6,0,0,1,.19-.74l1.94-6.65h2.92l1.85,6.65c.08.28.17.65.27,1.08s.19.87.27,1.31a10,10,0,0,1,.15,1.08h.09a7.86,7.86,0,0,1,.17-1.05c.08-.45.17-.91.28-1.42s.21-1,.33-1.4l1.67-6.25h2.66l-3.55,12.58Z" transform="translate(-466.14 -561.53)"/><path class="cls-2" d="M659.62,621.32,658,615.48q-.12-.43-.27-1.05c-.11-.41-.22-.83-.32-1.27s-.2-.84-.29-1.21-.16-.67-.2-.87h-.09l-.18.87c-.09.37-.18.78-.29,1.22s-.21.87-.31,1.28-.2.77-.28,1.06l-1.67,5.81h-2.9l-3.53-12.58h2.71L652,615c.1.42.21.88.31,1.37s.19,1,.27,1.41.13.82.17,1.11h.09a3.23,3.23,0,0,1,.12-.78,7.14,7.14,0,0,0,.18-1c.07-.35.14-.67.21-1a7.6,7.6,0,0,1,.19-.74l1.93-6.65h2.93l1.85,6.65c.08.28.17.65.27,1.08s.19.87.27,1.31a10,10,0,0,1,.15,1.08H661a7.86,7.86,0,0,1,.17-1.05c.08-.45.17-.91.28-1.42s.21-1,.33-1.4l1.67-6.25h2.66l-3.55,12.58Z" transform="translate(-466.14 -561.53)"/><path class="cls-2" d="M679.55,621.32,678,615.48c-.08-.29-.17-.64-.28-1.05s-.21-.83-.31-1.27-.21-.84-.29-1.21-.16-.67-.2-.87h-.09a5.2,5.2,0,0,1-.19.87c-.09.38-.17.78-.28,1.22s-.21.87-.31,1.28-.2.77-.28,1.06l-1.67,5.81h-2.94l-3.52-12.58h2.71L672,615c.11.42.21.88.32,1.37s.19,1,.26,1.41.14.82.17,1.11h.1a3.23,3.23,0,0,1,.12-.78,7.14,7.14,0,0,0,.18-1c.07-.35.14-.67.21-1a6.17,6.17,0,0,1,.19-.74l1.93-6.65h2.92l1.86,6.65c.08.28.17.65.27,1.08s.19.87.27,1.31a10,10,0,0,1,.15,1.08H681a9.42,9.42,0,0,1,.16-1.05c.07-.45.18-.91.28-1.42s.22-1,.33-1.4l1.67-6.25h2.66l-3.54,12.58Z" transform="translate(-466.14 -561.53)"/><path class="cls-2" d="M687.08,619.92a1.57,1.57,0,0,1,.48-1.31,2,2,0,0,1,2.37,0,1.54,1.54,0,0,1,.5,1.31,1.57,1.57,0,0,1-.5,1.31,1.91,1.91,0,0,1-2.37,0A1.6,1.6,0,0,1,687.08,619.92Z" transform="translate(-466.14 -561.53)"/><path class="cls-2" d="M698.05,619.4a4.78,4.78,0,0,0,1-.1,7.43,7.43,0,0,0,.93-.23v2a5.71,5.71,0,0,1-1.14.33,8,8,0,0,1-1.47.14,4.85,4.85,0,0,1-1.92-.36A2.79,2.79,0,0,1,694.1,620a4.82,4.82,0,0,1-.5-2.42v-6.76h-1.72V609.6l1.84-1,.88-2.7h1.68v2.8h3.6v2h-3.6v6.72a1.9,1.9,0,0,0,.48,1.42A1.75,1.75,0,0,0,698.05,619.4Z" transform="translate(-466.14 -561.53)"/><path class="cls-2" d="M705.17,603.64v5.8a3.38,3.38,0,0,1-.08,1h.15a3.82,3.82,0,0,1,1-1.08,4,4,0,0,1,1.31-.64,5,5,0,0,1,1.54-.22,5.73,5.73,0,0,1,2.45.48,3.41,3.41,0,0,1,1.55,1.5,5.54,5.54,0,0,1,.54,2.62v8.21H711v-7.7a3.3,3.3,0,0,0-.61-2.19,2.26,2.26,0,0,0-1.86-.74,3.18,3.18,0,0,0-1.92.51,2.76,2.76,0,0,0-1,1.48,8.12,8.12,0,0,0-.31,2.4v6.24h-2.68V603.64Z" transform="translate(-466.14 -561.53)"/><path class="cls-2" d="M722.16,608.51a5.71,5.71,0,0,1,2.89.69,4.7,4.7,0,0,1,1.85,2,6.7,6.7,0,0,1,.65,3v1.43h-8.4a4.15,4.15,0,0,0,1,2.82,3.43,3.43,0,0,0,2.63,1,8.81,8.81,0,0,0,2.17-.24,10.71,10.71,0,0,0,2-.68v2.17a8.66,8.66,0,0,1-1.92.64,11.45,11.45,0,0,1-2.34.21,7.06,7.06,0,0,1-3.26-.72,5,5,0,0,1-2.2-2.15,7.44,7.44,0,0,1-.78-3.56,8.12,8.12,0,0,1,.72-3.6,5.13,5.13,0,0,1,2-2.25A5.74,5.74,0,0,1,722.16,608.51Zm0,2a2.69,2.69,0,0,0-2,.82,3.84,3.84,0,0,0-.91,2.4H725a4.34,4.34,0,0,0-.31-1.67,2.44,2.44,0,0,0-.9-1.13,2.62,2.62,0,0,0-1.59-.41Z" transform="translate(-466.14 -561.53)"/><path class="cls-2" d="M734.72,621.56a4.47,4.47,0,0,1-3.6-1.64,9.34,9.34,0,0,1,0-9.75,4.51,4.51,0,0,1,3.65-1.66,4.69,4.69,0,0,1,1.66.26,3.9,3.9,0,0,1,2.11,1.68h.13c0-.24-.08-.58-.13-1a10.62,10.62,0,0,1-.07-1.23v-4.53h2.69v17.69h-2.1l-.47-1.7h-.12a3.93,3.93,0,0,1-.86,1,3.67,3.67,0,0,1-1.23.7A5.17,5.17,0,0,1,734.72,621.56Zm.76-2.17a2.78,2.78,0,0,0,2.42-1,5.17,5.17,0,0,0,.72-3V615a6.38,6.38,0,0,0-.68-3.24,2.67,2.67,0,0,0-2.48-1.13,2.47,2.47,0,0,0-2.2,1.16,5.91,5.91,0,0,0-.76,3.24,5.54,5.54,0,0,0,.76,3.18A2.51,2.51,0,0,0,735.48,619.39Z" transform="translate(-466.14 -561.53)"/><path class="cls-2" d="M756,615a8.77,8.77,0,0,1-.41,2.79,5.66,5.66,0,0,1-1.2,2.05,5.16,5.16,0,0,1-1.88,1.28,7.06,7.06,0,0,1-2.49.43,6.47,6.47,0,0,1-2.38-.43,5.25,5.25,0,0,1-1.87-1.28,5.71,5.71,0,0,1-1.22-2.05,8.26,8.26,0,0,1-.43-2.79,8,8,0,0,1,.72-3.53,5.12,5.12,0,0,1,2.06-2.21,6.38,6.38,0,0,1,3.2-.76,6.11,6.11,0,0,1,3.07.76,5.3,5.3,0,0,1,2.08,2.22A7.52,7.52,0,0,1,756,615Zm-9.13,0a7.19,7.19,0,0,0,.33,2.35,3.15,3.15,0,0,0,4,1.82,2.8,2.8,0,0,0,.62-.32,3,3,0,0,0,1-1.5,7.19,7.19,0,0,0,.33-2.35,7,7,0,0,0-.33-2.32,2.88,2.88,0,0,0-1-1.47,3,3,0,0,0-1.82-.51,2.73,2.73,0,0,0-2.42,1.12,5.64,5.64,0,0,0-.78,3.18Z" transform="translate(-466.14 -561.53)"/><path class="cls-2" d="M764.07,621.56a6.5,6.5,0,0,1-3.09-.69,4.61,4.61,0,0,1-2-2.12,8.35,8.35,0,0,1-.71-3.65,8,8,0,0,1,.77-3.75,5,5,0,0,1,2.14-2.15,6.87,6.87,0,0,1,3.15-.69,8.46,8.46,0,0,1,2,.22,7.31,7.31,0,0,1,1.55.54l-.79,2.14a14.74,14.74,0,0,0-1.42-.47,5.15,5.15,0,0,0-1.4-.2,3.15,3.15,0,0,0-1.84.49,2.94,2.94,0,0,0-1.09,1.46,6.94,6.94,0,0,0-.36,2.39,6.41,6.41,0,0,0,.37,2.34,2.9,2.9,0,0,0,1.08,1.43,3,3,0,0,0,1.76.48,6.08,6.08,0,0,0,1.85-.25,7.82,7.82,0,0,0,1.55-.65v2.32a6,6,0,0,1-1.54.61A8.76,8.76,0,0,1,764.07,621.56Z" transform="translate(-466.14 -561.53)"/><path class="cls-2" d="M773.05,603.64v9.82c0,.46-.06.89-.09,1.29h0c.2-.27.43-.58.71-.93s.51-.63.79-.93l3.84-4.14h3.07l-5,5.41,5.37,7.17h-3.14l-4-5.52-1.5,1.29v4.23h-2.68V603.64Z" transform="translate(-466.14 -561.53)"/><path class="cls-2" d="M790.38,608.51a4.7,4.7,0,0,1,3.31,1.1,4.57,4.57,0,0,1,1.19,3.51v8.21h-2.67v-7.7a3.3,3.3,0,0,0-.61-2.19,2.26,2.26,0,0,0-1.86-.74,2.75,2.75,0,0,0-2.54,1.13,6.12,6.12,0,0,0-.71,3.25v6.25h-2.68V608.75h2.09l.37,1.7h.15a3.44,3.44,0,0,1,1-1.08,4.24,4.24,0,0,1,1.36-.64A5.42,5.42,0,0,1,790.38,608.51Z" transform="translate(-466.14 -561.53)"/><path class="cls-2" d="M803.48,608.51a5.68,5.68,0,0,1,2.88.69,4.67,4.67,0,0,1,1.86,2,6.69,6.69,0,0,1,.64,3v1.43h-8.4a4.15,4.15,0,0,0,1,2.82,3.43,3.43,0,0,0,2.63,1,8.81,8.81,0,0,0,2.17-.24,11.49,11.49,0,0,0,2-.68v2.17a8.66,8.66,0,0,1-1.92.64,11.45,11.45,0,0,1-2.34.21,7.13,7.13,0,0,1-3.27-.72,5,5,0,0,1-2.19-2.15,7.44,7.44,0,0,1-.78-3.56,8.11,8.11,0,0,1,.71-3.6,5.25,5.25,0,0,1,2-2.25A5.79,5.79,0,0,1,803.48,608.51Zm0,2a2.69,2.69,0,0,0-2,.82,3.85,3.85,0,0,0-.92,2.4h5.72a4.54,4.54,0,0,0-.31-1.67,2.46,2.46,0,0,0-.91-1.13,2.59,2.59,0,0,0-1.58-.41Z" transform="translate(-466.14 -561.53)"/><path class="cls-2" d="M822.08,621.32l-1.59-5.84c-.07-.29-.17-.64-.27-1.05s-.21-.83-.32-1.27-.2-.84-.29-1.21-.15-.67-.2-.87h-.09l-.18.87c-.09.37-.18.78-.29,1.22s-.21.87-.31,1.28-.19.77-.28,1.06l-1.67,5.81h-2.93l-3.52-12.58h2.7l1.64,6.25c.1.42.21.88.31,1.37s.19,1,.27,1.41.13.82.17,1.11h.09a3.23,3.23,0,0,1,.12-.78c.06-.32.12-.65.19-1s.13-.67.2-1a7.6,7.6,0,0,1,.19-.74l1.94-6.65h2.92l1.85,6.65c.08.28.17.65.27,1.08s.19.87.27,1.31a10,10,0,0,1,.15,1.08h.09a7.86,7.86,0,0,1,.17-1.05c.08-.45.17-.91.28-1.42s.21-1,.33-1.4l1.67-6.25h2.66l-3.55,12.58Z" transform="translate(-466.14 -561.53)"/><path class="cls-2" d="M839.41,617.74a3.61,3.61,0,0,1-.6,2.09,3.66,3.66,0,0,1-1.76,1.29,8.2,8.2,0,0,1-2.82.44,11.54,11.54,0,0,1-2.27-.19,8.19,8.19,0,0,1-1.8-.57v-2.31a12.93,12.93,0,0,0,2,.73,8.41,8.41,0,0,0,2.12.3,3.36,3.36,0,0,0,1.89-.41,1.31,1.31,0,0,0,.58-1.11,1.14,1.14,0,0,0-.23-.73,2.57,2.57,0,0,0-.86-.67,17.25,17.25,0,0,0-1.86-.83,14.93,14.93,0,0,1-2-1,3.42,3.42,0,0,1-1.24-1.15,3.2,3.2,0,0,1-.42-1.73,2.85,2.85,0,0,1,1.33-2.55,6.27,6.27,0,0,1,3.51-.87,9.69,9.69,0,0,1,4.19.91l-.85,2a17.39,17.39,0,0,0-1.71-.61,6.41,6.41,0,0,0-1.74-.24,3,3,0,0,0-1.58.32,1,1,0,0,0-.54.9,1.1,1.1,0,0,0,.27.75,2.76,2.76,0,0,0,.9.61c.43.2,1,.46,1.79.76a14.37,14.37,0,0,1,2,.9A3.71,3.71,0,0,1,839,616,3.2,3.2,0,0,1,839.41,617.74Z" transform="translate(-466.14 -561.53)"/><path class="cls-2" d="M841.91,619.92a1.58,1.58,0,0,1,.49-1.31,2,2,0,0,1,2.37,0,1.54,1.54,0,0,1,.5,1.31,1.57,1.57,0,0,1-.5,1.31,1.91,1.91,0,0,1-2.37,0A1.58,1.58,0,0,1,841.91,619.92Z" transform="translate(-466.14 -561.53)"/><path class="cls-2" d="M853.29,621.56a6.5,6.5,0,0,1-3.09-.69,4.61,4.61,0,0,1-2-2.12,8.35,8.35,0,0,1-.71-3.65,8,8,0,0,1,.77-3.75,5,5,0,0,1,2.14-2.15,6.87,6.87,0,0,1,3.15-.69,8.46,8.46,0,0,1,2,.22,7.31,7.31,0,0,1,1.55.54l-.79,2.14a14.74,14.74,0,0,0-1.42-.47,5.15,5.15,0,0,0-1.4-.2,3.15,3.15,0,0,0-1.84.49,2.94,2.94,0,0,0-1.09,1.46,6.94,6.94,0,0,0-.36,2.39,6.41,6.41,0,0,0,.37,2.34,2.9,2.9,0,0,0,1.08,1.43,3,3,0,0,0,1.76.48,6.08,6.08,0,0,0,1.85-.25,7.82,7.82,0,0,0,1.55-.65v2.32a6,6,0,0,1-1.54.61A8.76,8.76,0,0,1,853.29,621.56Z" transform="translate(-466.14 -561.53)"/><path class="cls-2" d="M870.56,615a8.77,8.77,0,0,1-.41,2.79,5.5,5.5,0,0,1-1.19,2.05,5.2,5.2,0,0,1-1.89,1.28,7.06,7.06,0,0,1-2.49.43,6.42,6.42,0,0,1-2.37-.43,5.37,5.37,0,0,1-1.88-1.28,5.85,5.85,0,0,1-1.22-2.05,8.52,8.52,0,0,1-.43-2.79,8,8,0,0,1,.72-3.53,5.08,5.08,0,0,1,2.07-2.21,6.34,6.34,0,0,1,3.19-.76,6.11,6.11,0,0,1,3.07.76,5.24,5.24,0,0,1,2.08,2.22A7.52,7.52,0,0,1,870.56,615Zm-9.13,0a7.19,7.19,0,0,0,.34,2.35,3,3,0,0,0,1,1.5,3.42,3.42,0,0,0,3.62,0,3,3,0,0,0,1-1.5,6.94,6.94,0,0,0,.34-2.35,6.77,6.77,0,0,0-.34-2.32,2.88,2.88,0,0,0-1-1.47,3,3,0,0,0-1.81-.51,2.75,2.75,0,0,0-2.43,1.12A5.61,5.61,0,0,0,861.43,615Z" transform="translate(-466.14 -561.53)"/><path class="cls-2" d="M887.7,608.51a4.25,4.25,0,0,1,3.19,1.09,4.88,4.88,0,0,1,1.08,3.5v8.23h-2.68v-7.74a3.62,3.62,0,0,0-.55-2.17,2,2,0,0,0-1.7-.72,2.61,2.61,0,0,0-2.29,1,5.25,5.25,0,0,0-.7,2.95v6.67h-2.67v-7.74a4.88,4.88,0,0,0-.24-1.61,1.83,1.83,0,0,0-.75-1,2.24,2.24,0,0,0-1.26-.32,2.8,2.8,0,0,0-1.75.5,2.76,2.76,0,0,0-.94,1.46,8.74,8.74,0,0,0-.28,2.39v6.28h-2.69V608.75h2.09l.38,1.69h.15a3.33,3.33,0,0,1,1-1.08,3.85,3.85,0,0,1,1.28-.64,5.68,5.68,0,0,1,3.84.28,3.2,3.2,0,0,1,1.44,1.51h.21A3.58,3.58,0,0,1,885.5,609,5.23,5.23,0,0,1,887.7,608.51Z" transform="translate(-466.14 -561.53)"/><path class="cls-2" d="M924.22,621.33H913v-2l4.31-4.37c.83-.84,1.52-1.58,2.05-2.2a8,8,0,0,0,1.21-1.75,4.19,4.19,0,0,0,.4-1.81,2.28,2.28,0,0,0-.7-1.81,2.65,2.65,0,0,0-1.83-.62,4.62,4.62,0,0,0-2,.43,8.93,8.93,0,0,0-1.89,1.21l-1.47-1.78a13.77,13.77,0,0,1,1.47-1.07,8.22,8.22,0,0,1,1.77-.78,7.71,7.71,0,0,1,2.24-.3,6.12,6.12,0,0,1,2.73.57,4.12,4.12,0,0,1,1.76,1.57,4.3,4.3,0,0,1,.62,2.32,5.73,5.73,0,0,1-.53,2.48,9.57,9.57,0,0,1-1.52,2.25c-.66.74-1.45,1.54-2.36,2.41l-2.87,2.79V619h7.86Z" transform="translate(-466.14 -561.53)"/><path class="cls-2" d="M937.18,613a18.89,18.89,0,0,1-.31,3.6,8.1,8.1,0,0,1-1,2.69,4.55,4.55,0,0,1-1.75,1.68,5.4,5.4,0,0,1-2.62.58,4.84,4.84,0,0,1-3.17-1,6,6,0,0,1-1.86-2.93,15.55,15.55,0,0,1-.6-4.6,16.61,16.61,0,0,1,.55-4.6,5.73,5.73,0,0,1,1.79-2.94,5,5,0,0,1,3.29-1,4.88,4.88,0,0,1,3.19,1,6,6,0,0,1,1.87,2.93A15.84,15.84,0,0,1,937.18,613Zm-8.59,0a18,18,0,0,0,.28,3.51,4.21,4.21,0,0,0,.93,2.11,2.22,2.22,0,0,0,1.72.7,2.25,2.25,0,0,0,1.73-.69,4.47,4.47,0,0,0,.93-2.11,18.05,18.05,0,0,0,.29-3.52,17.75,17.75,0,0,0-.29-3.49,4.35,4.35,0,0,0-.92-2.12,2.47,2.47,0,0,0-3.47,0,4.35,4.35,0,0,0-.92,2.12,17.74,17.74,0,0,0-.28,3.49Z" transform="translate(-466.14 -561.53)"/><path class="cls-2" d="M950,621.33H938.75v-2l4.31-4.37c.83-.84,1.52-1.58,2.06-2.2a8,8,0,0,0,1.2-1.75,4,4,0,0,0,.4-1.81,2.3,2.3,0,0,0-.69-1.81,2.65,2.65,0,0,0-1.83-.62,4.62,4.62,0,0,0-2,.43,8.93,8.93,0,0,0-1.89,1.21l-1.47-1.78a15.31,15.31,0,0,1,1.47-1.07,8.22,8.22,0,0,1,1.77-.78,7.71,7.71,0,0,1,2.24-.3,6.12,6.12,0,0,1,2.73.57,4.2,4.2,0,0,1,1.77,1.57,4.3,4.3,0,0,1,.62,2.32,5.6,5.6,0,0,1-.54,2.48,9.57,9.57,0,0,1-1.52,2.25c-.66.74-1.45,1.54-2.35,2.41l-2.88,2.79V619H950Z" transform="translate(-466.14 -561.53)"/><path class="cls-2" d="M960.52,604.71l-6.2,16.62h-2.51L958,604.71Z" transform="translate(-466.14 -561.53)"/><path class="cls-2" d="M973.29,621.33H962v-2l4.31-4.37c.84-.84,1.52-1.58,2.06-2.2a7.55,7.55,0,0,0,1.2-1.75,4,4,0,0,0,.4-1.81,2.3,2.3,0,0,0-.69-1.81,2.65,2.65,0,0,0-1.83-.62,4.62,4.62,0,0,0-2,.43,8.93,8.93,0,0,0-1.89,1.21l-1.47-1.78a12.94,12.94,0,0,1,1.48-1.07,7.41,7.41,0,0,1,4-1.08,6,6,0,0,1,2.73.57,4.08,4.08,0,0,1,1.77,1.57,4.3,4.3,0,0,1,.62,2.32,5.6,5.6,0,0,1-.54,2.48,9,9,0,0,1-1.52,2.25c-.66.74-1.44,1.54-2.35,2.41l-2.88,2.79V619h7.87Z" transform="translate(-466.14 -561.53)"/><path class="cls-2" d="M980.94,610.94a6.59,6.59,0,0,1,2.83.58,4.3,4.3,0,0,1,1.9,1.68,5,5,0,0,1,.68,2.71,5.93,5.93,0,0,1-.73,3,5,5,0,0,1-2.18,2,8.25,8.25,0,0,1-3.5.68,13.23,13.23,0,0,1-2.43-.22,6.41,6.41,0,0,1-1.94-.68v-2.42a8,8,0,0,0,2,.78,9.85,9.85,0,0,0,2.29.3,5.27,5.27,0,0,0,2-.34,2.71,2.71,0,0,0,1.29-1,3.37,3.37,0,0,0,.45-1.78,2.7,2.7,0,0,0-.93-2.21,4.42,4.42,0,0,0-2.86-.77,8.75,8.75,0,0,0-1.44.12c-.52.08-.94.16-1.28.24l-1.18-.68.64-8.14h8.64v2.36H978.9l-.36,4.13c.27-.06.6-.12,1-.17A8.18,8.18,0,0,1,980.94,610.94Z" transform="translate(-466.14 -561.53)"/><path class="cls-2" d="M996.33,604.71l-6.2,16.62h-2.51l6.19-16.62Z" transform="translate(-466.14 -561.53)"/><path class="cls-2" d="M1008.56,613a18.89,18.89,0,0,1-.31,3.6,8.56,8.56,0,0,1-1,2.69,4.55,4.55,0,0,1-1.75,1.68,5.4,5.4,0,0,1-2.62.58,4.84,4.84,0,0,1-3.17-1,6,6,0,0,1-1.86-2.93,15.52,15.52,0,0,1-.61-4.6,16.62,16.62,0,0,1,.56-4.6,5.73,5.73,0,0,1,1.79-2.94,5,5,0,0,1,3.29-1,4.88,4.88,0,0,1,3.19,1,6,6,0,0,1,1.87,2.93A15.84,15.84,0,0,1,1008.56,613Zm-8.59,0a18,18,0,0,0,.28,3.51,4.23,4.23,0,0,0,.92,2.11,2.49,2.49,0,0,0,3.46,0,4.47,4.47,0,0,0,.93-2.11,18.05,18.05,0,0,0,.29-3.52,17.75,17.75,0,0,0-.29-3.49,4.64,4.64,0,0,0-.92-2.12,2.47,2.47,0,0,0-3.47,0,4.35,4.35,0,0,0-.92,2.12,17.88,17.88,0,0,0-.25,3.5Z" transform="translate(-466.14 -561.53)"/><path class="cls-2" d="M1017.88,621.33h-2.69V607.52a6,6,0,0,1-.57.56c-.23.21-.48.42-.74.64l-1.9,1.53-1.34-1.7,4.93-3.87h2.23Z" transform="translate(-466.14 -561.53)"/><path class="cls-2" d="M1041,619.4a4.78,4.78,0,0,0,1-.1,7.43,7.43,0,0,0,.93-.23v2a5.8,5.8,0,0,1-1.15.33,7.94,7.94,0,0,1-1.46.14,4.9,4.9,0,0,1-1.93-.36A2.83,2.83,0,0,1,1037,620a4.93,4.93,0,0,1-.5-2.42v-6.76h-1.71V609.6l1.84-1,.87-2.7h1.68v2.8h3.61v2h-3.61v6.72a1.9,1.9,0,0,0,.48,1.42A1.73,1.73,0,0,0,1041,619.4Z" transform="translate(-466.14 -561.53)"/><path class="cls-2" d="M1051.8,608.51h.7l.65.09-.25,2.52a3.84,3.84,0,0,0-.59-.11h-.62a4,4,0,0,0-1.36.24,3.27,3.27,0,0,0-1.94,1.88,4.6,4.6,0,0,0-.28,1.64v6.57h-2.69V608.75h2.1l.36,2.21h.13a5.55,5.55,0,0,1,.93-1.22,4.78,4.78,0,0,1,1.28-.9A3.77,3.77,0,0,1,1051.8,608.51Z" transform="translate(-466.14 -561.53)"/><path class="cls-2" d="M1060.17,608.51a5.38,5.38,0,0,1,3.61,1.06,4.13,4.13,0,0,1,1.22,3.29v8.47h-1.9l-.52-1.78h-.09a7,7,0,0,1-1.11,1.13,3.56,3.56,0,0,1-1.3.66,6.51,6.51,0,0,1-1.81.22,4.61,4.61,0,0,1-2-.42,3.22,3.22,0,0,1-1.4-1.26,4.27,4.27,0,0,1-.5-2.16,3.28,3.28,0,0,1,1.45-2.92,8.29,8.29,0,0,1,4.38-1.08l2.17-.08V613a2.06,2.06,0,0,0-2.31-2.41,6.29,6.29,0,0,0-1.83.27,13.26,13.26,0,0,0-1.72.66l-.88-1.89a9.93,9.93,0,0,1,2.11-.79A9.07,9.07,0,0,1,1060.17,608.51Zm2.17,6.81-1.61.07a5.11,5.11,0,0,0-2.81.67,2,2,0,0,0-.81,1.68,1.63,1.63,0,0,0,.56,1.36,2.38,2.38,0,0,0,1.46.42,3.38,3.38,0,0,0,2.3-.79,2.87,2.87,0,0,0,.91-2.31Z" transform="translate(-466.14 -561.53)"/><path class="cls-2" d="M1071.41,621.33l-4.78-12.58h2.83l2.59,7.39a13.89,13.89,0,0,1,.45,1.52,12.51,12.51,0,0,1,.29,1.38h.09a9.73,9.73,0,0,1,.31-1.4c.15-.54.3-1,.46-1.5l2.59-7.39h2.82l-4.78,12.58Z" transform="translate(-466.14 -561.53)"/><path class="cls-2" d="M1085.75,608.51a5.68,5.68,0,0,1,2.88.69,4.73,4.73,0,0,1,1.86,2,6.69,6.69,0,0,1,.64,3v1.43h-8.4a4.06,4.06,0,0,0,1,2.82,3.43,3.43,0,0,0,2.63,1,8.73,8.73,0,0,0,2.16-.24,10.71,10.71,0,0,0,2-.68v2.17a8.66,8.66,0,0,1-1.92.64,11.45,11.45,0,0,1-2.34.21,7.13,7.13,0,0,1-3.27-.72,5,5,0,0,1-2.19-2.15,7.44,7.44,0,0,1-.78-3.56,8.11,8.11,0,0,1,.71-3.6,5.25,5.25,0,0,1,2-2.25A5.82,5.82,0,0,1,1085.75,608.51Zm0,2a2.69,2.69,0,0,0-2,.82,3.85,3.85,0,0,0-.92,2.4h5.72a4.54,4.54,0,0,0-.31-1.67,2.46,2.46,0,0,0-.91-1.13,2.59,2.59,0,0,0-1.58-.41Z" transform="translate(-466.14 -561.53)"/><path class="cls-2" d="M1096.71,621.33H1094V603.64h2.69Z" transform="translate(-466.14 -561.53)"/><path class="cls-3" d="M1154.25,604.12h0a1.94,1.94,0,0,1,1.94,1.93h0a1.94,1.94,0,0,1-1.94,1.94h0a1.94,1.94,0,0,1-1.94-1.94h0A1.94,1.94,0,0,1,1154.25,604.12Z" transform="translate(-466.14 -561.53)"/><path class="cls-3" d="M1154.25,611.53h0a1.94,1.94,0,0,1,1.94,1.94h0a1.94,1.94,0,0,1-1.94,1.93h0a1.94,1.94,0,0,1-1.94-1.93h0A1.94,1.94,0,0,1,1154.25,611.53Z" transform="translate(-466.14 -561.53)"/><path class="cls-3" d="M1154.25,619h0a1.94,1.94,0,0,1,1.94,1.94h0a1.94,1.94,0,0,1-1.94,1.93h0a1.94,1.94,0,0,1-1.94-1.93h0A1.94,1.94,0,0,1,1154.25,619Z" transform="translate(-466.14 -561.53)"/><path d="M496,561.53h0a29.84,29.84,0,0,1,29.83,29.84h0A29.84,29.84,0,0,1,496,621.2h0a29.84,29.84,0,0,1-29.84-29.84h0A29.84,29.84,0,0,1,496,561.53Z" transform="translate(-466.14 -561.53)"/><path class="cls-4" d="M486.33,601.16a6.61,6.61,0,0,0,1.22-3.31,30.18,30.18,0,0,0,.11-3.56v-.12h-1.09a4.57,4.57,0,0,0-.83.05A2,2,0,0,0,484,595.8a2.41,2.41,0,0,0,0,1h-.86a5.43,5.43,0,0,1-.56-3.79,4.71,4.71,0,0,1,.88-1.88,4.87,4.87,0,0,1,1.64-1.28,9.17,9.17,0,0,1,2.58-.67V588a7.91,7.91,0,0,1,.1-1.46,4,4,0,0,1,.53-1.36,6.62,6.62,0,0,1,2.17-1.94L494,581h-6.29a3.65,3.65,0,0,1-1.23-.16,2.55,2.55,0,0,1-1-.71,3.88,3.88,0,0,1-.78-1.54,6.59,6.59,0,0,1-.23-1.71,12.48,12.48,0,0,1,.43-3.44h1a2.37,2.37,0,0,0,1.25,1.68,3.16,3.16,0,0,0,1,.32,7.53,7.53,0,0,0,1.06,0h12.32a14.54,14.54,0,0,1,5.55.82,10.24,10.24,0,0,1,4.33,3.51A17.55,17.55,0,0,1,514.3,589a28,28,0,0,1-1.09,9.29,28.4,28.4,0,0,1-1.85,4.79l-11.28,6.2a13.36,13.36,0,0,0-16.82,1H482a16,16,0,0,1,9.31-7.75,30,30,0,0,0,2.3-2.48,5.77,5.77,0,0,0,1.51-4.32v-8.12a12.05,12.05,0,0,1,.55-4.22,7.23,7.23,0,0,1,1.48-2.41h-1.47a6.69,6.69,0,0,0-1.74,2.18,7.19,7.19,0,0,0-.42,2.83v8.12a10.49,10.49,0,0,1-.24,2.62,7.5,7.5,0,0,1-1.11,2.38,11.7,11.7,0,0,1-6.8,4.41l-.42-1.08A4.82,4.82,0,0,0,486.33,601.16Zm12.38-20a5.76,5.76,0,0,0-1.88,2.6,11.07,11.07,0,0,0-.48,3.79v8.12a7,7,0,0,1-1.79,5.12c-.33.4-.67.78-1,1.16a16,16,0,0,1,5.16.07ZM500,590l7.45-3.76a9.12,9.12,0,0,0-1.7-3.08,6.59,6.59,0,0,0-2.73-1.87,9.22,9.22,0,0,0-3-.41Zm0,4.91,8.19-4.15v-.5a18.35,18.35,0,0,0-.37-2.75l-7.82,4Zm5.68,10.11a35.75,35.75,0,0,0,2-7.25,34.64,34.64,0,0,0,.5-5.57L500,596.43v5.9a15.89,15.89,0,0,1,5.68,2.76Z" transform="translate(-466.14 -561.53)"/></g></svg>