<svg id="Layer_1" data-name="Layer 1" xmlns="http://www.w3.org/2000/svg" xmlns:xlink="http://www.w3.org/1999/xlink" viewBox="0 0 3456 157.37"><defs><style>.cls-1{fill:#1f2020;}.cls-2{fill:#3c3c3c;}.cls-3{fill:#282828;}.cls-4{fill:#ec6055;}.cls-5{fill:#65cb58;}.cls-6{fill:#f5bd4f;}.cls-10,.cls-12,.cls-13,.cls-14,.cls-16,.cls-7,.cls-9{fill:none;}.cls-10,.cls-11,.cls-13,.cls-14,.cls-16,.cls-7,.cls-8,.cls-9{stroke:#fff;}.cls-10,.cls-11,.cls-12,.cls-13,.cls-14,.cls-7,.cls-8,.cls-9{stroke-miterlimit:10;}.cls-7{stroke-width:2.5px;}.cls-11,.cls-17,.cls-19,.cls-20,.cls-8{fill:#fff;}.cls-8{stroke-width:0.67px;}.cls-9{stroke-width:1.82px;}.cls-10,.cls-11{stroke-width:2.13px;}.cls-12{stroke:#cbcbcb;stroke-width:2px;}.cls-13{stroke-width:1.52px;}.cls-14{stroke-width:1.32px;}.cls-15{fill:#478e99;}.cls-16{stroke-miterlimit:10;stroke-width:0.54px;}.cls-18,.cls-19,.cls-20{isolation:isolate;}.cls-19,.cls-20{font-size:22.68px;font-family:Roboto-Regular, Roboto;}.cls-20{letter-spacing:-0.01em;}.cls-21{fill:#9e50b5;}.cls-22{fill:url(#linear-gradient);}</style><linearGradient id="linear-gradient" x1="489.91" y1="145.34" x2="557.99" y2="145.34" gradientTransform="matrix(1, 0, 0, -1, 0, 180.95)" gradientUnits="userSpaceOnUse"><stop offset="0" stop-color="#3c3c3c" stop-opacity="0"/><stop offset="0.07" stop-color="#3c3c3c" stop-opacity="0.18"/><stop offset="0.25" stop-color="#3c3c3c" stop-opacity="0.54"/><stop offset="0.44" stop-color="#3c3c3c" stop-opacity="0.8"/><stop offset="0.66" stop-color="#3c3c3c" stop-opacity="0.95"/><stop offset="0.98" stop-color="#3c3c3c"/></linearGradient></defs><g id="chrome_browser" data-name="chrome browser"><rect class="cls-1" width="3456" height="96.36"/><path class="cls-2" d="M11,88.66H3445a11,11,0,0,1,11,11v76.76H0V99.63A11,11,0,0,1,11,88.66Z" transform="translate(0 -19.05)"/><rect class="cls-3" x="227.2" y="79.87" width="3082.03" height="67.21" rx="33.6"/><path class="cls-4" d="M38.07,39h0A11.22,11.22,0,0,1,49.28,50.21h0A11.21,11.21,0,0,1,38.06,61.42h0A11.21,11.21,0,0,1,26.85,50.21h0A11.22,11.22,0,0,1,38.07,39Z" transform="translate(0 -19.05)"/><path class="cls-5" d="M112.12,39h0a11.21,11.21,0,0,1,11.21,11.22h0a11.21,11.21,0,0,1-11.21,11.21h0A11.21,11.21,0,0,1,100.9,50.21h0A11.22,11.22,0,0,1,112.12,39Z" transform="translate(0 -19.05)"/><path class="cls-6" d="M75.1,39h0A11.21,11.21,0,0,1,86.31,50.21h0A11.21,11.21,0,0,1,75.1,61.42h0A11.21,11.21,0,0,1,63.88,50.21h0A11.22,11.22,0,0,1,75.1,39Z" transform="translate(0 -19.05)"/><path class="cls-7" d="M44,141.62l-10.11-10.1a.11.11,0,0,1,0-.13L44,121.29" transform="translate(0 -19.05)"/><line class="cls-7" x1="33.87" y1="112.4" x2="53.93" y2="112.4"/><path class="cls-8" d="M182.57,140.67a10.13,10.13,0,1,1,3.83-15.53v-3.83h1.07v5.12c0,.56-.17.73-.74.73h-5.12V126.1h4.07a8.94,8.94,0,1,0,1.68,3.81l1-.16A10,10,0,0,1,182.57,140.67Z" transform="translate(0 -19.05)"/><path class="cls-7" d="M110.79,121.29l10.1,10.1a.09.09,0,0,1,0,.13h0l-10.1,10.1" transform="translate(0 -19.05)"/><line class="cls-7" x1="120.96" y1="112.4" x2="100.9" y2="112.4"/><path class="cls-2" d="M258.56,109.72h0a22,22,0,0,1,22,22h0a22,22,0,0,1-22,22h0a22,22,0,0,1-22-22h0A22,22,0,0,1,258.56,109.72Z" transform="translate(0 -19.05)"/><path class="cls-9" d="M252.59,121.16h0a3.73,3.73,0,0,1,3.73,3.73h0a3.73,3.73,0,0,1-3.73,3.72h0a3.73,3.73,0,0,1-3.73-3.72h0A3.73,3.73,0,0,1,252.59,121.16Z" transform="translate(0 -19.05)"/><line class="cls-9" x1="258.44" y1="105.84" x2="267.6" y2="105.84"/><path class="cls-9" d="M264.08,139.48h0a3.73,3.73,0,0,1-3.73-3.73h0a3.73,3.73,0,0,1,3.73-3.73h0a3.73,3.73,0,0,1,3.72,3.73h0A3.73,3.73,0,0,1,264.08,139.48Z" transform="translate(0 -19.05)"/><line class="cls-9" x1="258.23" y1="116.7" x2="249.07" y2="116.7"/><rect class="cls-2" x="3388.75" y="8.45" width="49.79" height="49.79" rx="15.25"/><path class="cls-10" d="M3420.61,48.91l-6.8,6.8a.25.25,0,0,1-.34,0l-6.8-6.8" transform="translate(0 -19.05)"/><rect class="cls-11" x="3412.32" y="101.38" width="2.65" height="2.65" rx="1.32"/><rect class="cls-11" x="3412.32" y="111.21" width="2.65" height="2.65" rx="1.32"/><rect class="cls-11" x="3412.32" y="121.04" width="2.65" height="2.65" rx="1.32"/><polygon class="cls-12" points="3267.65 99.47 3271.6 107.45 3280.43 108.73 3274.04 114.95 3275.55 123.73 3267.65 119.59 3259.75 123.73 3261.26 114.95 3254.87 108.73 3263.7 107.45 3267.65 99.47"/><path class="cls-2" d="M173.07,25.18H589.31A13.77,13.77,0,0,1,603.08,39V88.66H159.29V39A13.77,13.77,0,0,1,173,25.18Z" transform="translate(0 -19.05)"/><path class="cls-2" d="M145.52,88.66h13.77V74.89a13.76,13.76,0,0,1-13.75,13.77Z" transform="translate(0 -19.05)"/><path class="cls-2" d="M603.08,74.89V88.66h13.77a13.78,13.78,0,0,1-13.77-13.77Z" transform="translate(0 -19.05)"/><line class="cls-13" x1="571.82" y1="39.2" x2="560.35" y2="27.73"/><line class="cls-13" x1="571.82" y1="27.73" x2="560.35" y2="39.2"/><line class="cls-14" x1="628.54" y1="40.52" x2="628.54" y2="26.4"/><line class="cls-14" x1="635.6" y1="33.46" x2="621.48" y2="33.46"/><rect class="cls-15" x="173.03" y="20.8" width="25.25" height="25.25" rx="12.62"/><rect class="cls-16" x="182.62" y="55.12" width="5.83" height="5.83" rx="2.91" transform="translate(13.31 129.14) rotate(-45)"/><rect class="cls-16" x="188.21" y="49.82" width="5.83" height="5.83" rx="2.91" transform="translate(18.69 131.54) rotate(-45)"/><path class="cls-17" d="M183.48,56a3,3,0,0,1,2.32-1.09,10.17,10.17,0,0,1,2.58.24,16.09,16.09,0,0,0,2.48.35,3.48,3.48,0,0,0,2.33-.68,3,3,0,0,1-2.32,1.09,10.25,10.25,0,0,1-2.59-.24,18.59,18.59,0,0,0-2.47-.35A3.48,3.48,0,0,0,183.48,56Z" transform="translate(0 -19.05)"/><path class="cls-17" d="M183.48,60.09a3,3,0,0,1-1.09-2.32,10.17,10.17,0,0,1,.24-2.58,19,19,0,0,0,.35-2.48,3.48,3.48,0,0,0-.68-2.33,3,3,0,0,1,1.09,2.32,10.17,10.17,0,0,1-.24,2.58,16.09,16.09,0,0,0-.35,2.48A3.43,3.43,0,0,0,183.48,60.09Z" transform="translate(0 -19.05)"/><rect class="cls-16" x="177.28" y="49.3" width="5.83" height="5.83" rx="2.91" transform="translate(15.86 123.66) rotate(-45)"/><rect class="cls-16" x="182.85" y="44" width="5.83" height="5.83" rx="2.91" transform="translate(21.23 126.05) rotate(-45)"/><rect class="cls-16" x="177.25" y="49.29" width="5.83" height="5.83" rx="2.91" transform="translate(15.85 123.64) rotate(-45)"/><path class="cls-17" d="M187.83,49a3,3,0,0,1-2.32,1.09,10.17,10.17,0,0,1-2.58-.24,19,19,0,0,0-2.48-.35,3.48,3.48,0,0,0-2.33.68,3,3,0,0,1,2.32-1.09,10.17,10.17,0,0,1,2.58.24,16.09,16.09,0,0,0,2.48.35A3.43,3.43,0,0,0,187.83,49Z" transform="translate(0 -19.05)"/><path class="cls-17" d="M187.83,44.85a3,3,0,0,1,1.09,2.32,10.25,10.25,0,0,1-.24,2.59,15.8,15.8,0,0,0-.35,2.47,3.43,3.43,0,0,0,.68,2.33,3.06,3.06,0,0,1-1.1-2.32,11.17,11.17,0,0,1,.24-2.58,17.44,17.44,0,0,0,.36-2.48A3.48,3.48,0,0,0,187.83,44.85Z" transform="translate(0 -19.05)"/><rect class="cls-16" x="188.21" y="49.81" width="5.83" height="5.83" rx="2.91" transform="translate(18.7 131.54) rotate(-45)"/><g class="cls-18"><text class="cls-19" transform="translate(213.36 40.09)">The Cutting </text><text class="cls-20" transform="translate(335.44 40.09)">E</text><text class="cls-19" transform="translate(348.12 40.09)">dge</text></g><path class="cls-21" d="M3350.45,113h0A18.56,18.56,0,0,1,3369,131.59h0a18.56,18.56,0,0,1-18.55,18.55h0a18.56,18.56,0,0,1-18.55-18.55h0A18.56,18.56,0,0,1,3350.45,113Z" transform="translate(0 -19.05)"/><path class="cls-17" d="M3356,134.23a5.3,5.3,0,0,1-1.7,3.55,5.53,5.53,0,0,1-3.8,1.25,5.09,5.09,0,0,1-4.11-1.84,7.36,7.36,0,0,1-1.55-4.93v-1.39a8.21,8.21,0,0,1,.72-3.55,5.28,5.28,0,0,1,2-2.36,5.67,5.67,0,0,1,3.06-.82,5.24,5.24,0,0,1,3.71,1.29A5.45,5.45,0,0,1,3356,129h-1.92a4.23,4.23,0,0,0-1.08-2.52,3.3,3.3,0,0,0-2.33-.78,3.4,3.4,0,0,0-2.87,1.36,6.17,6.17,0,0,0-1,3.85v1.41a6.3,6.3,0,0,0,1,3.75,3.17,3.17,0,0,0,2.75,1.4,3.71,3.71,0,0,0,2.45-.72,4,4,0,0,0,1.13-2.52Z" transform="translate(0 -19.05)"/><rect class="cls-22" x="489.91" y="9.72" width="68.08" height="51.78"/><path class="cls-21" d="M3350.45,112.91h0a18.67,18.67,0,0,1,18.67,18.68h0a18.67,18.67,0,0,1-18.67,18.67h0a18.67,18.67,0,0,1-18.68-18.67h0A18.68,18.68,0,0,1,3350.45,112.91Z" transform="translate(0 -19.05)"/><path class="cls-17" d="M3355.87,135.62a4.41,4.41,0,0,1-.76,2.61,4.88,4.88,0,0,1-2.13,1.65,8.64,8.64,0,0,1-3.22.56c-.62,0-1.24,0-1.85-.09a14.44,14.44,0,0,1-1.6-.27,7.17,7.17,0,0,1-1.28-.44v-1.92a16.26,16.26,0,0,0,2.15.68,10.89,10.89,0,0,0,2.67.31,6.06,6.06,0,0,0,2.19-.35,2.72,2.72,0,0,0,1.44-4.05,3.49,3.49,0,0,0-1.29-1.09,18.64,18.64,0,0,0-2.46-1,12.29,12.29,0,0,1-1.93-.85,5.86,5.86,0,0,1-1.41-1.06,4,4,0,0,1-.85-1.36,5.11,5.11,0,0,1-.29-1.78,4,4,0,0,1,.7-2.37,4.45,4.45,0,0,1,2-1.5,7.11,7.11,0,0,1,2.85-.53,12.22,12.22,0,0,1,2.56.26,10.81,10.81,0,0,1,2.15.7l-.63,1.72a13,13,0,0,0-2-.65,9.17,9.17,0,0,0-2.15-.26,4.79,4.79,0,0,0-1.87.32,2.62,2.62,0,0,0-1.16.92,2.46,2.46,0,0,0-.4,1.4,2.77,2.77,0,0,0,.38,1.51,3.4,3.4,0,0,0,1.23,1.06,16.5,16.5,0,0,0,2.23,1,15.35,15.35,0,0,1,2.58,1.17,4.4,4.4,0,0,1,1.61,1.51A4.19,4.19,0,0,1,3355.87,135.62Z" transform="translate(0 -19.05)"/><path d="M185.77,38.7h0a14.08,14.08,0,0,1,14.08,14.08h0a14.08,14.08,0,0,1-14.08,14.08h0a14.08,14.08,0,0,1-14.08-14.08h0A14.08,14.08,0,0,1,185.77,38.7Z" transform="translate(0 -19.05)"/><path class="cls-17" d="M190.06,43.65a10.74,10.74,0,0,1,2.23.57.56.56,0,0,1,.33.21,1.4,1.4,0,0,1,.1.45l.38,4s0,.09-.15.11a.16.16,0,0,1-.2-.09,8,8,0,0,0-2.3-3.61A5.43,5.43,0,0,0,186.84,44a6,6,0,0,0-3.5,1.06,7,7,0,0,0-2.42,3,12.38,12.38,0,0,0,0,9.23,7.16,7.16,0,0,0,2.51,3.09,6.39,6.39,0,0,0,3.67,1.08,5.15,5.15,0,0,0,3.34-1.08A10.23,10.23,0,0,0,193,56.87c0-.06.08-.08.17-.06s.15.06.15.12l-.44,3.57a1.35,1.35,0,0,1-.11.45.69.69,0,0,1-.32.21,15.57,15.57,0,0,1-5.36,1A12.65,12.65,0,0,1,181.61,61a9.31,9.31,0,0,1-3.82-3.27,9,9,0,0,1,.05-9.67,9.59,9.59,0,0,1,3.92-3.36,12.47,12.47,0,0,1,5.54-1.21A18.18,18.18,0,0,1,190.06,43.65Z" transform="translate(0 -19.05)"/></g></svg>