<?xml version="1.0" encoding="utf-8"?>
<!-- Generator: Adobe Illustrator 26.0.1, SVG Export Plug-In . SVG Version: 6.00 Build 0)  -->
<svg version="1.1" id="Layer_1" xmlns="http://www.w3.org/2000/svg" xmlns:xlink="http://www.w3.org/1999/xlink" x="0px" y="0px"
	 viewBox="0 0 2316.3 425.3" style="enable-background:new 0 0 2316.3 425.3;" xml:space="preserve">
<style type="text/css">
	.st0{fill:#1D1D1B;}
	.st1{font-family:'CormorantGaramond-SemiBold';}
	.st2{font-size:60px;}
	.st3{letter-spacing:21;}
	.st4{letter-spacing:-2;}
	.st5{letter-spacing:-1;}
	.st6{font-family:'CormorantGaramond-Medium';}
	.st7{font-size:40px;}
	.st8{letter-spacing:1;}
</style>
<g id="Layer_3">
	<path class="st0" d="M37.1,192.3c-0.2,0-0.2-0.2-0.2-0.7s0.1-0.7,0.2-0.7c2.2,0.1,4.3-0.1,6.4-0.6c1.2-0.3,2.3-1.1,2.8-2.2
		c0.6-1.6,0.8-3.3,0.7-5v-51.8c0.1-1.5-0.1-2.9-0.6-4.3c-0.4-0.9-1.1-1.6-2-1.9c-5.6-1.3-11.4,0-15.8,3.7c-2.9,2.8-5.2,7-6.7,12.6
		c0,0.2-0.2,0.3-0.6,0.3s-0.6-0.1-0.6-0.3c0.3-2.9,0.6-6.7,1-11.3c0.4-4.6,0.5-8,0.6-10.4c0-0.4,0.2-0.6,0.6-0.6s0.6,0.2,0.6,0.6
		c0,1.7,2.1,2.5,6.3,2.5c6.4,0.2,13.9,0.3,22.5,0.3c11.2,0,18.4-0.1,21.7-0.3c4.1,0,8.1-1.2,11.6-3.3c3-1.9,5.4-4.6,6.8-7.9
		c0.2-0.2,0.5-0.4,0.8-0.3c0.3,0,0.5,0.1,0.8,0.2c0.2,0.1,0.3,0.2,0.3,0.4v71.9c0,3.1,0.4,5.1,1.3,6.2s2.6,1.6,5.1,1.6
		c0.2,0,0.3,0.2,0.3,0.7s-0.1,0.7-0.3,0.7c-1.9,0-3.3,0-4.4-0.1l-6.5-0.1l-6.5,0.1c-1.1,0.1-2.6,0.1-4.5,0.1c-0.2,0-0.2-0.2-0.2-0.7
		s0.1-0.7,0.2-0.7c2.5,0,4.2-0.5,5.1-1.6s1.3-3.1,1.3-6.2v-56.9c0-0.5-0.1-0.9-0.5-1.3c-0.5-0.3-1-0.4-1.6-0.4H65.1
		c-1.6-0.1-3.1,0.1-4.7,0.6c-1,0.3-1.7,1.1-2.1,2c-0.4,1.4-0.6,2.9-0.6,4.4v51.6c-0.1,1.7,0.2,3.4,0.7,5c0.5,1.1,1.5,1.9,2.7,2.2
		c2.1,0.5,4.2,0.6,6.4,0.6c0.2,0,0.3,0.2,0.3,0.7s-0.1,0.7-0.3,0.7c-2.6,0-4.7,0-6.2-0.1l-9.2-0.1l-8.7,0.1
		C42.1,192.3,39.9,192.3,37.1,192.3L37.1,192.3z M109,192.3c-0.2,0-0.2-0.2-0.2-0.7s0.1-0.7,0.2-0.7c2.5,0,4.2-0.5,5.1-1.6
		c0.9-1,1.3-3.1,1.3-6.2v-16.7c0-4.2-0.8-7.3-2.3-9.3s-4-3-7.2-3c-2.6,0-5.2,0.7-7.5,2c-2.5,1.3-4.6,3.2-6.2,5.5l-0.1-1.9
		c5.8-8,12.2-12,19.4-12c3.6-0.2,7,1.2,9.5,3.7c2.3,2.5,3.5,5.8,3.5,10.1v21.6c0,3.1,0.4,5.1,1.3,6.2c0.9,1,2.5,1.6,5.1,1.6
		c0.2,0,0.3,0.2,0.3,0.7s-0.1,0.7-0.3,0.7c-1.9,0-3.3,0-4.4-0.1L120,192l-6.5,0.1C112.4,192.2,110.9,192.2,109,192.3L109,192.3z
		 M156.4,193.6c-4.1,0.1-8.2-0.9-11.8-3c-3.2-1.9-5.9-4.7-7.6-8c-1.7-3.3-2.6-6.9-2.6-10.6c0-4.3,1.1-8.4,3.2-12.1
		c2.1-3.6,5.2-6.6,8.9-8.7c3.8-2.1,8.2-3.2,12.6-3.2c4.5,0,7.9,1.1,10.4,3.2c2.4,2.2,3.6,5.4,3.6,9.6c0,0.8-0.1,1.7-0.3,2.5
		c-0.1,0.5-0.5,0.8-1,0.8h-9.2c0.4-9.3-2.2-13.9-7.6-13.9c-3.3,0-6.3,1.7-7.9,4.6c-1.8,3.1-2.8,7.2-2.8,12.4
		c0,6.6,1.5,11.8,4.6,15.6c3.1,3.8,7.4,5.8,13,5.8c1.8,0,3.6-0.2,5.3-0.8c1.9-0.7,3.8-1.6,5.6-2.6l0.2-0.1c0.2,0,0.3,0.2,0.5,0.5
		s0.2,0.5,0.1,0.7c-2.4,2.3-5.1,4.2-8.2,5.5C162.6,193.1,159.6,193.7,156.4,193.6L156.4,193.6z M141,162.4l24.9-0.4v2.2l-24.8,0.1
		L141,162.4z M226.6,182.8c-0.1,1.8,0.2,3.6,0.8,5.2c0.7,1.2,1.9,2,3.2,2.3c2.5,0.5,5,0.8,7.6,0.7c0.2,0,0.3,0.2,0.3,0.7
		s-0.1,0.7-0.3,0.7c-3.1,0-5.5,0-7.2-0.1l-9.7-0.1l-8.1,0.1c-1.4,0.1-3.4,0.1-5.8,0.1c-0.2,0-0.3-0.2-0.3-0.7s0.1-0.7,0.3-0.7
		c1.9,0.1,3.7-0.1,5.5-0.6c1.1-0.3,2-1.1,2.3-2.2c0.5-1.6,0.7-3.3,0.6-5v-51.8c0.1-1.7-0.1-3.3-0.6-4.9c-0.4-1.1-1.3-1.9-2.4-2.2
		c-1.8-0.5-3.6-0.7-5.5-0.6c-0.2,0-0.3-0.2-0.3-0.7s0.1-0.7,0.3-0.7l5.8,0.1c3.3,0.2,6,0.2,8,0.2c1.7,0,3.8-0.1,6.3-0.3
		c0.9-0.1,2.1-0.2,3.6-0.2s3.3-0.1,5.4-0.1c7.3,0,13.2,1.6,17.5,4.7c4.3,3.1,6.5,8,6.5,14.4c0.1,4.3-1.1,8.5-3.6,12
		c-2.4,3.2-5.6,5.8-9.3,7.4c-3.7,1.6-7.6,2.5-11.6,2.5c-1.8,0-3.6-0.2-5.4-0.6c-0.2,0-0.2-0.2-0.2-0.6c0-0.2,0.1-0.5,0.2-0.7
		c0.1-0.2,0.2-0.3,0.4-0.2c1.3,0.3,2.6,0.5,3.9,0.5c3.9,0,7.5-1.8,9.9-4.8c2.7-3.2,4-7.8,4-13.8s-1.4-10.6-4.1-13.7
		c-2.7-3.2-6.5-4.9-11.5-4.9c-1.4-0.1-2.8,0.1-4.1,0.6c-0.9,0.4-1.7,1.1-2,2.1c-0.4,1.5-0.6,3.2-0.6,4.8L226.6,182.8L226.6,182.8z
		 M273.6,193.1c-3.1,0-5.4-0.7-6.9-2.1c-1.6-1.5-2.5-3.6-2.3-5.8c-0.1-1.8,0.5-3.5,1.6-4.9c1.1-1.3,2.5-2.3,4.1-3.1
		c1.6-0.8,4.1-1.8,7.4-3l12-4.5l0.3,1.7l-8.3,3.5c-1.7,0.7-3.4,1.6-4.8,2.7c-1.2,1.1-1.9,2.7-1.8,4.4c-0.1,1.6,0.6,3.2,1.7,4.3
		c1.1,1,2.6,1.6,4.1,1.6c1.6,0,3.1-0.5,4.4-1.3l6-4l0.1,1.7l-8,5.6c-1.5,1.1-3.1,2-4.9,2.7c-1.6,0.5-3.2,0.8-4.9,0.8L273.6,193.1z
		 M294.6,193c-0.3,0.2-0.7,0.2-1,0.2c-1.3,0-2.6-0.9-3.7-2.7c-1.2-2.2-1.8-4.8-1.7-7.3v-19.7c0-4.6-0.5-8-1.4-10.1
		c-0.9-2.1-2.4-3.2-4.4-3.2c-2.2-0.2-4.3,0.9-5.4,2.7c-1.1,1.9-1.8,3.9-2,6.1c-0.5,3.8-2.3,5.7-5.7,5.7c-1.3,0.1-2.6-0.3-3.6-1.1
		c-0.8-0.7-1.2-1.7-1.2-2.8c0-2.1,1.3-4.1,3.8-6.1c2.7-2.1,5.8-3.7,9.1-4.8c3-1.1,6.2-1.7,9.3-1.8c2.9-0.1,5.7,0.9,7.7,3
		c1.9,2,2.9,5,2.9,9.1v20.2c0,4.7,1.5,7.1,4.4,7.1c1.4-0.1,2.7-0.4,4-1h0.2c0.3,0,0.5,0.2,0.6,0.5c0.1,0.3,0,0.6-0.3,0.7l-11.5,5.5
		L294.6,193z M309.8,192.3c-0.2,0-0.3-0.2-0.3-0.7s0.1-0.7,0.3-0.7c2.5,0,4.2-0.5,5-1.6c0.8-1,1.2-3.1,1.2-6.2v-21.5
		c0.1-1.8-0.2-3.6-0.8-5.3c-0.5-1.1-1.6-1.7-2.7-1.7c-2,0.2-3.8,0.8-5.6,1.7h-0.1c-0.3,0-0.5-0.2-0.7-0.6s-0.1-0.6,0.1-0.7l14.7-7.2
		c0.3-0.1,0.5-0.2,0.8-0.2c0.8,0,1.6,0.9,2.4,2.8c0.8,2.3,1.2,4.8,1.1,7.3v25.2c-0.1,1.6,0.2,3.3,0.9,4.8c0.7,1.1,1.8,2,3.1,2.3
		c2.1,0.5,4.2,0.7,6.3,0.7c0.3,0,0.5,0.2,0.5,0.7s-0.2,0.7-0.5,0.7c-2.5,0-4.5,0-6-0.1l-8.7-0.1l-6.5,0.1
		C313.2,192.2,311.7,192.3,309.8,192.3L309.8,192.3z M321.8,160.6c2.9-3.6,6.1-6.9,9.6-9.9c2.4-1.8,4.5-2.7,6.4-2.7
		c1.7,0,3.4,0.6,4.8,1.7c1.4,0.9,2.3,2.4,2.3,4c0.1,1.3-0.4,2.5-1.2,3.4c-0.9,0.9-2.2,1.4-3.5,1.3c-0.8,0-1.6-0.2-2.4-0.6
		c-0.7-0.5-1.4-1-2-1.7c-0.5-0.6-1.1-1.1-1.8-1.5c-0.6-0.3-1.2-0.5-1.9-0.5c-1.2,0.1-2.4,0.6-3.3,1.5c-2.3,2-4.4,4.1-6.3,6.4
		L321.8,160.6L321.8,160.6z M367.3,193.6c-2.9,0.1-5.7-0.7-8.1-2.3c-2.2-1.5-3.3-4.1-3.3-7.7v-25.3c0-2.5-0.4-4.1-1.2-4.9
		s-2.3-1.2-4.5-1.2c-0.1,0-0.2-0.1-0.3-0.3c-0.1-0.2-0.2-0.4-0.2-0.6c0-0.2,0.1-0.4,0.2-0.6c0.1-0.2,0.2-0.3,0.3-0.3
		c7-0.3,11.4-3.3,13.2-9.1c0.1-0.3,0.4-0.5,0.9-0.5s0.8,0.2,0.8,0.5V180c0,2.9,0.7,5.1,2.2,6.4c1.7,1.5,3.9,2.2,6.1,2.1
		c3.2,0,6.4-1.2,8.8-3.2l0.2-0.1c0.2,0,0.4,0.2,0.6,0.5s0.2,0.6-0.1,0.7c-2.3,2.2-5,4.1-7.8,5.5C372.7,193,370,193.6,367.3,193.6
		L367.3,193.6z M379.5,154.6c-5.8-1.2-11.7-1.9-17.7-1.8v-2.6c4.8,0,10.8-0.4,18.1-1.1c0.2,0,0.3,0.3,0.5,0.8
		c0.2,0.6,0.3,1.2,0.3,1.8c0,0.7-0.1,1.4-0.4,2C380.1,154.4,379.8,154.7,379.5,154.6L379.5,154.6z M388.7,192.2
		c-0.2,0-0.3-0.2-0.3-0.7s0.1-0.7,0.3-0.7c2.5,0,4.2-0.5,5-1.6s1.2-3.1,1.2-6.2v-21.4c0.1-1.8-0.2-3.6-0.8-5.3
		c-0.5-1.1-1.6-1.7-2.7-1.7c-2,0.2-3.8,0.8-5.6,1.7h-0.1c-0.3,0-0.5-0.2-0.7-0.6s-0.1-0.6,0.1-0.7l14.7-7.2c0.3-0.1,0.5-0.2,0.8-0.2
		c0.8,0,1.6,0.9,2.3,2.8c0.8,2.3,1.2,4.8,1.1,7.3v25.2c0,3.1,0.4,5.1,1.3,6.2s2.6,1.6,5.1,1.6c0.2,0,0.3,0.2,0.3,0.7
		s-0.1,0.7-0.3,0.7c-1.9,0-3.4,0-4.5-0.1l-6.4-0.1l-6.5,0.1C392,192.2,390.5,192.3,388.7,192.2L388.7,192.2z M418.8,192.2
		c-0.2,0-0.3-0.2-0.3-0.7s0.1-0.7,0.3-0.7c2.5,0,4.2-0.5,5-1.6s1.2-3.1,1.2-6.2v-16.8c0-4.2-0.8-7.3-2.3-9.2s-3.9-3-7.2-3
		c-2.6,0-5.2,0.7-7.5,2c-2.4,1.3-4.5,3.1-6.1,5.4l-0.6-1.3c6-8.4,12.6-12.5,19.7-12.5c4.1,0,7.3,1.2,9.6,3.7s3.4,5.9,3.4,10.2v21.6
		c0,3.1,0.4,5.1,1.3,6.2c0.9,1,2.5,1.6,5.1,1.6c0.2,0,0.3,0.2,0.3,0.7s-0.1,0.7-0.3,0.7c-1.9,0-3.4,0-4.5-0.1l-6.4-0.1l-6.4,0.1
		C422.1,192.2,420.6,192.2,418.8,192.2L418.8,192.2z M465.3,193.6c-4.1,0.1-8.2-0.9-11.8-3c-3.2-1.9-5.9-4.7-7.6-8
		c-1.8-3.3-2.7-6.9-2.6-10.6c0-4.3,1.1-8.4,3.2-12.1c2.1-3.6,5.2-6.6,8.9-8.7c3.8-2.1,8.2-3.2,12.6-3.2c4.5,0,7.9,1.1,10.4,3.2
		s3.6,5.4,3.6,9.6c0,0.8-0.1,1.7-0.3,2.5c-0.1,0.5-0.5,0.8-1,0.8h-9.2c0.4-9.3-2.2-13.9-7.6-13.9c-3.3,0-6.3,1.7-7.9,4.6
		c-1.9,3.1-2.9,7.2-2.9,12.4c0,6.6,1.5,11.8,4.6,15.6c3.1,3.9,7.4,5.8,13,5.8c1.8,0,3.6-0.2,5.3-0.8c1.9-0.7,3.8-1.6,5.6-2.6
		l0.2-0.1c0.2,0,0.3,0.2,0.5,0.5c0.2,0.3,0.2,0.5,0,0.7c-2.4,2.3-5.1,4.2-8.2,5.5C471.4,193,468.3,193.6,465.3,193.6L465.3,193.6z
		 M449.8,162.4l24.9-0.4v2.2l-24.8,0.1L449.8,162.4z M490.1,192.3c-0.2,0-0.3-0.2-0.3-0.7s0.1-0.7,0.3-0.7c2.5,0,4.2-0.5,5-1.6
		s1.2-3.1,1.2-6.2v-21.4c0.1-1.8-0.2-3.6-0.8-5.3c-0.5-1.1-1.6-1.7-2.8-1.7c-1.9,0.2-3.8,0.8-5.6,1.7H487c-0.3,0-0.5-0.2-0.7-0.6
		s-0.1-0.6,0.1-0.7l14.7-7.2c0.3-0.1,0.5-0.2,0.8-0.2c0.8,0,1.6,0.9,2.3,2.8c0.8,2.3,1.2,4.8,1.1,7.3v25.2c-0.1,1.6,0.2,3.3,0.9,4.8
		c0.7,1.1,1.8,2,3.1,2.3c2.1,0.5,4.2,0.7,6.3,0.7c0.3,0,0.4,0.2,0.4,0.7s-0.2,0.7-0.4,0.7c-2.5,0-4.5,0-6-0.1l-8.7-0.1l-6.5,0.1
		C493.4,192.2,491.9,192.3,490.1,192.3L490.1,192.3z M502.1,160.6c2.9-3.6,6.1-6.9,9.6-9.9c2.4-1.8,4.5-2.7,6.4-2.7
		c1.7,0,3.4,0.6,4.8,1.7c1.4,0.9,2.3,2.4,2.3,4c0.1,1.3-0.4,2.5-1.2,3.4c-0.9,0.9-2.2,1.4-3.5,1.3c-0.8,0-1.6-0.2-2.3-0.6
		c-0.7-0.5-1.4-1-2-1.7c-0.5-0.6-1.1-1.1-1.8-1.5c-0.6-0.3-1.2-0.5-1.9-0.5c-1.2,0.1-2.4,0.6-3.3,1.5c-2.3,2-4.4,4.1-6.3,6.4
		L502.1,160.6L502.1,160.6z M565.8,134.2c-1.8-3-4-5.8-6.6-8.2c-1.4-1.4-3.3-2.2-5.3-2.3c-0.2,0-0.3-0.2-0.3-0.7s0.1-0.7,0.3-0.7
		l3.7,0.1c1.6,0.2,2.8,0.2,3.6,0.2c2.5,0,6-0.1,10.6-0.2l7.1-0.1c0.2,0,0.2,0.2,0.2,0.7s-0.1,0.7-0.2,0.7c-3.1,0-4.7,1-4.7,3
		c0.2,1.3,0.7,2.6,1.4,3.7l17.1,26.3l-9,5L565.8,134.2L565.8,134.2z M593.6,156.6v26.7c-0.1,1.7,0.1,3.4,0.6,5
		c0.4,1,1.2,1.8,2.3,2.1c1.8,0.5,3.7,0.6,5.5,0.6c0.2,0,0.3,0.2,0.3,0.7s-0.1,0.7-0.3,0.7c-2.4,0-4.2,0-5.6-0.1l-8.2-0.1l-8.1,0.1
		c-1.5,0.1-3.5,0.1-5.9,0.1c-0.2,0-0.2-0.2-0.2-0.7s0.1-0.7,0.2-0.7c1.9,0.1,3.8-0.1,5.6-0.6c1.1-0.3,2-1.1,2.5-2.2
		c0.5-1.6,0.8-3.3,0.7-5v-25.6L593.6,156.6z M603.3,136.6c1.9-3.1,2.8-5.7,2.8-8c0-3.3-2.1-4.9-6.2-4.9c-0.2,0-0.2-0.2-0.2-0.7
		s0.1-0.7,0.2-0.7l5.8,0.1c3.1,0.2,6,0.2,8.6,0.2c1.3,0,2.8-0.1,4.6-0.2l4.1-0.1c0.2,0,0.2,0.2,0.2,0.7s-0.1,0.7-0.2,0.7
		c-2.5,0-5.3,1.3-8.4,3.9c-3.3,2.8-6.2,6.2-8.4,9.9l-15.6,25.2l-2.2-1.8L603.3,136.6L603.3,136.6z M636.8,193.8
		c-4.2,0.1-8.3-1-11.9-3.2c-3.4-2.1-6.2-5.1-8-8.6c-1.9-3.7-2.8-7.7-2.8-11.8c-0.1-4.4,1.1-8.7,3.6-12.4c2.3-3.3,5.6-6,9.3-7.6
		c3.6-1.7,7.6-2.5,11.6-2.5c8.3-0.2,16,4.4,19.8,11.8c1.8,3.5,2.7,7.4,2.7,11.4c0.2,8.5-4.6,16.3-12.2,20.1
		C645.2,192.8,641,193.8,636.8,193.8L636.8,193.8z M640.2,191.5c3.2,0.1,6.1-1.6,7.6-4.4c1.8-2.9,2.7-7.2,2.7-12.8
		c0.1-4.5-0.6-8.9-2.1-13.1c-1.1-3.3-3-6.2-5.6-8.5c-2.2-1.9-4.9-2.9-7.8-2.9c-3.1-0.1-6.1,1.5-7.7,4.1c-1.8,2.8-2.6,6.8-2.6,12.2
		c-0.1,4.4,0.6,8.8,2,13c1.1,3.4,3,6.5,5.5,9C634.4,190.3,637.2,191.4,640.2,191.5L640.2,191.5z M683.8,193.5c-4,0-7.1-1.2-9.4-3.8
		s-3.4-5.9-3.4-10.2v-16.7c0.1-2-0.2-3.9-0.8-5.8c-0.4-1.1-1.4-1.9-2.6-1.8c-1.1,0-2.2,0.3-3.1,0.9h-0.1c-0.3,0-0.5-0.2-0.7-0.6
		s-0.1-0.6,0.1-0.8l14.1-6.6l0.6-0.1c0.4,0,0.7,0.2,1,0.5c0.4,0.3,0.6,0.6,0.6,0.8v25.4c0,4.2,0.8,7.3,2.3,9.4s3.9,3.1,7,3.1
		c2.5,0,5-0.8,7.2-2.1c2.4-1.3,4.4-3.2,6-5.4l0.7,1.3C697.1,189.3,690.6,193.5,683.8,193.5L683.8,193.5z M709.4,179.7
		c-0.1,1.8,0.2,3.7,0.8,5.4c0.5,1.1,1.5,1.7,2.7,1.6c1.7-0.2,3.4-0.7,5-1.3l0.2-0.1c0.2,0,0.4,0.2,0.6,0.6s0.1,0.6-0.1,0.8l-14.7,7
		l-0.4,0.1c-0.8,0-1.5-0.9-2.1-2.8c-0.7-2.4-1-5-0.9-7.5v-20.6c0.1-2-0.2-3.9-0.8-5.8c-0.4-1.1-1.5-1.9-2.6-1.8
		c-1.1,0.1-2.2,0.4-3.1,0.9h-0.1c-0.3,0-0.5-0.2-0.7-0.6s-0.1-0.7,0.2-0.7l14.1-6.6l0.4-0.1c0.4,0,0.7,0.2,1,0.5
		c0.4,0.3,0.6,0.6,0.6,0.8L709.4,179.7L709.4,179.7z M824.6,191c0.3,0,0.4,0.2,0.4,0.7s-0.2,0.7-0.4,0.7c-1.4,0-3.7-0.1-6.8-0.2
		c-3.1-0.1-5.4-0.2-6.8-0.2c-1.9,0-4.1,0.1-6.6,0.2s-4.5,0.2-5.9,0.2c-0.3,0-0.4-0.2-0.4-0.7s0.2-0.7,0.4-0.7
		c1.6,0.1,3.3-0.1,4.8-0.7c0.9-0.4,1.5-1.4,1.5-2.4c0-1.1-0.6-3-1.9-5.7l-23.4-47.6l4.6-7.5l-22.2,50c-0.9,1.9-1.4,4-1.4,6
		c-0.1,2.3,0.9,4.6,2.8,5.9c1.9,1.3,4.5,2,7.8,2c0.4,0,0.6,0.2,0.6,0.7s-0.2,0.7-0.6,0.7c-1.3,0-3.3-0.1-5.8-0.2
		c-2.8-0.1-5.3-0.2-7.4-0.2s-4.4,0.1-7,0.2c-2.4,0.2-4.4,0.2-5.9,0.2c-0.4,0-0.6-0.2-0.6-0.7s0.2-0.7,0.6-0.7
		c1.8,0.1,3.6-0.4,5.3-1.2c1.7-1.1,3.1-2.6,4.2-4.4c1.8-3,3.4-6.2,4.8-9.5l24.1-54.2c0.2-0.2,0.5-0.3,1-0.3s0.8,0.1,0.9,0.3
		l27.4,55.3c2.5,5.4,4.7,9,6.4,11C820.3,189.7,822.4,190.8,824.6,191L824.6,191z M766.4,162.1h31.4l0.8,2.8H765L766.4,162.1z
		 M830,192.3c-0.2,0-0.3-0.2-0.3-0.7s0.1-0.7,0.3-0.7c2.5,0,4.2-0.5,5.1-1.6c0.9-1,1.3-3.1,1.3-6.2V126c0.1-1.9-0.1-3.8-0.7-5.7
		c-0.4-1.1-1.4-1.8-2.5-1.7c-1.6,0.1-3.2,0.6-4.6,1.3h-0.2c-0.3,0-0.5-0.2-0.7-0.6s-0.2-0.6,0-0.8l15.8-7.4l0.4-0.1
		c0.4,0,0.7,0.2,1,0.5c0.4,0.3,0.6,0.6,0.6,0.8v70.9c0,3.1,0.4,5.1,1.3,6.2c0.9,1,2.6,1.6,5.1,1.6c0.2,0,0.3,0.2,0.3,0.7
		s-0.1,0.7-0.3,0.7c-1.9,0-3.4,0-4.5-0.1l-6.5-0.1l-6.5,0.1C833.4,192.3,831.9,192.3,830,192.3L830,192.3z M860.4,158.4
		c-1.6-3.3-3-5.4-4.1-6.4c-1.1-1-2.6-1.6-4.1-1.5c-0.2,0-0.3-0.2-0.3-0.7s0.1-0.7,0.3-0.7c1.1,0,2.2,0,3.2,0.1l6.5,0.1l7.6-0.1
		c1.1-0.1,2.7-0.1,4.6-0.1c0.2,0,0.3,0.2,0.3,0.7s-0.1,0.7-0.3,0.7c-4,0-5.9,0.9-5.9,2.6c0.1,0.6,0.3,1.2,0.6,1.8l14.1,27l-4.9,8.1
		l12.2-29.5l2.7,0.6l-13.5,31.2c0,0.3-0.4,0.4-1.1,0.4c-0.5,0.1-1-0.1-1.3-0.4L860.4,158.4z M887.5,158.4c-1-2.3-2.3-4.4-3.8-6.4
		c-0.9-1-2.1-1.6-3.5-1.5c-0.2,0-0.2-0.2-0.2-0.7s0.1-0.7,0.2-0.7c1,0,2.1,0,3.1,0.1l5.8,0.1l7.6-0.1c1.1-0.1,2.7-0.1,4.6-0.1
		c0.1,0,0.2,0.2,0.2,0.7s-0.1,0.7-0.2,0.7c-1.4-0.1-2.8,0.2-4.1,0.7c-0.9,0.3-1.5,1.1-1.5,2.1c0,0.6,0.2,1.1,0.4,1.6l13.7,27
		l-4.7,8.1l12.4-30.2c0.5-1.2,0.8-2.5,0.8-3.8c0.1-1.6-0.7-3.1-2-4c-1.7-1-3.7-1.5-5.7-1.4c-0.2,0-0.3-0.2-0.3-0.7s0.1-0.7,0.3-0.7
		c2,0,3.5,0,4.5,0.1l6.7,0.1l4.5-0.1c0.8-0.1,2-0.1,3.8-0.1c0.2,0,0.3,0.2,0.3,0.7s-0.1,0.7-0.3,0.7c-2,0-3.9,0.8-5.3,2.2
		c-1.9,2.1-3.4,4.6-4.4,7.2l-13.9,32.4c-0.1,0.3-0.4,0.4-1.1,0.4s-1.3-0.2-1.3-0.4L887.5,158.4L887.5,158.4z M940.6,193.1
		c-3.1,0-5.4-0.7-7-2.1c-1.6-1.5-2.5-3.6-2.3-5.8c-0.1-1.8,0.5-3.5,1.6-4.9c1.1-1.3,2.5-2.3,4.1-3.1c1.6-0.8,4.1-1.8,7.4-3l12-4.5
		l0.3,1.7l-8.2,3.5c-1.7,0.7-3.3,1.6-4.8,2.7c-1.2,1.1-1.9,2.7-1.8,4.4c-0.1,1.6,0.6,3.2,1.7,4.3c1.1,1,2.6,1.6,4.1,1.6
		c1.6,0,3.1-0.5,4.4-1.3l6-4l0.1,1.7l-8,5.6c-1.5,1.1-3.1,2-4.9,2.7c-1.6,0.5-3.2,0.8-4.9,0.8H940.6z M961.6,193
		c-0.3,0.2-0.7,0.2-1,0.2c-1.3,0-2.6-0.9-3.7-2.7c-1.2-2.2-1.8-4.8-1.7-7.3v-19.7c0-4.6-0.5-8-1.4-10.1c-0.9-2.1-2.4-3.2-4.4-3.2
		c-2.2-0.2-4.2,0.9-5.3,2.8c-1.1,1.9-1.8,3.9-2,6.1c-0.4,3.8-2.3,5.7-5.7,5.7c-1.3,0.1-2.6-0.3-3.6-1.1c-0.8-0.7-1.2-1.7-1.2-2.8
		c0-2.1,1.2-4.1,3.8-6.1c2.7-2.1,5.8-3.7,9.1-4.8c3-1.1,6.2-1.7,9.3-1.8c2.9-0.1,5.7,0.9,7.7,3c1.9,2,2.9,5,2.9,9.1v20.2
		c0,4.7,1.5,7.1,4.4,7.1c1.4-0.1,2.7-0.4,4-1h0.2c0.3,0,0.5,0.2,0.6,0.5c0.1,0.3,0,0.6-0.3,0.7L961.6,193L961.6,193z M1019.3,149.1
		c0.1,0,0.2,0.2,0.2,0.7s-0.1,0.7-0.2,0.7c-2.2,0-4.3,1-5.8,2.7c-2,2.4-3.5,5.2-4.4,8.2l-12.9,34.2c-2.1,5.9-4.7,11.5-7.7,16.9
		c-2.5,4.1-5,7-7.5,8.8c-2.5,1.7-5.4,2.6-8.4,2.6c-1.7,0.1-3.4-0.3-4.9-1.3c-1.2-0.9-1.8-2.4-1.7-3.9c-0.1-1.3,0.5-2.5,1.4-3.4
		c0.9-0.8,2.2-1.3,3.4-1.2c0.7,0,1.5,0.1,2.2,0.3c0.7,0.3,1.4,0.7,2.1,1.1c1.1,0.9,2.5,1.4,3.9,1.5c2,0,3.8-0.9,5.1-2.4
		c2-2.4,3.7-5,4.9-7.9c1.8-3.7,3.9-8.9,6.4-15.8l-0.3,5.2l-18.5-37.6c-1.1-2.3-2.4-4.4-3.9-6.4c-0.9-1-2.1-1.6-3.5-1.5
		c-0.2,0-0.2-0.2-0.2-0.7s0.1-0.7,0.2-0.7c1.9,0,3.4,0,4.5,0.1l4.4,0.1l7.6-0.1c1.1-0.1,2.6-0.1,4.6-0.1c0.2,0,0.3,0.2,0.3,0.7
		s-0.1,0.7-0.3,0.7c-1.5-0.1-3,0.1-4.5,0.5c-0.8,0.2-1.4,0.9-1.5,1.7c0.1,0.8,0.3,1.5,0.7,2.1l14.6,29.9l-3.5,5.9l10.2-29.3
		c0.5-1.6,0.8-3.2,0.9-4.8c0-4-2.5-6-7.5-6c-0.2,0-0.2-0.2-0.2-0.7s0.1-0.7,0.2-0.7c2,0,3.5,0,4.6,0.1l6.7,0.1l4.4-0.1
		C1016.2,149.1,1017.5,149.1,1019.3,149.1L1019.3,149.1z M1029,154.9c-0.1,2.2,0.8,4.4,2.4,5.9c2.1,1.9,4.5,3.5,7,4.8
		c2.7,1.5,4.7,2.7,6.2,3.7c1.5,1,2.8,2.4,3.8,3.9c1.1,1.8,1.7,3.8,1.6,5.9c0,2.5-0.7,4.9-1.9,7.1c-1.4,2.2-3.3,4.1-5.6,5.3
		c-2.8,1.4-5.8,2.1-8.9,2c-4,0-7.9-1.1-11.3-3.1c-0.4-0.3-0.6-0.8-0.7-1.3l-0.2-10.2c0-0.2,0.2-0.4,0.6-0.4s0.7,0.1,0.7,0.3
		c1.1,3.5,3.1,6.6,5.8,9.1c2.2,2.2,5.1,3.5,8.2,3.6c1.6,0.1,3.2-0.4,4.4-1.5c1.1-1.2,1.7-2.7,1.6-4.4c0.1-2.5-0.8-4.9-2.5-6.8
		c-2.1-2-4.5-3.7-7.2-5c-2-1-4-2.2-5.9-3.4c-1.5-1-2.7-2.3-3.6-3.8c-1.1-1.8-1.6-3.9-1.5-6c0-4.3,1.5-7.4,4.6-9.5
		c3.3-2.2,7.3-3.3,11.3-3.1c3.1,0,6.1,0.6,9,1.7c0.7,0.3,1,0.7,1,1.2c0,1.3,0,2.7-0.1,4l-0.1,5.4c0,0.2-0.2,0.2-0.7,0.2
		c-0.4,0-0.7-0.1-0.7-0.2c-0.1-1.7-0.7-3.3-1.8-4.6c-1.2-1.6-2.8-3-4.6-4c-1.7-1-3.7-1.6-5.7-1.6
		C1030.8,149.9,1029.1,151.6,1029,154.9L1029,154.9z M1116,192.7c-2.3,0-5-0.1-8.2-0.3c-1.1-0.1-2.5-0.2-4.3-0.2s-3.6-0.1-5.7-0.1
		l-8,0.1c-1.4,0.1-3.4,0.1-5.9,0.1c-0.1,0-0.2-0.2-0.2-0.7s0.1-0.7,0.2-0.7c1.9,0.1,3.7-0.1,5.6-0.6c1.1-0.3,2-1.1,2.4-2.2
		c0.5-1.6,0.7-3.3,0.7-5v-51.8c0.1-1.7-0.1-3.3-0.6-4.9c-0.4-1.1-1.3-1.9-2.4-2.2c-1.8-0.5-3.6-0.7-5.5-0.6c-0.1,0-0.2-0.2-0.2-0.7
		s0.1-0.7,0.2-0.7l5.9,0.1c3.3,0.2,5.9,0.2,7.8,0.2c2.9,0,5.9-0.1,9.1-0.3c3.7-0.2,6.2-0.2,7.5-0.2c7-0.1,14,1.4,20.3,4.5
		c5.6,2.7,10.4,7,13.8,12.2c3.3,5.2,4.9,11.2,4.9,17.4c0.1,6.7-1.6,13.4-5,19.2c-3.2,5.5-7.9,9.9-13.6,12.9
		C1129.1,191.3,1122.6,192.8,1116,192.7L1116,192.7z M1114.9,190.5c4.8,0.1,9.6-1.2,13.7-3.7c4.1-2.6,7.4-6.4,9.4-10.9
		c2.4-5.5,3.5-11.4,3.4-17.3c0.1-6-1-11.9-3.2-17.4c-1.9-4.8-5-9.1-9-12.3c-3.9-3-8.6-4.6-13.6-4.5c-2.5-0.1-4.9,0.1-7.3,0.6
		c-1.4,0.2-2.8,1-3.8,2.1c-0.9,1.4-1.4,3-1.2,4.6V182c0,3.1,0.8,5.2,2.4,6.6C1107.3,189.9,1110.4,190.5,1114.9,190.5L1114.9,190.5z
		 M1163.1,192.3c-0.2,0-0.3-0.2-0.3-0.7s0.1-0.7,0.3-0.7c2.5,0,4.2-0.5,5-1.6c0.8-1,1.2-3.1,1.2-6.2v-21.4c0.1-1.8-0.2-3.6-0.8-5.3
		c-0.5-1.1-1.6-1.7-2.8-1.7c-1.9,0.2-3.8,0.8-5.6,1.7h-0.1c-0.3,0-0.5-0.2-0.7-0.6c-0.1-0.4-0.1-0.6,0.1-0.7l14.7-7.2
		c0.3-0.1,0.5-0.2,0.8-0.2c0.8,0,1.6,0.9,2.4,2.8c0.8,2.3,1.2,4.8,1.1,7.3v25.2c-0.1,1.6,0.2,3.3,0.9,4.8c0.7,1.1,1.8,2,3.1,2.3
		c2.1,0.5,4.2,0.7,6.3,0.7c0.3,0,0.4,0.2,0.4,0.7s-0.2,0.7-0.4,0.7c-2.5,0-4.6,0-6-0.1l-8.7-0.1l-6.5,0.1
		C1166.5,192.2,1165,192.3,1163.1,192.3L1163.1,192.3z M1175.1,160.6c2.9-3.6,6.1-6.9,9.6-9.9c2.4-1.8,4.5-2.7,6.4-2.7
		c1.7,0,3.4,0.6,4.8,1.7c1.4,0.9,2.3,2.4,2.3,4c0.1,1.3-0.4,2.5-1.2,3.4c-0.9,0.9-2.2,1.4-3.5,1.3c-0.8,0-1.6-0.2-2.3-0.6
		c-0.7-0.5-1.4-1-2-1.7c-0.5-0.6-1.1-1.1-1.8-1.5c-0.6-0.3-1.2-0.5-1.9-0.5c-1.2,0.1-2.4,0.6-3.3,1.5c-2.3,2-4.4,4.1-6.3,6.4
		L1175.1,160.6L1175.1,160.6z M1222.8,193.6c-4.1,0.1-8.2-0.9-11.8-3c-3.2-1.9-5.9-4.7-7.6-8c-1.7-3.3-2.7-6.9-2.6-10.6
		c0-4.3,1.1-8.4,3.2-12.1c2.1-3.6,5.2-6.6,8.9-8.7c3.8-2.1,8.2-3.2,12.6-3.2c4.5,0,7.9,1.1,10.4,3.2c2.4,2.2,3.6,5.4,3.6,9.6
		c0,0.8-0.1,1.7-0.3,2.5c-0.1,0.5-0.5,0.8-1,0.8h-9.2c0.4-9.3-2.2-13.9-7.6-13.9c-3.3,0-6.3,1.7-7.9,4.6c-1.9,3.1-2.9,7.2-2.9,12.4
		c0,6.6,1.5,11.8,4.6,15.6c3.1,3.9,7.4,5.8,13,5.8c1.8,0,3.6-0.2,5.3-0.8c1.9-0.7,3.8-1.6,5.6-2.6l0.2-0.1c0.2,0,0.3,0.2,0.5,0.5
		c0.2,0.3,0.2,0.5,0.1,0.7c-2.4,2.3-5.1,4.2-8.2,5.5C1228.8,193,1225.8,193.6,1222.8,193.6L1222.8,193.6z M1207.3,162.3l24.9-0.4
		v2.2l-24.8,0.1L1207.3,162.3z M1255.4,193c-3.1,0-5.4-0.7-7-2.1c-1.6-1.5-2.5-3.6-2.3-5.8c-0.1-1.8,0.5-3.5,1.6-4.9
		c1.1-1.3,2.5-2.3,4.1-3.1c1.6-0.8,4.1-1.8,7.4-3l12-4.5l0.3,1.7l-8.1,3.5c-1.7,0.7-3.4,1.6-4.8,2.7c-1.2,1.1-1.9,2.7-1.8,4.4
		c-0.1,1.6,0.6,3.2,1.7,4.3c1.1,1,2.6,1.6,4.1,1.6c1.6,0,3.1-0.5,4.4-1.3l6.1-4l0.1,1.7l-8,5.6c-1.5,1.1-3.1,2-4.9,2.7
		C1258.7,192.8,1257.1,193.1,1255.4,193L1255.4,193z M1276.4,192.9c-0.3,0.2-0.7,0.2-1,0.2c-1.3,0-2.6-0.9-3.7-2.7
		c-1.2-2.2-1.8-4.8-1.7-7.3v-19.7c0-4.6-0.5-8-1.4-10.1c-0.9-2.1-2.4-3.2-4.4-3.2c-2.2-0.2-4.2,0.9-5.3,2.8c-1.1,1.9-1.8,3.9-2,6.1
		c-0.4,3.8-2.3,5.7-5.7,5.7c-1.3,0.1-2.6-0.3-3.6-1.1c-0.8-0.7-1.2-1.7-1.2-2.8c0-2.1,1.2-4.1,3.8-6.1c2.7-2.1,5.8-3.7,9.1-4.8
		c3-1.1,6.2-1.7,9.3-1.8c2.9-0.1,5.7,0.9,7.7,3c1.9,2,2.9,5,2.9,9.1v20.2c0,4.7,1.5,7.1,4.4,7.1c1.4-0.1,2.7-0.4,4-1h0.2
		c0.3,0,0.5,0.2,0.6,0.5c0.1,0.3,0,0.6-0.3,0.7L1276.4,192.9L1276.4,192.9z M1291.7,192.3c-0.2,0-0.3-0.2-0.3-0.7s0.1-0.7,0.3-0.7
		c2.5,0,4.2-0.5,5-1.6c0.8-1,1.2-3.1,1.2-6.2v-21.4c0.1-1.8-0.2-3.6-0.8-5.3c-0.5-1.1-1.6-1.7-2.8-1.7c-1.9,0.2-3.8,0.8-5.6,1.7
		h-0.1c-0.3,0-0.5-0.2-0.7-0.6c-0.1-0.4-0.1-0.6,0.1-0.7l14.7-7.2c0.3-0.1,0.5-0.2,0.8-0.2c0.8,0,1.6,0.9,2.4,2.8
		c0.8,2.3,1.2,4.8,1.1,7.3v25.2c0,3.1,0.4,5.1,1.3,6.2c0.9,1,2.6,1.6,5.1,1.6c0.2,0,0.3,0.2,0.3,0.7s-0.1,0.7-0.3,0.7
		c-1.9,0-3.4,0-4.5-0.1l-6.4-0.1l-6.5,0.1C1295,192.2,1293.5,192.3,1291.7,192.3L1291.7,192.3z M1320.5,192.3
		c-0.2,0-0.3-0.2-0.3-0.7s0.1-0.7,0.3-0.7c2.5,0,4.2-0.5,5.1-1.6c0.9-1,1.3-3.1,1.3-6.2v-16.7c0-4.2-0.7-7.3-2.2-9.3
		c-1.4-2-3.7-3-6.7-3c-2.5,0-5,0.7-7.1,2c-2.4,1.4-4.4,3.2-5.9,5.5l-0.6-1.3c5.8-8.4,12.1-12.5,19-12.5c4,0,7,1.1,9.1,3.3
		c2.1,2.2,3.2,5.4,3.2,9.6v22.5c0,3.1,0.5,5.1,1.4,6.2c0.9,1,2.6,1.6,5.1,1.6c0.2,0,0.3,0.2,0.3,0.7s-0.1,0.7-0.3,0.7
		c-1.9,0-3.5,0-4.6-0.1l-6.4-0.1l-6.4,0.1C1323.8,192.3,1322.3,192.3,1320.5,192.3L1320.5,192.3z M1349.7,192.3
		c-0.2,0-0.3-0.2-0.3-0.7s0.1-0.7,0.3-0.7c2.5,0,4.1-0.5,5-1.6c0.9-1.1,1.3-3.1,1.3-6.1v-16.7c0-4.2-0.7-7.3-2.2-9.3
		c-1.5-2-3.7-3-6.7-3c-2.5,0-5,0.7-7.1,2c-2.4,1.4-4.4,3.2-5.9,5.5l-0.6-1.3c5.8-8.4,12.1-12.5,19-12.5c4,0,7,1.1,9.1,3.4
		c2.1,2.3,3.2,5.7,3.2,10.4v21.6c0,3.1,0.4,5.1,1.3,6.2c0.9,1,2.6,1.6,5.1,1.6c0.3,0,0.4,0.2,0.4,0.7s-0.2,0.7-0.4,0.7
		c-1.9,0-3.4,0-4.5-0.1l-6.4-0.1l-6.4,0.1C1353,192.3,1351.5,192.3,1349.7,192.3L1349.7,192.3z M1396.2,193.6
		c-4.1,0.1-8.2-0.9-11.8-3c-3.2-1.9-5.9-4.7-7.6-8c-1.8-3.3-2.7-6.9-2.6-10.6c0-4.3,1.1-8.4,3.2-12.1c2.1-3.6,5.2-6.6,8.9-8.7
		c3.8-2.1,8.2-3.2,12.6-3.2c4.5,0,7.9,1.1,10.4,3.2s3.6,5.4,3.6,9.6c0,0.8-0.1,1.7-0.3,2.5c-0.1,0.5-0.5,0.8-1,0.8h-9.1
		c0.4-9.3-2.2-13.9-7.6-13.9c-3.3,0-6.3,1.7-7.9,4.6c-1.9,3.1-2.8,7.2-2.8,12.4c0,6.6,1.5,11.8,4.6,15.6s7.4,5.8,13,5.8
		c1.8,0,3.6-0.2,5.3-0.8c1.9-0.7,3.8-1.6,5.6-2.6l0.2-0.1c0.1,0,0.3,0.2,0.5,0.5s0.2,0.5,0.1,0.7c-2.4,2.3-5.1,4.2-8.2,5.5
		C1402.3,193,1399.2,193.6,1396.2,193.6L1396.2,193.6z M1380.7,162.3l24.9-0.4v2.2l-24.8,0.1L1380.7,162.3z M1435.7,193.7
		c-3.1,0-6.2-0.9-8.8-2.6c-2.8-1.9-5-4.5-6.4-7.6c-1.6-3.6-2.4-7.6-2.3-11.5c0-5.5,1.3-10.1,3.9-13.8c2.5-3.5,5.9-6.3,9.9-8.1
		c3.7-1.7,7.8-2.5,11.9-2.6c4.9,0,9.7,1.4,13.8,4l-2.1,8.5c-1.4-2.9-3.4-5.4-5.9-7.4c-2.3-1.7-5.1-2.5-7.9-2.4
		c-3.8-0.2-7.5,1.5-9.9,4.5c-2.4,3-3.5,7.6-3.5,13.8c0,6.2,1.2,11.1,3.7,14.8c2.5,3.6,5.6,5.4,9.5,5.5c2.7,0,5.4-0.8,7.7-2.2
		c2.7-1.9,5.2-4,7.3-6.5l1,0.9c-3,3.4-6.4,6.5-10.1,9.2C1443.9,192.5,1439.9,193.8,1435.7,193.7L1435.7,193.7z M1462.3,179.5
		c-0.1,1.9,0.1,3.8,0.8,5.5c0.5,1.1,1.5,1.7,2.7,1.6c1.7-0.1,3.5-0.5,5-1.3h0.1c0.2,0,0.4,0.2,0.6,0.6s0.2,0.6-0.1,0.7l-14.3,6.9
		l-0.7,0.1c-0.9,0-1.7-0.9-2.3-2.8c-0.7-2.5-1.1-5.1-1-7.7V126c0.1-1.9-0.1-3.8-0.7-5.7c-0.4-1.1-1.5-1.8-2.6-1.7
		c-1.6,0.2-3.1,0.7-4.5,1.3h-0.2c-0.3,0-0.5-0.2-0.7-0.6c-0.1-0.4-0.1-0.6,0.1-0.7l15.7-7.5l0.4-0.1c0.4,0,0.7,0.2,1,0.5
		c0.4,0.3,0.6,0.6,0.6,0.8v67.2L1462.3,179.5z M1538.9,193.6c-6.5,0.1-12.9-1.5-18.4-4.8c-5.3-3.2-9.7-7.7-12.5-13.2
		c-3-5.6-4.5-11.9-4.4-18.2c0-7.7,1.9-14.3,5.8-19.8c3.8-5.4,9-9.7,15-12.4c5.8-2.7,12.2-4.1,18.6-4.1c6.6-0.1,13.1,1.6,18.7,5
		c5.2,3.2,9.5,7.7,12.4,13.2c2.8,5.3,4.3,11.3,4.3,17.4c0,6.6-1.8,13.1-5.4,18.7c-3.5,5.7-8.5,10.3-14.4,13.5
		c-6,3.3-12.7,5-19.5,4.9L1538.9,193.6z M1542.7,190.9c4.3,0.1,8.5-1.2,12-3.6c3.8-2.7,6.7-6.4,8.4-10.7c2.2-5.3,3.2-11,3.1-16.8
		c0.1-6.3-1.1-12.7-3.4-18.5c-2-5.1-5.4-9.5-9.7-12.7c-4.3-3.1-9.5-4.7-14.8-4.6c-7.3,0-13,2.6-16.9,7.8c-3.9,5.2-5.9,12.4-5.9,21.6
		c-0.1,6.6,1.1,13.2,3.5,19.3c2,5.3,5.4,9.9,9.7,13.4C1532.6,189.3,1537.6,191,1542.7,190.9L1542.7,190.9z M1585.7,192.3
		c-0.3,0-0.4-0.2-0.4-0.7s0.1-0.7,0.4-0.7c1.5,0.1,3-0.1,4.5-0.6c1-0.4,1.7-1.2,2-2.2c0.4-1.6,0.6-3.3,0.6-4.9V158
		c0-2.5-0.5-4-1.5-4.7c-1-0.7-3-1-6-1c-0.2,0-0.3-0.3-0.3-1s0.1-0.9,0.3-0.9c2.8,0,4.6-0.3,5.7-1.1s1.6-2,1.6-3.9
		c0.4-12.2,2.7-21,6.8-26.4c4.2-5.4,10.4-8.1,18.8-8.1c4.1,0,7.3,0.6,9.6,1.7c2.3,1.2,3.5,2.7,3.5,4.7c0.1,1.3-0.5,2.6-1.5,3.5
		c-1,0.9-2.2,1.3-3.5,1.3c-1.2,0.1-2.4-0.3-3.4-1c-0.9-0.9-1.7-2-2.2-3.1c-0.7-1.3-1.6-2.5-2.7-3.5c-1.2-0.8-2.6-1.2-4-1.2
		c-3.7,0-6.7,2.4-8.9,7.3c-2.2,4.9-3.2,12.4-3.2,22.5v40.1c-0.1,1.7,0.2,3.4,0.7,5c0.6,1.1,1.6,1.9,2.8,2.1c2.2,0.5,4.5,0.6,6.8,0.6
		c0.3,0,0.4,0.2,0.4,0.7s-0.1,0.7-0.4,0.7l-7.5-0.1c-1.6-0.1-4.1-0.1-7.5-0.1l-6.6,0.1C1589.4,192.2,1587.8,192.2,1585.7,192.3
		L1585.7,192.3z M1614.5,154.6c-5.5-1.2-11.1-1.8-16.8-1.8v-2.6c5.7-0.1,11.4-0.5,17.1-1.1c0.2,0,0.4,0.3,0.6,0.8
		c0.2,0.6,0.2,1.3,0.2,1.9c0,0.7-0.1,1.4-0.3,2C1615,154.4,1614.8,154.7,1614.5,154.6L1614.5,154.6z M1654.4,193.5
		c-3.2,0.2-5.9-2.2-6.2-5.4c0-0.3,0-0.5,0-0.8c-0.1-1.6,0.5-3.1,1.7-4.3c1.2-1.1,2.8-1.6,4.5-1.6c1.6-0.1,3.3,0.5,4.5,1.6
		c1.1,1.1,1.6,2.7,1.6,4.3c0.1,1.7-0.5,3.3-1.6,4.5C1657.7,193,1656.1,193.6,1654.4,193.5L1654.4,193.5z M1675.3,193.5
		c-3.2,0.2-5.9-2.2-6.2-5.4c0-0.3,0-0.5,0-0.8c-0.1-1.6,0.5-3.1,1.7-4.3c1.2-1.1,2.8-1.6,4.5-1.6c1.6-0.1,3.3,0.5,4.5,1.6
		c1.1,1.1,1.6,2.7,1.6,4.3c0.1,1.7-0.5,3.3-1.6,4.5C1678.6,193,1677,193.6,1675.3,193.5L1675.3,193.5z M1696.2,193.5
		c-3.2,0.2-5.9-2.2-6.2-5.4c0-0.3,0-0.5,0-0.8c-0.1-1.6,0.5-3.1,1.7-4.3c1.2-1.1,2.8-1.6,4.5-1.6c1.6-0.1,3.3,0.5,4.5,1.6
		c1.1,1.1,1.6,2.7,1.6,4.3c0.1,1.7-0.5,3.3-1.6,4.5C1699.5,193,1697.9,193.6,1696.2,193.5L1696.2,193.5z M1737.9,192.3
		c-0.2,0-0.3-0.2-0.3-0.7s0.1-0.7,0.3-0.7c2,0.1,4-0.1,5.9-0.6c1.1-0.3,2.1-1.1,2.5-2.2c0.5-1.6,0.8-3.3,0.7-5v-51.8
		c0.1-1.7-0.1-3.3-0.6-4.9c-0.4-1.1-1.3-1.9-2.4-2.2c-1.8-0.5-3.6-0.7-5.5-0.6c-0.2,0-0.3-0.2-0.3-0.7s0.1-0.7,0.3-0.7h46.6
		c0.8,0,1.1,0.3,1.1,1l0.2,14.6c0,0.2-0.2,0.2-0.6,0.3s-0.6-0.1-0.7-0.3c-1.8-8.4-6.9-12.7-15.4-12.7h-4.6c-2.7,0-4.6,0.5-5.7,1.5
		s-1.7,2.6-1.7,4.8v51.3c-0.1,1.8,0.2,3.6,0.9,5.2c0.8,1.2,2.1,2,3.5,2.3c2.7,0.5,5.4,0.8,8.1,0.7c0.1,0,0.2,0.2,0.2,0.7
		s-0.1,0.7-0.2,0.7c-3.1,0-5.4,0-7.2-0.1l-11-0.1l-8.2,0.1C1742.4,192.3,1740.4,192.3,1737.9,192.3L1737.9,192.3z M1779.4,168.2
		c0-6.3-4.3-9.5-12.9-9.5h-14v-2.9h14.2c8.4,0,12.5-2.8,12.5-8.4c0-0.2,0.2-0.2,0.7-0.2s0.7,0.1,0.7,0.2l-0.1,9.8c0,2.3,0,4,0.1,5.2
		l0.1,5.8c0,0.2-0.2,0.3-0.7,0.3S1779.4,168.4,1779.4,168.2L1779.4,168.2z M1813.2,193.8c-4.2,0.1-8.3-1-11.9-3.2
		c-3.4-2.1-6.2-5.1-8-8.6c-1.9-3.7-2.8-7.7-2.8-11.8c-0.1-4.4,1.1-8.7,3.6-12.4c2.4-3.3,5.6-6,9.3-7.6c3.6-1.7,7.6-2.5,11.6-2.5
		c4.2-0.1,8.4,1,11.9,3.2c3.3,2.1,6,5.1,7.8,8.6c1.8,3.5,2.7,7.4,2.7,11.3c0.2,8.5-4.6,16.3-12.2,20.1
		C1821.5,192.8,1817.3,193.8,1813.2,193.8L1813.2,193.8z M1816.6,191.5c3.2,0.1,6.1-1.6,7.6-4.4c1.8-2.9,2.7-7.2,2.7-12.8
		c0.1-4.5-0.6-8.9-2.1-13.1c-1.1-3.3-3-6.2-5.6-8.5c-2.2-1.9-4.9-2.9-7.8-2.9c-3.1-0.1-6.1,1.5-7.7,4.1c-1.7,2.8-2.6,6.8-2.6,12.2
		c-0.1,4.4,0.6,8.8,2,13c1.1,3.4,3,6.5,5.5,9C1810.8,190.3,1813.6,191.5,1816.6,191.5L1816.6,191.5z M1843.9,192.3
		c-0.2,0-0.3-0.2-0.3-0.7s0.1-0.7,0.3-0.7c2.5,0,4.2-0.5,5-1.6s1.2-3.1,1.2-6.2v-21.5c0.1-1.8-0.2-3.6-0.8-5.3
		c-0.5-1.1-1.6-1.7-2.7-1.7c-1.9,0.2-3.8,0.8-5.6,1.7h-0.1c-0.3,0-0.5-0.2-0.7-0.6s-0.1-0.6,0.1-0.7l14.7-7.2
		c0.3-0.1,0.5-0.2,0.8-0.2c0.8,0,1.6,0.9,2.4,2.8c0.8,2.3,1.2,4.8,1.1,7.3v25.2c-0.1,1.6,0.2,3.3,0.9,4.8c0.7,1.1,1.8,2,3.1,2.3
		c2.1,0.5,4.2,0.7,6.3,0.7c0.3,0,0.4,0.2,0.4,0.7s-0.1,0.7-0.4,0.7c-2.5,0-4.5,0-6-0.1l-8.7-0.1l-6.5,0.1
		C1847.2,192.2,1845.7,192.3,1843.9,192.3L1843.9,192.3z M1855.9,160.6c2.9-3.6,6.1-6.9,9.6-9.9c2.4-1.8,4.5-2.7,6.4-2.7
		c1.7,0,3.4,0.6,4.8,1.7c1.4,0.9,2.3,2.4,2.4,4c0.1,1.3-0.4,2.5-1.2,3.4c-0.9,0.9-2.2,1.4-3.5,1.3c-0.8,0-1.6-0.2-2.4-0.6
		c-0.7-0.5-1.4-1-2-1.7c-0.5-0.6-1.2-1.1-1.8-1.5c-0.6-0.3-1.2-0.5-1.9-0.5c-1.2,0.1-2.4,0.6-3.3,1.5c-2.3,2-4.4,4.1-6.3,6.4
		L1855.9,160.6L1855.9,160.6z M1933.7,193.8c-4.2,0.1-8.3-1-11.9-3.2c-3.4-2.1-6.2-5.1-8-8.6c-1.9-3.7-2.8-7.7-2.8-11.8
		c-0.1-4.4,1.1-8.7,3.6-12.4c2.3-3.3,5.6-6,9.3-7.6c3.6-1.7,7.6-2.5,11.6-2.5c8.3-0.2,16,4.4,19.7,11.8c1.8,3.5,2.7,7.4,2.7,11.4
		c0.1,8.5-4.6,16.3-12.2,20.1C1942,192.8,1937.8,193.8,1933.7,193.8L1933.7,193.8z M1937,191.5c3.2,0.1,6.1-1.6,7.6-4.4
		c1.8-2.9,2.7-7.2,2.7-12.8c0.1-4.5-0.6-8.9-2.1-13.1c-1.1-3.3-3-6.2-5.6-8.5c-2.2-1.9-4.9-2.9-7.8-2.9c-3.1-0.1-6.1,1.5-7.7,4.1
		c-1.8,2.8-2.6,6.8-2.6,12.2c-0.1,4.4,0.6,8.8,2,13c1.1,3.4,3,6.5,5.6,9C1931.2,190.3,1934.1,191.5,1937,191.5L1937,191.5z
		 M1964.3,192.3c-0.2,0-0.3-0.2-0.3-0.7s0.1-0.7,0.3-0.7c2.5,0,4.2-0.5,5-1.6s1.2-3.1,1.2-6.2v-21.5c0.1-1.8-0.2-3.6-0.8-5.3
		c-0.5-1.1-1.6-1.7-2.8-1.7c-1.9,0.2-3.8,0.8-5.6,1.7h-0.1c-0.3,0-0.5-0.2-0.7-0.6s-0.1-0.6,0.1-0.7l14.7-7.2
		c0.3-0.1,0.5-0.2,0.8-0.2c0.8,0,1.6,0.9,2.4,2.8c0.8,2.3,1.2,4.8,1.1,7.3v25.2c0,3.1,0.4,5.1,1.3,6.2c0.9,1,2.6,1.6,5.1,1.6
		c0.2,0,0.3,0.2,0.3,0.7s-0.1,0.7-0.3,0.7c-1.9,0-3.4,0-4.5-0.1l-6.4-0.1l-6.5,0.1C1967.7,192.2,1966.2,192.3,1964.3,192.3
		L1964.3,192.3z M1994.4,192.3c-0.2,0-0.3-0.2-0.3-0.7s0.1-0.7,0.3-0.7c2.5,0,4.2-0.5,5-1.6c0.8-1,1.2-3.1,1.2-6.2v-16.8
		c0-4.2-0.8-7.3-2.3-9.2c-1.5-2-3.9-3-7.2-3c-2.6,0-5.2,0.7-7.4,2c-2.4,1.3-4.5,3.1-6.1,5.4l-0.6-1.3c6-8.4,12.6-12.6,19.7-12.5
		c4.1,0,7.3,1.2,9.6,3.7s3.4,5.9,3.4,10.2v21.6c0,3.1,0.4,5.1,1.3,6.2s2.6,1.6,5.1,1.6c0.2,0,0.3,0.2,0.3,0.7s-0.1,0.7-0.3,0.7
		c-1.9,0-3.4,0-4.5-0.1l-6.4-0.1l-6.4,0.1C1997.8,192.3,1996.3,192.3,1994.4,192.3L1994.4,192.3z M2021.7,192.3
		c-0.2,0-0.3-0.2-0.3-0.7s0.1-0.7,0.3-0.7c2.5,0,4.2-0.5,5.1-1.6s1.3-3.1,1.3-6.2V126c0.1-1.9-0.1-3.8-0.7-5.7
		c-0.4-1.1-1.4-1.8-2.5-1.7c-1.6,0.1-3.2,0.6-4.6,1.3h-0.1c-0.3,0-0.5-0.2-0.7-0.6s-0.1-0.6,0-0.8l15.8-7.4l0.4-0.1
		c0.4,0,0.7,0.2,1,0.5c0.4,0.3,0.6,0.6,0.6,0.8v70.9c0,3.1,0.4,5.1,1.3,6.2s2.6,1.6,5.1,1.6c0.2,0,0.3,0.2,0.3,0.7s-0.1,0.7-0.3,0.7
		c-1.9,0-3.4,0-4.5-0.1l-6.5-0.1l-6.5,0.1C2025.1,192.3,2023.6,192.3,2021.7,192.3L2021.7,192.3z M2093.9,149.1
		c0.1,0,0.2,0.2,0.2,0.7s-0.1,0.7-0.2,0.7c-2.2,0-4.3,1-5.8,2.7c-2,2.4-3.5,5.2-4.4,8.2l-12.9,34.2c-2.1,5.9-4.7,11.5-7.7,16.9
		c-2.5,4.1-5,7-7.5,8.8c-2.5,1.7-5.4,2.7-8.4,2.6c-1.7,0.1-3.4-0.3-4.9-1.3c-1.2-0.9-1.8-2.4-1.7-3.9c-0.1-1.3,0.5-2.5,1.4-3.4
		c0.9-0.8,2.2-1.3,3.4-1.2c0.7,0,1.5,0.1,2.2,0.3c0.7,0.3,1.4,0.7,2.1,1.1c1.1,0.9,2.5,1.4,3.9,1.5c2,0,3.8-0.9,5.1-2.4
		c2-2.4,3.7-5,4.9-7.9c1.8-3.7,3.9-8.9,6.4-15.8l-0.3,5.2l-18.5-37.6c-1.1-2.3-2.4-4.4-3.9-6.4c-0.9-1-2.2-1.6-3.5-1.5
		c-0.1,0-0.2-0.2-0.2-0.7s0.1-0.7,0.2-0.7c2,0,3.4,0,4.5,0.1l4.4,0.1l7.6-0.1c1.1-0.1,2.6-0.1,4.6-0.1c0.2,0,0.3,0.2,0.3,0.7
		s-0.1,0.7-0.3,0.7c-1.5-0.1-3,0.1-4.5,0.5c-0.8,0.2-1.4,0.9-1.5,1.7c0,0.8,0.3,1.5,0.7,2.1l14.6,29.9l-3.5,5.9l10.2-29.3
		c0.5-1.6,0.8-3.2,0.9-4.8c0-4-2.5-6-7.5-6c-0.1,0-0.2-0.2-0.2-0.7s0.1-0.7,0.2-0.7c2,0,3.5,0,4.6,0.1l6.7,0.1l4.4-0.1
		C2090.8,149.2,2092.1,149.2,2093.9,149.1L2093.9,149.1z M2134,148.7c0,2,0.6,4,1.8,5.6c1.2,1.6,2.7,3,4.5,4
		c1.8,1.1,4.2,2.4,7.2,3.9c2.6,1.3,5.2,2.8,7.7,4.4c1.9,1.3,3.6,2.9,4.9,4.8c1.4,2,2.1,4.4,2,6.8c0,2.9-0.8,5.7-2.5,8
		c-1.8,2.5-4.2,4.5-7,5.7c-3.2,1.4-6.7,2.1-10.2,2.1c-3.1,0-6.1-0.4-9.1-1.2c-2.3-0.5-4.6-1.5-6.6-2.9c-0.7-0.6-1-1.5-0.9-2.3
		l-0.8-12.1c0-0.3,0.2-0.5,0.6-0.6c0.3-0.1,0.7,0,0.8,0.3c1.9,4.3,4.4,8.2,7.6,11.5c3.1,3.2,6.5,4.8,10.3,4.8
		c2.3,0.1,4.6-0.7,6.4-2.1c1.7-1.4,2.6-3.6,2.6-6.5c0-2.2-0.6-4.4-1.9-6.3c-1.3-1.8-2.8-3.3-4.6-4.5c-1.8-1.2-4.3-2.7-7.3-4.3
		c-2.4-1.3-4.8-2.7-7.1-4.2c-1.8-1.2-3.3-2.8-4.5-4.5c-1.3-1.8-1.9-4-1.9-6.3c-0.1-4.1,1.9-8,5.4-10.2c3.9-2.6,8.5-3.9,13.2-3.8
		c2.3,0,4.6,0.3,6.8,0.7c2.1,0.4,4.1,1,6,1.8c0.5,0.2,1,0.5,1.3,0.9c0.2,0.4,0.4,0.8,0.3,1.2l0.3,10.3c0,0.3-0.2,0.5-0.6,0.6
		c-0.3,0.1-0.6,0-0.8-0.2c-0.6-1.9-1.5-3.6-2.7-5.3c-1.4-2.1-3.2-4-5.3-5.4c-2.2-1.6-4.8-2.4-7.4-2.4c-2.3-0.2-4.6,0.6-6.3,2.2
		C2134.7,144.6,2133.9,146.6,2134,148.7L2134,148.7z M2142.1,129.5c0-0.3,0.2-0.6,0.4-0.7c0.4-0.2,0.7-0.2,1.1-0.2
		c0.3,0,0.7,0.1,1,0.2c0.3,0.1,0.5,0.4,0.4,0.7v74.3c0,0.5-0.5,0.8-1.5,0.8s-1.6-0.3-1.6-0.8L2142.1,129.5L2142.1,129.5z
		 M2171.9,223.1c-0.3,0.1-0.6-0.1-0.7-0.5s-0.1-0.7,0.2-0.7c8.4-3.1,14.5-7.2,18.1-12.2c3.7-5,5.5-9.9,5.5-14.8
		c0.2-3.8-1-7.4-3.3-10.4c-2.2-2.7-5.3-4-9.2-4c-1.6,0-3.2,0.2-4.8,0.7c-0.2,0.1-0.4-0.1-0.6-0.6s-0.1-0.7,0.1-0.8
		c5.4-1.4,9.3-3.5,11.7-6.2s3.6-6.5,3.6-11.3c0-3.7-0.6-6.6-1.9-8.7c-1.2-2-3.5-3.2-5.8-3.1c-3.1,0-6.1,1.1-8.4,3.2
		c-2.8,2.7-4.9,6-6.1,9.6c-0.1,0.1-0.3,0.1-0.4,0.1c-0.7,0-1-0.1-0.9-0.4l4.1-16.4c0.1-0.1,0.3-0.2,0.4-0.2c0.2,0,0.5,0.1,0.7,0.2
		c0.2,0.1,0.3,0.2,0.2,0.3c-0.1,0.4-0.2,0.8-0.2,1.2c-0.1,0.9,0.5,1.8,1.4,1.9c0,0,0,0,0,0c0.2,0,0.3,0,0.5,0
		c1.3-0.1,2.5-0.4,3.7-0.9c1.7-0.5,3.2-0.9,4.4-1.2c1.4-0.3,2.8-0.4,4.2-0.4c4.3,0,7.7,1.2,10.2,3.8c2.4,2.4,3.7,5.6,3.7,9
		c0,4.3-1.6,8.5-4.5,11.7c-3.1,3.6-7.4,6.1-12.1,6.9l0.7-1.7c6.3,0.1,11.2,1.8,14.4,4.9c3.2,2.9,5,7,4.9,11.3
		c-0.1,3.9-1.4,7.7-3.7,10.9c-2.5,3.7-6.2,7.2-11.3,10.5C2184.9,218.5,2178.6,221.3,2171.9,223.1L2171.9,223.1z M2237.1,193.8
		c-4.3,0.1-8.5-1-12.2-3c-3.5-1.9-6.4-4.8-8.4-8.3c-2-3.6-3.1-7.8-3-11.9c-0.1-4.1,1-8.2,3-11.8c2-3.4,4.9-6.3,8.4-8.1
		c3.8-2,8-3,12.2-2.9c4.2-0.1,8.4,1,12.1,3c3.4,1.9,6.3,4.7,8.2,8.1c4,7.4,4,16.3,0,23.7c-1.9,3.5-4.8,6.3-8.3,8.2
		C2245.5,192.8,2241.3,193.8,2237.1,193.8L2237.1,193.8z M2238.2,191.7c3.6,0.1,7-1.9,8.6-5.2c1.9-3.4,2.9-8.2,2.9-14.3
		c0-7.5-1.3-13.1-3.9-16.8c-2.6-3.7-5.8-5.6-9.8-5.6c-3.8-0.1-7.3,2-9,5.3c-2.1,3.6-3.1,8.3-3.1,14.3c0,6.6,1.3,11.9,3.9,16.1
		C2230.5,189.6,2234,191.7,2238.2,191.7L2238.2,191.7z M2293,193.8c-4.3,0.1-8.5-1-12.2-3c-3.5-2-6.4-4.8-8.4-8.3
		c-2-3.6-3.1-7.8-3-11.9c-0.1-4.1,1-8.2,3-11.8c2-3.4,4.9-6.2,8.4-8.1c3.8-2,8-3,12.2-2.9c4.2-0.1,8.4,1,12.1,3
		c3.5,1.9,6.3,4.8,8.2,8.2c4,7.4,4,16.3,0,23.7c-1.9,3.5-4.8,6.3-8.3,8.2C2301.4,192.9,2297.3,193.9,2293,193.8L2293,193.8z
		 M2294.1,191.7c3.6,0.1,7-1.9,8.6-5.2c1.9-3.4,2.9-8.2,2.9-14.3c0-7.5-1.3-13.1-3.9-16.8c-2.6-3.7-5.8-5.6-9.8-5.6
		c-3.8-0.1-7.3,2-9,5.3c-2.1,3.6-3.1,8.3-3.1,14.3c0,6.6,1.3,11.9,3.9,16.1C2286.4,189.6,2289.8,191.7,2294.1,191.7L2294.1,191.7z"
		/>
	<g>
		<text transform="matrix(1 0 0 1 0 336.29)" class="st0 st1 st2 st3">    </text>
	</g>
	<g>
		<text transform="matrix(1 0 0 1 179.99 336.29)" class="st0 st1 st2 st4">B</text>
		<text transform="matrix(1 0 0 1 212.63 336.29)" class="st0 st1 st2">y</text>
		<text transform="matrix(1 0 0 1 252.47 336.29)" class="st0 st1 st2">L</text>
		<text transform="matrix(1 0 0 1 284.63 336.29)" class="st0 st1 st2">i</text>
		<text transform="matrix(1 0 0 1 300.17 336.29)" class="st0 st1 st2 st5">l</text>
		<text transform="matrix(1 0 0 1 314.99 336.29)" class="st0 st1 st2">y</text>
		<text transform="matrix(1 0 0 1 354.83 336.29)" class="st0 st1 st2">O</text>
		<text transform="matrix(1 0 0 1 400.37 336.29)" class="st0 st1 st2">’</text>
		<text transform="matrix(1 0 0 1 411.34 336.29)" class="st0 st1 st2">C</text>
		<text transform="matrix(1 0 0 1 451.6 336.29)" class="st0 st1 st2">o</text>
		<text transform="matrix(1 0 0 1 479.86 336.29)" class="st0 st1 st2">n</text>
		<text transform="matrix(1 0 0 1 510.94 336.29)" class="st0 st1 st2 st5">n</text>
		<text transform="matrix(1 0 0 1 540.88 336.29)" class="st0 st1 st2 st5">e</text>
		<text transform="matrix(1 0 0 1 564.34 336.29)" class="st0 st1 st2">l</text>
		<text transform="matrix(1 0 0 1 579.64 336.29)" class="st0 st1 st2">l</text>
	</g>
	<g>
		<text transform="matrix(1 0 0 1 0 408.29)" class="st0 st1 st2 st3">    </text>
	</g>
	<g>
		<text transform="matrix(1 0 0 1 179.99 408.29)" class="st0 st1 st2">S</text>
		<text transform="matrix(1 0 0 1 209.75 408.29)" class="st0 st1 st2">e</text>
		<text transform="matrix(1 0 0 1 234.59 408.29)" class="st0 st1 st2">n</text>
		<text transform="matrix(1 0 0 1 265.55 408.29)" class="st0 st1 st2 st5">i</text>
		<text transform="matrix(1 0 0 1 279.83 408.29)" class="st0 st1 st2">o</text>
		<text transform="matrix(1 0 0 1 308.09 408.29)" class="st0 st1 st2">r</text>
		<text transform="matrix(1 0 0 1 344.57 408.29)" class="st0 st1 st2 st5">C</text>
		<text transform="matrix(1 0 0 1 384.35 408.29)" class="st0 st1 st2">u</text>
		<text transform="matrix(1 0 0 1 413.99 408.29)" class="st0 st1 st2 st4">l</text>
		<text transform="matrix(1 0 0 1 427.61 408.29)" class="st0 st1 st2">t</text>
		<text transform="matrix(1 0 0 1 447.82 408.29)" class="st0 st1 st2">u</text>
		<text transform="matrix(1 0 0 1 477.34 408.29)" class="st0 st1 st2 st5">r</text>
		<text transform="matrix(1 0 0 1 498.7 408.29)" class="st0 st1 st2">a</text>
		<text transform="matrix(1 0 0 1 523.78 408.29)" class="st0 st1 st2">l</text>
		<text transform="matrix(1 0 0 1 553.72 408.29)" class="st0 st1 st2">E</text>
		<text transform="matrix(1 0 0 1 586.12 408.29)" class="st0 st1 st2">d</text>
		<text transform="matrix(1 0 0 1 616.12 408.29)" class="st0 st1 st2 st4">i</text>
		<text transform="matrix(1 0 0 1 629.98 408.29)" class="st0 st1 st2 st5">t</text>
		<text transform="matrix(1 0 0 1 649.18 408.29)" class="st0 st1 st2">o</text>
		<text transform="matrix(1 0 0 1 677.44 408.29)" class="st0 st1 st2">r</text>
	</g>
	<g>
		<text transform="matrix(1 0 0 1 0 32.5)" class="st0 st6 st7">M</text>
		<text transform="matrix(1 0 0 1 33.44 32.5)" class="st0 st6 st7">a</text>
		<text transform="matrix(1 0 0 1 50.24 32.5)" class="st0 st6 st7 st5">r</text>
		<text transform="matrix(1 0 0 1 63.24 32.5)" class="st0 st6 st7">.</text>
		<text transform="matrix(1 0 0 1 80.6 32.5)" class="st0 st6 st7">1</text>
		<text transform="matrix(1 0 0 1 94.16 32.5)" class="st0 st6 st7 st8">4</text>
		<text transform="matrix(1 0 0 1 113.4 32.5)" class="st0 st6 st7">,</text>
		<text transform="matrix(1 0 0 1 131.64 32.5)" class="st0 st6 st7">2</text>
		<text transform="matrix(1 0 0 1 148.52 32.5)" class="st0 st6 st7">0</text>
		<text transform="matrix(1 0 0 1 168.04 32.5)" class="st0 st6 st7">2</text>
		<text transform="matrix(1 0 0 1 184.6511 32.4999)" class="st0 st6 st7">1</text>
	</g>
</g>
</svg>
