<svg xmlns="http://www.w3.org/2000/svg" xmlns:xlink="http://www.w3.org/1999/xlink" viewBox="0 0 3456 2234"><defs><style>.cls-1,.cls-26{fill:none;}.cls-2,.cls-27,.cls-3,.cls-5{fill:#1d1d1b;}.cls-3,.cls-5{font-size:60px;font-family:CormorantGaramond-SemiBold, Cormorant Garamond;font-weight:600;}.cls-3{letter-spacing:0.36em;}.cls-4{letter-spacing:0em;}.cls-6{letter-spacing:-0.04em;}.cls-7{letter-spacing:0em;}.cls-8{letter-spacing:-0.01em;}.cls-9{letter-spacing:-0.02em;}.cls-10{letter-spacing:-0.01em;}.cls-11{letter-spacing:-0.01em;}.cls-12{letter-spacing:-0.01em;}.cls-13{letter-spacing:-0.02em;}.cls-14{letter-spacing:-0.02em;}.cls-15{letter-spacing:-0.01em;}.cls-16{letter-spacing:-0.01em;}.cls-17{letter-spacing:-0.03em;}.cls-18{letter-spacing:-0.02em;}.cls-19{letter-spacing:0em;}.cls-20{letter-spacing:-0.01em;}.cls-21{letter-spacing:0em;}.cls-22{letter-spacing:-0.01em;}.cls-23{letter-spacing:-0.04em;}.cls-24{letter-spacing:-0.02em;}.cls-25{clip-path:url(#clip-path);}.cls-26{stroke:#000;stroke-width:3px;}.cls-27{font-size:40px;font-family:CormorantGaramond-Medium, Cormorant Garamond;font-weight:500;}.cls-28{letter-spacing:-0.01em;}.cls-29{letter-spacing:-0.04em;}.cls-30{letter-spacing:0.01em;}.cls-31{letter-spacing:0.03em;}.cls-32{letter-spacing:0em;}.cls-33{letter-spacing:0.02em;}.cls-34{letter-spacing:0.01em;}.cls-35{letter-spacing:0em;}</style><clipPath id="clip-path"><rect class="cls-1" x="508.56" y="482.76" width="2438.89" height="474.22"/></clipPath></defs><g id="Layer_3" data-name="Layer 3"><path class="cls-2" d="M554.7,706.51c-.15,0-.22-.23-.22-.67s.07-.68.22-.68a26.54,26.54,0,0,0,6.44-.56,4,4,0,0,0,2.8-2.18,12.92,12.92,0,0,0,.73-5V645.58a12.42,12.42,0,0,0-.56-4.31,3.24,3.24,0,0,0-2-1.91,18,18,0,0,0-15.79,3.7q-4.37,4.2-6.72,12.6c0,.22-.21.32-.62.28s-.61-.13-.61-.28q.45-4.36,1-11.26t.56-10.36c0-.37.2-.56.61-.56s.62.19.62.56q0,2.48,6.27,2.47,9.63.33,22.51.33,16.8,0,21.73-.33a22.22,22.22,0,0,0,11.59-3.31,17.28,17.28,0,0,0,6.78-7.89.86.86,0,0,1,.78-.34,1.8,1.8,0,0,1,.79.17q.33.17.33.39v71.91q0,4.59,1.29,6.16t5.1,1.56c.22,0,.33.23.33.68s-.11.67-.33.67c-1.87,0-3.33,0-4.37-.11l-6.5-.12-6.49.12c-1.12.07-2.62.11-4.48.11-.15,0-.23-.23-.23-.67s.08-.68.23-.68q3.79,0,5.09-1.56t1.29-6.16v-56.9a1.63,1.63,0,0,0-.45-1.29,2.42,2.42,0,0,0-1.57-.39H582.7a14.43,14.43,0,0,0-4.65.56,3.36,3.36,0,0,0-2.07,2,12.87,12.87,0,0,0-.56,4.42v51.64a12.73,12.73,0,0,0,.73,5,3.94,3.94,0,0,0,2.74,2.18,25.85,25.85,0,0,0,6.39.56c.22,0,.33.23.33.68s-.11.67-.33.67q-3.93,0-6.16-.11l-9.19-.12-8.73.12q-2.36.11-6.5.11Zm71.9,0c-.15,0-.22-.23-.22-.67s.07-.68.22-.68q3.81,0,5.1-1.56t1.29-6.16V680.75c0-4.18-.79-7.28-2.35-9.3s-4-3-7.17-3A15.64,15.64,0,0,0,616,670.5,17.32,17.32,0,0,0,609.8,676l-.11-1.9q8.63-12.09,19.38-12.1,6,0,9.52,3.7t3.47,10.08v21.62q0,4.59,1.29,6.16c.86,1,2.55,1.56,5.09,1.56.23,0,.34.23.34.68s-.11.67-.34.67c-1.86,0-3.32,0-4.36-.11l-6.5-.12-6.5.12c-1.12.07-2.61.11-4.48.11ZM674,707.85a22.38,22.38,0,0,1-11.81-3,20.46,20.46,0,0,1-7.62-8A22.33,22.33,0,0,1,652,686.24a23.27,23.27,0,0,1,3.25-12.1,23.63,23.63,0,0,1,8.9-8.68,25.16,25.16,0,0,1,12.6-3.19q6.72,0,10.36,3.25t3.64,9.63a7.77,7.77,0,0,1-.28,2.46,1,1,0,0,1-.95.79h-9.19q.57-13.89-7.61-13.89a8.88,8.88,0,0,0-7.9,4.59q-2.85,4.59-2.85,12.43,0,9.86,4.59,15.63t13,5.76a15.36,15.36,0,0,0,5.26-.78,50.82,50.82,0,0,0,5.6-2.58l.23-.11c.15,0,.32.15.5.45s.21.52.06.67a27.71,27.71,0,0,1-8.18,5.55,23.08,23.08,0,0,1-9,1.73ZM658.56,676.6l24.86-.44v2.24l-24.75.11ZM744.12,697a12,12,0,0,0,.84,5.21,4.9,4.9,0,0,0,3.25,2.29,30.69,30.69,0,0,0,7.56.67c.23,0,.34.23.34.68s-.11.67-.34.67q-4.59,0-7.17-.11l-9.74-.12-8.06.12c-1.42.07-3.36.11-5.83.11-.22,0-.33-.23-.33-.67s.11-.68.33-.68a19.53,19.53,0,0,0,5.55-.56,3.54,3.54,0,0,0,2.35-2.18,15,15,0,0,0,.61-5V645.58a14.55,14.55,0,0,0-.61-4.93,3.74,3.74,0,0,0-2.41-2.18,18.11,18.11,0,0,0-5.49-.62c-.22,0-.33-.22-.33-.67s.11-.67.33-.67l5.83.11q4.92.23,8,.22c1.71,0,3.81-.11,6.27-.33.9-.08,2.11-.15,3.64-.23s3.34-.11,5.43-.11q11,0,17.47,4.71t6.5,14.44a19.6,19.6,0,0,1-3.64,12,22.61,22.61,0,0,1-9.3,7.39,28.77,28.77,0,0,1-11.59,2.46,22,22,0,0,1-5.37-.56c-.15,0-.23-.18-.23-.56a1.55,1.55,0,0,1,.17-.67c.11-.22.24-.3.39-.22a15.26,15.26,0,0,0,3.92.45,12.42,12.42,0,0,0,9.86-4.82q4-4.81,4-13.78t-4.09-13.72q-4.08-4.86-11.48-4.87a11.64,11.64,0,0,0-4.09.56,3.43,3.43,0,0,0-2,2.07,14.91,14.91,0,0,0-.56,4.76V697Zm47,10.3q-4.59,0-6.94-2.13a7.44,7.44,0,0,1-2.35-5.82,7.34,7.34,0,0,1,1.62-4.93,12.26,12.26,0,0,1,4.09-3.08c1.64-.78,4.11-1.77,7.39-3l12-4.48.33,1.68L799,689a18.92,18.92,0,0,0-4.82,2.68,5.33,5.33,0,0,0-1.79,4.37,5.49,5.49,0,0,0,1.73,4.26,5.93,5.93,0,0,0,4.09,1.57,8.44,8.44,0,0,0,4.37-1.35l6-4,.11,1.68-7.95,5.6a20.89,20.89,0,0,1-4.87,2.69,14.44,14.44,0,0,1-4.88.78Zm21.06-.11a2.21,2.21,0,0,1-1,.22q-2,0-3.69-2.74a14,14,0,0,1-1.68-7.34V677.61q0-6.95-1.4-10.13c-.94-2.13-2.41-3.2-4.43-3.2A5.7,5.7,0,0,0,794.6,667a14.81,14.81,0,0,0-2,6.1q-.67,5.72-5.71,5.71a5.1,5.1,0,0,1-3.64-1.12,3.71,3.71,0,0,1-1.18-2.8q0-3.13,3.76-6.1a30.84,30.84,0,0,1,9.07-4.82,29,29,0,0,1,9.35-1.84,10,10,0,0,1,7.67,3q2.87,3,2.86,9.07v20.16c0,4.71,1.45,7.06,4.37,7.06a10.62,10.62,0,0,0,4-1h.22a.54.54,0,0,1,.56.5.59.59,0,0,1-.33.73l-11.54,5.49Zm15.23-.67c-.22,0-.33-.23-.33-.67s.11-.68.33-.68q3.81,0,5-1.56t1.23-6.16V676a12.4,12.4,0,0,0-.84-5.26,2.85,2.85,0,0,0-2.74-1.68,16.92,16.92,0,0,0-5.6,1.68h-.11c-.3,0-.52-.19-.67-.56s-.12-.6.11-.67l14.67-7.17a4.57,4.57,0,0,1,.78-.22c.83,0,1.61.93,2.36,2.8a20,20,0,0,1,1.12,7.28v25.2a10.07,10.07,0,0,0,.89,4.76,5,5,0,0,0,3.08,2.29,22.73,22.73,0,0,0,6.33.67c.3,0,.45.23.45.68s-.15.67-.45.67c-2.54,0-4.55,0-6-.11l-8.73-.12-6.5.12c-1.05.07-2.5.11-4.37.11Zm12-31.7A70.26,70.26,0,0,1,849,664.9q3.59-2.74,6.38-2.74a8.22,8.22,0,0,1,4.82,1.68,4.86,4.86,0,0,1,2.35,4,4.71,4.71,0,0,1-1.23,3.41,4.57,4.57,0,0,1-3.47,1.29,4.36,4.36,0,0,1-2.36-.56,11.62,11.62,0,0,1-2-1.68,11.66,11.66,0,0,0-1.79-1.51,3.44,3.44,0,0,0-1.91-.5,5.59,5.59,0,0,0-3.3,1.45,66.52,66.52,0,0,0-6.33,6.39l-.78-1.35Zm45.43,33a13.9,13.9,0,0,1-8.12-2.29q-3.3-2.29-3.3-7.68V672.57q0-3.69-1.18-4.93t-4.53-1.23c-.08,0-.17-.09-.28-.28a1.17,1.17,0,0,1-.17-.61,1.2,1.2,0,0,1,.17-.62c.11-.19.2-.28.28-.28q10.53-.45,13.21-9.07.12-.45.9-.45t.78.45v38.64q0,4.37,2.19,6.44a8.51,8.51,0,0,0,6.1,2.07,14.06,14.06,0,0,0,8.85-3.25l.22-.11c.23,0,.43.17.62.5s.17.58-.06.73a32.05,32.05,0,0,1-7.84,5.55,18.28,18.28,0,0,1-7.84,1.73Zm12.21-39a81.18,81.18,0,0,0-17.69-1.8V664.4q7.16,0,18.14-1.12c.15,0,.32.28.5.84a5.68,5.68,0,0,1,.28,1.84,5.53,5.53,0,0,1-.39,2q-.39,1-.84.9Zm9.2,37.63c-.23,0-.34-.23-.34-.67s.11-.68.34-.68q3.81,0,5-1.56t1.23-6.16V676a12.4,12.4,0,0,0-.84-5.26,2.85,2.85,0,0,0-2.74-1.68,16.92,16.92,0,0,0-5.6,1.68h-.12c-.3,0-.52-.19-.67-.56s-.11-.6.11-.67l14.68-7.17a4.1,4.1,0,0,1,.78-.22c.82,0,1.6.93,2.35,2.8a19.77,19.77,0,0,1,1.12,7.28v25.2q0,4.59,1.29,6.16t5.1,1.56c.22,0,.33.23.33.68s-.11.67-.33.67c-1.87,0-3.36,0-4.48-.11l-6.39-.12-6.49.12c-1,.07-2.51.11-4.37.11Zm30.13,0c-.23,0-.34-.23-.34-.67s.11-.68.34-.68q3.79,0,5-1.56t1.23-6.16v-16.8q0-6.27-2.3-9.24t-7.22-3a15.66,15.66,0,0,0-7.45,2,17.34,17.34,0,0,0-6.1,5.38l-.56-1.34q9-12.56,19.71-12.55c4.1,0,7.3,1.23,9.57,3.7s3.42,5.86,3.42,10.19v21.62q0,4.59,1.29,6.16c.86,1,2.55,1.56,5.09,1.56.23,0,.34.23.34.68s-.11.67-.34.67c-1.86,0-3.36,0-4.48-.11l-6.38-.12-6.38.12c-1.12.07-2.62.11-4.48.11Zm46.49,1.34a22.39,22.39,0,0,1-11.82-3,20.5,20.5,0,0,1-7.61-8,22.22,22.22,0,0,1-2.64-10.64,23.27,23.27,0,0,1,3.25-12.1,23.65,23.65,0,0,1,8.91-8.68,25.11,25.11,0,0,1,12.6-3.19q6.72,0,10.36,3.25t3.64,9.63a8.08,8.08,0,0,1-.28,2.46,1,1,0,0,1-1,.79h-9.18q.55-13.89-7.62-13.89a8.85,8.85,0,0,0-7.89,4.59q-2.87,4.59-2.86,12.43,0,9.86,4.59,15.63t13,5.76a15.44,15.44,0,0,0,5.26-.78,51.68,51.68,0,0,0,5.6-2.58l.22-.11q.23,0,.51.45c.18.3.2.52.05.67a27.55,27.55,0,0,1-8.17,5.55,23.11,23.11,0,0,1-9,1.73ZM967.35,676.6l24.87-.44v2.24l-24.76.11Zm40.27,29.91c-.23,0-.34-.23-.34-.67s.11-.68.34-.68q3.79,0,5-1.56t1.23-6.16V676a12.4,12.4,0,0,0-.84-5.26,2.86,2.86,0,0,0-2.75-1.68,17,17,0,0,0-5.6,1.68h-.11c-.3,0-.52-.19-.67-.56s-.11-.6.11-.67l14.67-7.17a4.31,4.31,0,0,1,.79-.22c.82,0,1.6.93,2.35,2.8a19.77,19.77,0,0,1,1.12,7.28v25.2a10.06,10.06,0,0,0,.9,4.76,5,5,0,0,0,3.08,2.29,22.6,22.6,0,0,0,6.32.67c.3,0,.45.23.45.68s-.15.67-.45.67q-3.81,0-6-.11l-8.74-.12-6.5.12c-1,.07-2.5.11-4.36.11Zm12-31.7a70.26,70.26,0,0,1,9.63-9.91q3.58-2.74,6.39-2.74a8.2,8.2,0,0,1,4.81,1.68,4.86,4.86,0,0,1,2.35,4,4.71,4.71,0,0,1-1.23,3.41,4.57,4.57,0,0,1-3.47,1.29,4.3,4.3,0,0,1-2.35-.56,11.64,11.64,0,0,1-2-1.68,11.66,11.66,0,0,0-1.79-1.51,3.41,3.41,0,0,0-1.9-.5,5.58,5.58,0,0,0-3.31,1.45,66.52,66.52,0,0,0-6.33,6.39l-.78-1.35Zm63.73-26.43a37.6,37.6,0,0,0-6.56-8.23,8.42,8.42,0,0,0-5.32-2.3c-.22,0-.33-.22-.33-.67s.11-.67.33-.67l3.7.11c1.64.15,2.84.22,3.58.22,2.47,0,6-.07,10.64-.22l7.06-.11c.15,0,.22.22.22.67s-.07.67-.22.67c-3.14,0-4.7,1-4.7,3a7.86,7.86,0,0,0,1.45,3.69l17.14,26.32-9,5-18-27.55Zm27.77,22.4v26.66a16.47,16.47,0,0,0,.56,5,3.38,3.38,0,0,0,2.3,2.12,19.45,19.45,0,0,0,5.54.56c.23,0,.34.23.34.68s-.11.67-.34.67c-2.39,0-4.25,0-5.6-.11l-8.17-.12-8.07.12q-2.23.11-5.93.11c-.15,0-.23-.23-.23-.67s.08-.68.23-.68a20.18,20.18,0,0,0,5.6-.56,3.71,3.71,0,0,0,2.46-2.18,13.76,13.76,0,0,0,.67-5V671.79Zm9.75-20c1.86-3.06,2.8-5.71,2.8-8,0-3.28-2.06-4.93-6.16-4.93-.15,0-.23-.22-.23-.67s.08-.67.23-.67l5.82.11q4.71.23,8.62.22c1.27,0,2.8-.07,4.6-.22l4.14-.11c.15,0,.22.22.22.67s-.07.67-.22.67q-3.69,0-8.4,3.87a38.68,38.68,0,0,0-8.4,9.91l-15.57,25.2-2.24-1.79,14.79-24.31ZM1154.4,708a22,22,0,0,1-11.87-3.19,21.51,21.51,0,0,1-8-8.62,25.37,25.37,0,0,1-2.8-11.82,20.68,20.68,0,0,1,3.64-12.37,22.42,22.42,0,0,1,9.29-7.62,28.23,28.23,0,0,1,11.59-2.52A21.4,21.4,0,0,1,1176,673.64,24.83,24.83,0,0,1,1178.7,685a22,22,0,0,1-12.2,20.11,26.32,26.32,0,0,1-12.1,2.85Zm3.36-2.24a8.48,8.48,0,0,0,7.62-4.36q2.68-4.38,2.68-12.77a37.82,37.82,0,0,0-2.07-13.11,19.52,19.52,0,0,0-5.6-8.51,11.93,11.93,0,0,0-7.78-2.91,8.53,8.53,0,0,0-7.67,4.14q-2.64,4.15-2.64,12.21a39.47,39.47,0,0,0,2,13.05,21.71,21.71,0,0,0,5.54,9,11.42,11.42,0,0,0,7.9,3.24Zm43.61,2q-6,0-9.41-3.75t-3.36-10.25V677.05a14.82,14.82,0,0,0-.84-5.77,2.75,2.75,0,0,0-2.63-1.84,6.77,6.77,0,0,0-3.13.89h-.12c-.29,0-.52-.18-.67-.56s-.11-.63.11-.78l14.12-6.61.56-.11a1.68,1.68,0,0,1,1,.45c.38.3.56.56.56.78v25.42c0,4.19.77,7.3,2.3,9.36s3.86,3.08,7,3.08a14.4,14.4,0,0,0,7.22-2.08,18.2,18.2,0,0,0,6-5.43l.67,1.35q-9.18,12.54-19.38,12.54Zm25.54-13.89a13.54,13.54,0,0,0,.78,5.43,2.74,2.74,0,0,0,2.69,1.63,18.37,18.37,0,0,0,5-1.35l.22-.11c.23,0,.41.19.56.56s.12.64-.11.79l-14.67,7.05-.45.11c-.82,0-1.53-.93-2.13-2.8a25.58,25.58,0,0,1-.89-7.5V677.05a14.82,14.82,0,0,0-.84-5.77,2.76,2.76,0,0,0-2.63-1.84,7.29,7.29,0,0,0-3.14.89h-.11c-.3,0-.52-.2-.67-.61s-.08-.66.22-.73l14.11-6.61.45-.11a1.7,1.7,0,0,1,1,.45c.37.3.56.56.56.78v30.35Zm115.25,11.31c.29,0,.44.23.44.68s-.15.67-.44.67q-2.13,0-6.84-.23c-3.13-.14-5.41-.22-6.83-.22-1.86,0-4.07.08-6.61.22s-4.51.23-5.93.23c-.3,0-.45-.23-.45-.67s.15-.68.45-.68a11.63,11.63,0,0,0,4.81-.72,2.51,2.51,0,0,0,1.46-2.41c0-1.12-.63-3-1.9-5.71l-23.41-47.6,4.59-7.51-22.18,49.95a15.45,15.45,0,0,0-1.45,6.05,6.85,6.85,0,0,0,2.8,5.94c1.86,1.34,4.48,2,7.84,2,.37,0,.56.23.56.68s-.19.67-.56.67q-2,0-5.83-.23c-2.83-.14-5.3-.22-7.39-.22s-4.37.08-7,.22q-3.59.22-5.94.23c-.37,0-.56-.23-.56-.67s.19-.68.56-.68a10.34,10.34,0,0,0,5.26-1.23,13,13,0,0,0,4.15-4.42,78.52,78.52,0,0,0,4.81-9.47l24.08-54.2c.15-.23.49-.34,1-.34s.82.11.9.34L1330,691.16q3.81,8.07,6.44,11a7.64,7.64,0,0,0,5.77,3ZM1284,676.27h31.36l.78,2.8h-33.6Zm63.6,30.24c-.22,0-.33-.23-.33-.67s.11-.68.33-.68q3.81,0,5.1-1.56t1.29-6.16V640.2a15.94,15.94,0,0,0-.73-5.65,2.56,2.56,0,0,0-2.52-1.74,11.88,11.88,0,0,0-4.59,1.35h-.11c-.3,0-.53-.19-.68-.56s-.15-.64,0-.79l15.8-7.39.44-.11a1.68,1.68,0,0,1,1,.45c.37.3.56.56.56.78v70.9q0,4.59,1.29,6.16t5.1,1.56c.22,0,.33.23.33.68s-.11.67-.33.67c-1.87,0-3.36,0-4.48-.11l-6.5-.12-6.5.12c-1.12.07-2.61.11-4.48.11ZM1378,672.57q-2.46-4.92-4.08-6.44a5.78,5.78,0,0,0-4.09-1.51c-.23,0-.34-.22-.34-.67s.11-.67.34-.67c1.34,0,2.42,0,3.25.11l6.49.11,7.62-.11c1.12-.08,2.65-.11,4.59-.11.22,0,.34.22.34.67s-.12.67-.34.67q-5.94,0-5.94,2.58a4.43,4.43,0,0,0,.56,1.79l14.12,27-4.93,8.06,12.21-29.45,2.68.56L1397,706.4c0,.29-.37.44-1.12.44a1.63,1.63,0,0,1-1.34-.44L1378,672.57Zm27.11,0a34.67,34.67,0,0,0-3.81-6.44,4.42,4.42,0,0,0-3.47-1.51c-.15,0-.23-.22-.23-.67s.08-.67.23-.67c1.27,0,2.31,0,3.13.11l5.83.11,7.61-.11c1.12-.08,2.65-.11,4.6-.11.14,0,.22.22.22.67s-.08.67-.22.67a9.48,9.48,0,0,0-4.09.73,2.25,2.25,0,0,0-1.51,2.07,3.12,3.12,0,0,0,.44,1.57l13.67,27-4.71,8.06,12.44-30.24a10.53,10.53,0,0,0,.78-3.8,4.59,4.59,0,0,0-2-4,9.69,9.69,0,0,0-5.66-1.4c-.22,0-.33-.22-.33-.67s.11-.67.33-.67c2,0,3.51,0,4.48.11l6.72.11,4.48-.11c.75-.08,2-.11,3.81-.11.23,0,.34.22.34.67s-.11.67-.34.67a7.52,7.52,0,0,0-5.32,2.18,21.85,21.85,0,0,0-4.42,7.23l-13.89,32.37c-.08.29-.45.44-1.12.44s-1.27-.15-1.34-.44l-16.69-33.83Zm53.1,34.72c-3.07,0-5.38-.71-7-2.13a7.44,7.44,0,0,1-2.35-5.82,7.34,7.34,0,0,1,1.62-4.93,12.36,12.36,0,0,1,4.09-3.08c1.64-.78,4.11-1.77,7.39-3l12-4.48.33,1.68-8.17,3.48a19.1,19.1,0,0,0-4.82,2.68,5.33,5.33,0,0,0-1.79,4.37,5.46,5.46,0,0,0,1.74,4.26,5.91,5.91,0,0,0,4.08,1.57,8.44,8.44,0,0,0,4.37-1.35l6-4,.11,1.68-7.95,5.6a20.89,20.89,0,0,1-4.87,2.69,14.42,14.42,0,0,1-4.87.78Zm21-.11a2.21,2.21,0,0,1-1,.22q-2,0-3.69-2.74a14,14,0,0,1-1.68-7.34V677.61q0-6.95-1.4-10.13c-.94-2.13-2.41-3.2-4.43-3.2a5.71,5.71,0,0,0-5.32,2.75,14.81,14.81,0,0,0-2,6.1c-.44,3.81-2.35,5.71-5.71,5.71a5.12,5.12,0,0,1-3.64-1.12,3.71,3.71,0,0,1-1.17-2.8q0-3.13,3.75-6.1A30.84,30.84,0,0,1,1462,664a29.07,29.07,0,0,1,9.35-1.84,10,10,0,0,1,7.67,3q2.87,3,2.86,9.07v20.16q0,7.07,4.37,7.06a10.62,10.62,0,0,0,4-1h.22a.54.54,0,0,1,.56.5.58.58,0,0,1-.33.73l-11.54,5.49Zm57.62-43.9c.14,0,.22.22.22.67s-.08.67-.22.67a7.49,7.49,0,0,0-5.77,2.69,25.65,25.65,0,0,0-4.43,8.17l-12.88,34.16a106.5,106.5,0,0,1-7.72,16.92q-3.7,6.15-7.51,8.79a14.49,14.49,0,0,1-8.4,2.63,8,8,0,0,1-4.87-1.29,4.49,4.49,0,0,1-1.74-3.86,4.25,4.25,0,0,1,1.4-3.36,5,5,0,0,1,3.42-1.23,6,6,0,0,1,2.18.33,14.43,14.43,0,0,1,2.08,1.12,6.37,6.37,0,0,0,3.92,1.46,6.91,6.91,0,0,0,5.09-2.41,31.92,31.92,0,0,0,4.93-7.9q2.63-5.48,6.44-15.79l-.34,5.15-18.48-37.63a37.4,37.4,0,0,0-3.92-6.44,4.41,4.41,0,0,0-3.47-1.51c-.15,0-.22-.22-.22-.67s.07-.67.22-.67c1.94,0,3.43,0,4.48.11l4.37.11,7.62-.11c1.12-.08,2.64-.11,4.59-.11.22,0,.33.22.33.67s-.11.67-.33.67a14.9,14.9,0,0,0-4.48.5,1.82,1.82,0,0,0-1.46,1.74,4.7,4.7,0,0,0,.67,2.13l14.56,29.9-3.47,5.94,10.19-29.35a17,17,0,0,0,.9-4.81q0-6-7.5-6c-.16,0-.23-.22-.23-.67s.07-.67.23-.67c2,0,3.54,0,4.59.11l6.72.11,4.37-.11c.82-.08,2.12-.11,3.92-.11Zm9.77,5.82A7.94,7.94,0,0,0,1549,675a31.6,31.6,0,0,0,7,4.81q4,2.25,6.22,3.7a13.7,13.7,0,0,1,3.8,3.92,10.47,10.47,0,0,1,1.63,5.93,13.7,13.7,0,0,1-1.91,7.06,14,14,0,0,1-5.65,5.26,18.49,18.49,0,0,1-8.91,2,21.38,21.38,0,0,1-11.31-3.14,1.9,1.9,0,0,1-.67-1.34L1539,693c0-.23.2-.36.61-.4s.66.06.73.28a21.91,21.91,0,0,0,5.77,9.08,11.94,11.94,0,0,0,8.23,3.58,6.14,6.14,0,0,0,4.37-1.46,5.68,5.68,0,0,0,1.57-4.36,9.29,9.29,0,0,0-2.47-6.78,28.45,28.45,0,0,0-7.17-5q-3.8-2-5.93-3.42a12.21,12.21,0,0,1-3.64-3.81,11,11,0,0,1-1.51-6q0-6.39,4.64-9.52a19.67,19.67,0,0,1,11.26-3.14,26,26,0,0,1,9,1.68c.67.3,1,.71,1,1.24,0,1.71,0,3.06-.11,4l-.12,5.37c0,.15-.22.23-.67.23s-.67-.08-.67-.23a7.85,7.85,0,0,0-1.79-4.64,14.54,14.54,0,0,0-4.59-4,11.64,11.64,0,0,0-5.72-1.57c-3.43,0-5.15,1.65-5.15,4.93Zm87,37.86c-2.32,0-5-.12-8.18-.34-1.12-.07-2.54-.15-4.26-.22s-3.62-.12-5.71-.12l-8,.12q-2.13.11-5.94.11c-.15,0-.22-.23-.22-.67s.07-.68.22-.68a19.53,19.53,0,0,0,5.55-.56,3.7,3.7,0,0,0,2.41-2.18,14,14,0,0,0,.67-5V645.58a14.5,14.5,0,0,0-.62-4.93,3.71,3.71,0,0,0-2.41-2.18,18,18,0,0,0-5.48-.62c-.15,0-.23-.22-.23-.67s.08-.67.23-.67l5.93.11q4.93.23,7.84.22c2.91,0,5.94-.11,9.07-.33q5.61-.22,7.51-.23a44.37,44.37,0,0,1,20.27,4.48A33.93,33.93,0,0,1,1666.06,653a31.85,31.85,0,0,1,4.87,17.36,36.4,36.4,0,0,1-5,19.21,34.58,34.58,0,0,1-13.55,12.88,39.18,39.18,0,0,1-18.7,4.54Zm-1.12-2.24a25.65,25.65,0,0,0,13.72-3.7,24.56,24.56,0,0,0,9.35-10.92,40.75,40.75,0,0,0,3.36-17.3,45.7,45.7,0,0,0-3.19-17.42,29.32,29.32,0,0,0-9-12.32,21.45,21.45,0,0,0-13.55-4.54,36.45,36.45,0,0,0-7.34.56,6.48,6.48,0,0,0-3.75,2.08,7.25,7.25,0,0,0-1.23,4.64v50.4c0,3.07.8,5.25,2.41,6.56s4.68,2,9.24,2Zm48.22,1.79c-.22,0-.33-.23-.33-.67s.11-.68.33-.68q3.81,0,5-1.56c.82-1.05,1.24-3.1,1.24-6.16V676a12.4,12.4,0,0,0-.84-5.26,2.86,2.86,0,0,0-2.75-1.68,16.92,16.92,0,0,0-5.6,1.68h-.11c-.3,0-.52-.19-.67-.56s-.11-.6.11-.67l14.67-7.17a4.31,4.31,0,0,1,.79-.22c.82,0,1.6.93,2.35,2.8a20,20,0,0,1,1.12,7.28v25.2a10.2,10.2,0,0,0,.89,4.76,5,5,0,0,0,3.08,2.29,22.73,22.73,0,0,0,6.33.67c.3,0,.45.23.45.68s-.15.67-.45.67c-2.54,0-4.55,0-6.05-.11l-8.73-.12-6.5.12c-1,.07-2.5.11-4.37.11Zm12-31.7a70.26,70.26,0,0,1,9.63-9.91q3.59-2.74,6.38-2.74a8.2,8.2,0,0,1,4.82,1.68,4.86,4.86,0,0,1,2.35,4,4.71,4.71,0,0,1-1.23,3.41,4.57,4.57,0,0,1-3.47,1.29,4.3,4.3,0,0,1-2.35-.56,11.64,11.64,0,0,1-2-1.68,11.66,11.66,0,0,0-1.79-1.51,3.44,3.44,0,0,0-1.91-.5,5.59,5.59,0,0,0-3.3,1.45,66.52,66.52,0,0,0-6.33,6.39l-.78-1.35Zm47.64,33a22.38,22.38,0,0,1-11.81-3,20.46,20.46,0,0,1-7.62-8,22.33,22.33,0,0,1-2.63-10.64,23.27,23.27,0,0,1,3.25-12.1,23.63,23.63,0,0,1,8.9-8.68,25.16,25.16,0,0,1,12.6-3.19q6.72,0,10.36,3.25t3.64,9.63a7.77,7.77,0,0,1-.28,2.46,1,1,0,0,1-1,.79h-9.19q.57-13.89-7.61-13.89a8.88,8.88,0,0,0-7.9,4.59q-2.85,4.59-2.85,12.43,0,9.86,4.59,15.63t13,5.76a15.36,15.36,0,0,0,5.26-.78,50.82,50.82,0,0,0,5.6-2.58l.23-.11c.15,0,.32.15.5.45s.21.52.06.67a27.71,27.71,0,0,1-8.18,5.55,23.08,23.08,0,0,1-9,1.73Zm-15.45-31.25,24.86-.44v2.24l-24.75.11Zm48.15,30.69c-3.07,0-5.38-.71-7-2.13a7.44,7.44,0,0,1-2.35-5.82,7.34,7.34,0,0,1,1.62-4.93,12.26,12.26,0,0,1,4.09-3.08c1.64-.78,4.11-1.77,7.39-3l12-4.48.33,1.68L1781,689a18.92,18.92,0,0,0-4.82,2.68,5.33,5.33,0,0,0-1.79,4.37,5.46,5.46,0,0,0,1.74,4.26,5.91,5.91,0,0,0,4.08,1.57,8.44,8.44,0,0,0,4.37-1.35l6.05-4,.11,1.68-8,5.6a20.89,20.89,0,0,1-4.87,2.69,14.42,14.42,0,0,1-4.87.78Zm21-.11a2.21,2.21,0,0,1-1,.22q-2,0-3.69-2.74a14,14,0,0,1-1.68-7.34V677.61q0-6.95-1.4-10.13c-.94-2.13-2.41-3.2-4.43-3.2a5.7,5.7,0,0,0-5.32,2.75,14.81,14.81,0,0,0-2,6.1c-.44,3.81-2.35,5.71-5.71,5.71a5.12,5.12,0,0,1-3.64-1.12,3.71,3.71,0,0,1-1.17-2.8c0-2.09,1.24-4.12,3.75-6.1a30.84,30.84,0,0,1,9.07-4.82,29,29,0,0,1,9.35-1.84,10,10,0,0,1,7.67,3q2.86,3,2.86,9.07v20.16q0,7.07,4.37,7.06a10.62,10.62,0,0,0,4-1h.22a.54.54,0,0,1,.56.5.59.59,0,0,1-.33.73l-11.54,5.49Zm15.23-.67c-.22,0-.33-.23-.33-.67s.11-.68.33-.68q3.81,0,5-1.56c.82-1.05,1.24-3.1,1.24-6.16V676a12.4,12.4,0,0,0-.84-5.26,2.86,2.86,0,0,0-2.75-1.68,16.92,16.92,0,0,0-5.6,1.68h-.11c-.3,0-.52-.19-.67-.56s-.11-.6.11-.67l14.67-7.17a4.31,4.31,0,0,1,.79-.22c.82,0,1.6.93,2.35,2.8a20,20,0,0,1,1.12,7.28v25.2q0,4.59,1.29,6.16t5.09,1.56c.23,0,.34.23.34.68s-.11.67-.34.67c-1.87,0-3.36,0-4.48-.11l-6.38-.12-6.5.12c-1,.07-2.5.11-4.37.11Zm28.79,0c-.23,0-.34-.23-.34-.67s.11-.68.34-.68c2.54,0,4.23-.52,5.09-1.56s1.29-3.1,1.29-6.16V680.75q0-6.27-2.18-9.3t-6.67-3a14.22,14.22,0,0,0-7.11,2,17.71,17.71,0,0,0-5.88,5.49l-.56-1.34q8.63-12.54,19-12.55,5.94,0,9.13,3.31t3.19,9.57v22.52q0,4.59,1.35,6.16t5.15,1.56c.22,0,.33.23.33.68s-.11.67-.33.67c-1.94,0-3.47,0-4.59-.11l-6.39-.12-6.38.12c-1.12.07-2.62.11-4.48.11Zm29.23,0c-.22,0-.34-.23-.34-.67s.12-.68.34-.68q3.69,0,5-1.62c.9-1.08,1.34-3.12,1.34-6.1V680.75c0-4.18-.72-7.28-2.18-9.3s-3.68-3-6.66-3a14.29,14.29,0,0,0-7.12,2,17.71,17.71,0,0,0-5.88,5.49l-.56-1.34q8.63-12.54,19-12.55,5.94,0,9.13,3.42t3.19,10.36v21.62q0,4.59,1.29,6.16t5.1,1.56c.3,0,.45.23.45.68s-.15.67-.45.67c-1.87,0-3.36,0-4.48-.11l-6.39-.12-6.38.12c-1.12.07-2.61.11-4.48.11Zm46.49,1.34a22.38,22.38,0,0,1-11.81-3,20.46,20.46,0,0,1-7.62-8,22.21,22.21,0,0,1-2.63-10.64,23.27,23.27,0,0,1,3.25-12.1,23.63,23.63,0,0,1,8.9-8.68,25.16,25.16,0,0,1,12.6-3.19q6.72,0,10.36,3.25t3.64,9.63a7.77,7.77,0,0,1-.28,2.46,1,1,0,0,1-1,.79h-9.19q.57-13.89-7.61-13.89a8.88,8.88,0,0,0-7.9,4.59q-2.85,4.59-2.85,12.43,0,9.86,4.59,15.63t13,5.76a15.4,15.4,0,0,0,5.26-.78,50.82,50.82,0,0,0,5.6-2.58l.23-.11c.15,0,.31.15.5.45s.21.52.06.67a27.71,27.71,0,0,1-8.18,5.55,23.08,23.08,0,0,1-9,1.73Zm-15.45-31.25,24.86-.44v2.24l-24.75.11Zm55,31.36a15.83,15.83,0,0,1-8.85-2.63,18,18,0,0,1-6.39-7.56,26.6,26.6,0,0,1-2.35-11.53q0-8.29,3.92-13.78a23.37,23.37,0,0,1,9.86-8.06,29.56,29.56,0,0,1,11.87-2.58,25.7,25.7,0,0,1,13.78,4l-2.13,8.51a22.14,22.14,0,0,0-5.88-7.44,12.71,12.71,0,0,0-7.9-2.41q-6.37,0-9.91,4.48t-3.53,13.77q0,9.42,3.7,14.84T1959,703a13.73,13.73,0,0,0,7.67-2.24,40.67,40.67,0,0,0,7.33-6.5l1,.9a63.29,63.29,0,0,1-10.13,9.24,19.39,19.39,0,0,1-11.48,3.52Zm26.54-14.22a13.94,13.94,0,0,0,.78,5.54,2.75,2.75,0,0,0,2.69,1.63,11.76,11.76,0,0,0,5-1.35h.11c.23,0,.43.19.62.56s.17.6-.06.68l-14.33,6.94-.67.11c-.9,0-1.67-.93-2.3-2.8a25,25,0,0,1-1-7.73V640.2a15.71,15.71,0,0,0-.73-5.65,2.63,2.63,0,0,0-2.63-1.74,14.52,14.52,0,0,0-4.48,1.35h-.23c-.29,0-.52-.19-.67-.56s-.11-.6.11-.68l15.68-7.5.45-.11a1.68,1.68,0,0,1,1,.45c.37.3.56.56.56.78v67.2Zm76.61,14.11A35.29,35.29,0,0,1,2038,703a33.36,33.36,0,0,1-12.54-13.22,38.21,38.21,0,0,1-4.43-18.2q0-11.53,5.83-19.76a36.42,36.42,0,0,1,15-12.38,44.7,44.7,0,0,1,18.65-4.14,34.84,34.84,0,0,1,18.7,5,33.79,33.79,0,0,1,12.38,13.16,36.74,36.74,0,0,1,4.31,17.36,34.25,34.25,0,0,1-5.38,18.7,38.51,38.51,0,0,1-14.39,13.44,40,40,0,0,1-19.54,4.93Zm3.81-2.69a20.81,20.81,0,0,0,12-3.64,24.38,24.38,0,0,0,8.4-10.69,41.89,41.89,0,0,0,3.08-16.8,47.41,47.41,0,0,0-3.42-18.54,29.39,29.39,0,0,0-9.74-12.71,24.61,24.61,0,0,0-14.84-4.59q-11,0-16.92,7.78T2033,667.53a50.93,50.93,0,0,0,3.47,19.32,31.55,31.55,0,0,0,9.74,13.44,22.42,22.42,0,0,0,14.12,4.87Zm43,1.35c-.3,0-.45-.23-.45-.67s.15-.68.45-.68a12.21,12.21,0,0,0,4.48-.61,3.57,3.57,0,0,0,2-2.19,15.85,15.85,0,0,0,.56-4.92v-25.2q0-3.71-1.46-4.71t-6.05-1c-.22,0-.33-.33-.33-1s.11-.9.33-.9c2.77,0,4.65-.35,5.66-1.06s1.55-2,1.62-3.87q.57-18.26,6.84-26.37t18.81-8.12q6.16,0,9.63,1.73t3.48,4.65a4.4,4.4,0,0,1-1.52,3.53,5.24,5.24,0,0,1-3.52,1.29,4.87,4.87,0,0,1-3.36-1,11.11,11.11,0,0,1-2.24-3.14,11.26,11.26,0,0,0-2.69-3.53,6.28,6.28,0,0,0-4-1.17q-5.61,0-8.85,7.28t-3.25,22.51v40.1a12.73,12.73,0,0,0,.73,5,4,4,0,0,0,2.8,2.12,28.47,28.47,0,0,0,6.77.56c.3,0,.45.23.45.68s-.15.67-.45.67l-7.5-.11q-2.46-.12-7.5-.12l-6.61.12c-1.12.07-2.73.11-4.82.11Zm28.79-37.63a74.1,74.1,0,0,0-16.8-1.8V664.4a165.65,165.65,0,0,0,17.13-1.12c.23,0,.41.26.56.78a7,7,0,0,1,.23,1.9,6.44,6.44,0,0,1-.34,2c-.22.67-.49,1-.78.9ZM2172,707.74a5.78,5.78,0,0,1-6.16-6.16,5.56,5.56,0,0,1,1.68-4.26,6.32,6.32,0,0,1,4.48-1.56,6.09,6.09,0,0,1,4.48,1.56,5.79,5.79,0,0,1,1.56,4.26,6.3,6.3,0,0,1-1.56,4.54,6,6,0,0,1-4.48,1.62Zm20.91,0a5.78,5.78,0,0,1-6.16-6.16,5.56,5.56,0,0,1,1.68-4.26,6.32,6.32,0,0,1,4.48-1.56,6.09,6.09,0,0,1,4.48,1.56,5.79,5.79,0,0,1,1.56,4.26,6.3,6.3,0,0,1-1.56,4.54,6,6,0,0,1-4.48,1.62Zm20.93,0a5.78,5.78,0,0,1-6.16-6.16,5.56,5.56,0,0,1,1.68-4.26,6.32,6.32,0,0,1,4.48-1.56,6.09,6.09,0,0,1,4.48,1.56,5.79,5.79,0,0,1,1.57,4.26,6.31,6.31,0,0,1-1.57,4.54,6,6,0,0,1-4.48,1.62Zm41.66-1.23c-.22,0-.34-.23-.34-.67s.12-.68.34-.68a21.88,21.88,0,0,0,5.88-.56,3.73,3.73,0,0,0,2.52-2.18,13.76,13.76,0,0,0,.67-5V645.58a14.55,14.55,0,0,0-.61-4.93,3.74,3.74,0,0,0-2.41-2.18,18.15,18.15,0,0,0-5.49-.62c-.22,0-.34-.22-.34-.67s.12-.67.34-.67h46.59c.75,0,1.12.33,1.12,1l.23,14.56c0,.15-.21.24-.62.28s-.65-.06-.73-.28q-2.68-12.66-15.45-12.66h-4.6c-2.68,0-4.59.49-5.71,1.46s-1.68,2.57-1.68,4.81V697a11.31,11.31,0,0,0,.9,5.21,5.25,5.25,0,0,0,3.53,2.29,35.58,35.58,0,0,0,8.12.67c.15,0,.22.23.22.68s-.07.67-.22.67c-3.07,0-5.45,0-7.17-.11l-11-.12-8.17.12q-2.13.11-5.94.11ZM2297,682.43q0-9.52-12.88-9.52h-14V670h14.23q12.54,0,12.54-8.4c0-.15.22-.23.67-.23s.67.08.67.23l-.11,9.85c0,2.32,0,4,.11,5.15l.12,5.83c0,.22-.23.33-.68.33s-.67-.11-.67-.33ZM2330.77,708a22,22,0,0,1-11.87-3.19,21.61,21.61,0,0,1-8-8.62,25.49,25.49,0,0,1-2.8-11.82,20.75,20.75,0,0,1,3.64-12.37,22.51,22.51,0,0,1,9.3-7.62,28.19,28.19,0,0,1,11.59-2.52,21.67,21.67,0,0,1,11.93,3.25,21.4,21.4,0,0,1,7.78,8.57,24.71,24.71,0,0,1,2.69,11.36,22,22,0,0,1-12.21,20.11,26.25,26.25,0,0,1-12.09,2.85Zm3.36-2.24a8.46,8.46,0,0,0,7.61-4.36q2.7-4.38,2.69-12.77a37.82,37.82,0,0,0-2.07-13.11,19.52,19.52,0,0,0-5.6-8.51,12,12,0,0,0-7.78-2.91,8.55,8.55,0,0,0-7.68,4.14q-2.62,4.15-2.63,12.21a39.21,39.21,0,0,0,2,13.05,21.71,21.71,0,0,0,5.54,9,11.4,11.4,0,0,0,7.9,3.24Zm27.28.79c-.22,0-.34-.23-.34-.67s.12-.68.34-.68q3.81,0,5-1.56t1.23-6.16V676a12.4,12.4,0,0,0-.84-5.26,2.85,2.85,0,0,0-2.74-1.68,16.92,16.92,0,0,0-5.6,1.68h-.11c-.3,0-.53-.19-.68-.56s-.11-.6.12-.67l14.67-7.17a4.57,4.57,0,0,1,.78-.22c.82,0,1.61.93,2.35,2.8a19.77,19.77,0,0,1,1.12,7.28v25.2a10.06,10.06,0,0,0,.9,4.76,5,5,0,0,0,3.08,2.29,22.73,22.73,0,0,0,6.33.67c.3,0,.45.23.45.68s-.15.67-.45.67q-3.81,0-6-.11l-8.74-.12-6.49.12c-1.05.07-2.5.11-4.37.11Zm12-31.7a70.77,70.77,0,0,1,9.64-9.91c2.39-1.83,4.51-2.74,6.38-2.74a8.22,8.22,0,0,1,4.82,1.68,4.89,4.89,0,0,1,2.35,4,4.71,4.71,0,0,1-1.23,3.41,4.6,4.6,0,0,1-3.48,1.29,4.33,4.33,0,0,1-2.35-.56,11.26,11.26,0,0,1-2-1.68,11.67,11.67,0,0,0-1.8-1.51,3.39,3.39,0,0,0-1.9-.5,5.59,5.59,0,0,0-3.3,1.45,64.18,64.18,0,0,0-6.33,6.39l-.79-1.35ZM2451.23,708a22,22,0,0,1-11.87-3.19,21.58,21.58,0,0,1-8-8.62,25.37,25.37,0,0,1-2.8-11.82,20.68,20.68,0,0,1,3.64-12.37,22.42,22.42,0,0,1,9.29-7.62,28.24,28.24,0,0,1,11.6-2.52,21.4,21.4,0,0,1,19.71,11.82,24.84,24.84,0,0,1,2.69,11.36,22.08,22.08,0,0,1-12.21,20.11,26.32,26.32,0,0,1-12.1,2.85Zm3.36-2.24a8.47,8.47,0,0,0,7.62-4.36q2.68-4.38,2.69-12.77a37.57,37.57,0,0,0-2.08-13.11,19.44,19.44,0,0,0-5.6-8.51,11.93,11.93,0,0,0-7.78-2.91,8.53,8.53,0,0,0-7.67,4.14q-2.64,4.15-2.63,12.21a39.47,39.47,0,0,0,2,13.05,21.72,21.72,0,0,0,5.55,9,11.38,11.38,0,0,0,7.89,3.24Zm27.29.79c-.23,0-.34-.23-.34-.67s.11-.68.34-.68q3.79,0,5-1.56t1.24-6.16V676a12.4,12.4,0,0,0-.84-5.26,2.86,2.86,0,0,0-2.75-1.68,17,17,0,0,0-5.6,1.68h-.11c-.3,0-.52-.19-.67-.56s-.11-.6.11-.67l14.67-7.17a4.31,4.31,0,0,1,.79-.22c.82,0,1.6.93,2.35,2.8a20,20,0,0,1,1.12,7.28v25.2q0,4.59,1.29,6.16t5.09,1.56c.23,0,.34.23.34.68s-.11.67-.34.67c-1.86,0-3.36,0-4.48-.11l-6.38-.12-6.5.12c-1,.07-2.5.11-4.36.11Zm30.12,0c-.22,0-.33-.23-.33-.67s.11-.68.33-.68q3.81,0,5-1.56t1.23-6.16v-16.8q0-6.27-2.29-9.24t-7.22-3a15.66,15.66,0,0,0-7.45,2,17.38,17.38,0,0,0-6.11,5.38l-.56-1.34q9-12.56,19.71-12.55,6.17,0,9.58,3.7t3.42,10.19v21.62q0,4.59,1.29,6.16t5.09,1.56c.22,0,.34.23.34.68s-.12.67-.34.67c-1.87,0-3.36,0-4.48-.11l-6.38-.12-6.39.12c-1.12.07-2.61.11-4.48.11Zm27.3,0c-.23,0-.34-.23-.34-.67s.11-.68.34-.68q3.79,0,5.09-1.56t1.29-6.16V640.2a15.71,15.71,0,0,0-.73-5.65,2.55,2.55,0,0,0-2.52-1.74,11.88,11.88,0,0,0-4.59,1.35h-.11c-.3,0-.52-.19-.67-.56s-.15-.64,0-.79l15.79-7.39.45-.11a1.68,1.68,0,0,1,1,.45c.38.3.56.56.56.78v70.9q0,4.59,1.29,6.16t5.1,1.56c.22,0,.33.23.33.68s-.11.67-.33.67c-1.87,0-3.36,0-4.48-.11l-6.5-.12-6.49.12c-1.12.07-2.62.11-4.48.11Zm72.16-43.23c.15,0,.22.22.22.67s-.07.67-.22.67a7.5,7.5,0,0,0-5.77,2.69,25.46,25.46,0,0,0-4.42,8.17l-12.88,34.16a107.32,107.32,0,0,1-7.73,16.92q-3.7,6.15-7.51,8.79a14.44,14.44,0,0,1-8.4,2.63,8,8,0,0,1-4.87-1.29,4.51,4.51,0,0,1-1.73-3.86,4.22,4.22,0,0,1,1.4-3.36,5,5,0,0,1,3.41-1.23,6.08,6.08,0,0,1,2.19.33,13.89,13.89,0,0,1,2.07,1.12,6.39,6.39,0,0,0,3.92,1.46,6.91,6.91,0,0,0,5.09-2.41,31.62,31.62,0,0,0,4.93-7.9q2.64-5.48,6.44-15.79l-.33,5.15-18.48-37.63a38.06,38.06,0,0,0-3.92-6.44,4.44,4.44,0,0,0-3.48-1.51c-.14,0-.22-.22-.22-.67s.08-.67.22-.67c2,0,3.44,0,4.48.11l4.37.11,7.62-.11c1.12-.08,2.65-.11,4.59-.11.22,0,.34.22.34.67s-.12.67-.34.67a14.9,14.9,0,0,0-4.48.5,1.82,1.82,0,0,0-1.46,1.74,4.61,4.61,0,0,0,.68,2.13l14.56,29.9-3.48,5.94,10.2-29.35a17.25,17.25,0,0,0,.89-4.81q0-6-7.5-6c-.15,0-.23-.22-.23-.67s.08-.67.23-.67c2,0,3.54,0,4.59.11l6.72.11,4.37-.11c.82-.08,2.13-.11,3.92-.11Zm40.09-.45a9,9,0,0,0,1.79,5.6,15.9,15.9,0,0,0,4.48,4q2.7,1.64,7.17,3.87a78.49,78.49,0,0,1,7.67,4.37,18.4,18.4,0,0,1,4.88,4.76,11.45,11.45,0,0,1,2,6.77,13.72,13.72,0,0,1-2.46,8,16.66,16.66,0,0,1-7,5.66,24,24,0,0,1-10.19,2.07,35.6,35.6,0,0,1-9.13-1.17,18.46,18.46,0,0,1-6.55-2.86,2.57,2.57,0,0,1-.89-2.35l-.79-12.1c0-.3.19-.48.56-.56a.65.65,0,0,1,.79.34,40.64,40.64,0,0,0,7.61,11.53q4.59,4.83,10.31,4.82a9.69,9.69,0,0,0,6.38-2.13q2.58-2.13,2.58-6.49a10.61,10.61,0,0,0-1.91-6.28,18,18,0,0,0-4.64-4.53c-1.84-1.23-4.28-2.67-7.34-4.31a79.41,79.41,0,0,1-7.06-4.2,17.62,17.62,0,0,1-4.53-4.54,10.73,10.73,0,0,1-1.85-6.27,11.82,11.82,0,0,1,5.43-10.25,22.6,22.6,0,0,1,13.16-3.75,33.19,33.19,0,0,1,6.78.73,28.58,28.58,0,0,1,6,1.84,3.41,3.41,0,0,1,1.34.9,2,2,0,0,1,.34,1.23l.33,10.31c0,.3-.18.48-.56.56a.69.69,0,0,1-.78-.23,20.46,20.46,0,0,0-2.69-5.26,21.36,21.36,0,0,0-5.32-5.43,12.29,12.29,0,0,0-7.45-2.41,8.57,8.57,0,0,0-6.32,2.18,7.65,7.65,0,0,0-2.19,5.66Zm8.07-19.15a.73.73,0,0,1,.44-.68,2.66,2.66,0,0,1,1.12-.22,2.34,2.34,0,0,1,1,.22.73.73,0,0,1,.45.68v74.25c0,.52-.49.79-1.46.79s-1.56-.27-1.56-.79V643.68Zm29.86,93.63c-.3.07-.55-.1-.73-.51s-.13-.65.17-.72q12.64-4.71,18.14-12.16t5.49-14.84a15.86,15.86,0,0,0-3.31-10.41q-3.3-4-9.24-4a19,19,0,0,0-4.81.67c-.23.07-.41-.11-.56-.56s-.11-.71.11-.79c5.38-1.41,9.28-3.49,11.7-6.21s3.64-6.48,3.64-11.26q0-5.6-1.9-8.68a6.38,6.38,0,0,0-5.82-3.08A12.39,12.39,0,0,0,2694,668a23.26,23.26,0,0,0-6.05,9.63.64.64,0,0,1-.45.11c-.67,0-1-.14-.9-.44l4.15-16.36a.68.68,0,0,1,.45-.22,1.55,1.55,0,0,1,.67.17c.22.11.3.2.22.28a6.09,6.09,0,0,0-.22,1.23,1.68,1.68,0,0,0,1.9,1.9,11.12,11.12,0,0,0,3.7-.89c1.71-.52,3.19-.92,4.42-1.18a20.42,20.42,0,0,1,4.2-.39q6.49,0,10.19,3.75a12.37,12.37,0,0,1,3.7,9,17.6,17.6,0,0,1-4.54,11.7,20.91,20.91,0,0,1-12.15,6.89l.67-1.68q9.52.22,14.45,4.93a15.06,15.06,0,0,1,4.93,11.31,19.63,19.63,0,0,1-3.7,10.92q-3.69,5.55-11.31,10.47a71.05,71.05,0,0,1-18.81,8.18ZM2754.69,708a24.39,24.39,0,0,1-12.2-3,21.72,21.72,0,0,1-8.4-8.34,23.7,23.7,0,0,1-3-11.93,23.06,23.06,0,0,1,3-11.82,21.11,21.11,0,0,1,8.4-8.12,25.2,25.2,0,0,1,12.2-2.91,24.19,24.19,0,0,1,12.1,3A21.27,21.27,0,0,1,2775,673a25.21,25.21,0,0,1,0,23.74,21.19,21.19,0,0,1-8.29,8.24,24.36,24.36,0,0,1-12,3Zm1.12-2.12a9.36,9.36,0,0,0,8.63-5.16q2.91-5.14,2.91-14.33,0-11.21-3.86-16.8t-9.8-5.6a9.84,9.84,0,0,0-9,5.32q-3.15,5.33-3.14,14.28,0,9.86,3.92,16.07t10.3,6.22Zm54.77,2.12a24.46,24.46,0,0,1-12.21-3,21.85,21.85,0,0,1-8.4-8.34,23.8,23.8,0,0,1-3-11.93,23.15,23.15,0,0,1,3-11.82,21.24,21.24,0,0,1,8.4-8.12,25.27,25.27,0,0,1,12.21-2.91,24.19,24.19,0,0,1,12.1,3,21.27,21.27,0,0,1,8.23,8.23,25.21,25.21,0,0,1,0,23.74,21.19,21.19,0,0,1-8.29,8.24,24.36,24.36,0,0,1-12,3Zm1.12-2.12a9.36,9.36,0,0,0,8.63-5.16q2.91-5.14,2.91-14.33,0-11.21-3.87-16.8t-9.8-5.6a9.87,9.87,0,0,0-9,5.32q-3.14,5.33-3.13,14.28,0,9.86,3.92,16.07t10.3,6.22Z"/><text class="cls-3" transform="translate(517.56 850.51)"><tspan xml:space="preserve">    </tspan><tspan class="cls-4" x="143.76" y="0"> </tspan></text><text class="cls-5" transform="translate(697.55 850.51)"><tspan class="cls-6">B</tspan><tspan x="32.64" y="0">y </tspan><tspan class="cls-7" x="72.48" y="0">L</tspan><tspan class="cls-8" x="104.64" y="0">i</tspan><tspan class="cls-9" x="120.18" y="0">l</tspan><tspan x="135" y="0">y </tspan><tspan class="cls-10" x="174.84" y="0">O</tspan><tspan class="cls-7" x="220.38" y="0">’</tspan><tspan class="cls-11" x="231.35" y="0">C</tspan><tspan class="cls-12" x="271.61" y="0">o</tspan><tspan class="cls-7" x="299.87" y="0">n</tspan><tspan class="cls-13" x="330.95" y="0">n</tspan><tspan class="cls-14" x="360.89" y="0">e</tspan><tspan class="cls-15" x="384.35" y="0">l</tspan><tspan x="399.65" y="0">l</tspan></text><text class="cls-3" transform="translate(517.56 922.51)"><tspan xml:space="preserve">    </tspan><tspan class="cls-4" x="143.76" y="0"> </tspan></text><text class="cls-5" transform="translate(697.55 922.51)"><tspan class="cls-16">S</tspan><tspan x="29.76" y="0">e</tspan><tspan class="cls-10" x="54.6" y="0">n</tspan><tspan class="cls-17" x="85.56" y="0">i</tspan><tspan class="cls-12" x="99.84" y="0">o</tspan><tspan x="128.1" y="0">r </tspan><tspan class="cls-18" x="164.58" y="0">C</tspan><tspan class="cls-10" x="204.36" y="0">u</tspan><tspan class="cls-6" x="234" y="0">l</tspan><tspan class="cls-19" x="247.62" y="0">t</tspan><tspan class="cls-20" x="267.83" y="0">u</tspan><tspan class="cls-9" x="297.35" y="0">r</tspan><tspan class="cls-21" x="318.71" y="0">a</tspan><tspan x="343.79" y="0">l </tspan><tspan class="cls-10" x="373.73" y="0">E</tspan><tspan class="cls-22" x="406.13" y="0">d</tspan><tspan class="cls-23" x="436.13" y="0">i</tspan><tspan class="cls-24" x="449.99" y="0">t</tspan><tspan class="cls-12" x="469.19" y="0">o</tspan><tspan x="497.45" y="0">r</tspan></text><g class="cls-25"><line class="cls-26" x1="516.3" y1="496.26" x2="2852.29" y2="484.26"/></g><text class="cls-27" transform="translate(517.56 546.72)"><tspan class="cls-28">M</tspan><tspan x="33.44" y="0">a</tspan><tspan class="cls-29" x="50.24" y="0">r</tspan><tspan x="63.24" y="0">. </tspan><tspan class="cls-30" x="80.6" y="0">1</tspan><tspan class="cls-31" x="94.16" y="0">4</tspan><tspan class="cls-32" x="113.4" y="0">, </tspan><tspan class="cls-33" x="131.64" y="0">2</tspan><tspan class="cls-34" x="148.52" y="0">0</tspan><tspan class="cls-35" x="168.04" y="0">2</tspan><tspan x="184.24" y="0">3</tspan></text></g></svg>