<svg id="Layer_1" data-name="Layer 1" xmlns="http://www.w3.org/2000/svg" viewBox="0 0 2316.32 425.27"><defs><style>.cls-1,.cls-10,.cls-11,.cls-12,.cls-13,.cls-14,.cls-15,.cls-16,.cls-3,.cls-4,.cls-5,.cls-6,.cls-7,.cls-8,.cls-9{fill:#1d1d1b;}.cls-10,.cls-11,.cls-12,.cls-13,.cls-14,.cls-15,.cls-16,.cls-2,.cls-3,.cls-4,.cls-5,.cls-6,.cls-7,.cls-8,.cls-9{isolation:isolate;}.cls-3,.cls-4,.cls-5,.cls-6,.cls-7,.cls-8,.cls-9{font-size:60px;font-family:CormorantGaramond-SemiBold, Cormorant Garamond;font-weight:600;}.cls-3{letter-spacing:0.36em;}.cls-4{letter-spacing:-0.04em;}.cls-6{letter-spacing:-0.01em;}.cls-7{letter-spacing:-0.02em;}.cls-8{letter-spacing:-0.03em;}.cls-9{letter-spacing:-0.02em;}.cls-10,.cls-11,.cls-12,.cls-13,.cls-14,.cls-15,.cls-16{font-size:40px;font-family:CormorantGaramond-Medium, Cormorant Garamond;font-weight:500;}.cls-10{letter-spacing:-0.01em;}.cls-12{letter-spacing:-0.04em;}.cls-13{letter-spacing:0.01em;}.cls-14{letter-spacing:0.03em;}.cls-15{letter-spacing:0.02em;}.cls-16{letter-spacing:0.01em;}</style></defs><g id="Layer_3" data-name="Layer 3"><path class="cls-1" d="M554.7,706.51c-.15,0-.22-.23-.22-.67s.07-.68.22-.68a26.31,26.31,0,0,0,6.44-.56,4,4,0,0,0,2.8-2.18,12.88,12.88,0,0,0,.73-5V645.58a12.33,12.33,0,0,0-.56-4.31,3.26,3.26,0,0,0-2-1.91,18,18,0,0,0-15.79,3.7q-4.37,4.2-6.72,12.6c0,.22-.21.32-.62.28s-.61-.13-.61-.28q.45-4.36,1-11.26c.37-4.6.55-8,.56-10.36,0-.37.2-.56.61-.56s.62.19.62.56c0,1.65,2.09,2.48,6.27,2.47q9.63.33,22.51.33,16.8,0,21.73-.33a22.18,22.18,0,0,0,11.59-3.31,17.3,17.3,0,0,0,6.78-7.89.87.87,0,0,1,.78-.34,1.81,1.81,0,0,1,.79.17q.33.17.33.39v71.91q0,4.59,1.29,6.16t5.1,1.56c.22,0,.33.23.33.68s-.11.67-.33.67c-1.87,0-3.33,0-4.37-.11l-6.5-.12-6.49.12c-1.12.07-2.62.11-4.48.11-.15,0-.23-.23-.23-.67s.08-.68.23-.68c2.53,0,4.22-.52,5.09-1.56s1.3-3.09,1.29-6.16v-56.9a1.61,1.61,0,0,0-.45-1.29,2.42,2.42,0,0,0-1.57-.39H582.7a14.34,14.34,0,0,0-4.65.56,3.36,3.36,0,0,0-2.07,2,13,13,0,0,0-.56,4.42v51.64a12.69,12.69,0,0,0,.73,5,4,4,0,0,0,2.74,2.18,25.86,25.86,0,0,0,6.39.56c.22,0,.33.23.33.68s-.11.67-.33.67q-3.93,0-6.16-.11l-9.19-.12-8.73.12q-2.36.1-6.5.11Zm71.9,0c-.15,0-.22-.23-.22-.67s.07-.68.22-.68q3.81,0,5.1-1.56t1.29-6.16V680.75c0-4.18-.79-7.28-2.35-9.3s-4-3-7.17-3a15.68,15.68,0,0,0-7.47,2,17.26,17.26,0,0,0-6.2,5.5l-.11-1.9Q618.32,662,629.07,662a12.51,12.51,0,0,1,9.52,3.7q3.52,3.7,3.47,10.08V697.4q0,4.59,1.29,6.16c.86,1,2.55,1.56,5.09,1.56.23,0,.34.23.34.68s-.11.67-.34.67c-1.86,0-3.32,0-4.36-.11l-6.5-.12-6.5.12c-1.12.07-2.61.11-4.48.11Zm47.4,1.34a22.41,22.41,0,0,1-11.81-3,20.49,20.49,0,0,1-7.62-8A22.41,22.41,0,0,1,652,686.24a23.3,23.3,0,0,1,3.25-12.1,23.62,23.62,0,0,1,8.9-8.68,25.13,25.13,0,0,1,12.6-3.19q6.72,0,10.36,3.25t3.64,9.63a7.86,7.86,0,0,1-.28,2.46,1,1,0,0,1-1,.79h-9.19q.57-13.89-7.61-13.89a8.87,8.87,0,0,0-7.9,4.59Q662,673.69,662,681.53q0,9.86,4.59,15.63t13,5.76a15.37,15.37,0,0,0,5.26-.78,51.59,51.59,0,0,0,5.6-2.58l.23-.11c.15,0,.32.15.5.45s.21.52.06.67a27.47,27.47,0,0,1-8.18,5.55,23.11,23.11,0,0,1-9,1.73ZM658.56,676.6l24.86-.44v2.24l-24.75.11ZM744.12,697a12,12,0,0,0,.84,5.21,4.89,4.89,0,0,0,3.25,2.29,30.46,30.46,0,0,0,7.56.67c.23,0,.34.23.34.68s-.11.67-.34.67q-4.59,0-7.17-.11l-9.74-.12-8.06.12c-1.42.07-3.36.11-5.83.11-.22,0-.33-.23-.33-.67s.11-.68.33-.68a19.55,19.55,0,0,0,5.55-.56,3.53,3.53,0,0,0,2.35-2.18,15.09,15.09,0,0,0,.61-5V645.58a14.68,14.68,0,0,0-.61-4.93,3.74,3.74,0,0,0-2.41-2.18,17.86,17.86,0,0,0-5.49-.62c-.22,0-.33-.22-.33-.67s.11-.67.33-.67l5.83.11c3.28.15,6,.23,8,.22,1.71,0,3.81-.11,6.27-.33.9-.08,2.11-.15,3.64-.23s3.34-.11,5.43-.11q11,0,17.47,4.71t6.5,14.44a19.65,19.65,0,0,1-3.64,12,22.64,22.64,0,0,1-9.3,7.39,28.75,28.75,0,0,1-11.59,2.46,22,22,0,0,1-5.37-.56c-.15,0-.23-.18-.23-.56a1.58,1.58,0,0,1,.17-.67c.11-.22.24-.3.39-.22a15.22,15.22,0,0,0,3.92.45,12.42,12.42,0,0,0,9.86-4.82q4-4.81,4-13.78t-4.09-13.72q-4.08-4.86-11.48-4.87a11.57,11.57,0,0,0-4.09.56,3.41,3.41,0,0,0-2,2.07,15,15,0,0,0-.56,4.76V697Zm47,10.3q-4.59,0-6.94-2.13a7.47,7.47,0,0,1-2.35-5.82,7.33,7.33,0,0,1,1.62-4.93,12.37,12.37,0,0,1,4.09-3.08c1.64-.78,4.11-1.77,7.39-3l12-4.48.33,1.68L799,689a19,19,0,0,0-4.82,2.68,5.33,5.33,0,0,0-1.79,4.37,5.52,5.52,0,0,0,1.73,4.26,5.9,5.9,0,0,0,4.09,1.57,8.48,8.48,0,0,0,4.37-1.35l6-4,.11,1.68-8,5.6a21,21,0,0,1-4.87,2.69,14.46,14.46,0,0,1-4.88.78Zm21.06-.11a2.15,2.15,0,0,1-1,.22q-2,0-3.69-2.74a14,14,0,0,1-1.68-7.34V677.61q0-6.95-1.4-10.13c-.94-2.13-2.41-3.2-4.43-3.2A5.7,5.7,0,0,0,794.6,667a14.8,14.8,0,0,0-2,6.1c-.45,3.81-2.35,5.72-5.71,5.71a5.1,5.1,0,0,1-3.64-1.12,3.7,3.7,0,0,1-1.18-2.8q0-3.14,3.76-6.1A30.92,30.92,0,0,1,794.9,664a29,29,0,0,1,9.35-1.84,10,10,0,0,1,7.67,3c1.91,2,2.87,5,2.86,9.07v20.16c0,4.71,1.45,7.06,4.37,7.06a10.67,10.67,0,0,0,4-1h.22a.54.54,0,0,1,.56.5.59.59,0,0,1-.33.73l-11.54,5.49Zm15.23-.67c-.22,0-.33-.23-.33-.67s.11-.68.33-.68q3.81,0,5-1.56t1.23-6.16V676a12.44,12.44,0,0,0-.84-5.26,2.85,2.85,0,0,0-2.74-1.68,16.88,16.88,0,0,0-5.6,1.68h-.11c-.3,0-.52-.19-.67-.56s-.12-.6.11-.67l14.67-7.17a4.1,4.1,0,0,1,.78-.22c.83,0,1.61.93,2.36,2.8a20,20,0,0,1,1.12,7.28v25.2a10.11,10.11,0,0,0,.89,4.76,5,5,0,0,0,3.08,2.29,22.89,22.89,0,0,0,6.33.67c.3,0,.45.23.45.68s-.15.67-.45.67c-2.54,0-4.55,0-6-.11l-8.73-.12-6.5.12c-1,.07-2.5.11-4.37.11Zm12-31.7A70.27,70.27,0,0,1,849,664.9q3.59-2.74,6.38-2.74a8.19,8.19,0,0,1,4.82,1.68,4.87,4.87,0,0,1,2.35,4,4.71,4.71,0,0,1-1.23,3.41,4.56,4.56,0,0,1-3.47,1.29,4.34,4.34,0,0,1-2.36-.56,11.5,11.5,0,0,1-2-1.68,11.27,11.27,0,0,0-1.79-1.51,3.46,3.46,0,0,0-1.91-.5,5.64,5.64,0,0,0-3.3,1.45,65.83,65.83,0,0,0-6.33,6.39l-.78-1.35Zm45.43,33a13.83,13.83,0,0,1-8.12-2.29q-3.3-2.29-3.3-7.68V672.57q0-3.69-1.18-4.93t-4.53-1.23c-.08,0-.17-.09-.28-.28a1.17,1.17,0,0,1-.17-.61,1.23,1.23,0,0,1,.17-.62c.11-.19.2-.28.28-.28q10.53-.45,13.21-9.07.12-.45.9-.45t.78.45v38.64q0,4.37,2.19,6.44a8.49,8.49,0,0,0,6.1,2.07,14,14,0,0,0,8.85-3.25l.22-.11c.23,0,.43.17.62.5s.17.58-.06.73a32.21,32.21,0,0,1-7.84,5.55,18.3,18.3,0,0,1-7.84,1.73Zm12.21-39a80.91,80.91,0,0,0-17.69-1.8V664.4q7.15,0,18.14-1.12c.15,0,.32.28.5.84a5.75,5.75,0,0,1,.28,1.84,5.48,5.48,0,0,1-.39,2q-.39,1-.84.9Zm9.2,37.63c-.23,0-.34-.23-.34-.67s.11-.68.34-.68q3.81,0,5-1.56t1.23-6.16V676a12.44,12.44,0,0,0-.84-5.26,2.85,2.85,0,0,0-2.74-1.68,16.88,16.88,0,0,0-5.6,1.68h-.12c-.3,0-.52-.19-.67-.56s-.11-.6.11-.67l14.68-7.17a4.1,4.1,0,0,1,.78-.22c.82,0,1.6.93,2.35,2.8a19.61,19.61,0,0,1,1.12,7.28v25.2q0,4.59,1.29,6.16t5.1,1.56c.22,0,.33.23.33.68s-.11.67-.33.67c-1.87,0-3.36,0-4.48-.11l-6.39-.12-6.49.12c-1,.07-2.51.11-4.37.11Zm30.13,0c-.23,0-.34-.23-.34-.67s.11-.68.34-.68c2.53,0,4.19-.52,5-1.56s1.22-3.09,1.23-6.16v-16.8q0-6.27-2.3-9.24t-7.22-3a15.7,15.7,0,0,0-7.45,2,17.34,17.34,0,0,0-6.1,5.38l-.56-1.34q9-12.55,19.71-12.55c4.1,0,7.3,1.23,9.57,3.7s3.42,5.86,3.42,10.19v21.62q0,4.59,1.29,6.16c.86,1,2.55,1.56,5.09,1.56.23,0,.34.23.34.68s-.11.67-.34.67c-1.86,0-3.36,0-4.48-.11l-6.38-.12-6.38.12c-1.12.07-2.62.11-4.48.11Zm46.49,1.34a22.47,22.47,0,0,1-11.82-3,20.54,20.54,0,0,1-7.61-8,22.31,22.31,0,0,1-2.64-10.64,23.3,23.3,0,0,1,3.25-12.1,23.64,23.64,0,0,1,8.91-8.68,25.13,25.13,0,0,1,12.6-3.19q6.72,0,10.36,3.25t3.64,9.63a8.16,8.16,0,0,1-.28,2.46,1,1,0,0,1-1,.79H989.1q.55-13.89-7.62-13.89a8.85,8.85,0,0,0-7.89,4.59q-2.87,4.59-2.86,12.43,0,9.85,4.59,15.63t13,5.76a15.4,15.4,0,0,0,5.26-.78,51.59,51.59,0,0,0,5.6-2.58l.22-.11q.23,0,.51.45c.18.3.2.52.05.67a27.43,27.43,0,0,1-8.17,5.55,23.11,23.11,0,0,1-9,1.73ZM967.35,676.6l24.87-.44v2.24l-24.76.11Zm40.27,29.91c-.23,0-.34-.23-.34-.67s.11-.68.34-.68c2.53,0,4.19-.52,5-1.56s1.22-3.09,1.23-6.16V676a12.44,12.44,0,0,0-.84-5.26,2.86,2.86,0,0,0-2.75-1.68,17,17,0,0,0-5.6,1.68h-.11c-.3,0-.52-.19-.67-.56s-.11-.6.11-.67l14.67-7.17a4.42,4.42,0,0,1,.79-.22c.82,0,1.6.93,2.35,2.8a19.61,19.61,0,0,1,1.12,7.28v25.2a10.12,10.12,0,0,0,.9,4.76,5,5,0,0,0,3.08,2.29,22.4,22.4,0,0,0,6.32.67c.3,0,.45.23.45.68s-.15.67-.45.67q-3.81,0-6-.11l-8.74-.12-6.5.12c-1,.07-2.5.11-4.36.11Zm12-31.7a70.48,70.48,0,0,1,9.63-9.91q3.59-2.74,6.39-2.74a8.2,8.2,0,0,1,4.81,1.68,4.87,4.87,0,0,1,2.35,4,4.71,4.71,0,0,1-1.23,3.41,4.56,4.56,0,0,1-3.47,1.29,4.29,4.29,0,0,1-2.35-.56,11.5,11.5,0,0,1-2-1.68,11.27,11.27,0,0,0-1.79-1.51,3.43,3.43,0,0,0-1.9-.5,5.55,5.55,0,0,0-3.31,1.45,65.83,65.83,0,0,0-6.33,6.39l-.78-1.35Zm63.73-26.43a37.53,37.53,0,0,0-6.56-8.23,8.43,8.43,0,0,0-5.32-2.3c-.22,0-.33-.22-.33-.67s.11-.67.33-.67l3.7.11c1.64.15,2.84.22,3.58.22,2.47,0,6-.07,10.64-.22l7.06-.11c.15,0,.22.22.22.67s-.07.67-.22.67c-3.14,0-4.7,1-4.7,3a7.9,7.9,0,0,0,1.45,3.69l17.14,26.32-9,5-18-27.55Zm27.77,22.4v26.66a16.53,16.53,0,0,0,.56,5,3.37,3.37,0,0,0,2.3,2.12,19.51,19.51,0,0,0,5.54.56c.23,0,.34.23.34.68s-.11.67-.34.67c-2.39,0-4.25,0-5.6-.11l-8.17-.12-8.07.12c-1.49.07-3.46.11-5.93.11-.15,0-.23-.23-.23-.67s.08-.68.23-.68a19.93,19.93,0,0,0,5.6-.56,3.72,3.72,0,0,0,2.46-2.18,13.69,13.69,0,0,0,.67-5V671.79Zm9.75-20c1.86-3.06,2.8-5.71,2.8-8,0-3.28-2.06-4.93-6.16-4.93-.15,0-.23-.22-.23-.67s.08-.67.23-.67l5.82.11c3.14.15,6,.23,8.62.22,1.27,0,2.8-.07,4.6-.22l4.14-.11c.15,0,.22.22.22.67s-.07.67-.22.67q-3.69,0-8.4,3.87a38.75,38.75,0,0,0-8.4,9.91l-15.57,25.2-2.24-1.79,14.79-24.31ZM1154.4,708a22,22,0,0,1-11.87-3.19,21.43,21.43,0,0,1-8-8.62,25.31,25.31,0,0,1-2.8-11.82,20.65,20.65,0,0,1,3.64-12.37,22.47,22.47,0,0,1,9.29-7.62,28.24,28.24,0,0,1,11.59-2.52A21.41,21.41,0,0,1,1176,673.64a24.78,24.78,0,0,1,2.7,11.36,22,22,0,0,1-12.2,20.11,26.36,26.36,0,0,1-12.1,2.85Zm3.36-2.24a8.47,8.47,0,0,0,7.62-4.36q2.68-4.38,2.68-12.77a37.69,37.69,0,0,0-2.07-13.11,19.5,19.5,0,0,0-5.6-8.51,12,12,0,0,0-7.78-2.91,8.54,8.54,0,0,0-7.67,4.14q-2.64,4.15-2.64,12.21a39.63,39.63,0,0,0,2,13,21.75,21.75,0,0,0,5.54,9,11.45,11.45,0,0,0,7.9,3.24Zm43.61,2q-6,0-9.41-3.75t-3.36-10.25V677.05a14.9,14.9,0,0,0-.84-5.77,2.75,2.75,0,0,0-2.63-1.84,6.77,6.77,0,0,0-3.13.89h-.12c-.29,0-.52-.18-.67-.56s-.11-.63.11-.78l14.12-6.61.56-.11a1.65,1.65,0,0,1,1,.45c.38.3.56.56.56.78v25.42c0,4.19.77,7.3,2.3,9.36s3.86,3.08,7,3.08a14.37,14.37,0,0,0,7.22-2.08,18.25,18.25,0,0,0,6-5.43l.67,1.35q-9.18,12.54-19.38,12.54Zm25.54-13.89a13.57,13.57,0,0,0,.78,5.43,2.72,2.72,0,0,0,2.69,1.63,18.43,18.43,0,0,0,5-1.35l.22-.11c.23,0,.41.19.56.56s.12.64-.11.79l-14.67,7-.45.11c-.82,0-1.53-.93-2.13-2.8a25.31,25.31,0,0,1-.89-7.5V677.05a14.9,14.9,0,0,0-.84-5.77,2.76,2.76,0,0,0-2.63-1.84,7.37,7.37,0,0,0-3.14.89h-.11c-.3,0-.52-.2-.67-.61s-.08-.66.22-.73l14.11-6.61.45-.11a1.7,1.7,0,0,1,1,.45c.37.3.56.56.56.78v30.35Zm115.25,11.31c.29,0,.44.23.44.68s-.15.67-.44.67q-2.13,0-6.84-.23c-3.13-.14-5.41-.22-6.83-.22-1.86,0-4.07.08-6.61.22s-4.51.23-5.93.23c-.3,0-.45-.23-.45-.67s.15-.68.45-.68a11.58,11.58,0,0,0,4.81-.72,2.52,2.52,0,0,0,1.46-2.41c0-1.12-.63-3-1.9-5.71l-23.41-47.6,4.59-7.51-22.18,49.95a15.49,15.49,0,0,0-1.45,6.05,6.85,6.85,0,0,0,2.8,5.94c1.86,1.34,4.48,2,7.84,2,.37,0,.56.23.56.68s-.19.67-.56.67c-1.33,0-3.28-.08-5.83-.23-2.83-.14-5.3-.22-7.39-.22s-4.37.08-7,.22c-2.39.15-4.37.22-5.94.23-.37,0-.56-.23-.56-.67s.19-.68.56-.68a10.36,10.36,0,0,0,5.26-1.23,13.1,13.1,0,0,0,4.15-4.42,78,78,0,0,0,4.81-9.47l24.08-54.2c.15-.23.49-.34,1-.34s.82.11.9.34L1330,691.16q3.81,8.07,6.44,11a7.64,7.64,0,0,0,5.77,3ZM1284,676.27h31.36l.78,2.8h-33.6Zm63.6,30.24c-.22,0-.33-.23-.33-.67s.11-.68.33-.68q3.81,0,5.1-1.56t1.29-6.16V640.2a15.9,15.9,0,0,0-.73-5.65,2.57,2.57,0,0,0-2.52-1.74,11.72,11.72,0,0,0-4.59,1.35H1346c-.3,0-.53-.19-.68-.56s-.15-.64,0-.79l15.8-7.39.44-.11a1.65,1.65,0,0,1,1,.45c.37.3.56.56.56.78v70.9q0,4.59,1.29,6.16t5.1,1.56c.22,0,.33.23.33.68s-.11.67-.33.67c-1.87,0-3.36,0-4.48-.11l-6.5-.12-6.5.12c-1.12.07-2.61.11-4.48.11Zm30.4-33.94q-2.46-4.92-4.08-6.44a5.76,5.76,0,0,0-4.09-1.51c-.23,0-.34-.22-.34-.67s.11-.67.34-.67a27.36,27.36,0,0,1,3.25.11l6.49.11,7.62-.11c1.12-.08,2.65-.11,4.59-.11.22,0,.34.22.34.67s-.12.67-.34.67q-5.94,0-5.94,2.58a4.52,4.52,0,0,0,.56,1.79l14.12,27-4.93,8.06,12.21-29.45,2.68.56L1397,706.4c0,.29-.37.44-1.12.44a1.66,1.66,0,0,1-1.34-.44Zm27.11,0a34.22,34.22,0,0,0-3.81-6.44,4.43,4.43,0,0,0-3.47-1.51c-.15,0-.23-.22-.23-.67s.08-.67.23-.67a25.73,25.73,0,0,1,3.13.11l5.83.11,7.61-.11c1.12-.08,2.65-.11,4.6-.11.14,0,.22.22.22.67s-.08.67-.22.67a9.55,9.55,0,0,0-4.09.73,2.24,2.24,0,0,0-1.51,2.07,3.13,3.13,0,0,0,.44,1.57l13.67,27-4.71,8.06,12.44-30.24a10.57,10.57,0,0,0,.78-3.8,4.61,4.61,0,0,0-2-4,9.63,9.63,0,0,0-5.66-1.4c-.22,0-.33-.22-.33-.67s.11-.67.33-.67c2,0,3.51,0,4.48.11l6.72.11,4.48-.11c.75-.08,2-.11,3.81-.11.23,0,.34.22.34.67s-.11.67-.34.67a7.51,7.51,0,0,0-5.32,2.18,21.88,21.88,0,0,0-4.42,7.23l-13.89,32.37c-.08.29-.45.44-1.12.44s-1.27-.15-1.34-.44l-16.69-33.83Zm53.1,34.72c-3.07,0-5.38-.71-7-2.13a7.47,7.47,0,0,1-2.35-5.82,7.33,7.33,0,0,1,1.62-4.93,12.37,12.37,0,0,1,4.09-3.08c1.64-.78,4.11-1.77,7.39-3l12-4.48.33,1.68-8.17,3.48a19.29,19.29,0,0,0-4.82,2.68,5.33,5.33,0,0,0-1.79,4.37,5.43,5.43,0,0,0,1.74,4.26,5.88,5.88,0,0,0,4.08,1.57,8.48,8.48,0,0,0,4.37-1.35l6-4,.11,1.68-8,5.6a21,21,0,0,1-4.87,2.69,14.4,14.4,0,0,1-4.87.78Zm21-.11a2.15,2.15,0,0,1-1,.22q-2,0-3.69-2.74a14,14,0,0,1-1.68-7.34V677.61q0-6.95-1.4-10.13c-.94-2.13-2.41-3.2-4.43-3.2a5.71,5.71,0,0,0-5.32,2.75,14.8,14.8,0,0,0-2,6.1c-.44,3.81-2.35,5.71-5.71,5.71a5.1,5.1,0,0,1-3.64-1.12,3.69,3.69,0,0,1-1.17-2.8q0-3.13,3.75-6.1A31,31,0,0,1,1462,664a29,29,0,0,1,9.35-1.84,10,10,0,0,1,7.67,3c1.91,2,2.87,5,2.86,9.07v20.16c0,4.71,1.46,7.07,4.37,7.06a10.67,10.67,0,0,0,4-1h.22a.54.54,0,0,1,.56.5.58.58,0,0,1-.33.73l-11.54,5.49Zm57.62-43.9c.14,0,.22.22.22.67s-.08.67-.22.67a7.48,7.48,0,0,0-5.77,2.69,25.74,25.74,0,0,0-4.43,8.17l-12.88,34.16a107.12,107.12,0,0,1-7.72,16.92q-3.71,6.15-7.51,8.79a14.44,14.44,0,0,1-8.4,2.63,8,8,0,0,1-4.87-1.29,4.49,4.49,0,0,1-1.74-3.86,4.24,4.24,0,0,1,1.4-3.36,5.05,5.05,0,0,1,3.42-1.23,6,6,0,0,1,2.18.33,14.87,14.87,0,0,1,2.08,1.12,6.4,6.4,0,0,0,3.92,1.46,6.9,6.9,0,0,0,5.09-2.41,32,32,0,0,0,4.93-7.9q2.63-5.48,6.44-15.79l-.34,5.15-18.48-37.63a37.8,37.8,0,0,0-3.92-6.44,4.43,4.43,0,0,0-3.47-1.51c-.15,0-.22-.22-.22-.67s.07-.67.22-.67c1.94,0,3.43,0,4.48.11l4.37.11,7.62-.11c1.12-.08,2.64-.11,4.59-.11.22,0,.33.22.33.67s-.11.67-.33.67a15,15,0,0,0-4.48.5,1.82,1.82,0,0,0-1.46,1.74,4.76,4.76,0,0,0,.67,2.13l14.56,29.9-3.47,5.94,10.19-29.35a17.12,17.12,0,0,0,.9-4.81q0-6-7.5-6c-.16,0-.23-.22-.23-.67s.07-.67.23-.67c2,0,3.54,0,4.59.11l6.72.11,4.37-.11c.82-.08,2.12-.11,3.92-.11Zm9.77,5.82a7.93,7.93,0,0,0,2.4,5.9,31.67,31.67,0,0,0,7,4.81q4,2.25,6.22,3.7a13.65,13.65,0,0,1,3.8,3.92,10.52,10.52,0,0,1,1.63,5.93,13.81,13.81,0,0,1-1.91,7.06,14,14,0,0,1-5.65,5.26,18.5,18.5,0,0,1-8.91,2,21.37,21.37,0,0,1-11.31-3.14,1.9,1.9,0,0,1-.67-1.34L1539,693c0-.23.2-.36.61-.4s.66.06.73.28a21.9,21.9,0,0,0,5.77,9.08,11.94,11.94,0,0,0,8.23,3.58,6.11,6.11,0,0,0,4.37-1.46,5.67,5.67,0,0,0,1.57-4.36,9.31,9.31,0,0,0-2.47-6.78,28.51,28.51,0,0,0-7.17-5,68.25,68.25,0,0,1-5.93-3.42,12.15,12.15,0,0,1-3.64-3.81,11,11,0,0,1-1.51-6q0-6.39,4.64-9.52a19.68,19.68,0,0,1,11.26-3.14,25.87,25.87,0,0,1,9,1.68c.67.3,1,.71,1,1.24a39.89,39.89,0,0,1-.11,4l-.12,5.37c0,.15-.22.23-.67.23s-.67-.08-.67-.23a7.88,7.88,0,0,0-1.79-4.64,14.56,14.56,0,0,0-4.59-4,11.62,11.62,0,0,0-5.72-1.57c-3.43,0-5.15,1.65-5.15,4.93Zm87,37.86c-2.32,0-5-.12-8.18-.34-1.12-.07-2.54-.15-4.26-.22s-3.62-.12-5.71-.12l-8,.12q-2.13.11-5.94.11c-.15,0-.22-.23-.22-.67s.07-.68.22-.68a19.55,19.55,0,0,0,5.55-.56,3.69,3.69,0,0,0,2.41-2.18,14.13,14.13,0,0,0,.67-5V645.58a14.44,14.44,0,0,0-.62-4.93,3.71,3.71,0,0,0-2.41-2.18,17.76,17.76,0,0,0-5.48-.62c-.15,0-.23-.22-.23-.67s.08-.67.23-.67l5.93.11c3.29.15,5.9.23,7.84.22,2.91,0,5.94-.11,9.07-.33,3.74-.15,6.24-.22,7.51-.23a44.31,44.31,0,0,1,20.27,4.48A33.89,33.89,0,0,1,1666.06,653a31.9,31.9,0,0,1,4.87,17.36,36.41,36.41,0,0,1-5,19.21,34.6,34.6,0,0,1-13.55,12.88,39.3,39.3,0,0,1-18.7,4.54Zm-1.12-2.24a25.68,25.68,0,0,0,13.72-3.7,24.58,24.58,0,0,0,9.35-10.92,40.66,40.66,0,0,0,3.36-17.3,45.72,45.72,0,0,0-3.19-17.42,29.35,29.35,0,0,0-9-12.32,21.45,21.45,0,0,0-13.55-4.54,36.83,36.83,0,0,0-7.34.56,6.49,6.49,0,0,0-3.75,2.08,7.27,7.27,0,0,0-1.23,4.64v50.4c0,3.07.8,5.25,2.41,6.56s4.68,2,9.24,2Zm48.22,1.79c-.22,0-.33-.23-.33-.67s.11-.68.33-.68q3.81,0,5-1.56c.82-1.05,1.24-3.1,1.24-6.16V676a12.44,12.44,0,0,0-.84-5.26,2.86,2.86,0,0,0-2.75-1.68,17,17,0,0,0-5.6,1.68h-.11c-.3,0-.52-.19-.67-.56s-.11-.6.11-.67l14.67-7.17a4.42,4.42,0,0,1,.79-.22c.82,0,1.6.93,2.35,2.8a20,20,0,0,1,1.12,7.28v25.2a10.24,10.24,0,0,0,.89,4.76,5,5,0,0,0,3.08,2.29,22.89,22.89,0,0,0,6.33.67c.3,0,.45.23.45.68s-.15.67-.45.67c-2.54,0-4.55,0-6-.11l-8.73-.12-6.5.12c-1,.07-2.5.11-4.37.11Zm12-31.7a70.48,70.48,0,0,1,9.63-9.91q3.59-2.74,6.38-2.74a8.19,8.19,0,0,1,4.82,1.68,4.87,4.87,0,0,1,2.35,4,4.71,4.71,0,0,1-1.23,3.41,4.56,4.56,0,0,1-3.47,1.29,4.29,4.29,0,0,1-2.35-.56,11.5,11.5,0,0,1-2-1.68,11.27,11.27,0,0,0-1.79-1.51,3.46,3.46,0,0,0-1.91-.5,5.64,5.64,0,0,0-3.3,1.45,65.83,65.83,0,0,0-6.33,6.39l-.78-1.35Zm47.64,33a22.41,22.41,0,0,1-11.81-3,20.49,20.49,0,0,1-7.62-8,22.3,22.3,0,0,1-2.63-10.64,23.3,23.3,0,0,1,3.25-12.1,23.62,23.62,0,0,1,8.9-8.68,25.13,25.13,0,0,1,12.6-3.19q6.72,0,10.36,3.25t3.64,9.63a7.86,7.86,0,0,1-.28,2.46,1,1,0,0,1-1,.79h-9.19q.57-13.89-7.61-13.89a8.87,8.87,0,0,0-7.9,4.59q-2.85,4.59-2.85,12.43,0,9.85,4.59,15.63t13,5.76a15.37,15.37,0,0,0,5.26-.78,51.59,51.59,0,0,0,5.6-2.58l.23-.11c.15,0,.32.15.5.45s.21.52.06.67a27.47,27.47,0,0,1-8.18,5.55,23.11,23.11,0,0,1-9,1.73Zm-15.45-31.25,24.86-.44v2.24l-24.75.11ZM1773,707.25c-3.07,0-5.38-.71-7-2.13a7.47,7.47,0,0,1-2.35-5.82,7.33,7.33,0,0,1,1.62-4.93,12.37,12.37,0,0,1,4.09-3.08c1.64-.78,4.11-1.77,7.39-3l12-4.48.33,1.68L1781,689a19,19,0,0,0-4.82,2.68,5.33,5.33,0,0,0-1.79,4.37,5.43,5.43,0,0,0,1.74,4.26,5.88,5.88,0,0,0,4.08,1.57,8.48,8.48,0,0,0,4.37-1.35l6.05-4,.11,1.68-8,5.6a21,21,0,0,1-4.87,2.69,14.4,14.4,0,0,1-4.87.78Zm21-.11a2.15,2.15,0,0,1-1,.22q-2,0-3.69-2.74a14,14,0,0,1-1.68-7.34V677.61q0-6.95-1.4-10.13c-.94-2.13-2.41-3.2-4.43-3.2a5.71,5.71,0,0,0-5.32,2.75,14.8,14.8,0,0,0-2,6.1c-.44,3.81-2.35,5.71-5.71,5.71a5.1,5.1,0,0,1-3.64-1.12,3.69,3.69,0,0,1-1.17-2.8c0-2.09,1.24-4.12,3.75-6.1a30.92,30.92,0,0,1,9.07-4.82,29,29,0,0,1,9.35-1.84,10,10,0,0,1,7.67,3q2.87,3,2.86,9.07v20.16c0,4.71,1.46,7.07,4.37,7.06a10.67,10.67,0,0,0,4-1h.22a.54.54,0,0,1,.56.5.59.59,0,0,1-.33.73L1794,707.17Zm15.23-.67c-.22,0-.33-.23-.33-.67s.11-.68.33-.68q3.81,0,5-1.56c.82-1,1.24-3.1,1.24-6.16V676a12.44,12.44,0,0,0-.84-5.26,2.86,2.86,0,0,0-2.75-1.68,17,17,0,0,0-5.6,1.68h-.11c-.3,0-.52-.19-.67-.56s-.11-.6.11-.67l14.67-7.17a4.42,4.42,0,0,1,.79-.22c.82,0,1.6.93,2.35,2.8a20,20,0,0,1,1.12,7.28v25.2q0,4.59,1.29,6.16t5.09,1.56c.23,0,.34.23.34.68s-.11.67-.34.67c-1.87,0-3.36,0-4.48-.11l-6.38-.12-6.5.12c-1,.07-2.5.11-4.37.11Zm28.79,0c-.23,0-.34-.23-.34-.67s.11-.68.34-.68c2.54,0,4.23-.52,5.09-1.56s1.29-3.1,1.29-6.16V680.75q0-6.27-2.18-9.3c-1.45-2-3.68-3-6.67-3a14.25,14.25,0,0,0-7.11,2,17.56,17.56,0,0,0-5.88,5.49l-.56-1.34q8.63-12.54,19-12.55,5.94,0,9.13,3.31t3.19,9.57v22.52q0,4.59,1.35,6.16t5.15,1.56c.22,0,.33.23.33.68s-.11.67-.33.67c-1.94,0-3.47,0-4.59-.11l-6.39-.12-6.38.12c-1.12.07-2.62.11-4.48.11Zm29.23,0c-.22,0-.34-.23-.34-.67s.12-.68.34-.68q3.69,0,5-1.62c.9-1.08,1.34-3.12,1.34-6.1V680.75c0-4.18-.72-7.28-2.18-9.3s-3.68-3-6.66-3a14.29,14.29,0,0,0-7.12,2,17.56,17.56,0,0,0-5.88,5.49l-.56-1.34q8.63-12.54,19-12.55,5.94,0,9.13,3.42t3.19,10.36v21.62q0,4.59,1.29,6.16t5.1,1.56c.3,0,.45.23.45.68s-.15.67-.45.67c-1.87,0-3.36,0-4.48-.11l-6.39-.12-6.38.12c-1.12.07-2.61.11-4.48.11Zm46.49,1.34a22.41,22.41,0,0,1-11.81-3,20.42,20.42,0,0,1-7.62-8,22.18,22.18,0,0,1-2.63-10.64,23.3,23.3,0,0,1,3.25-12.1,23.62,23.62,0,0,1,8.9-8.68,25.13,25.13,0,0,1,12.6-3.19q6.72,0,10.36,3.25t3.64,9.63a7.86,7.86,0,0,1-.28,2.46,1,1,0,0,1-1,.79H1920q.57-13.89-7.61-13.89a8.87,8.87,0,0,0-7.9,4.59q-2.85,4.59-2.85,12.43,0,9.85,4.59,15.63t13,5.76a15.37,15.37,0,0,0,5.26-.78,51.59,51.59,0,0,0,5.6-2.58l.23-.11c.15,0,.31.15.5.45s.21.52.06.67a27.47,27.47,0,0,1-8.18,5.55,23.11,23.11,0,0,1-9,1.73Zm-15.45-31.25,24.86-.44v2.24l-24.75.11Zm55,31.36a15.8,15.8,0,0,1-8.85-2.63,18,18,0,0,1-6.39-7.56,26.62,26.62,0,0,1-2.35-11.53q0-8.3,3.92-13.78a23.35,23.35,0,0,1,9.86-8.06,29.64,29.64,0,0,1,11.87-2.58,25.76,25.76,0,0,1,13.78,4l-2.13,8.51a22.19,22.19,0,0,0-5.88-7.44,12.7,12.7,0,0,0-7.9-2.41,11.9,11.9,0,0,0-9.91,4.48q-3.54,4.49-3.53,13.77t3.7,14.84q3.7,5.41,9.48,5.47a13.75,13.75,0,0,0,7.67-2.24,40.49,40.49,0,0,0,7.33-6.5l1,.9a63,63,0,0,1-10.13,9.24,19.4,19.4,0,0,1-11.48,3.52Zm26.54-14.22a13.91,13.91,0,0,0,.78,5.54,2.76,2.76,0,0,0,2.69,1.63,11.66,11.66,0,0,0,5-1.35h.11c.23,0,.43.19.62.56s.17.6-.06.68l-14.33,6.94-.67.11c-.9,0-1.67-.93-2.3-2.8a25,25,0,0,1-1-7.73V640.2a15.68,15.68,0,0,0-.73-5.65,2.62,2.62,0,0,0-2.63-1.74,14.34,14.34,0,0,0-4.48,1.35h-.23c-.29,0-.52-.19-.67-.56s-.11-.6.11-.68l15.68-7.5.45-.11a1.65,1.65,0,0,1,1,.45c.37.3.56.56.56.78v67.2Zm76.61,14.11A35.27,35.27,0,0,1,2038,703a33.3,33.3,0,0,1-12.54-13.22,38.23,38.23,0,0,1-4.43-18.2q0-11.54,5.83-19.76a36.44,36.44,0,0,1,15-12.38,44.69,44.69,0,0,1,18.65-4.14,34.88,34.88,0,0,1,18.7,5,33.84,33.84,0,0,1,12.38,13.16,36.74,36.74,0,0,1,4.31,17.36,34.3,34.3,0,0,1-5.38,18.7A38.54,38.54,0,0,1,2076.13,703a40.06,40.06,0,0,1-19.54,4.93Zm3.81-2.69a20.79,20.79,0,0,0,12-3.64,24.32,24.32,0,0,0,8.4-10.69,41.86,41.86,0,0,0,3.08-16.8,47.44,47.44,0,0,0-3.42-18.54,29.37,29.37,0,0,0-9.74-12.71,24.64,24.64,0,0,0-14.84-4.59q-11,0-16.92,7.78t-5.85,21.6a50.84,50.84,0,0,0,3.47,19.32,31.53,31.53,0,0,0,9.74,13.44,22.41,22.41,0,0,0,14.12,4.87Zm43,1.35c-.3,0-.45-.23-.45-.67s.15-.68.45-.68a12.15,12.15,0,0,0,4.48-.61,3.58,3.58,0,0,0,2-2.19,16,16,0,0,0,.56-4.92V672.2q0-3.71-1.46-4.71t-6-1c-.22,0-.33-.33-.33-1s.11-.9.33-.9c2.77,0,4.65-.35,5.66-1.06s1.55-2,1.62-3.87q.57-18.25,6.84-26.37t18.81-8.12q6.16,0,9.63,1.73t3.48,4.65a4.4,4.4,0,0,1-1.52,3.53,5.23,5.23,0,0,1-3.52,1.29,4.84,4.84,0,0,1-3.36-1,11.25,11.25,0,0,1-2.24-3.14,11.31,11.31,0,0,0-2.69-3.53,6.28,6.28,0,0,0-4-1.17q-5.61,0-8.85,7.28t-3.25,22.51v40.1a12.88,12.88,0,0,0,.73,5,4,4,0,0,0,2.8,2.12,28.51,28.51,0,0,0,6.77.56c.3,0,.45.23.45.68s-.15.67-.45.67l-7.5-.11q-2.46-.12-7.5-.12l-6.61.12c-1.12.07-2.73.11-4.82.11Zm28.79-37.63a74.14,74.14,0,0,0-16.8-1.8V664.4a166.22,166.22,0,0,0,17.13-1.12c.23,0,.41.26.56.78a7.17,7.17,0,0,1,.23,1.9,6.46,6.46,0,0,1-.34,2c-.22.67-.49,1-.78.9Zm39.92,38.9a5.78,5.78,0,0,1-6.16-5.37,5.21,5.21,0,0,1,0-.79,5.53,5.53,0,0,1,1.68-4.26,6.33,6.33,0,0,1,4.48-1.56,6.1,6.1,0,0,1,4.48,1.56,5.79,5.79,0,0,1,1.56,4.26,6.3,6.3,0,0,1-1.56,4.54A6,6,0,0,1,2172,707.74Zm20.91,0a5.78,5.78,0,0,1-6.16-5.37,5.21,5.21,0,0,1,0-.79,5.53,5.53,0,0,1,1.68-4.26,6.33,6.33,0,0,1,4.48-1.56,6.1,6.1,0,0,1,4.48,1.56,5.79,5.79,0,0,1,1.56,4.26,6.3,6.3,0,0,1-1.56,4.54A6,6,0,0,1,2192.91,707.74Zm20.93,0a5.78,5.78,0,0,1-6.16-5.37,5.21,5.21,0,0,1,0-.79,5.53,5.53,0,0,1,1.68-4.26,6.33,6.33,0,0,1,4.48-1.56,6.1,6.1,0,0,1,4.48,1.56,5.8,5.8,0,0,1,1.57,4.26,6.3,6.3,0,0,1-1.57,4.54A6,6,0,0,1,2213.84,707.74Zm41.66-1.23c-.22,0-.34-.23-.34-.67s.12-.68.34-.68a21.94,21.94,0,0,0,5.88-.56,3.73,3.73,0,0,0,2.52-2.18,13.69,13.69,0,0,0,.67-5V645.58a14.68,14.68,0,0,0-.61-4.93,3.74,3.74,0,0,0-2.41-2.18,18.17,18.17,0,0,0-5.49-.62c-.22,0-.34-.22-.34-.67s.12-.67.34-.67h46.59c.75,0,1.12.33,1.12,1l.23,14.56c0,.15-.21.24-.62.28s-.65-.06-.73-.28q-2.68-12.66-15.45-12.66h-4.6c-2.68,0-4.59.49-5.71,1.46s-1.68,2.57-1.68,4.81V697a11.23,11.23,0,0,0,.9,5.21,5.28,5.28,0,0,0,3.53,2.29,35.69,35.69,0,0,0,8.12.67c.15,0,.22.23.22.68s-.07.67-.22.67c-3.07,0-5.45,0-7.17-.11l-11-.12-8.17.12q-2.13.11-5.94.11Zm41.5-24.08q0-9.52-12.88-9.52h-14V670h14.23q12.54,0,12.54-8.4c0-.15.22-.23.67-.23s.67.08.67.23l-.11,9.85c0,2.32,0,4,.11,5.15l.12,5.83c0,.22-.23.33-.68.33s-.67-.11-.67-.33ZM2330.77,708a22,22,0,0,1-11.87-3.19,21.63,21.63,0,0,1-8-8.62,25.56,25.56,0,0,1-2.8-11.82,20.72,20.72,0,0,1,3.64-12.37,22.49,22.49,0,0,1,9.3-7.62,28.24,28.24,0,0,1,11.59-2.52,21.65,21.65,0,0,1,11.93,3.25,21.43,21.43,0,0,1,7.78,8.57A24.77,24.77,0,0,1,2355,685a22,22,0,0,1-12.21,20.11,26.29,26.29,0,0,1-12.09,2.85Zm3.36-2.24a8.46,8.46,0,0,0,7.61-4.36q2.7-4.38,2.69-12.77a37.69,37.69,0,0,0-2.07-13.11,19.5,19.5,0,0,0-5.6-8.51,12,12,0,0,0-7.78-2.91,8.55,8.55,0,0,0-7.68,4.14q-2.62,4.15-2.63,12.21a39.11,39.11,0,0,0,2,13,21.75,21.75,0,0,0,5.54,9,11.43,11.43,0,0,0,7.9,3.24Zm27.28.79c-.22,0-.34-.23-.34-.67s.12-.68.34-.68q3.81,0,5-1.56t1.23-6.16V676a12.44,12.44,0,0,0-.84-5.26,2.85,2.85,0,0,0-2.74-1.68,17,17,0,0,0-5.6,1.68h-.11c-.3,0-.53-.19-.68-.56s-.11-.6.12-.67l14.67-7.17a4.1,4.1,0,0,1,.78-.22c.82,0,1.61.93,2.35,2.8a19.61,19.61,0,0,1,1.12,7.28v25.2a10.12,10.12,0,0,0,.9,4.76,5,5,0,0,0,3.08,2.29,22.89,22.89,0,0,0,6.33.67c.3,0,.45.23.45.68s-.15.67-.45.67q-3.81,0-6-.11l-8.74-.12-6.49.12c-1.05.07-2.5.11-4.37.11Zm12-31.7a70.55,70.55,0,0,1,9.64-9.91c2.39-1.83,4.51-2.74,6.38-2.74a8.19,8.19,0,0,1,4.82,1.68,4.88,4.88,0,0,1,2.35,4,4.71,4.71,0,0,1-1.23,3.41,4.59,4.59,0,0,1-3.48,1.29,4.29,4.29,0,0,1-2.35-.56,11.07,11.07,0,0,1-2-1.68,11.81,11.81,0,0,0-1.8-1.51,3.43,3.43,0,0,0-1.9-.5,5.64,5.64,0,0,0-3.3,1.45,63.64,63.64,0,0,0-6.33,6.39l-.79-1.35ZM2451.23,708a22,22,0,0,1-11.87-3.19,21.63,21.63,0,0,1-8-8.62,25.31,25.31,0,0,1-2.8-11.82A20.65,20.65,0,0,1,2432.2,672a22.47,22.47,0,0,1,9.29-7.62,28.29,28.29,0,0,1,11.6-2.52,21.41,21.41,0,0,1,19.71,11.82,24.77,24.77,0,0,1,2.69,11.36,22.08,22.08,0,0,1-12.21,20.11,26.36,26.36,0,0,1-12.1,2.85Zm3.36-2.24a8.47,8.47,0,0,0,7.62-4.36q2.68-4.38,2.69-12.77a37.47,37.47,0,0,0-2.08-13.11,19.5,19.5,0,0,0-5.6-8.51,12,12,0,0,0-7.78-2.91,8.54,8.54,0,0,0-7.67,4.14q-2.64,4.15-2.63,12.21a39.63,39.63,0,0,0,2,13,21.78,21.78,0,0,0,5.55,9,11.41,11.41,0,0,0,7.89,3.24Zm27.29.79c-.23,0-.34-.23-.34-.67s.11-.68.34-.68c2.53,0,4.19-.52,5-1.56s1.22-3.09,1.24-6.16V676a12.44,12.44,0,0,0-.84-5.26,2.85,2.85,0,0,0-2.75-1.68,17,17,0,0,0-5.6,1.68h-.11c-.3,0-.52-.19-.67-.56s-.11-.6.11-.67l14.67-7.17a4.42,4.42,0,0,1,.79-.22c.82,0,1.6.93,2.35,2.8a20,20,0,0,1,1.12,7.28v25.2q0,4.59,1.29,6.16t5.09,1.56c.23,0,.34.23.34.68s-.11.67-.34.67c-1.86,0-3.36,0-4.48-.11l-6.38-.12-6.5.12c-1,.07-2.5.11-4.36.11Zm30.12,0c-.22,0-.33-.23-.33-.67s.11-.68.33-.68q3.81,0,5-1.56t1.23-6.16v-16.8q0-6.27-2.29-9.24c-1.53-2-3.93-3-7.22-3a15.7,15.7,0,0,0-7.45,2,17.37,17.37,0,0,0-6.11,5.38l-.56-1.34q9-12.56,19.71-12.55,6.17,0,9.58,3.7t3.42,10.19v21.62q0,4.59,1.29,6.16t5.09,1.56c.22,0,.34.23.34.68s-.12.67-.34.67c-1.87,0-3.36,0-4.48-.11l-6.38-.12-6.39.12c-1.12.07-2.61.11-4.48.11Zm27.3,0c-.23,0-.34-.23-.34-.67s.11-.68.34-.68c2.53,0,4.22-.52,5.09-1.56s1.3-3.09,1.29-6.16V640.2a15.68,15.68,0,0,0-.73-5.65,2.54,2.54,0,0,0-2.52-1.74,11.72,11.72,0,0,0-4.59,1.35h-.11c-.3,0-.52-.19-.67-.56s-.15-.64,0-.79l15.79-7.39.45-.11a1.65,1.65,0,0,1,1,.45c.38.3.56.56.56.78v70.9q0,4.59,1.29,6.16t5.1,1.56c.22,0,.33.23.33.68s-.11.67-.33.67c-1.87,0-3.36,0-4.48-.11l-6.5-.12-6.49.12c-1.12.07-2.62.11-4.48.11Zm72.16-43.23c.15,0,.22.22.22.67s-.07.67-.22.67a7.51,7.51,0,0,0-5.77,2.69,25.52,25.52,0,0,0-4.42,8.17l-12.88,34.16a107.58,107.58,0,0,1-7.73,16.92q-3.7,6.15-7.51,8.79a14.42,14.42,0,0,1-8.4,2.63,8,8,0,0,1-4.87-1.29,4.52,4.52,0,0,1-1.73-3.86,4.24,4.24,0,0,1,1.4-3.36,5,5,0,0,1,3.41-1.23,6.26,6.26,0,0,1,2.19.33,13.79,13.79,0,0,1,2.07,1.12,6.4,6.4,0,0,0,3.92,1.46,6.9,6.9,0,0,0,5.09-2.41,31.73,31.73,0,0,0,4.93-7.9q2.64-5.48,6.44-15.79l-.33,5.15-18.48-37.63a37.8,37.8,0,0,0-3.92-6.44,4.45,4.45,0,0,0-3.48-1.51c-.14,0-.22-.22-.22-.67s.08-.67.22-.67c2,0,3.44,0,4.48.11l4.37.11,7.62-.11c1.12-.08,2.65-.11,4.59-.11.22,0,.34.22.34.67s-.12.67-.34.67a15,15,0,0,0-4.48.5,1.82,1.82,0,0,0-1.46,1.74,4.57,4.57,0,0,0,.68,2.13l14.56,29.9-3.48,5.94,10.2-29.35a17.47,17.47,0,0,0,.89-4.81q0-6-7.5-6c-.15,0-.23-.22-.23-.67s.08-.67.23-.67c2,0,3.54,0,4.59.11l6.72.11,4.37-.11c.82-.08,2.13-.11,3.92-.11Zm40.09-.45a9,9,0,0,0,1.79,5.6,16,16,0,0,0,4.48,4q2.7,1.63,7.17,3.87a77.34,77.34,0,0,1,7.67,4.37,18.41,18.41,0,0,1,4.88,4.76,11.5,11.5,0,0,1,2,6.77,13.77,13.77,0,0,1-2.46,8,16.69,16.69,0,0,1-7,5.66,24,24,0,0,1-10.19,2.07,35.62,35.62,0,0,1-9.13-1.17,18.54,18.54,0,0,1-6.55-2.86,2.57,2.57,0,0,1-.89-2.35l-.79-12.1c0-.3.19-.48.56-.56a.65.65,0,0,1,.79.34,40.54,40.54,0,0,0,7.61,11.53q4.59,4.83,10.31,4.82a9.71,9.71,0,0,0,6.38-2.13q2.58-2.13,2.58-6.49a10.6,10.6,0,0,0-1.91-6.28,18,18,0,0,0-4.64-4.53c-1.84-1.23-4.28-2.67-7.34-4.31a81,81,0,0,1-7.06-4.2,17.62,17.62,0,0,1-4.53-4.54,10.77,10.77,0,0,1-1.85-6.27,11.8,11.8,0,0,1,5.43-10.25,22.59,22.59,0,0,1,13.16-3.75,32.88,32.88,0,0,1,6.78.73,28.7,28.7,0,0,1,6,1.84,3.49,3.49,0,0,1,1.34.9,2,2,0,0,1,.34,1.23l.33,10.31c0,.3-.18.48-.56.56a.69.69,0,0,1-.78-.23,20.43,20.43,0,0,0-2.69-5.26,21.45,21.45,0,0,0-5.32-5.43,12.31,12.31,0,0,0-7.45-2.41,8.59,8.59,0,0,0-6.32,2.18,7.64,7.64,0,0,0-2.19,5.66Zm8.07-19.15a.75.75,0,0,1,.44-.68,2.7,2.7,0,0,1,1.12-.22,2.28,2.28,0,0,1,1,.22.73.73,0,0,1,.45.68V718c0,.52-.49.79-1.46.79s-1.56-.27-1.56-.79V643.72Zm29.86,93.63c-.3.07-.55-.1-.73-.51s-.13-.65.17-.72q12.64-4.71,18.14-12.16t5.49-14.84a15.9,15.9,0,0,0-3.31-10.41q-3.3-4-9.24-4a19.05,19.05,0,0,0-4.81.67c-.23.07-.41-.11-.56-.56s-.11-.71.11-.79c5.38-1.41,9.28-3.49,11.7-6.21s3.64-6.48,3.64-11.26c0-3.73-.63-6.63-1.9-8.68a6.38,6.38,0,0,0-5.82-3.08A12.4,12.4,0,0,0,2694,668a23.31,23.31,0,0,0-6.05,9.63.65.65,0,0,1-.45.11c-.67,0-1-.14-.9-.44l4.15-16.36a.67.67,0,0,1,.45-.22,1.58,1.58,0,0,1,.67.17c.22.11.3.2.22.28a5.67,5.67,0,0,0-.22,1.23,1.68,1.68,0,0,0,1.43,1.9,1.85,1.85,0,0,0,.47,0,11,11,0,0,0,3.7-.89c1.71-.52,3.19-.92,4.42-1.18a20.4,20.4,0,0,1,4.2-.39q6.49,0,10.19,3.75a12.37,12.37,0,0,1,3.7,9,17.57,17.57,0,0,1-4.54,11.7,20.94,20.94,0,0,1-12.15,6.89l.67-1.68q9.52.22,14.45,4.93a15.06,15.06,0,0,1,4.93,11.31,19.6,19.6,0,0,1-3.7,10.92q-3.69,5.55-11.31,10.47a71.06,71.06,0,0,1-18.81,8.18ZM2754.69,708a24.38,24.38,0,0,1-12.2-3,21.72,21.72,0,0,1-8.4-8.34,23.7,23.7,0,0,1-3-11.93,23.07,23.07,0,0,1,3-11.82,21.1,21.1,0,0,1,8.4-8.12,25.27,25.27,0,0,1,12.2-2.91,24.22,24.22,0,0,1,12.1,3A21.35,21.35,0,0,1,2775,673a25.21,25.21,0,0,1,0,23.74,21.25,21.25,0,0,1-8.29,8.24,24.32,24.32,0,0,1-12,3Zm1.12-2.12a9.37,9.37,0,0,0,8.63-5.16q2.91-5.15,2.91-14.33,0-11.21-3.86-16.8t-9.8-5.6a9.84,9.84,0,0,0-9,5.32q-3.15,5.33-3.14,14.28,0,9.85,3.92,16.07t10.3,6.22Zm54.77,2.12a24.44,24.44,0,0,1-12.21-3,21.85,21.85,0,0,1-8.4-8.34,23.82,23.82,0,0,1-3-11.93,23.17,23.17,0,0,1,3-11.82,21.3,21.3,0,0,1,8.4-8.12,25.31,25.31,0,0,1,12.21-2.91,24.22,24.22,0,0,1,12.1,3,21.14,21.14,0,0,1,8.23,8.23,25.21,25.21,0,0,1,0,23.74,21.25,21.25,0,0,1-8.29,8.24,24.32,24.32,0,0,1-12,3Zm1.12-2.12a9.37,9.37,0,0,0,8.63-5.16q2.91-5.15,2.91-14.33,0-11.21-3.87-16.8t-9.8-5.6a9.87,9.87,0,0,0-9,5.32q-3.14,5.33-3.13,14.28,0,9.85,3.92,16.07t10.3,6.22Z" transform="translate(-517.56 -514.22)"/><g class="cls-2"><text class="cls-3" transform="translate(0 336.29)"><tspan xml:space="preserve">    </tspan></text></g><g class="cls-2"><text class="cls-4" transform="translate(179.99 336.29)">B</text><text class="cls-5" transform="translate(212.63 336.29)">y </text><text class="cls-5" transform="translate(252.47 336.29)">L</text><text class="cls-6" transform="translate(284.63 336.29)">i</text><text class="cls-7" transform="translate(300.17 336.29)">l</text><text class="cls-5" transform="translate(314.99 336.29)">y </text><text class="cls-6" transform="translate(354.83 336.29)">O</text><text class="cls-5" transform="translate(400.37 336.29)">’</text><text class="cls-6" transform="translate(411.34 336.29)">C</text><text class="cls-6" transform="translate(451.6 336.29)">o</text><text class="cls-5" transform="translate(479.86 336.29)">n</text><text class="cls-7" transform="translate(510.94 336.29)">n</text><text class="cls-7" transform="translate(540.88 336.29)">e</text><text class="cls-6" transform="translate(564.34 336.29)">l</text><text class="cls-5" transform="translate(579.64 336.29)">l</text></g><g class="cls-2"><text class="cls-3" transform="translate(0 408.29)"><tspan xml:space="preserve">    </tspan></text></g><g class="cls-2"><text class="cls-6" transform="translate(179.99 408.29)">S</text><text class="cls-5" transform="translate(209.75 408.29)">e</text><text class="cls-6" transform="translate(234.59 408.29)">n</text><text class="cls-8" transform="translate(265.55 408.29)">i</text><text class="cls-6" transform="translate(279.83 408.29)">o</text><text class="cls-5" transform="translate(308.09 408.29)">r </text><text class="cls-7" transform="translate(344.57 408.29)">C</text><text class="cls-6" transform="translate(384.35 408.29)">u</text><text class="cls-4" transform="translate(413.99 408.29)">l</text><text class="cls-5" transform="translate(427.61 408.29)">t</text><text class="cls-6" transform="translate(447.82 408.29)">u</text><text class="cls-9" transform="translate(477.34 408.29)">r</text><text class="cls-5" transform="translate(498.7 408.29)">a</text><text class="cls-5" transform="translate(523.78 408.29)">l </text><text class="cls-6" transform="translate(553.72 408.29)">E</text><text class="cls-6" transform="translate(586.12 408.29)">d</text><text class="cls-4" transform="translate(616.12 408.29)">i</text><text class="cls-9" transform="translate(629.98 408.29)">t</text><text class="cls-6" transform="translate(649.18 408.29)">o</text><text class="cls-5" transform="translate(677.44 408.29)">r</text></g><g class="cls-2"><text class="cls-10" transform="translate(0 32.5)">M</text><text class="cls-11" transform="translate(33.44 32.5)">a</text><text class="cls-12" transform="translate(50.24 32.5)">r</text><text class="cls-11" transform="translate(63.24 32.5)">. </text><text class="cls-13" transform="translate(80.6 32.5)">1</text><text class="cls-14" transform="translate(94.16 32.5)">4</text><text class="cls-11" transform="translate(113.4 32.5)">, </text><text class="cls-15" transform="translate(131.64 32.5)">2</text><text class="cls-16" transform="translate(148.52 32.5)">0</text><text class="cls-11" transform="translate(168.04 32.5)">2</text><text class="cls-11" transform="translate(184.24 32.5)">3</text></g></g></svg>