<svg id="Layer_1" data-name="Layer 1" xmlns="http://www.w3.org/2000/svg" viewBox="0 0 2316.3 425.27"><defs><style>.cls-1,.cls-2,.cls-3,.cls-4,.cls-5,.cls-6,.cls-7,.cls-8{fill:#1d1d1b;}.cls-2,.cls-3,.cls-4,.cls-5,.cls-6,.cls-7,.cls-8{isolation:isolate;}.cls-2,.cls-3,.cls-4,.cls-5{font-size:60px;font-family:CormorantGaramond-SemiBold, Cormorant Garamond;font-weight:600;}.cls-2{letter-spacing:0.35em;}.cls-3{letter-spacing:-0.03em;}.cls-5{letter-spacing:-0.02em;}.cls-6,.cls-7,.cls-8{font-size:40px;font-family:CormorantGaramond-Medium, Cormorant Garamond;font-weight:500;}.cls-7{letter-spacing:-0.03em;}.cls-8{letter-spacing:0.03em;}</style></defs><g id="Layer_3" data-name="Layer 3"><path class="cls-1" d="M37.1,192.3c-.2,0-.2-.2-.2-.7s.1-.7.2-.7a22.81,22.81,0,0,0,6.4-.6,4.18,4.18,0,0,0,2.8-2.2,12.15,12.15,0,0,0,.7-5V131.3a10.45,10.45,0,0,0-.6-4.3,3.4,3.4,0,0,0-2-1.9,18,18,0,0,0-15.8,3.7c-2.9,2.8-5.2,7-6.7,12.6q0,.3-.6.3t-.6-.3c.3-2.9.6-6.7,1-11.3s.5-8,.6-10.4a.6.6,0,1,1,1.2,0c0,1.7,2.1,2.5,6.3,2.5q9.6.3,22.5.3c11.2,0,18.4-.1,21.7-.3a22.61,22.61,0,0,0,11.6-3.3,17.43,17.43,0,0,0,6.8-7.9.83.83,0,0,1,.8-.3,2.35,2.35,0,0,1,.8.2c.2.1.3.2.3.4v71.9c0,3.1.4,5.1,1.3,6.2s2.6,1.6,5.1,1.6c.2,0,.3.2.3.7s-.1.7-.3.7c-1.9,0-3.3,0-4.4-.1l-6.5-.1-6.5.1c-1.1.1-2.6.1-4.5.1-.2,0-.2-.2-.2-.7s.1-.7.2-.7c2.5,0,4.2-.5,5.1-1.6s1.3-3.1,1.3-6.2V126.3a1.66,1.66,0,0,0-.5-1.3,2.93,2.93,0,0,0-1.6-.4h-18a12.68,12.68,0,0,0-4.7.6,3.46,3.46,0,0,0-2.1,2,16.11,16.11,0,0,0-.6,4.4v51.6a14.09,14.09,0,0,0,.7,5,4,4,0,0,0,2.7,2.2,27.25,27.25,0,0,0,6.4.6c.2,0,.3.2.3.7s-.1.7-.3.7c-2.6,0-4.7,0-6.2-.1l-9.2-.1-8.7.1Zm71.9,0c-.2,0-.2-.2-.2-.7s.1-.7.2-.7c2.5,0,4.2-.5,5.1-1.6s1.3-3.1,1.3-6.2V166.4c0-4.2-.8-7.3-2.3-9.3s-4-3-7.2-3a15.31,15.31,0,0,0-7.5,2,17.27,17.27,0,0,0-6.2,5.5l-.1-1.9c5.8-8,12.2-12,19.4-12a12.43,12.43,0,0,1,9.5,3.7c2.3,2.5,3.5,5.8,3.5,10.1v21.6c0,3.1.4,5.1,1.3,6.2s2.5,1.6,5.1,1.6c.2,0,.3.2.3.7s-.1.7-.3.7c-1.9,0-3.3,0-4.4-.1L120,192l-6.5.1c-1.1.1-2.6.1-4.5.2Zm47.4,1.3a22.33,22.33,0,0,1-11.8-3,20.17,20.17,0,0,1-7.6-8,23.06,23.06,0,0,1-2.6-10.6,24.32,24.32,0,0,1,3.2-12.1,24,24,0,0,1,8.9-8.7,26.21,26.21,0,0,1,12.6-3.2c4.5,0,7.9,1.1,10.4,3.2s3.6,5.4,3.6,9.6a10.68,10.68,0,0,1-.3,2.5,1,1,0,0,1-1,.8h-9.2c.4-9.3-2.2-13.9-7.6-13.9a8.92,8.92,0,0,0-7.9,4.6c-1.8,3.1-2.8,7.2-2.8,12.4,0,6.6,1.5,11.8,4.6,15.6s7.4,5.8,13,5.8a15.86,15.86,0,0,0,5.3-.8,40.5,40.5,0,0,0,5.6-2.6l.2-.1c.2,0,.3.2.5.5a.63.63,0,0,1,.1.7,26.86,26.86,0,0,1-8.2,5.5,19.62,19.62,0,0,1-9,1.8ZM141,162.4l24.9-.4v2.2l-24.8.1Zm85.6,20.4a12.91,12.91,0,0,0,.8,5.2,5,5,0,0,0,3.2,2.3,32.12,32.12,0,0,0,7.6.7c.2,0,.3.2.3.7s-.1.7-.3.7c-3.1,0-5.5,0-7.2-.1l-9.7-.1-8.1.1c-1.4.1-3.4.1-5.8.1-.2,0-.3-.2-.3-.7s.1-.7.3-.7a16.91,16.91,0,0,0,5.5-.6,3.2,3.2,0,0,0,2.3-2.2,14,14,0,0,0,.6-5V131.4a13.48,13.48,0,0,0-.6-4.9,3.52,3.52,0,0,0-2.4-2.2,16.91,16.91,0,0,0-5.5-.6c-.2,0-.3-.2-.3-.7s.1-.7.3-.7l5.8.1c3.3.2,6,.2,8,.2q2.55,0,6.3-.3a32.08,32.08,0,0,1,3.6-.2c1.5,0,3.3-.1,5.4-.1,7.3,0,13.2,1.6,17.5,4.7s6.5,8,6.5,14.4a19.74,19.74,0,0,1-3.6,12,23.23,23.23,0,0,1-9.3,7.4,29.15,29.15,0,0,1-11.6,2.5,24.83,24.83,0,0,1-5.4-.6c-.2,0-.2-.2-.2-.6a1.85,1.85,0,0,1,.2-.7c.1-.2.2-.3.4-.2a17.37,17.37,0,0,0,3.9.5,12.66,12.66,0,0,0,9.9-4.8c2.7-3.2,4-7.8,4-13.8s-1.4-10.6-4.1-13.7-6.5-4.9-11.5-4.9a9.52,9.52,0,0,0-4.1.6,3.46,3.46,0,0,0-2,2.1,19.13,19.13,0,0,0-.6,4.8l.2,51.1Zm47,10.3q-4.65,0-6.9-2.1a7.08,7.08,0,0,1-2.3-5.8,7.24,7.24,0,0,1,1.6-4.9,12.7,12.7,0,0,1,4.1-3.1,77.27,77.27,0,0,1,7.4-3l12-4.5.3,1.7-8.3,3.5a20.49,20.49,0,0,0-4.8,2.7,5.53,5.53,0,0,0-1.8,4.4,5.73,5.73,0,0,0,1.7,4.3,6.2,6.2,0,0,0,4.1,1.6,8.39,8.39,0,0,0,4.4-1.3l6-4,.1,1.7-8,5.6a21.16,21.16,0,0,1-4.9,2.7,16.22,16.22,0,0,1-4.9.8Zm21-.1a1.8,1.8,0,0,1-1,.2c-1.3,0-2.6-.9-3.7-2.7a14.29,14.29,0,0,1-1.7-7.3V163.5c0-4.6-.5-8-1.4-10.1a4.64,4.64,0,0,0-4.4-3.2,5.75,5.75,0,0,0-5.4,2.7,14.66,14.66,0,0,0-2,6.1c-.5,3.8-2.3,5.7-5.7,5.7a5.16,5.16,0,0,1-3.6-1.1,3.63,3.63,0,0,1-1.2-2.8c0-2.1,1.3-4.1,3.8-6.1a30.52,30.52,0,0,1,9.1-4.8,30.07,30.07,0,0,1,9.3-1.8,10,10,0,0,1,7.7,3c1.9,2,2.9,5,2.9,9.1v20.2c0,4.7,1.5,7.1,4.4,7.1a11.22,11.22,0,0,0,4-1h.2a.63.63,0,0,1,.6.5.52.52,0,0,1-.3.7l-11.5,5.5Zm15.2-.7c-.2,0-.3-.2-.3-.7s.1-.7.3-.7c2.5,0,4.2-.5,5-1.6s1.2-3.1,1.2-6.2V161.6a13.68,13.68,0,0,0-.8-5.3,3,3,0,0,0-2.7-1.7,15.82,15.82,0,0,0-5.6,1.7h-.1c-.3,0-.5-.2-.7-.6s-.1-.6.1-.7l14.7-7.2a2.35,2.35,0,0,1,.8-.2c.8,0,1.6.9,2.4,2.8a19.92,19.92,0,0,1,1.1,7.3v25.2a10,10,0,0,0,.9,4.8,5.15,5.15,0,0,0,3.1,2.3,27,27,0,0,0,6.3.7c.3,0,.5.2.5.7s-.2.7-.5.7c-2.5,0-4.5,0-6-.1l-8.7-.1-6.5.1a26.41,26.41,0,0,1-4.5.3Zm12-31.7a74.87,74.87,0,0,1,9.6-9.9c2.4-1.8,4.5-2.7,6.4-2.7a7.81,7.81,0,0,1,4.8,1.7,4.83,4.83,0,0,1,2.3,4,4.6,4.6,0,0,1-1.2,3.4,4.52,4.52,0,0,1-3.5,1.3,5.33,5.33,0,0,1-2.4-.6,10.61,10.61,0,0,1-2-1.7,6.55,6.55,0,0,0-1.8-1.5,4.14,4.14,0,0,0-1.9-.5,5.3,5.3,0,0,0-3.3,1.5,54.34,54.34,0,0,0-6.3,6.4l-.7-1.4Zm45.5,33a13.67,13.67,0,0,1-8.1-2.3c-2.2-1.5-3.3-4.1-3.3-7.7V158.3c0-2.5-.4-4.1-1.2-4.9s-2.3-1.2-4.5-1.2q-.15,0-.3-.3a1,1,0,0,1,0-1.2q.15-.3.3-.3c7-.3,11.4-3.3,13.2-9.1.1-.3.4-.5.9-.5s.8.2.8.5V180c0,2.9.7,5.1,2.2,6.4a8.59,8.59,0,0,0,6.1,2.1,14,14,0,0,0,8.8-3.2l.2-.1c.2,0,.4.2.6.5s.2.6-.1.7a32.41,32.41,0,0,1-7.8,5.5,18.87,18.87,0,0,1-7.8,1.7Zm12.2-39a80.57,80.57,0,0,0-17.7-1.8v-2.6c4.8,0,10.8-.4,18.1-1.1.2,0,.3.3.5.8a5.66,5.66,0,0,1,.3,1.8,4.48,4.48,0,0,1-.4,2c-.2.7-.5,1-.8.9Zm9.2,37.6c-.2,0-.3-.2-.3-.7s.1-.7.3-.7c2.5,0,4.2-.5,5-1.6s1.2-3.1,1.2-6.2V161.6a13.68,13.68,0,0,0-.8-5.3,3,3,0,0,0-2.7-1.7,15.82,15.82,0,0,0-5.6,1.7h-.1c-.3,0-.5-.2-.7-.6s-.1-.6.1-.7l14.7-7.2a2.35,2.35,0,0,1,.8-.2c.8,0,1.6.9,2.3,2.8a19.92,19.92,0,0,1,1.1,7.3v25.2c0,3.1.4,5.1,1.3,6.2s2.6,1.6,5.1,1.6c.2,0,.3.2.3.7s-.1.7-.3.7c-1.9,0-3.4,0-4.5-.1l-6.4-.1-6.5.1a18.06,18.06,0,0,1-4.3.2Zm30.1,0c-.2,0-.3-.2-.3-.7s.1-.7.3-.7c2.5,0,4.2-.5,5-1.6s1.2-3.1,1.2-6.2V166.2c0-4.2-.8-7.3-2.3-9.2s-3.9-3-7.2-3a15.31,15.31,0,0,0-7.5,2,17.54,17.54,0,0,0-6.1,5.4l-.6-1.3c6-8.4,12.6-12.5,19.7-12.5,4.1,0,7.3,1.2,9.6,3.7s3.4,5.9,3.4,10.2v21.6c0,3.1.4,5.1,1.3,6.2s2.5,1.6,5.1,1.6c.2,0,.3.2.3.7s-.1.7-.3.7c-1.9,0-3.4,0-4.5-.1l-6.4-.1-6.4.1Zm46.5,1.4a22.33,22.33,0,0,1-11.8-3,20.17,20.17,0,0,1-7.6-8,20.82,20.82,0,0,1-2.6-10.6,24.32,24.32,0,0,1,3.2-12.1,24,24,0,0,1,8.9-8.7A26.21,26.21,0,0,1,468,148c4.5,0,7.9,1.1,10.4,3.2s3.6,5.4,3.6,9.6a10.68,10.68,0,0,1-.3,2.5,1,1,0,0,1-1,.8h-9.2c.4-9.3-2.2-13.9-7.6-13.9a8.92,8.92,0,0,0-7.9,4.6c-1.9,3.1-2.9,7.2-2.9,12.4,0,6.6,1.5,11.8,4.6,15.6s7.4,5.8,13,5.8a15.86,15.86,0,0,0,5.3-.8,40.5,40.5,0,0,0,5.6-2.6l.2-.1c.2,0,.3.2.5.5s.2.5,0,.7a26.86,26.86,0,0,1-8.2,5.5,22,22,0,0,1-8.8,1.8Zm-15.5-31.2,24.9-.4v2.2l-24.8.1Zm40.3,29.9c-.2,0-.3-.2-.3-.7s.1-.7.3-.7c2.5,0,4.2-.5,5-1.6s1.2-3.1,1.2-6.2V161.7a13.68,13.68,0,0,0-.8-5.3,3,3,0,0,0-2.8-1.7,16.46,16.46,0,0,0-5.6,1.7H487c-.3,0-.5-.2-.7-.6s-.1-.6.1-.7l14.7-7.2a2.35,2.35,0,0,1,.8-.2c.8,0,1.6.9,2.3,2.8a19.92,19.92,0,0,1,1.1,7.3V183a10,10,0,0,0,.9,4.8,5.15,5.15,0,0,0,3.1,2.3,27,27,0,0,0,6.3.7c.3,0,.4.2.4.7s-.2.7-.4.7c-2.5,0-4.5,0-6-.1l-8.7-.1-6.5.1c-1,.1-2.5.2-4.3.2Zm12-31.7a74.87,74.87,0,0,1,9.6-9.9c2.4-1.8,4.5-2.7,6.4-2.7a7.81,7.81,0,0,1,4.8,1.7,4.83,4.83,0,0,1,2.3,4,4.6,4.6,0,0,1-1.2,3.4,4.52,4.52,0,0,1-3.5,1.3,4.65,4.65,0,0,1-2.3-.6,10.61,10.61,0,0,1-2-1.7,6.55,6.55,0,0,0-1.8-1.5,4.14,4.14,0,0,0-1.9-.5,5.3,5.3,0,0,0-3.3,1.5,54.34,54.34,0,0,0-6.3,6.4l-.8-1.4Zm63.7-26.4a37.14,37.14,0,0,0-6.6-8.2,8,8,0,0,0-5.3-2.3c-.2,0-.3-.2-.3-.7s.1-.7.3-.7l3.7.1a27.14,27.14,0,0,0,3.6.2c2.5,0,6-.1,10.6-.2l7.1-.1c.2,0,.2.2.2.7s-.1.7-.2.7c-3.1,0-4.7,1-4.7,3a9.79,9.79,0,0,0,1.4,3.7l17.1,26.3-9,5-17.9-27.5Zm27.8,22.4v26.7a14,14,0,0,0,.6,5,3.45,3.45,0,0,0,2.3,2.1,20.62,20.62,0,0,0,5.5.6c.2,0,.3.2.3.7s-.1.7-.3.7c-2.4,0-4.2,0-5.6-.1l-8.2-.1-8.1.1c-1.5.1-3.5.1-5.9.1-.2,0-.2-.2-.2-.7s.1-.7.2-.7a17.53,17.53,0,0,0,5.6-.6,3.89,3.89,0,0,0,2.5-2.2,14.09,14.09,0,0,0,.7-5V157.6Zm9.7-20c1.9-3.1,2.8-5.7,2.8-8,0-3.3-2.1-4.9-6.2-4.9-.2,0-.2-.2-.2-.7s.1-.7.2-.7l5.8.1c3.1.2,6,.2,8.6.2,1.3,0,2.8-.1,4.6-.2l4.1-.1c.2,0,.2.2.2.7s-.1.7-.2.7q-3.75,0-8.4,3.9a39.81,39.81,0,0,0-8.4,9.9l-15.6,25.2-2.2-1.8,14.9-24.3Zm33.5,57.2a21.74,21.74,0,0,1-11.9-3.2,22,22,0,0,1-8-8.6,25.62,25.62,0,0,1-2.8-11.8,21.15,21.15,0,0,1,3.6-12.4,22.25,22.25,0,0,1,9.3-7.6,27.21,27.21,0,0,1,11.6-2.5,21.71,21.71,0,0,1,19.8,11.8,24.86,24.86,0,0,1,2.7,11.4A21.94,21.94,0,0,1,648.9,191a27.9,27.9,0,0,1-12.1,2.8Zm3.4-2.3a8.28,8.28,0,0,0,7.6-4.4c1.8-2.9,2.7-7.2,2.7-12.8a36.36,36.36,0,0,0-2.1-13.1,19.5,19.5,0,0,0-5.6-8.5,11.78,11.78,0,0,0-7.8-2.9,8.79,8.79,0,0,0-7.7,4.1c-1.8,2.8-2.6,6.8-2.6,12.2a38.4,38.4,0,0,0,2,13,22.6,22.6,0,0,0,5.5,9,11.64,11.64,0,0,0,8,3.4Zm43.6,2c-4,0-7.1-1.2-9.4-3.8s-3.4-5.9-3.4-10.2V162.8a16.29,16.29,0,0,0-.8-5.8,2.58,2.58,0,0,0-2.6-1.8,5.61,5.61,0,0,0-3.1.9h-.1c-.3,0-.5-.2-.7-.6a.59.59,0,0,1,.1-.8l14.1-6.6.6-.1a1.39,1.39,0,0,1,1,.5c.4.3.6.6.6.8v25.4c0,4.2.8,7.3,2.3,9.4s3.9,3.1,7,3.1a14.33,14.33,0,0,0,7.2-2.1,18.26,18.26,0,0,0,6-5.4l.7,1.3c-6.2,8.3-12.7,12.5-19.5,12.5Zm25.6-13.8a14.18,14.18,0,0,0,.8,5.4,2.62,2.62,0,0,0,2.7,1.6,21.66,21.66,0,0,0,5-1.3l.2-.1q.3,0,.6.6a.59.59,0,0,1-.1.8l-14.7,7-.4.1c-.8,0-1.5-.9-2.1-2.8a23.74,23.74,0,0,1-.9-7.5V162.9a16.29,16.29,0,0,0-.8-5.8,2.67,2.67,0,0,0-2.6-1.8,8,8,0,0,0-3.1.9h-.1c-.3,0-.5-.2-.7-.6s-.1-.7.2-.7l14.1-6.6.4-.1a1.39,1.39,0,0,1,1,.5c.4.3.6.6.6.8l-.1,30.2ZM824.6,191c.3,0,.4.2.4.7s-.2.7-.4.7c-1.4,0-3.7-.1-6.8-.2s-5.4-.2-6.8-.2c-1.9,0-4.1.1-6.6.2s-4.5.2-5.9.2c-.3,0-.4-.2-.4-.7s.2-.7.4-.7a11.22,11.22,0,0,0,4.8-.7,2.67,2.67,0,0,0,1.5-2.4c0-1.1-.6-3-1.9-5.7l-23.4-47.6,4.6-7.5-22.2,50a14.24,14.24,0,0,0-1.4,6,6.78,6.78,0,0,0,2.8,5.9,13.63,13.63,0,0,0,7.8,2c.4,0,.6.2.6.7s-.2.7-.6.7c-1.3,0-3.3-.1-5.8-.2-2.8-.1-5.3-.2-7.4-.2s-4.4.1-7,.2c-2.4.2-4.4.2-5.9.2-.4,0-.6-.2-.6-.7s.2-.7.6-.7a11.11,11.11,0,0,0,5.3-1.2,13.61,13.61,0,0,0,4.2-4.4,76.8,76.8,0,0,0,4.8-9.5l24.1-54.2a1.33,1.33,0,0,1,1-.3q.75,0,.9.3L812.7,177c2.5,5.4,4.7,9,6.4,11a7.62,7.62,0,0,0,5.5,3Zm-58.2-28.9h31.4l.8,2.8H765ZM830,192.3c-.2,0-.3-.2-.3-.7s.1-.7.3-.7c2.5,0,4.2-.5,5.1-1.6s1.3-3.1,1.3-6.2V126a16,16,0,0,0-.7-5.7,2.46,2.46,0,0,0-2.5-1.7,12.17,12.17,0,0,0-4.6,1.3h-.2c-.3,0-.5-.2-.7-.6s-.2-.6,0-.8l15.8-7.4.4-.1a1.39,1.39,0,0,1,1,.5c.4.3.6.6.6.8v70.9c0,3.1.4,5.1,1.3,6.2s2.6,1.6,5.1,1.6c.2,0,.3.2.3.7s-.1.7-.3.7c-1.9,0-3.4,0-4.5-.1l-6.5-.1-6.5.1Zm30.4-33.9c-1.6-3.3-3-5.4-4.1-6.4a5.65,5.65,0,0,0-4.1-1.5c-.2,0-.3-.2-.3-.7s.1-.7.3-.7c1.1,0,2.2,0,3.2.1l6.5.1,7.6-.1c1.1-.1,2.7-.1,4.6-.1.2,0,.3.2.3.7s-.1.7-.3.7c-4,0-5.9.9-5.9,2.6a6.36,6.36,0,0,0,.6,1.8l14.1,27L878,190l12.2-29.5,2.7.6-13.5,31.2c0,.3-.4.4-1.1.4a1.48,1.48,0,0,1-1.3-.4Zm27.1,0a31.78,31.78,0,0,0-3.8-6.4,4.23,4.23,0,0,0-3.5-1.5c-.2,0-.2-.2-.2-.7s.1-.7.2-.7c1,0,2.1,0,3.1.1l5.8.1,7.6-.1c1.1-.1,2.7-.1,4.6-.1.1,0,.2.2.2.7s-.1.7-.2.7a9.59,9.59,0,0,0-4.1.7,2.16,2.16,0,0,0-1.5,2.1,4.19,4.19,0,0,0,.4,1.6l13.7,27-4.7,8.1,12.4-30.2a10,10,0,0,0,.8-3.8,4.55,4.55,0,0,0-2-4,10.29,10.29,0,0,0-5.7-1.4c-.2,0-.3-.2-.3-.7s.1-.7.3-.7c2,0,3.5,0,4.5.1l6.7.1,4.5-.1a36.69,36.69,0,0,1,3.8-.1c.2,0,.3.2.3.7s-.1.7-.3.7a7.49,7.49,0,0,0-5.3,2.2,23.26,23.26,0,0,0-4.4,7.2l-13.9,32.4c-.1.3-.4.4-1.1.4s-1.3-.2-1.3-.4l-16.6-34Zm53.1,34.7c-3.1,0-5.4-.7-7-2.1a7.08,7.08,0,0,1-2.3-5.8,7.24,7.24,0,0,1,1.6-4.9,12.7,12.7,0,0,1,4.1-3.1,77.27,77.27,0,0,1,7.4-3l12-4.5.3,1.7-8.2,3.5a22.72,22.72,0,0,0-4.8,2.7,5.53,5.53,0,0,0-1.8,4.4,5.73,5.73,0,0,0,1.7,4.3,6.2,6.2,0,0,0,4.1,1.6,8.39,8.39,0,0,0,4.4-1.3l6-4,.1,1.7-8,5.6a21.16,21.16,0,0,1-4.9,2.7,16.22,16.22,0,0,1-4.9.8h.2Zm21-.1a1.8,1.8,0,0,1-1,.2c-1.3,0-2.6-.9-3.7-2.7a14.29,14.29,0,0,1-1.7-7.3V163.5c0-4.6-.5-8-1.4-10.1a4.64,4.64,0,0,0-4.4-3.2,5.5,5.5,0,0,0-5.3,2.8,14.66,14.66,0,0,0-2,6.1q-.6,5.7-5.7,5.7a5.16,5.16,0,0,1-3.6-1.1,3.63,3.63,0,0,1-1.2-2.8c0-2.1,1.2-4.1,3.8-6.1a30.52,30.52,0,0,1,9.1-4.8,30.07,30.07,0,0,1,9.3-1.8,10,10,0,0,1,7.7,3c1.9,2,2.9,5,2.9,9.1v20.2c0,4.7,1.5,7.1,4.4,7.1a11.22,11.22,0,0,0,4-1h.2a.63.63,0,0,1,.6.5.52.52,0,0,1-.3.7L961.6,193Zm57.7-43.9c.1,0,.2.2.2.7s-.1.7-.2.7a7.77,7.77,0,0,0-5.8,2.7,23.27,23.27,0,0,0-4.4,8.2l-12.9,34.2a112.21,112.21,0,0,1-7.7,16.9,29.77,29.77,0,0,1-7.5,8.8,14.88,14.88,0,0,1-8.4,2.6,7.89,7.89,0,0,1-4.9-1.3,4.48,4.48,0,0,1-1.7-3.9,4.39,4.39,0,0,1,1.4-3.4,4.75,4.75,0,0,1,3.4-1.2,8.33,8.33,0,0,1,2.2.3,21.16,21.16,0,0,1,2.1,1.1A7,7,0,0,0,979,217a6.71,6.71,0,0,0,5.1-2.4,30.71,30.71,0,0,0,4.9-7.9c1.8-3.7,3.9-8.9,6.4-15.8l-.3,5.2-18.5-37.6a37.71,37.71,0,0,0-3.9-6.4,4.23,4.23,0,0,0-3.5-1.5c-.2,0-.2-.2-.2-.7s.1-.7.2-.7c1.9,0,3.4,0,4.5.1l4.4.1,7.6-.1c1.1-.1,2.6-.1,4.6-.1.2,0,.3.2.3.7s-.1.7-.3.7a13.84,13.84,0,0,0-4.5.5,2,2,0,0,0-1.5,1.7,4.76,4.76,0,0,0,.7,2.1l14.6,29.9-3.5,5.9,10.2-29.3a20.29,20.29,0,0,0,.9-4.8q0-6-7.5-6c-.2,0-.2-.2-.2-.7s.1-.7.2-.7c2,0,3.5,0,4.6.1l6.7.1,4.4-.1a19.58,19.58,0,0,1,3.9-.2Zm9.7,5.8a7.7,7.7,0,0,0,2.4,5.9,33.44,33.44,0,0,0,7,4.8c2.7,1.5,4.7,2.7,6.2,3.7a14.11,14.11,0,0,1,3.8,3.9,10.3,10.3,0,0,1,1.6,5.9,14.79,14.79,0,0,1-1.9,7.1,15,15,0,0,1-5.6,5.3,18.42,18.42,0,0,1-8.9,2,22.32,22.32,0,0,1-11.3-3.1,2.09,2.09,0,0,1-.7-1.3l-.2-10.2c0-.2.2-.4.6-.4s.7.1.7.3a20.93,20.93,0,0,0,5.8,9.1,12.13,12.13,0,0,0,8.2,3.6,5.93,5.93,0,0,0,4.4-1.5,5.87,5.87,0,0,0,1.6-4.4,9.58,9.58,0,0,0-2.5-6.8,28.1,28.1,0,0,0-7.2-5c-2-1-4-2.2-5.9-3.4a11.86,11.86,0,0,1-3.6-3.8,10.54,10.54,0,0,1-1.5-6c0-4.3,1.5-7.4,4.6-9.5a18.78,18.78,0,0,1,11.3-3.1,25.22,25.22,0,0,1,9,1.7c.7.3,1,.7,1,1.2,0,1.3,0,2.7-.1,4l-.1,5.4c0,.2-.2.2-.7.2s-.7-.1-.7-.2a7.75,7.75,0,0,0-1.8-4.6,14.79,14.79,0,0,0-4.6-4,11.39,11.39,0,0,0-5.7-1.6c-3.4-.2-5.1,1.5-5.2,4.8Zm87,37.8c-2.3,0-5-.1-8.2-.3-1.1-.1-2.5-.2-4.3-.2s-3.6-.1-5.7-.1l-8,.1c-1.4.1-3.4.1-5.9.1-.1,0-.2-.2-.2-.7s.1-.7.2-.7a17.83,17.83,0,0,0,5.6-.6,3.52,3.52,0,0,0,2.4-2.2,16.79,16.79,0,0,0,.7-5V131.3a13.48,13.48,0,0,0-.6-4.9,3.52,3.52,0,0,0-2.4-2.2,16.91,16.91,0,0,0-5.5-.6c-.1,0-.2-.2-.2-.7s.1-.7.2-.7l5.9.1c3.3.2,5.9.2,7.8.2,2.9,0,5.9-.1,9.1-.3,3.7-.2,6.2-.2,7.5-.2a44.61,44.61,0,0,1,20.3,4.5,34.58,34.58,0,0,1,13.8,12.2,32.24,32.24,0,0,1,4.9,17.4,37,37,0,0,1-5,19.2,33.8,33.8,0,0,1-13.6,12.9,38.12,38.12,0,0,1-18.8,4.5Zm-1.1-2.2a25.44,25.44,0,0,0,13.7-3.7,24.92,24.92,0,0,0,9.4-10.9,41.43,41.43,0,0,0,3.4-17.3,44.79,44.79,0,0,0-3.2-17.4,29.83,29.83,0,0,0-9-12.3,21.42,21.42,0,0,0-13.6-4.5,29.61,29.61,0,0,0-7.3.6,6.59,6.59,0,0,0-3.8,2.1,7,7,0,0,0-1.2,4.6V182c0,3.1.8,5.2,2.4,6.6s4.7,1.9,9.2,1.9Zm48.2,1.8c-.2,0-.3-.2-.3-.7s.1-.7.3-.7c2.5,0,4.2-.5,5-1.6s1.2-3.1,1.2-6.2V161.7a13.68,13.68,0,0,0-.8-5.3,3,3,0,0,0-2.8-1.7,16.46,16.46,0,0,0-5.6,1.7h-.1c-.3,0-.5-.2-.7-.6s-.1-.6.1-.7l14.7-7.2a2.35,2.35,0,0,1,.8-.2c.8,0,1.6.9,2.4,2.8a19.92,19.92,0,0,1,1.1,7.3V183a10,10,0,0,0,.9,4.8,5.15,5.15,0,0,0,3.1,2.3,27,27,0,0,0,6.3.7c.3,0,.4.2.4.7s-.2.7-.4.7c-2.5,0-4.6,0-6-.1l-8.7-.1-6.5.1c-1,.1-2.5.2-4.4.2Zm12-31.7a74.87,74.87,0,0,1,9.6-9.9c2.4-1.8,4.5-2.7,6.4-2.7a7.81,7.81,0,0,1,4.8,1.7,4.83,4.83,0,0,1,2.3,4,4.6,4.6,0,0,1-1.2,3.4,4.52,4.52,0,0,1-3.5,1.3,4.65,4.65,0,0,1-2.3-.6,10.61,10.61,0,0,1-2-1.7,6.55,6.55,0,0,0-1.8-1.5,4.14,4.14,0,0,0-1.9-.5,5.3,5.3,0,0,0-3.3,1.5,54.34,54.34,0,0,0-6.3,6.4l-.8-1.4Zm47.7,33a22.33,22.33,0,0,1-11.8-3,20.17,20.17,0,0,1-7.6-8,21.88,21.88,0,0,1-2.6-10.6,24.32,24.32,0,0,1,3.2-12.1,24,24,0,0,1,8.9-8.7,26.21,26.21,0,0,1,12.6-3.2c4.5,0,7.9,1.1,10.4,3.2s3.6,5.4,3.6,9.6a10.68,10.68,0,0,1-.3,2.5,1,1,0,0,1-1,.8H1229c.4-9.3-2.2-13.9-7.6-13.9a8.92,8.92,0,0,0-7.9,4.6c-1.9,3.1-2.9,7.2-2.9,12.4,0,6.6,1.5,11.8,4.6,15.6s7.4,5.8,13,5.8a15.86,15.86,0,0,0,5.3-.8,40.5,40.5,0,0,0,5.6-2.6l.2-.1c.2,0,.3.2.5.5a.63.63,0,0,1,.1.7,26.86,26.86,0,0,1-8.2,5.5,23.2,23.2,0,0,1-8.9,1.8Zm-15.5-31.3,24.9-.4v2.2l-24.8.1Zm48.1,30.7c-3.1,0-5.4-.7-7-2.1a7.08,7.08,0,0,1-2.3-5.8,7.24,7.24,0,0,1,1.6-4.9,12.7,12.7,0,0,1,4.1-3.1,77.27,77.27,0,0,1,7.4-3l12-4.5.3,1.7-8.1,3.5a20.49,20.49,0,0,0-4.8,2.7,5.53,5.53,0,0,0-1.8,4.4,5.73,5.73,0,0,0,1.7,4.3,6.2,6.2,0,0,0,4.1,1.6,8.39,8.39,0,0,0,4.4-1.3l6.1-4,.1,1.7-8,5.6a21.16,21.16,0,0,1-4.9,2.7,19.89,19.89,0,0,1-4.9.5Zm21-.1a1.8,1.8,0,0,1-1,.2c-1.3,0-2.6-.9-3.7-2.7a14.29,14.29,0,0,1-1.7-7.3V163.4c0-4.6-.5-8-1.4-10.1a4.64,4.64,0,0,0-4.4-3.2,5.5,5.5,0,0,0-5.3,2.8,14.66,14.66,0,0,0-2,6.1q-.6,5.7-5.7,5.7a5.16,5.16,0,0,1-3.6-1.1,3.63,3.63,0,0,1-1.2-2.8c0-2.1,1.2-4.1,3.8-6.1a30.52,30.52,0,0,1,9.1-4.8,30.07,30.07,0,0,1,9.3-1.8,10,10,0,0,1,7.7,3c1.9,2,2.9,5,2.9,9.1v20.2c0,4.7,1.5,7.1,4.4,7.1a11.22,11.22,0,0,0,4-1h.2a.63.63,0,0,1,.6.5.52.52,0,0,1-.3.7l-11.7,5.2Zm15.3-.6c-.2,0-.3-.2-.3-.7s.1-.7.3-.7c2.5,0,4.2-.5,5-1.6s1.2-3.1,1.2-6.2V161.7a13.68,13.68,0,0,0-.8-5.3,3,3,0,0,0-2.8-1.7,16.46,16.46,0,0,0-5.6,1.7h-.1c-.3,0-.5-.2-.7-.6s-.1-.6.1-.7l14.7-7.2a2.35,2.35,0,0,1,.8-.2c.8,0,1.6.9,2.4,2.8a19.92,19.92,0,0,1,1.1,7.3V183c0,3.1.4,5.1,1.3,6.2s2.6,1.6,5.1,1.6c.2,0,.3.2.3.7s-.1.7-.3.7c-1.9,0-3.4,0-4.5-.1l-6.4-.1-6.5.1c-1,.1-2.5.2-4.3.2Zm28.8,0c-.2,0-.3-.2-.3-.7s.1-.7.3-.7c2.5,0,4.2-.5,5.1-1.6s1.3-3.1,1.3-6.2V166.4c0-4.2-.7-7.3-2.2-9.3s-3.7-3-6.7-3a13.59,13.59,0,0,0-7.1,2,17.29,17.29,0,0,0-5.9,5.5l-.6-1.3c5.8-8.4,12.1-12.5,19-12.5,4,0,7,1.1,9.1,3.3s3.2,5.4,3.2,9.6v22.5c0,3.1.5,5.1,1.4,6.2s2.6,1.6,5.1,1.6c.2,0,.3.2.3.7s-.1.7-.3.7c-1.9,0-3.5,0-4.6-.1l-6.4-.1-6.4.1Zm29.2,0c-.2,0-.3-.2-.3-.7s.1-.7.3-.7c2.5,0,4.1-.5,5-1.6s1.3-3.1,1.3-6.1V166.5c0-4.2-.7-7.3-2.2-9.3a7.8,7.8,0,0,0-6.7-3,13.59,13.59,0,0,0-7.1,2,17.29,17.29,0,0,0-5.9,5.5l-.6-1.3c5.8-8.4,12.1-12.5,19-12.5,4,0,7,1.1,9.1,3.4s3.2,5.7,3.2,10.4v21.6c0,3.1.4,5.1,1.3,6.2s2.6,1.6,5.1,1.6c.3,0,.4.2.4.7s-.2.7-.4.7c-1.9,0-3.4,0-4.5-.1l-6.4-.1-6.4.1c-.9-.1-2.4-.1-4.2-.1Zm46.5,1.3a22.33,22.33,0,0,1-11.8-3,20.17,20.17,0,0,1-7.6-8,20.82,20.82,0,0,1-2.6-10.6,24.32,24.32,0,0,1,3.2-12.1,24,24,0,0,1,8.9-8.7,26.21,26.21,0,0,1,12.6-3.2c4.5,0,7.9,1.1,10.4,3.2s3.6,5.4,3.6,9.6a10.68,10.68,0,0,1-.3,2.5,1,1,0,0,1-1,.8h-9.1c.4-9.3-2.2-13.9-7.6-13.9a8.92,8.92,0,0,0-7.9,4.6c-1.9,3.1-2.8,7.2-2.8,12.4,0,6.6,1.5,11.8,4.6,15.6s7.4,5.8,13,5.8a15.86,15.86,0,0,0,5.3-.8,40.5,40.5,0,0,0,5.6-2.6l.2-.1c.1,0,.3.2.5.5a.63.63,0,0,1,.1.7,26.86,26.86,0,0,1-8.2,5.5,24.58,24.58,0,0,1-9.1,1.8Zm-15.5-31.3,24.9-.4v2.2l-24.8.1Zm55,31.4a16.17,16.17,0,0,1-8.8-2.6,18.19,18.19,0,0,1-6.4-7.6,26.89,26.89,0,0,1-2.3-11.5q0-8.25,3.9-13.8a24.5,24.5,0,0,1,9.9-8.1,30.31,30.31,0,0,1,11.9-2.6,25.81,25.81,0,0,1,13.8,4l-2.1,8.5a21.28,21.28,0,0,0-5.9-7.4,12.52,12.52,0,0,0-7.9-2.4,11.94,11.94,0,0,0-9.9,4.5c-2.4,3-3.5,7.6-3.5,13.8s1.2,11.1,3.7,14.8,5.6,5.4,9.5,5.5a15,15,0,0,0,7.7-2.2,37.75,37.75,0,0,0,7.3-6.5l1,.9a63.1,63.1,0,0,1-10.1,9.2,20.89,20.89,0,0,1-11.8,3.5Zm26.6-14.2a12.7,12.7,0,0,0,.8,5.5,2.62,2.62,0,0,0,2.7,1.6,12.36,12.36,0,0,0,5-1.3h.1q.3,0,.6.6c.2.4.2.6-.1.7l-14.3,6.9-.7.1c-.9,0-1.7-.9-2.3-2.8a25.08,25.08,0,0,1-1-7.7V126a16,16,0,0,0-.7-5.7,2.58,2.58,0,0,0-2.6-1.7,16.71,16.71,0,0,0-4.5,1.3h-.2c-.3,0-.5-.2-.7-.6s-.1-.6.1-.7l15.7-7.5.4-.1a1.39,1.39,0,0,1,1,.5c.4.3.6.6.6.8v67.2Zm76.6,14.1a34.69,34.69,0,0,1-18.4-4.8,33.07,33.07,0,0,1-12.5-13.2,37.37,37.37,0,0,1-4.4-18.2c0-7.7,1.9-14.3,5.8-19.8a36.9,36.9,0,0,1,15-12.4,44.24,44.24,0,0,1,18.6-4.1,35,35,0,0,1,18.7,5,34.24,34.24,0,0,1,12.4,13.2,37.34,37.34,0,0,1,4.3,17.4,34.5,34.5,0,0,1-5.4,18.7,38.13,38.13,0,0,1-14.4,13.5,39.24,39.24,0,0,1-19.5,4.9Zm3.8-2.7a20.43,20.43,0,0,0,12-3.6,23.86,23.86,0,0,0,8.4-10.7,41.79,41.79,0,0,0,3.1-16.8,48.58,48.58,0,0,0-3.4-18.5,29.11,29.11,0,0,0-9.7-12.7,24.51,24.51,0,0,0-14.8-4.6c-7.3,0-13,2.6-16.9,7.8s-5.9,12.4-5.9,21.6a50.79,50.79,0,0,0,3.5,19.3,31.8,31.8,0,0,0,9.7,13.4,21.45,21.45,0,0,0,14,4.8Zm43,1.4c-.3,0-.4-.2-.4-.7s.1-.7.4-.7a11.66,11.66,0,0,0,4.5-.6,3.37,3.37,0,0,0,2-2.2,20.53,20.53,0,0,0,.6-4.9V158c0-2.5-.5-4-1.5-4.7s-3-1-6-1c-.2,0-.3-.3-.3-1s.1-.9.3-.9c2.8,0,4.6-.3,5.7-1.1s1.6-2,1.6-3.9c.4-12.2,2.7-21,6.8-26.4s10.4-8.1,18.8-8.1a22.61,22.61,0,0,1,9.6,1.7c2.3,1.2,3.5,2.7,3.5,4.7a4.35,4.35,0,0,1-1.5,3.5,5.08,5.08,0,0,1-3.5,1.3,5.24,5.24,0,0,1-3.4-1,11,11,0,0,1-2.2-3.1,13.12,13.12,0,0,0-2.7-3.5,7.21,7.21,0,0,0-4-1.2c-3.7,0-6.7,2.4-8.9,7.3s-3.2,12.4-3.2,22.5v40.1a14.09,14.09,0,0,0,.7,5,4,4,0,0,0,2.8,2.1,30.74,30.74,0,0,0,6.8.6c.3,0,.4.2.4.7s-.1.7-.4.7l-7.5-.1c-1.6-.1-4.1-.1-7.5-.1l-6.6.1c-1.2,0-2.8,0-4.9.1Zm28.8-37.7a78.58,78.58,0,0,0-16.8-1.8v-2.6c5.7-.1,11.4-.5,17.1-1.1.2,0,.4.3.6.8a6.15,6.15,0,0,1,.2,1.9,6.45,6.45,0,0,1-.3,2c-.3.6-.5.9-.8.8Zm39.9,38.9a5.88,5.88,0,0,1-6.2-5.4v-.8a5.51,5.51,0,0,1,1.7-4.3,6.54,6.54,0,0,1,4.5-1.6,6.25,6.25,0,0,1,4.5,1.6,6.85,6.85,0,0,1,0,8.8,5.8,5.8,0,0,1-4.5,1.7Zm20.9,0a5.88,5.88,0,0,1-6.2-5.4v-.8a5.51,5.51,0,0,1,1.7-4.3,6.54,6.54,0,0,1,4.5-1.6,6.25,6.25,0,0,1,4.5,1.6,6.85,6.85,0,0,1,0,8.8,5.8,5.8,0,0,1-4.5,1.7Zm20.9,0a5.88,5.88,0,0,1-6.2-5.4v-.8a5.51,5.51,0,0,1,1.7-4.3,6.54,6.54,0,0,1,4.5-1.6,6.25,6.25,0,0,1,4.5,1.6,6.85,6.85,0,0,1,0,8.8,5.8,5.8,0,0,1-4.5,1.7Zm41.7-1.2c-.2,0-.3-.2-.3-.7s.1-.7.3-.7a19.43,19.43,0,0,0,5.9-.6,3.68,3.68,0,0,0,2.5-2.2,14.09,14.09,0,0,0,.7-5V131.3a13.48,13.48,0,0,0-.6-4.9,3.52,3.52,0,0,0-2.4-2.2,16.91,16.91,0,0,0-5.5-.6c-.2,0-.3-.2-.3-.7s.1-.7.3-.7h46.6c.8,0,1.1.3,1.1,1l.2,14.6c0,.2-.2.2-.6.3a.56.56,0,0,1-.7-.3c-1.8-8.4-6.9-12.7-15.4-12.7h-4.6q-4,0-5.7,1.5a6.21,6.21,0,0,0-1.7,4.8v51.3a11.44,11.44,0,0,0,.9,5.2,5.61,5.61,0,0,0,3.5,2.3,37,37,0,0,0,8.1.7c.1,0,.2.2.2.7s-.1.7-.2.7c-3.1,0-5.4,0-7.2-.1l-11-.1-8.2.1c-1.4.1-3.4.1-5.9.1Zm41.5-24.1c0-6.3-4.3-9.5-12.9-9.5h-14v-2.9h14.2c8.4,0,12.5-2.8,12.5-8.4,0-.2.2-.2.7-.2s.7.1.7.2l-.1,9.8c0,2.3,0,4,.1,5.2l.1,5.8c0,.2-.2.3-.7.3s-.6-.1-.6-.3Zm33.8,25.6a21.74,21.74,0,0,1-11.9-3.2,22,22,0,0,1-8-8.6,25.62,25.62,0,0,1-2.8-11.8,21.15,21.15,0,0,1,3.6-12.4,22.88,22.88,0,0,1,9.3-7.6,27.21,27.21,0,0,1,11.6-2.5,21.52,21.52,0,0,1,11.9,3.2,22.29,22.29,0,0,1,7.8,8.6,24.75,24.75,0,0,1,2.7,11.3,21.94,21.94,0,0,1-12.2,20.1,26.54,26.54,0,0,1-12,2.9Zm3.4-2.3a8.28,8.28,0,0,0,7.6-4.4c1.8-2.9,2.7-7.2,2.7-12.8a36.36,36.36,0,0,0-2.1-13.1,19.5,19.5,0,0,0-5.6-8.5,11.78,11.78,0,0,0-7.8-2.9,8.79,8.79,0,0,0-7.7,4.1c-1.7,2.8-2.6,6.8-2.6,12.2a38.4,38.4,0,0,0,2,13,22.6,22.6,0,0,0,5.5,9,11.21,11.21,0,0,0,8,3.4Zm27.3.8c-.2,0-.3-.2-.3-.7s.1-.7.3-.7c2.5,0,4.2-.5,5-1.6s1.2-3.1,1.2-6.2V161.6a13.68,13.68,0,0,0-.8-5.3,3,3,0,0,0-2.7-1.7,16.46,16.46,0,0,0-5.6,1.7h-.1c-.3,0-.5-.2-.7-.6s-.1-.6.1-.7l14.7-7.2a2.35,2.35,0,0,1,.8-.2c.8,0,1.6.9,2.4,2.8a19.92,19.92,0,0,1,1.1,7.3v25.2a10,10,0,0,0,.9,4.8,5.15,5.15,0,0,0,3.1,2.3,27,27,0,0,0,6.3.7c.3,0,.4.2.4.7s-.1.7-.4.7c-2.5,0-4.5,0-6-.1l-8.7-.1-6.5.1a28.09,28.09,0,0,1-4.5.3Zm12-31.7a74.87,74.87,0,0,1,9.6-9.9c2.4-1.8,4.5-2.7,6.4-2.7a7.81,7.81,0,0,1,4.8,1.7,5.19,5.19,0,0,1,2.4,4,4.6,4.6,0,0,1-1.2,3.4,4.52,4.52,0,0,1-3.5,1.3,5.33,5.33,0,0,1-2.4-.6,10.61,10.61,0,0,1-2-1.7,8.45,8.45,0,0,0-1.8-1.5,4.14,4.14,0,0,0-1.9-.5,5.3,5.3,0,0,0-3.3,1.5,54.34,54.34,0,0,0-6.3,6.4l-.8-1.4Zm77.8,33.2a21.74,21.74,0,0,1-11.9-3.2,22,22,0,0,1-8-8.6,25.62,25.62,0,0,1-2.8-11.8,21.15,21.15,0,0,1,3.6-12.4,22.25,22.25,0,0,1,9.3-7.6,27.21,27.21,0,0,1,11.6-2.5,21.45,21.45,0,0,1,19.7,11.8,24.86,24.86,0,0,1,2.7,11.4,22.12,22.12,0,0,1-12.2,20.1,27.8,27.8,0,0,1-12,2.8Zm3.3-2.3a8.28,8.28,0,0,0,7.6-4.4c1.8-2.9,2.7-7.2,2.7-12.8a36.36,36.36,0,0,0-2.1-13.1,19.5,19.5,0,0,0-5.6-8.5,11.78,11.78,0,0,0-7.8-2.9,8.79,8.79,0,0,0-7.7,4.1c-1.8,2.8-2.6,6.8-2.6,12.2a38.4,38.4,0,0,0,2,13,21.74,21.74,0,0,0,5.6,9,11,11,0,0,0,7.9,3.4Zm27.3.8c-.2,0-.3-.2-.3-.7s.1-.7.3-.7c2.5,0,4.2-.5,5-1.6s1.2-3.1,1.2-6.2V161.6a13.68,13.68,0,0,0-.8-5.3,3,3,0,0,0-2.8-1.7,16.46,16.46,0,0,0-5.6,1.7h-.1c-.3,0-.5-.2-.7-.6s-.1-.6.1-.7l14.7-7.2a2.35,2.35,0,0,1,.8-.2c.8,0,1.6.9,2.4,2.8a19.92,19.92,0,0,1,1.1,7.3v25.2c0,3.1.4,5.1,1.3,6.2s2.6,1.6,5.1,1.6c.2,0,.3.2.3.7s-.1.7-.3.7c-1.9,0-3.4,0-4.5-.1l-6.4-.1-6.5.1a22.39,22.39,0,0,1-4.3.3Zm30.1,0c-.2,0-.3-.2-.3-.7s.1-.7.3-.7c2.5,0,4.2-.5,5-1.6s1.2-3.1,1.2-6.2V166.3c0-4.2-.8-7.3-2.3-9.2s-3.9-3-7.2-3a14.66,14.66,0,0,0-7.4,2,17.54,17.54,0,0,0-6.1,5.4l-.6-1.3c6-8.4,12.6-12.6,19.7-12.5,4.1,0,7.3,1.2,9.6,3.7s3.4,5.9,3.4,10.2v21.6c0,3.1.4,5.1,1.3,6.2s2.6,1.6,5.1,1.6c.2,0,.3.2.3.7s-.1.7-.3.7c-1.9,0-3.4,0-4.5-.1l-6.4-.1-6.4.1Zm27.3,0c-.2,0-.3-.2-.3-.7s.1-.7.3-.7c2.5,0,4.2-.5,5.1-1.6s1.3-3.1,1.3-6.2V126a16,16,0,0,0-.7-5.7,2.46,2.46,0,0,0-2.5-1.7,12.17,12.17,0,0,0-4.6,1.3h-.1c-.3,0-.5-.2-.7-.6a.75.75,0,0,1,0-.8l15.8-7.4.4-.1a1.39,1.39,0,0,1,1,.5c.4.3.6.6.6.8v70.9c0,3.1.4,5.1,1.3,6.2s2.6,1.6,5.1,1.6c.2,0,.3.2.3.7s-.1.7-.3.7c-1.9,0-3.4,0-4.5-.1l-6.5-.1-6.5.1Zm72.2-43.2c.1,0,.2.2.2.7s-.1.7-.2.7a7.77,7.77,0,0,0-5.8,2.7,23.27,23.27,0,0,0-4.4,8.2l-12.9,34.2a112.21,112.21,0,0,1-7.7,16.9,29.77,29.77,0,0,1-7.5,8.8,14.15,14.15,0,0,1-8.4,2.6,7.89,7.89,0,0,1-4.9-1.3,4.48,4.48,0,0,1-1.7-3.9,4.39,4.39,0,0,1,1.4-3.4,4.75,4.75,0,0,1,3.4-1.2,8.33,8.33,0,0,1,2.2.3,21.16,21.16,0,0,1,2.1,1.1,7,7,0,0,0,3.9,1.5,6.71,6.71,0,0,0,5.1-2.4,30.71,30.71,0,0,0,4.9-7.9c1.8-3.7,3.9-8.9,6.4-15.8l-.3,5.2-18.5-37.6a37.71,37.71,0,0,0-3.9-6.4,4.35,4.35,0,0,0-3.5-1.5c-.1,0-.2-.2-.2-.7s.1-.7.2-.7c2,0,3.4,0,4.5.1l4.4.1,7.6-.1c1.1-.1,2.6-.1,4.6-.1.2,0,.3.2.3.7s-.1.7-.3.7a13.84,13.84,0,0,0-4.5.5,2,2,0,0,0-1.5,1.7,3.77,3.77,0,0,0,.7,2.1l14.6,29.9-3.5,5.9,10.2-29.3a20.29,20.29,0,0,0,.9-4.8q0-6-7.5-6c-.1,0-.2-.2-.2-.7s.1-.7.2-.7c2,0,3.5,0,4.6.1l6.7.1,4.4-.1c.8-.1,2.1-.1,3.9-.2Zm40.1-.4a9.36,9.36,0,0,0,1.8,5.6,14.42,14.42,0,0,0,4.5,4q2.7,1.65,7.2,3.9a84.6,84.6,0,0,1,7.7,4.4,18.64,18.64,0,0,1,4.9,4.8,11.08,11.08,0,0,1,2,6.8,13.34,13.34,0,0,1-2.5,8,16.88,16.88,0,0,1-7,5.7,25.52,25.52,0,0,1-10.2,2.1,35,35,0,0,1-9.1-1.2,18.51,18.51,0,0,1-6.6-2.9,2.64,2.64,0,0,1-.9-2.3l-.8-12.1q0-.45.6-.6a.63.63,0,0,1,.8.3,39,39,0,0,0,7.6,11.5c3.1,3.2,6.5,4.8,10.3,4.8a9.86,9.86,0,0,0,6.4-2.1c1.7-1.4,2.6-3.6,2.6-6.5a11.09,11.09,0,0,0-1.9-6.3,17.87,17.87,0,0,0-4.6-4.5c-1.8-1.2-4.3-2.7-7.3-4.3-2.4-1.3-4.8-2.7-7.1-4.2a17.5,17.5,0,0,1-4.5-4.5,10.65,10.65,0,0,1-1.9-6.3,11.67,11.67,0,0,1,5.4-10.2,22.86,22.86,0,0,1,13.2-3.8,38.24,38.24,0,0,1,6.8.7,29.77,29.77,0,0,1,6,1.8,3,3,0,0,1,1.3.9,1.8,1.8,0,0,1,.3,1.2l.3,10.3q0,.45-.6.6a.78.78,0,0,1-.8-.2,19,19,0,0,0-2.7-5.3,19.46,19.46,0,0,0-5.3-5.4,12.57,12.57,0,0,0-7.4-2.4,8.18,8.18,0,0,0-6.3,2.2,7,7,0,0,0-2.2,5.5Zm8.1-19.2a.84.84,0,0,1,.4-.7,2.15,2.15,0,0,1,1.1-.2,3.55,3.55,0,0,1,1,.2.57.57,0,0,1,.4.7v74.3c0,.5-.5.8-1.5.8s-1.6-.3-1.6-.8l.2-74.3Zm29.8,93.6c-.3.1-.6-.1-.7-.5s-.1-.7.2-.7c8.4-3.1,14.5-7.2,18.1-12.2s5.5-9.9,5.5-14.8a15.61,15.61,0,0,0-3.3-10.4c-2.2-2.7-5.3-4-9.2-4a15.94,15.94,0,0,0-4.8.7q-.3.15-.6-.6c-.2-.5-.1-.7.1-.8,5.4-1.4,9.3-3.5,11.7-6.2s3.6-6.5,3.6-11.3c0-3.7-.6-6.6-1.9-8.7a6.53,6.53,0,0,0-5.8-3.1,12.41,12.41,0,0,0-8.4,3.2,23.87,23.87,0,0,0-6.1,9.6.6.6,0,0,1-.4.1c-.7,0-1-.1-.9-.4l4.1-16.4a.76.76,0,0,1,.4-.2,1.85,1.85,0,0,1,.7.2c.2.1.3.2.2.3a5,5,0,0,0-.2,1.2,1.69,1.69,0,0,0,1.4,1.9h.5a11.8,11.8,0,0,0,3.7-.9c1.7-.5,3.2-.9,4.4-1.2a19.92,19.92,0,0,1,4.2-.4c4.3,0,7.7,1.2,10.2,3.8a12.63,12.63,0,0,1,3.7,9,17.47,17.47,0,0,1-4.5,11.7,20.66,20.66,0,0,1-12.1,6.9l.7-1.7c6.3.1,11.2,1.8,14.4,4.9a14.78,14.78,0,0,1,4.9,11.3,19.57,19.57,0,0,1-3.7,10.9,38.6,38.6,0,0,1-11.3,10.5,67.38,67.38,0,0,1-18.8,8.3Zm65.2-29.3a24.52,24.52,0,0,1-12.2-3,21.61,21.61,0,0,1-8.4-8.3,23.66,23.66,0,0,1-3-11.9,23.3,23.3,0,0,1,3-11.8,21.11,21.11,0,0,1,8.4-8.1,24.94,24.94,0,0,1,12.2-2.9,24.4,24.4,0,0,1,12.1,3,21.27,21.27,0,0,1,8.2,8.1,24.9,24.9,0,0,1,0,23.7,20.48,20.48,0,0,1-8.3,8.2,24.84,24.84,0,0,1-12,3Zm1.1-2.1a9.27,9.27,0,0,0,8.6-5.2c1.9-3.4,2.9-8.2,2.9-14.3q0-11.25-3.9-16.8c-2.6-3.7-5.8-5.6-9.8-5.6a9.85,9.85,0,0,0-9,5.3c-2.1,3.6-3.1,8.3-3.1,14.3,0,6.6,1.3,11.9,3.9,16.1s6.2,6.2,10.4,6.2Zm54.8,2.1a24.52,24.52,0,0,1-12.2-3,22.31,22.31,0,0,1-8.4-8.3,23.66,23.66,0,0,1-3-11.9,23.3,23.3,0,0,1,3-11.8,21.8,21.8,0,0,1,8.4-8.1,24.94,24.94,0,0,1,12.2-2.9,24.4,24.4,0,0,1,12.1,3,20.86,20.86,0,0,1,8.2,8.2,24.9,24.9,0,0,1,0,23.7,20.48,20.48,0,0,1-8.3,8.2,23.44,23.44,0,0,1-12,2.9Zm1.1-2.1a9.27,9.27,0,0,0,8.6-5.2c1.9-3.4,2.9-8.2,2.9-14.3q0-11.25-3.9-16.8c-2.6-3.7-5.8-5.6-9.8-5.6a9.85,9.85,0,0,0-9,5.3c-2.1,3.6-3.1,8.3-3.1,14.3,0,6.6,1.3,11.9,3.9,16.1s6.1,6.2,10.4,6.2Z"/><text class="cls-2" transform="translate(0 336.29)"><tspan xml:space="preserve">    </tspan></text><text class="cls-3" transform="translate(179.99 336.29)">B</text><text class="cls-4" transform="translate(212.63 336.29)">y</text><text class="cls-4" transform="translate(252.47 336.29)">L</text><text class="cls-4" transform="translate(284.63 336.29)">i</text><text class="cls-5" transform="translate(300.17 336.29)">l</text><text class="cls-4" transform="translate(314.99 336.29)">y</text><text class="cls-4" transform="translate(354.83 336.29)">O</text><text class="cls-4" transform="translate(400.37 336.29)">’</text><text class="cls-4" transform="translate(411.34 336.29)">C</text><text class="cls-4" transform="translate(451.6 336.29)">o</text><text class="cls-4" transform="translate(479.86 336.29)">n</text><text class="cls-5" transform="translate(510.94 336.29)">n</text><text class="cls-5" transform="translate(540.88 336.29)">e</text><text class="cls-4" transform="translate(564.34 336.29)">l</text><text class="cls-4" transform="translate(579.64 336.29)">l</text><text class="cls-2" transform="translate(0 408.29)"><tspan xml:space="preserve">    </tspan></text><text class="cls-4" transform="translate(179.99 408.29)">S</text><text class="cls-4" transform="translate(209.75 408.29)">e</text><text class="cls-4" transform="translate(234.59 408.29)">n</text><text class="cls-5" transform="translate(265.55 408.29)">i</text><text class="cls-4" transform="translate(279.83 408.29)">o</text><text class="cls-4" transform="translate(308.09 408.29)">r</text><text class="cls-5" transform="translate(344.57 408.29)">C</text><text class="cls-4" transform="translate(384.35 408.29)">u</text><text class="cls-3" transform="translate(413.99 408.29)">l</text><text class="cls-4" transform="translate(427.61 408.29)">t</text><text class="cls-4" transform="translate(447.82 408.29)">u</text><text class="cls-5" transform="translate(477.34 408.29)">r</text><text class="cls-4" transform="translate(498.7 408.29)">a</text><text class="cls-4" transform="translate(523.78 408.29)">l</text><text class="cls-4" transform="translate(553.72 408.29)">E</text><text class="cls-4" transform="translate(586.12 408.29)">d</text><text class="cls-3" transform="translate(616.12 408.29)">i</text><text class="cls-5" transform="translate(629.98 408.29)">t</text><text class="cls-4" transform="translate(649.18 408.29)">o</text><text class="cls-4" transform="translate(677.44 408.29)">r</text><text class="cls-6" transform="translate(0 32.5)">M</text><text class="cls-6" transform="translate(33.44 32.5)">a</text><text class="cls-7" transform="translate(50.24 32.5)">r</text><text class="cls-6" transform="translate(63.24 32.5)">.</text><text class="cls-6" transform="translate(80.6 32.5)">1</text><text class="cls-8" transform="translate(94.16 32.5)">4</text><text class="cls-6" transform="translate(113.4 32.5)">,</text><text class="cls-6" transform="translate(131.64 32.5)">2</text><text class="cls-6" transform="translate(148.52 32.5)">0</text><text class="cls-6" transform="translate(168.04 32.5)">2</text><text class="cls-6" transform="translate(184.65 32.5)">1</text></g></svg>