<?xml version="1.0" encoding="utf-8"?>
<!-- Generator: Adobe Illustrator 25.4.8, SVG Export Plug-In . SVG Version: 6.00 Build 0)  -->
<svg version="1.1" id="Layer_1" xmlns="http://www.w3.org/2000/svg" xmlns:xlink="http://www.w3.org/1999/xlink" x="0px" y="0px"
	 viewBox="0 0 450 100" style="enable-background:new 0 0 450 100;" xml:space="preserve">
<style type="text/css">
	.st0{fill:none;stroke:#808080;stroke-width:4.0021;stroke-miterlimit:10;}
	.st1{fill:#92B4F3;}
	.st2{fill:#92B4F3;stroke:#92B4F3;stroke-width:8.6079;stroke-miterlimit:10;}
	.st3{fill:#4185F4;}
	.st4{fill:#FABB02;}
	.st5{fill:#35A752;}
	.st6{fill:#EA4033;}
	.st7{fill:#5186ED;}
	.st8{fill:#58A55D;}
	.st9{fill:#F2BD42;}
	.st10{fill:#D95040;}
	.st11{fill:none;stroke:#B3B3B3;stroke-width:6.3578;stroke-miterlimit:10;}
	.st12{fill:#1F2020;}
	.st13{fill:#3C3C3C;}
	.st14{fill:#282828;}
	.st15{fill:#ED6055;}
	.st16{fill:#65CC58;}
	.st17{fill:#F6BE4F;}
	.st18{fill:none;stroke:#FFFFFF;stroke-width:2.5007;stroke-miterlimit:10;}
	.st19{fill:#FFFFFF;stroke:#FFFFFF;stroke-width:0.6731;stroke-miterlimit:10;}
	.st20{fill:none;stroke:#FFFFFF;stroke-width:1.8166;stroke-miterlimit:10;}
	.st21{fill:none;stroke:#FFFFFF;stroke-width:2.126;stroke-miterlimit:10;}
	.st22{fill:#FFFFFF;stroke:#FFFFFF;stroke-width:2.126;stroke-miterlimit:10;}
	.st23{fill:none;stroke:#CCCCCC;stroke-width:2.0017;stroke-miterlimit:10;}
	.st24{fill:#FFFFFF;stroke:#FFFFFF;stroke-width:1.5157;stroke-miterlimit:10;}
	.st25{fill:#FFFFFF;stroke:#FFFFFF;stroke-width:1.3197;stroke-miterlimit:10;}
	.st26{fill:#478E99;}
	.st27{fill:none;stroke:#FFFFFF;stroke-width:0.5357;stroke-miterlimit:10;}
	.st28{fill:#FFFFFF;}
	.st29{fill:#9F50B6;}
	.st30{fill:url(#SVGID_1_);}
	.st31{stroke:#000000;stroke-miterlimit:10;}
	.st32{fill:none;stroke:#000000;stroke-width:4.0769;stroke-linecap:round;stroke-linejoin:round;stroke-miterlimit:10;}
	.st33{fill:none;stroke:#000000;stroke-width:4.0769;stroke-miterlimit:10;}
	.st34{fill:#292A35;}
	.st35{fill:#87F4D3;}
	.st36{fill:#292A35;stroke:#87F4D3;stroke-width:0.6627;stroke-linejoin:round;stroke-miterlimit:110;}
	.st37{fill:#292A35;stroke:#87F4D3;stroke-width:0.6627;stroke-miterlimit:10;}
	.st38{fill:#1D1D1B;}
	.st39{font-family:'CormorantGaramond-SemiBold';}
	.st40{font-size:62.6888px;}
	.st41{font-family:'CormorantGaramond-Medium';}
	.st42{font-size:78.361px;}
	.st43{font-size:67.9129px;}
	.st44{letter-spacing:-4;}
	.st45{letter-spacing:-3;}
	.st46{letter-spacing:-2;}
	.st47{font-size:36.5685px;}
	.st48{letter-spacing:-8;}
</style>
<g>
	<g>
		<path class="st38" d="M51.9,47.7c-0.9,0-1.5-0.2-1.8-0.6c-0.3-0.4-0.5-1.1-0.5-2.2v-7.6c0-1.5-0.4-2.7-1.2-3.6
			c-0.8-0.9-1.9-1.3-3.4-1.3c-2.2,0-4.2,1.1-6.1,3.3V19.5c0-0.1,0-0.1-0.1-0.1c-0.1,0-0.2-0.1-0.3-0.1c-0.1,0-0.2,0-0.3,0.1
			c-0.5,1.1-1.3,2.1-2.4,2.8c-1.1,0.7-2.5,1.1-4.1,1.2c-1.2,0.1-3.7,0.1-7.7,0.1c-3,0-5.7,0-8-0.1c-1.5,0-2.2-0.3-2.2-0.9
			c0-0.1-0.1-0.2-0.2-0.2c-0.1,0-0.2,0.1-0.2,0.2c0,0.8-0.1,2-0.2,3.7c-0.1,1.6-0.3,2.9-0.4,4c0,0.1,0.1,0.1,0.2,0.1
			c0.1,0,0.2,0,0.2-0.1c0.6-2,1.3-3.5,2.4-4.5c1-1,2.3-1.5,4-1.5c0.7,0,1.3,0.1,1.6,0.2c0.3,0.1,0.6,0.3,0.7,0.7
			c0.1,0.3,0.2,0.8,0.2,1.5v18.3c0,0.8-0.1,1.4-0.3,1.8c-0.2,0.4-0.5,0.6-1,0.8c-0.5,0.1-1.2,0.2-2.3,0.2c-0.1,0-0.1,0.1-0.1,0.2
			c0,0.2,0,0.2,0.1,0.2c1,0,1.7,0,2.3,0l3.1,0l3.2,0c0.5,0,1.3,0,2.2,0c0.1,0,0.1-0.1,0.1-0.2c0-0.2,0-0.2-0.1-0.2
			c-1,0-1.8-0.1-2.3-0.2c-0.5-0.1-0.8-0.4-1-0.8c-0.2-0.4-0.3-1-0.3-1.8V26.7c0-0.7,0.1-1.2,0.2-1.6c0.1-0.3,0.4-0.6,0.7-0.7
			c0.4-0.1,0.9-0.2,1.6-0.2h6.4c0.3,0,0.4,0,0.6,0.1c0.1,0.1,0.2,0.2,0.2,0.5v20.1c0,1.1-0.2,1.8-0.5,2.2c-0.3,0.4-0.9,0.6-1.8,0.6
			c-0.1,0-0.1,0.1-0.1,0.2c0,0.2,0,0.2,0.1,0.2c0.7,0,1.2,0,1.6,0l2.3,0l2.3,0c0.4,0,0.9,0,1.5,0c0.1,0,0.1-0.1,0.1-0.2
			c0-0.2,0-0.2-0.1-0.2c-0.9,0-1.5-0.2-1.8-0.6C39.2,46.7,39,46,39,44.9v-8.5c0.4-0.4,0.9-0.8,1.4-1.1c0.9-0.5,1.8-0.7,2.7-0.7
			c1.1,0,2,0.4,2.5,1.1c0.6,0.7,0.8,1.8,0.8,3.3v5.9c0,1.1-0.2,1.8-0.5,2.2c-0.3,0.4-0.9,0.6-1.8,0.6c-0.1,0-0.1,0.1-0.1,0.2
			c0,0.2,0,0.2,0.1,0.2c0.7,0,1.2,0,1.6,0l2.3,0l2.3,0c0.4,0,0.9,0,1.5,0c0.1,0,0.1-0.1,0.1-0.2C52,47.7,52,47.7,51.9,47.7z"/>
		<path class="st38" d="M66.2,45.8c-0.1-0.1-0.1-0.2-0.2-0.2l-0.1,0c-0.8,0.4-1.5,0.7-2,0.9c-0.5,0.2-1.1,0.3-1.9,0.3
			c-2,0-3.5-0.7-4.6-2c-1.1-1.4-1.6-3.2-1.6-5.5c0-0.4,0-0.7,0-1.1l7.6,0h2.1c0.2,0,0.3-0.1,0.3-0.3c0.1-0.2,0.1-0.5,0.1-0.9
			c0-1.5-0.4-2.6-1.3-3.4c-0.9-0.8-2.1-1.1-3.7-1.1c-1.6,0-3.1,0.4-4.5,1.1c-1.3,0.8-2.4,1.8-3.1,3.1c-0.8,1.3-1.1,2.7-1.1,4.3
			c0,1.3,0.3,2.6,0.9,3.8c0.6,1.2,1.5,2.1,2.7,2.8c1.2,0.7,2.6,1.1,4.2,1.1c1.1,0,2.2-0.2,3.2-0.6c1-0.4,1.9-1.1,2.9-2
			C66.3,46,66.3,45.9,66.2,45.8z M56.9,34.9c0.7-1.1,1.6-1.6,2.8-1.6c1.8,0,2.7,1.4,2.7,4.1L56,37.5C56.2,36.5,56.5,35.6,56.9,34.9z
			"/>
	</g>
	<text transform="matrix(1 0 0 1 69.0846 70.7458)" class="st38 st39 st40"> </text>
	<text transform="matrix(1 0 0 1 74.9772 70.7458)" class="st38 st41 st42">C</text>
	<text transform="matrix(1 0 0 1 125.152 70.7458)"><tspan x="0" y="0" class="st38 st41 st43 st44">u</tspan><tspan x="29.3" y="0" class="st38 st41 st43 st45">t</tspan><tspan x="48.4" y="0" class="st38 st41 st43 st46">t</tspan><tspan x="69.1" y="0" class="st38 st41 st43 st46">i</tspan><tspan x="85" y="0" class="st38 st41 st43 st46">n</tspan><tspan x="117.8" y="0" class="st38 st41 st43">g</tspan></text>
	<text transform="matrix(1 0 0 1 283.9499 70.7458)" class="st38 st41 st47"> </text>
	<text transform="matrix(1 0 0 1 282.9167 70.7458)" class="st38 st41 st42">E</text>
	<text transform="matrix(1 0 0 1 322.6306 70.7458)"><tspan x="0" y="0" class="st38 st41 st43">d</tspan><tspan x="34.2" y="0" class="st38 st41 st43 st45">g</tspan><tspan x="61" y="0" class="st38 st41 st43">e</tspan></text>
	<text transform="matrix(1 0 0 1 414.1774 70.7458)"><tspan x="0" y="0" class="st38 st39 st43 st48"> </tspan><tspan x="6.9" y="0" class="st38 st39 st43"> </tspan></text>
</g>
</svg>
