<?xml version="1.0" encoding="utf-8"?>
<!-- Generator: Adobe Illustrator 25.4.8, SVG Export Plug-In . SVG Version: 6.00 Build 0)  -->
<svg version="1.1" id="Layer_1" xmlns="http://www.w3.org/2000/svg" xmlns:xlink="http://www.w3.org/1999/xlink" x="0px" y="0px"
	 viewBox="0 0 450 100" style="enable-background:new 0 0 450 100;" xml:space="preserve">
<style type="text/css">
	.st0{fill:none;stroke:#808080;stroke-width:4.0021;stroke-miterlimit:10;}
	.st1{fill:#92B4F3;}
	.st2{fill:#92B4F3;stroke:#92B4F3;stroke-width:8.6079;stroke-miterlimit:10;}
	.st3{fill:#4185F4;}
	.st4{fill:#FABB02;}
	.st5{fill:#35A752;}
	.st6{fill:#EA4033;}
	.st7{fill:#5186ED;}
	.st8{fill:#58A55D;}
	.st9{fill:#F2BD42;}
	.st10{fill:#D95040;}
	.st11{fill:none;stroke:#B3B3B3;stroke-width:6.3578;stroke-miterlimit:10;}
	.st12{fill:#1F2020;}
	.st13{fill:#3C3C3C;}
	.st14{fill:#282828;}
	.st15{fill:#ED6055;}
	.st16{fill:#65CC58;}
	.st17{fill:#F6BE4F;}
	.st18{fill:none;stroke:#FFFFFF;stroke-width:2.5007;stroke-miterlimit:10;}
	.st19{fill:#FFFFFF;stroke:#FFFFFF;stroke-width:0.6731;stroke-miterlimit:10;}
	.st20{fill:none;stroke:#FFFFFF;stroke-width:1.8166;stroke-miterlimit:10;}
	.st21{fill:none;stroke:#FFFFFF;stroke-width:2.126;stroke-miterlimit:10;}
	.st22{fill:#FFFFFF;stroke:#FFFFFF;stroke-width:2.126;stroke-miterlimit:10;}
	.st23{fill:none;stroke:#CCCCCC;stroke-width:2.0017;stroke-miterlimit:10;}
	.st24{fill:#FFFFFF;stroke:#FFFFFF;stroke-width:1.5157;stroke-miterlimit:10;}
	.st25{fill:#FFFFFF;stroke:#FFFFFF;stroke-width:1.3197;stroke-miterlimit:10;}
	.st26{fill:#478E99;}
	.st27{fill:none;stroke:#FFFFFF;stroke-width:0.5357;stroke-miterlimit:10;}
	.st28{fill:#FFFFFF;}
	.st29{fill:#9F50B6;}
	.st30{fill:url(#SVGID_1_);}
	.st31{stroke:#000000;stroke-miterlimit:10;}
	.st32{fill:none;stroke:#000000;stroke-width:4.0769;stroke-linecap:round;stroke-linejoin:round;stroke-miterlimit:10;}
	.st33{fill:none;stroke:#000000;stroke-width:4.0769;stroke-miterlimit:10;}
	.st34{fill:#292A35;}
	.st35{fill:#87F4D3;}
	.st36{fill:#292A35;stroke:#87F4D3;stroke-width:0.6627;stroke-linejoin:round;stroke-miterlimit:110;}
	.st37{fill:#292A35;stroke:#87F4D3;stroke-width:0.6627;stroke-miterlimit:10;}
	.st38{fill:#1D1D1B;}
	.st39{fill:none;stroke:#000000;stroke-width:1.8924;}
</style>
<g>
	<g>
		<path class="st38" d="M55,53.6l3-0.3c0.1,1.2,0.5,2.2,1,3c0.5,0.8,1.3,1.4,2.4,1.9c1.1,0.5,2.4,0.7,3.7,0.7c1.2,0,2.3-0.2,3.3-0.5
			s1.6-0.9,2.1-1.5c0.5-0.6,0.7-1.3,0.7-2.1c0-0.8-0.2-1.4-0.7-2c-0.4-0.6-1.2-1-2.2-1.4c-0.7-0.3-2.1-0.7-4.3-1.2
			c-2.2-0.5-3.8-1-4.7-1.5c-1.2-0.6-2-1.4-2.6-2.3c-0.6-0.9-0.9-1.9-0.9-3c0-1.2,0.3-2.4,1-3.4c0.7-1.1,1.7-1.9,3.1-2.4
			s2.8-0.8,4.5-0.8c1.8,0,3.4,0.3,4.8,0.9c1.4,0.6,2.4,1.4,3.2,2.6s1.1,2.4,1.2,3.8l-3.1,0.2c-0.2-1.5-0.7-2.7-1.7-3.5
			c-1-0.8-2.4-1.2-4.2-1.2c-1.9,0-3.4,0.4-4.3,1.1c-0.9,0.7-1.3,1.6-1.3,2.6c0,0.9,0.3,1.6,0.9,2.2c0.6,0.6,2.2,1.1,4.9,1.7
			c2.6,0.6,4.4,1.1,5.4,1.6c1.4,0.7,2.5,1.5,3.1,2.5c0.7,1,1,2.2,1,3.5c0,1.3-0.4,2.5-1.1,3.7c-0.7,1.1-1.8,2-3.2,2.7
			c-1.4,0.6-3,1-4.7,1c-2.2,0-4-0.3-5.5-1c-1.5-0.6-2.7-1.6-3.5-2.9C55.5,56.7,55,55.2,55,53.6z"/>
		<path class="st38" d="M89.5,61.4v-2.6c-1.4,2-3.2,3-5.6,3c-1,0-2-0.2-2.9-0.6s-1.6-0.9-2-1.5c-0.4-0.6-0.7-1.3-0.9-2.2
			c-0.1-0.6-0.2-1.5-0.2-2.8V43.8h3v9.8c0,1.6,0.1,2.6,0.2,3.2c0.2,0.8,0.6,1.4,1.2,1.9c0.6,0.4,1.4,0.7,2.3,0.7s1.7-0.2,2.5-0.7
			c0.8-0.5,1.3-1.1,1.7-1.9c0.3-0.8,0.5-1.9,0.5-3.4v-9.4h3v17.6H89.5z"/>
		<path class="st38" d="M99.1,61.4h-2.8V37.1h3v8.7c1.3-1.6,2.9-2.4,4.8-2.4c1.1,0,2.1,0.2,3.1,0.7c1,0.4,1.8,1.1,2.4,1.8
			c0.6,0.8,1.1,1.7,1.5,2.9c0.4,1.1,0.5,2.3,0.5,3.6c0,3-0.7,5.4-2.2,7s-3.3,2.5-5.4,2.5c-2.1,0-3.7-0.9-4.9-2.6V61.4z M99,52.5
			c0,2.1,0.3,3.6,0.9,4.6c0.9,1.5,2.2,2.3,3.8,2.3c1.3,0,2.4-0.6,3.4-1.7c1-1.1,1.4-2.8,1.4-5.1c0-2.3-0.5-4-1.4-5.1s-2-1.6-3.3-1.6
			c-1.3,0-2.4,0.6-3.4,1.7C99.5,48.7,99,50.3,99,52.5z"/>
		<path class="st38" d="M113.6,56.2l3-0.5c0.2,1.2,0.6,2.1,1.4,2.7s1.8,0.9,3.2,0.9c1.4,0,2.4-0.3,3.1-0.8c0.7-0.6,1-1.2,1-2
			c0-0.7-0.3-1.2-0.9-1.6c-0.4-0.3-1.4-0.6-3.1-1c-2.2-0.6-3.7-1-4.6-1.4c-0.8-0.4-1.5-1-1.9-1.7c-0.4-0.7-0.7-1.5-0.7-2.4
			c0-0.8,0.2-1.5,0.5-2.2c0.4-0.7,0.8-1.2,1.5-1.7c0.5-0.3,1.1-0.6,1.9-0.9c0.8-0.2,1.7-0.4,2.6-0.4c1.4,0,2.6,0.2,3.6,0.6
			s1.8,0.9,2.3,1.6c0.5,0.7,0.8,1.6,1,2.7l-2.9,0.4c-0.1-0.9-0.5-1.6-1.2-2.1s-1.5-0.8-2.7-0.8c-1.4,0-2.4,0.2-2.9,0.7
			c-0.6,0.5-0.9,1-0.9,1.6c0,0.4,0.1,0.7,0.4,1c0.2,0.3,0.6,0.6,1.1,0.8c0.3,0.1,1.2,0.4,2.6,0.8c2.1,0.6,3.6,1,4.4,1.4
			c0.8,0.4,1.5,0.9,2,1.6c0.5,0.7,0.7,1.5,0.7,2.6c0,1-0.3,1.9-0.9,2.8c-0.6,0.9-1.4,1.6-2.5,2c-1.1,0.5-2.3,0.7-3.7,0.7
			c-2.3,0-4-0.5-5.2-1.4S113.9,58,113.6,56.2z"/>
		<path class="st38" d="M142.9,55l2.9,0.4c-0.3,2-1.1,3.6-2.5,4.8c-1.3,1.1-2.9,1.7-4.9,1.7c-2.4,0-4.4-0.8-5.8-2.4
			c-1.5-1.6-2.2-3.8-2.2-6.8c0-1.9,0.3-3.6,0.9-5s1.6-2.5,2.9-3.2c1.3-0.7,2.7-1.1,4.2-1.1c1.9,0,3.5,0.5,4.7,1.5
			c1.2,1,2,2.3,2.3,4.1l-2.9,0.4c-0.3-1.2-0.8-2.1-1.5-2.7c-0.7-0.6-1.6-0.9-2.5-0.9c-1.5,0-2.7,0.5-3.7,1.6
			c-0.9,1.1-1.4,2.8-1.4,5.1c0,2.4,0.5,4.1,1.4,5.2s2.1,1.6,3.6,1.6c1.2,0,2.2-0.4,2.9-1.1S142.6,56.5,142.9,55z"/>
		<path class="st38" d="M148.3,61.4V43.8h2.7v2.7c0.7-1.3,1.3-2.1,1.9-2.5c0.6-0.4,1.2-0.6,1.9-0.6c1,0,2,0.3,3.1,1l-1,2.8
			c-0.7-0.4-1.5-0.6-2.2-0.6c-0.7,0-1.2,0.2-1.8,0.6c-0.5,0.4-0.9,0.9-1.1,1.6c-0.3,1.1-0.5,2.2-0.5,3.5v9.2H148.3z"/>
		<path class="st38" d="M159.7,40.5v-3.4h3v3.4H159.7z M159.7,61.4V43.8h3v17.6H159.7z"/>
		<path class="st38" d="M169.5,61.4h-2.8V37.1h3v8.7c1.3-1.6,2.9-2.4,4.8-2.4c1.1,0,2.1,0.2,3.1,0.7c1,0.4,1.8,1.1,2.4,1.8
			c0.6,0.8,1.1,1.7,1.5,2.9s0.5,2.3,0.5,3.6c0,3-0.7,5.4-2.2,7s-3.3,2.5-5.4,2.5c-2.1,0-3.7-0.9-4.9-2.6V61.4z M169.5,52.5
			c0,2.1,0.3,3.6,0.9,4.6c0.9,1.5,2.2,2.3,3.8,2.3c1.3,0,2.4-0.6,3.4-1.7c1-1.1,1.4-2.8,1.4-5.1c0-2.3-0.5-4-1.4-5.1
			c-0.9-1.1-2-1.6-3.3-1.6c-1.3,0-2.4,0.6-3.4,1.7C170,48.7,169.5,50.3,169.5,52.5z"/>
		<path class="st38" d="M197.4,55.7l3.1,0.4c-0.5,1.8-1.4,3.2-2.7,4.2s-3,1.5-5,1.5c-2.6,0-4.6-0.8-6.1-2.4
			c-1.5-1.6-2.3-3.8-2.3-6.7c0-3,0.8-5.3,2.3-6.9s3.5-2.5,5.9-2.5c2.4,0,4.3,0.8,5.8,2.4s2.2,3.9,2.2,6.8c0,0.2,0,0.4,0,0.8h-13.1
			c0.1,1.9,0.7,3.4,1.6,4.4s2.2,1.5,3.7,1.5c1.1,0,2-0.3,2.8-0.9S196.9,57,197.4,55.7z M187.6,50.9h9.8c-0.1-1.5-0.5-2.6-1.1-3.3
			c-1-1.2-2.2-1.7-3.7-1.7c-1.4,0-2.5,0.5-3.5,1.4C188.2,48.1,187.7,49.4,187.6,50.9z"/>
	</g>
	<g>
		<path class="st38" d="M296.5,54.1l3-0.3c0.1,1.2,0.5,2.2,1,3c0.5,0.8,1.3,1.4,2.4,1.9c1.1,0.5,2.4,0.7,3.7,0.7
			c1.2,0,2.3-0.2,3.3-0.5s1.6-0.9,2.1-1.5c0.5-0.6,0.7-1.3,0.7-2.1c0-0.8-0.2-1.4-0.7-2c-0.4-0.6-1.2-1-2.2-1.4
			c-0.7-0.3-2.1-0.7-4.3-1.2c-2.2-0.5-3.8-1-4.7-1.5c-1.2-0.6-2-1.4-2.6-2.3c-0.6-0.9-0.9-1.9-0.9-3c0-1.2,0.3-2.4,1-3.4
			c0.7-1.1,1.7-1.9,3.1-2.4s2.8-0.8,4.5-0.8c1.8,0,3.4,0.3,4.8,0.9c1.4,0.6,2.4,1.4,3.2,2.6s1.1,2.4,1.2,3.8l-3.1,0.2
			c-0.2-1.5-0.7-2.7-1.7-3.5c-1-0.8-2.4-1.2-4.2-1.2c-1.9,0-3.4,0.4-4.3,1.1c-0.9,0.7-1.3,1.6-1.3,2.6c0,0.9,0.3,1.6,0.9,2.2
			c0.6,0.6,2.2,1.1,4.9,1.7c2.6,0.6,4.4,1.1,5.4,1.6c1.4,0.7,2.5,1.5,3.1,2.5c0.7,1,1,2.2,1,3.5c0,1.3-0.4,2.5-1.1,3.7
			c-0.7,1.1-1.8,2-3.2,2.7c-1.4,0.6-3,1-4.7,1c-2.2,0-4-0.3-5.5-1c-1.5-0.6-2.7-1.6-3.5-2.9C297,57.2,296.5,55.8,296.5,54.1z"/>
		<path class="st38" d="M319.6,41.1v-3.4h3v3.4H319.6z M319.6,62V44.3h3V62H319.6z"/>
		<path class="st38" d="M326.2,63.4l2.9,0.4c0.1,0.9,0.5,1.5,1,2c0.7,0.6,1.8,0.8,3,0.8c1.4,0,2.5-0.3,3.2-0.8s1.3-1.3,1.5-2.3
			c0.2-0.6,0.2-1.9,0.2-3.8c-1.3,1.5-2.9,2.3-4.9,2.3c-2.4,0-4.3-0.9-5.6-2.6s-2-3.8-2-6.3c0-1.7,0.3-3.2,0.9-4.7
			c0.6-1.4,1.5-2.5,2.6-3.3c1.2-0.8,2.5-1.2,4.1-1.2c2.1,0,3.8,0.8,5.1,2.5v-2.1h2.8v15.2c0,2.7-0.3,4.7-0.8,5.8
			c-0.6,1.1-1.4,2-2.7,2.7c-1.2,0.7-2.7,1-4.5,1c-2.1,0-3.8-0.5-5.1-1.4C326.8,66.7,326.2,65.3,326.2,63.4z M328.7,52.8
			c0,2.3,0.5,4,1.4,5.1s2.1,1.6,3.5,1.6c1.4,0,2.5-0.5,3.5-1.6c0.9-1.1,1.4-2.7,1.4-5c0-2.2-0.5-3.8-1.4-4.9c-1-1.1-2.1-1.6-3.5-1.6
			c-1.3,0-2.5,0.5-3.4,1.6C329.2,49.1,328.7,50.7,328.7,52.8z"/>
		<path class="st38" d="M345.3,62V44.3h2.7v2.5c1.3-1.9,3.2-2.9,5.6-2.9c1.1,0,2,0.2,2.9,0.6c0.9,0.4,1.6,0.9,2,1.5s0.8,1.4,0.9,2.2
			c0.1,0.6,0.2,1.5,0.2,2.9V62h-3V51.2c0-1.2-0.1-2.1-0.3-2.7c-0.2-0.6-0.6-1.1-1.2-1.4c-0.6-0.4-1.3-0.5-2.1-0.5
			c-1.3,0-2.4,0.4-3.3,1.2c-0.9,0.8-1.4,2.3-1.4,4.6V62H345.3z"/>
		<path class="st38" d="M373.6,41.1v-3.4h3v3.4H373.6z M373.6,62V44.3h3V62H373.6z"/>
		<path class="st38" d="M380.7,62V44.3h2.7v2.5c1.3-1.9,3.2-2.9,5.6-2.9c1.1,0,2,0.2,2.9,0.6c0.9,0.4,1.6,0.9,2,1.5s0.8,1.4,0.9,2.2
			c0.1,0.6,0.2,1.5,0.2,2.9V62h-3V51.2c0-1.2-0.1-2.1-0.3-2.7c-0.2-0.6-0.6-1.1-1.2-1.4c-0.6-0.4-1.3-0.5-2.1-0.5
			c-1.3,0-2.4,0.4-3.3,1.2c-0.9,0.8-1.4,2.3-1.4,4.6V62H380.7z"/>
	</g>
	<line class="st39" x1="246.4" y1="30.9" x2="246.4" y2="67.6"/>
</g>
</svg>
