<?xml version="1.0" encoding="utf-8"?>
<!-- Generator: Adobe Illustrator 25.4.8, SVG Export Plug-In . SVG Version: 6.00 Build 0)  -->
<svg version="1.1" id="Layer_1" xmlns="http://www.w3.org/2000/svg" xmlns:xlink="http://www.w3.org/1999/xlink" x="0px" y="0px"
	 viewBox="0 0 100 100" style="enable-background:new 0 0 100 100;" xml:space="preserve">
<style type="text/css">
	.st0{fill:none;stroke:#808080;stroke-width:4.0021;stroke-miterlimit:10;}
	.st1{fill:#92B4F3;}
	.st2{fill:#92B4F3;stroke:#92B4F3;stroke-width:8.6079;stroke-miterlimit:10;}
	.st3{fill:#4185F4;}
	.st4{fill:#FABB02;}
	.st5{fill:#35A752;}
	.st6{fill:#EA4033;}
	.st7{fill:#5186ED;}
	.st8{fill:#58A55D;}
	.st9{fill:#F2BD42;}
	.st10{fill:#D95040;}
	.st11{fill:none;stroke:#B3B3B3;stroke-width:6.3578;stroke-miterlimit:10;}
	.st12{fill:#1F2020;}
	.st13{fill:#3C3C3C;}
	.st14{fill:#282828;}
	.st15{fill:#ED6055;}
	.st16{fill:#65CC58;}
	.st17{fill:#F6BE4F;}
	.st18{fill:none;stroke:#FFFFFF;stroke-width:2.5007;stroke-miterlimit:10;}
	.st19{fill:#FFFFFF;stroke:#FFFFFF;stroke-width:0.6731;stroke-miterlimit:10;}
	.st20{fill:none;stroke:#FFFFFF;stroke-width:1.8166;stroke-miterlimit:10;}
	.st21{fill:none;stroke:#FFFFFF;stroke-width:2.126;stroke-miterlimit:10;}
	.st22{fill:#FFFFFF;stroke:#FFFFFF;stroke-width:2.126;stroke-miterlimit:10;}
	.st23{fill:none;stroke:#CCCCCC;stroke-width:2.0017;stroke-miterlimit:10;}
	.st24{fill:#FFFFFF;stroke:#FFFFFF;stroke-width:1.5157;stroke-miterlimit:10;}
	.st25{fill:#FFFFFF;stroke:#FFFFFF;stroke-width:1.3197;stroke-miterlimit:10;}
	.st26{fill:#478E99;}
	.st27{fill:none;stroke:#FFFFFF;stroke-width:0.5357;stroke-miterlimit:10;}
	.st28{fill:#FFFFFF;}
	.st29{fill:#9F50B6;}
	.st30{fill:url(#SVGID_1_);}
	.st31{opacity:0.5;}
</style>
<g>
	<path d="M50,92.7L50,92.7C26.4,92.7,7.3,73.6,7.3,50v0C7.3,26.4,26.4,7.3,50,7.3h0c23.6,0,42.7,19.1,42.7,42.7v0
		C92.7,73.6,73.6,92.7,50,92.7z"/>
	<g>
		<path class="st28" d="M62.8,56.1c-0.4,3.5-1.7,6.3-3.9,8.2c-2.2,1.9-5.1,2.9-8.7,2.9c-3.9,0-7.1-1.4-9.5-4.2
			c-2.4-2.8-3.6-6.6-3.6-11.3v-3.2c0-3.1,0.6-5.8,1.7-8.2c1.1-2.4,2.7-4.2,4.7-5.4c2-1.3,4.4-1.9,7.1-1.9c3.5,0,6.4,1,8.5,3
			c2.1,2,3.4,4.7,3.7,8.2h-4.4c-0.4-2.7-1.2-4.6-2.5-5.8c-1.3-1.2-3.1-1.8-5.4-1.8c-2.8,0-5,1-6.6,3.1s-2.4,5-2.4,8.9v3.2
			c0,3.6,0.8,6.5,2.3,8.6c1.5,2.1,3.6,3.2,6.3,3.2c2.4,0,4.3-0.6,5.6-1.7c1.3-1.1,2.2-3,2.6-5.8H62.8z"/>
	</g>
</g>
</svg>
