<svg id="Layer_1" data-name="Layer 1" xmlns="http://www.w3.org/2000/svg" xmlns:xlink="http://www.w3.org/1999/xlink" viewBox="0 0 3456 157.4"><defs><style>.cls-1{fill:#1f2020;}.cls-2{fill:#3c3c3c;}.cls-3{fill:#282828;}.cls-4{fill:#ed6055;}.cls-5{fill:#65cc58;}.cls-6{fill:#f6be4f;}.cls-10,.cls-12,.cls-13,.cls-14,.cls-17,.cls-7,.cls-9{fill:none;}.cls-10,.cls-11,.cls-13,.cls-14,.cls-7,.cls-8,.cls-9{stroke:#fff;}.cls-10,.cls-11,.cls-12,.cls-13,.cls-14,.cls-7,.cls-8,.cls-9{stroke-miterlimit:10;}.cls-7{stroke-width:2.5px;}.cls-11,.cls-15,.cls-19,.cls-8{fill:#fff;}.cls-8{stroke-width:0.67px;}.cls-9{stroke-width:1.82px;}.cls-10,.cls-11{stroke-width:2.13px;}.cls-12{stroke:#ccc;stroke-width:2px;}.cls-13{stroke-width:1.52px;}.cls-14{stroke-width:1.32px;}.cls-15{isolation:isolate;font-size:22.68px;font-family:Roboto-Regular, Roboto;}.cls-16{fill:url(#linear-gradient);}.cls-18{fill:#9e50b5;}</style><linearGradient id="linear-gradient" x1="489.9" y1="181" x2="558" y2="181" gradientTransform="matrix(1, 0, 0, -1, 0, 216.7)" gradientUnits="userSpaceOnUse"><stop offset="0" stop-color="#3c3c3c" stop-opacity="0"/><stop offset="0.12" stop-color="#3c3c3c" stop-opacity="0.12"/><stop offset="0.98" stop-color="#3c3c3c"/></linearGradient></defs><rect class="cls-1" width="3456" height="96.4"/><path class="cls-2" d="M11,69.6H3445a11,11,0,0,1,11,11v76.8H0V80.6A11,11,0,0,1,11,69.6Z"/><path class="cls-3" d="M260.8,147.1H3275.6a33.59,33.59,0,0,0,33.6-33.5v-.1h0a33.59,33.59,0,0,0-33.5-33.6H260.8a33.59,33.59,0,0,0-33.6,33.5v.1h0a33.59,33.59,0,0,0,33.5,33.6Z"/><path class="cls-4" d="M38.1,42.4h0A11.18,11.18,0,0,1,26.9,31.2h0A11.18,11.18,0,0,1,38.1,20h0A11.18,11.18,0,0,1,49.3,31.2h0A11.18,11.18,0,0,1,38.1,42.4Z"/><path class="cls-5" d="M112.1,42.4h0a11.18,11.18,0,0,1-11.2-11.2h0A11.18,11.18,0,0,1,112.1,20h0a11.18,11.18,0,0,1,11.2,11.2h0a11.18,11.18,0,0,1-11.2,11.2Z"/><path class="cls-6" d="M75.1,42.4h0A11.18,11.18,0,0,1,63.9,31.2h0A11.18,11.18,0,0,1,75.1,20h0A11.18,11.18,0,0,1,86.3,31.2h0A11.18,11.18,0,0,1,75.1,42.4Z"/><path class="cls-7" d="M44,122.6,33.9,112.5v-.1L44,102.3"/><line class="cls-7" x1="33.9" y1="112.4" x2="53.9" y2="112.4"/><path class="cls-8" d="M182.6,121.7a10.14,10.14,0,1,1,3.8-15.5v-3.8h1.1v5.1c0,.6-.2.7-.7.7h-5.1V107h4.1a9,9,0,0,0-10.2-3.3,9.07,9.07,0,1,0,11.8,7.1c.3-.1.7-.1,1-.2A10.27,10.27,0,0,1,182.6,121.7Z"/><path class="cls-7" d="M110.8,102.3l10.1,10.1v.1l-10.1,10.1"/><line class="cls-7" x1="121" y1="112.4" x2="100.9" y2="112.4"/><path class="cls-2" d="M258.6,134.7h0a21.94,21.94,0,0,1-22-22h0a21.94,21.94,0,0,1,22-22h0a21.94,21.94,0,0,1,22,22h0A22.2,22.2,0,0,1,258.6,134.7Z"/><path class="cls-9" d="M252.6,109.6h0a3.69,3.69,0,0,1-3.7-3.7h0a3.69,3.69,0,0,1,3.7-3.7h0a3.69,3.69,0,0,1,3.7,3.7h0A3.76,3.76,0,0,1,252.6,109.6Z"/><line class="cls-9" x1="258.4" y1="105.9" x2="267.6" y2="105.9"/><path class="cls-9" d="M264.1,113h0a3.69,3.69,0,0,1,3.7,3.7h0a3.69,3.69,0,0,1-3.7,3.7h0a3.69,3.69,0,0,1-3.7-3.7h0A3.67,3.67,0,0,1,264,113Z"/><line class="cls-9" x1="258.2" y1="116.7" x2="249.1" y2="116.7"/><path class="cls-2" d="M3423.3,58.3H3404A15.3,15.3,0,0,1,3388.7,43h0V23.7A15.36,15.36,0,0,1,3404,8.4h19.3a15.3,15.3,0,0,1,15.3,15.3h0V43A15.5,15.5,0,0,1,3423.3,58.3Z"/><path class="cls-10" d="M3420.6,29.9l-6.8,6.8a.19.19,0,0,1-.3,0h0l-6.8-6.8"/><path class="cls-11" d="M3413.6,104.1h0a1.32,1.32,0,0,1-1.3-1.3h0a1.32,1.32,0,0,1,1.3-1.3h0a1.32,1.32,0,0,1,1.3,1.3h0a1.16,1.16,0,0,1-1.1,1.3Z"/><path class="cls-11" d="M3413.6,113.9h0a1.32,1.32,0,0,1-1.3-1.3h0a1.32,1.32,0,0,1,1.3-1.3h0a1.32,1.32,0,0,1,1.3,1.3h0a1.16,1.16,0,0,1-1.1,1.3Z"/><path class="cls-11" d="M3413.6,123.7h0a1.32,1.32,0,0,1-1.3-1.3h0a1.32,1.32,0,0,1,1.3-1.3h0a1.32,1.32,0,0,1,1.3,1.3h0a1.16,1.16,0,0,1-1.1,1.3Z"/><polygon class="cls-12" points="3267.7 99.5 3271.6 107.5 3280.4 108.8 3274 115 3275.6 123.8 3267.7 119.6 3259.8 123.8 3261.3 115 3254.9 108.8 3263.7 107.5 3267.7 99.5"/><path class="cls-2" d="M173.1,6.2H589.3A13.83,13.83,0,0,1,603.1,20V69.7H159.3V19.9A13.74,13.74,0,0,1,173.1,6.2Z"/><path class="cls-2" d="M145.5,69.6h13.8V55.9a13.74,13.74,0,0,1-13.8,13.7Z"/><path class="cls-2" d="M603.1,55.9V69.7h13.8A13.83,13.83,0,0,1,603.1,55.9Z"/><line class="cls-13" x1="571.8" y1="39.2" x2="560.4" y2="27.8"/><line class="cls-13" x1="571.8" y1="27.8" x2="560.4" y2="39.2"/><line class="cls-14" x1="628.5" y1="40.6" x2="628.5" y2="26.4"/><line class="cls-14" x1="635.6" y1="33.5" x2="621.5" y2="33.5"/><text class="cls-15" transform="translate(213.36 40.12)">The Dock</text><rect class="cls-16" x="489.9" y="9.8" width="68.1" height="51.8"/><rect class="cls-17" x="299.7" y="79.9" width="416.2" height="67.2"/><path class="cls-18" d="M3350.4,131.8h0a19.2,19.2,0,0,1-19.2-19.2h0a19.2,19.2,0,0,1,19.2-19.2h0a19.2,19.2,0,0,1,19.2,19.2h0A19.2,19.2,0,0,1,3350.4,131.8Z"/><path class="cls-19" d="M3354,113.1h-5.9v5.5h6.6v1.6h-8.6V104.9h8.3v1.6h-6.3v4.8h5.9Z"/><path d="M173.86,38.58a5.31,5.31,0,0,0,1-2.57c.08-.91.08-1.9.08-2.8v-.08h-.83a2,2,0,0,0-.68.08.86.86,0,0,0-.61.22,1.59,1.59,0,0,0-.76,1.06,1.4,1.4,0,0,0,0,.76h-.68a4,4,0,0,1-.45-3,5.62,5.62,0,0,1,.68-1.52,3.34,3.34,0,0,1,1.29-1,6.4,6.4,0,0,1,2-.53v-.91a5.33,5.33,0,0,1,.08-1.13,2.51,2.51,0,0,1,.45-1.06,4.21,4.21,0,0,1,1.74-1.52l2.8-1.81h-5a2.13,2.13,0,0,1-1-.16,1.91,1.91,0,0,1-.83-.53,2.63,2.63,0,0,1-.61-1.21,12.05,12.05,0,0,1-.15-1.59,8.52,8.52,0,0,1,.38-2.72h.76a1.41,1.41,0,0,0,.38.76,2.2,2.2,0,0,0,.6.53,1.54,1.54,0,0,0,.83.22,3,3,0,0,0,.84.08h9.69a10.65,10.65,0,0,1,4.39.68,7.66,7.66,0,0,1,3.4,2.8A13.65,13.65,0,0,1,196,29a21.55,21.55,0,0,1-.83,7.34,22.45,22.45,0,0,1-1.44,3.78L184.76,45a11,11,0,0,0-5.9-2,10.72,10.72,0,0,0-7.42,2.72h-1a12.83,12.83,0,0,1,7.35-6.13,24.14,24.14,0,0,0,1.81-2,9.2,9.2,0,0,0,1-1.59,4.72,4.72,0,0,0,.22-1.81V27.83a8.55,8.55,0,0,1,.46-3.33,6.13,6.13,0,0,1,1.13-1.89h-1.13a6,6,0,0,0-1.36,1.74,5.21,5.21,0,0,0-.31,2.19V33a6.46,6.46,0,0,1-.22,2,5,5,0,0,1-.91,1.9,9,9,0,0,1-5.38,3.48l-.3-.84A6.17,6.17,0,0,0,173.86,38.58Zm9.77-15.82a4.48,4.48,0,0,0-1.52,2,9.7,9.7,0,0,0-.38,3v6.43a7.6,7.6,0,0,1-.3,2.2,6,6,0,0,1-1.14,1.89c-.22.3-.53.6-.75.91a12.22,12.22,0,0,1,4.09.07Zm1.06,7,5.9-2.95a6.93,6.93,0,0,0-1.36-2.42A4.37,4.37,0,0,0,187.11,23a8.26,8.26,0,0,0-2.35-.31C184.69,25,184.69,27.38,184.69,29.8Zm0,3.86,6.43-3.25V30c-.08-.76-.15-1.44-.3-2.2l-6.13,3.11Zm4.46,8A25,25,0,0,0,190.74,36a28.39,28.39,0,0,0,.38-4.39l-6.51,3.25v4.62A11.1,11.1,0,0,1,189.15,41.68Z"/></svg>