<?xml version="1.0" encoding="utf-8"?>
<!-- Generator: Adobe Illustrator 26.0.1, SVG Export Plug-In . SVG Version: 6.00 Build 0)  -->
<svg version="1.1" id="Layer_1" xmlns="http://www.w3.org/2000/svg" xmlns:xlink="http://www.w3.org/1999/xlink" x="0px" y="0px"
	 viewBox="0 0 3456 157.4" style="enable-background:new 0 0 3456 157.4;" xml:space="preserve">
<style type="text/css">
	.st0{fill:#1F2020;}
	.st1{fill:#3C3C3C;}
	.st2{fill:#282828;}
	.st3{fill:#ED6055;}
	.st4{fill:#65CC58;}
	.st5{fill:#F6BE4F;}
	.st6{fill:none;stroke:#FFFFFF;stroke-width:2.5;stroke-miterlimit:10;}
	.st7{fill:#FFFFFF;stroke:#FFFFFF;stroke-width:0.67;stroke-miterlimit:10;}
	.st8{fill:none;stroke:#FFFFFF;stroke-width:1.82;stroke-miterlimit:10;}
	.st9{fill:none;stroke:#FFFFFF;stroke-width:2.13;stroke-miterlimit:10;}
	.st10{fill:#FFFFFF;stroke:#FFFFFF;stroke-width:2.13;stroke-miterlimit:10;}
	.st11{fill:none;stroke:#CCCCCC;stroke-width:2;stroke-miterlimit:10;}
	.st12{fill:none;stroke:#FFFFFF;stroke-width:1.52;stroke-miterlimit:10;}
	.st13{fill:none;stroke:#FFFFFF;stroke-width:1.32;stroke-miterlimit:10;}
	.st14{fill:#FFFFFF;}
	.st15{font-family:'Roboto-Regular';}
	.st16{font-size:22.68px;}
	.st17{fill:url(#SVGID_1_);}
	.st18{fill:none;}
	.st19{fill:#9E50B5;}
</style>
<rect class="st0" width="3456" height="96.4"/>
<path class="st1" d="M11,69.6h3434c6.1,0,11,4.9,11,11v76.8H0V80.6C0,74.5,4.9,69.6,11,69.6z"/>
<path class="st2" d="M260.8,147.1h3014.8c18.5,0,33.6-15,33.6-33.5v-0.1l0,0c0-18.5-15-33.6-33.5-33.6h-0.1H260.8
	c-18.5,0-33.6,15-33.6,33.5v0.1l0,0c0,18.5,15,33.6,33.5,33.6C260.7,147.1,260.8,147.1,260.8,147.1z"/>
<path class="st3" d="M38.1,42.4L38.1,42.4c-6.2,0-11.2-5-11.2-11.2l0,0l0,0c0-6.2,5-11.2,11.2-11.2l0,0l0,0c6.2,0,11.2,5,11.2,11.2
	l0,0l0,0C49.3,37.4,44.3,42.4,38.1,42.4L38.1,42.4z"/>
<path class="st4" d="M112.1,42.4L112.1,42.4c-6.2,0-11.2-5-11.2-11.2l0,0l0,0c0-6.2,5-11.2,11.2-11.2l0,0l0,0
	c6.2,0,11.2,5,11.2,11.2l0,0l0,0C123.3,37.4,118.3,42.4,112.1,42.4L112.1,42.4z"/>
<path class="st5" d="M75.1,42.4L75.1,42.4c-6.2,0-11.2-5-11.2-11.2l0,0l0,0c0-6.2,5-11.2,11.2-11.2l0,0l0,0c6.2,0,11.2,5,11.2,11.2
	l0,0l0,0C86.3,37.4,81.3,42.4,75.1,42.4L75.1,42.4z"/>
<path class="st6" d="M44,122.6l-10.1-10.1v-0.1L44,102.3"/>
<line class="st6" x1="33.9" y1="112.4" x2="53.9" y2="112.4"/>
<path class="st7" d="M182.6,121.7c-5.1,2.3-11.1,0-13.4-5.1s0-11.1,5.1-13.4c4.2-1.9,9.2-0.7,12.1,3v-3.8h1.1v5.1
	c0,0.6-0.2,0.7-0.7,0.7h-5.1V107h4.1c-2.3-3.2-6.4-4.6-10.2-3.3c-4.5,1.5-7.1,6.3-5.9,10.9c1.3,4.8,6.2,7.7,11,6.5
	c4.6-1.2,7.4-5.7,6.7-10.3c0.3-0.1,0.7-0.1,1-0.2C189.2,115.2,186.8,119.8,182.6,121.7z"/>
<path class="st6" d="M110.8,102.3l10.1,10.1v0.1l-10.1,10.1"/>
<line class="st6" x1="121" y1="112.4" x2="100.9" y2="112.4"/>
<path class="st1" d="M258.6,134.7L258.6,134.7c-12.2,0-22-9.8-22-22l0,0c0-12.2,9.8-22,22-22l0,0c12.2,0,22,9.8,22,22l0,0
	C280.5,124.8,270.7,134.6,258.6,134.7z"/>
<path class="st8" d="M252.6,109.6L252.6,109.6c-2,0-3.7-1.6-3.7-3.7l0,0l0,0c0-2,1.6-3.7,3.7-3.7l0,0l0,0c2,0,3.7,1.6,3.7,3.7l0,0
	l0,0C256.3,107.9,254.6,109.6,252.6,109.6z"/>
<line class="st8" x1="258.4" y1="105.9" x2="267.6" y2="105.9"/>
<path class="st8" d="M264.1,113L264.1,113c2,0,3.7,1.6,3.7,3.7l0,0l0,0c0,2-1.6,3.7-3.7,3.7l0,0l0,0c-2,0-3.7-1.6-3.7-3.7l0,0l0,0
	c0-2,1.6-3.7,3.6-3.7H264.1z"/>
<line class="st8" x1="258.2" y1="116.7" x2="249.1" y2="116.7"/>
<path class="st1" d="M3423.3,58.3H3404c-8.4,0-15.3-6.8-15.3-15.3l0,0V23.7c0-8.4,6.9-15.3,15.3-15.3l0,0h19.3
	c8.4,0,15.3,6.8,15.3,15.3l0,0V43C3438.5,51.4,3431.7,58.2,3423.3,58.3z"/>
<path class="st9" d="M3420.6,29.9l-6.8,6.8c-0.1,0.1-0.2,0.1-0.3,0l0,0l-6.8-6.8"/>
<path class="st10" d="M3413.6,104.1L3413.6,104.1c-0.7,0-1.3-0.6-1.3-1.3l0,0c0-0.7,0.6-1.3,1.3-1.3l0,0c0.7,0,1.3,0.6,1.3,1.3l0,0
	c0.1,0.7-0.4,1.2-1.1,1.3C3413.7,104.1,3413.7,104.1,3413.6,104.1z"/>
<path class="st10" d="M3413.6,113.9L3413.6,113.9c-0.7,0-1.3-0.6-1.3-1.3l0,0c0-0.7,0.6-1.3,1.3-1.3l0,0c0.7,0,1.3,0.6,1.3,1.3l0,0
	c0.1,0.7-0.4,1.2-1.1,1.3C3413.7,113.9,3413.7,113.9,3413.6,113.9z"/>
<path class="st10" d="M3413.6,123.7L3413.6,123.7c-0.7,0-1.3-0.6-1.3-1.3l0,0c0-0.7,0.6-1.3,1.3-1.3l0,0c0.7,0,1.3,0.6,1.3,1.3l0,0
	c0.1,0.7-0.4,1.2-1.1,1.3C3413.7,123.7,3413.7,123.7,3413.6,123.7z"/>
<polygon class="st11" points="3267.7,99.5 3271.6,107.5 3280.4,108.8 3274,115 3275.6,123.8 3267.7,119.6 3259.8,123.8 3261.3,115 
	3254.9,108.8 3263.7,107.5 "/>
<path class="st1" d="M173.1,6.2h416.2c7.6,0,13.8,6.2,13.8,13.8v49.7H159.3V19.9C159.3,12.3,165.5,6.2,173.1,6.2L173.1,6.2z"/>
<path class="st1" d="M145.5,69.6h13.8V55.9C159.3,63.5,153.1,69.6,145.5,69.6L145.5,69.6z"/>
<path class="st1" d="M603.1,55.9v13.8h13.8C609.3,69.7,603.1,63.5,603.1,55.9z"/>
<line class="st12" x1="571.8" y1="39.2" x2="560.4" y2="27.8"/>
<line class="st12" x1="571.8" y1="27.8" x2="560.4" y2="39.2"/>
<line class="st13" x1="628.5" y1="40.6" x2="628.5" y2="26.4"/>
<line class="st13" x1="635.6" y1="33.5" x2="621.5" y2="33.5"/>
<text transform="matrix(1 0 0 1 213.36 40.12)" class="st14 st15 st16">TheDock</text>
<linearGradient id="SVGID_1_" gradientUnits="userSpaceOnUse" x1="489.9" y1="181" x2="558" y2="181" gradientTransform="matrix(1 0 0 -1 0 216.7)">
	<stop  offset="0" style="stop-color:#3C3C3C;stop-opacity:0"/>
	<stop  offset="0.12" style="stop-color:#3C3C3C;stop-opacity:0.12"/>
	<stop  offset="0.98" style="stop-color:#3C3C3C"/>
</linearGradient>
<rect x="489.9" y="9.8" class="st17" width="68.1" height="51.8"/>
<rect x="299.7" y="79.9" class="st18" width="416.2" height="67.2"/>
<g>
	<path class="st19" d="M3350.4,131.8L3350.4,131.8c-10.6,0-19.2-8.6-19.2-19.2l0,0c0-10.6,8.6-19.2,19.2-19.2l0,0
		c10.6,0,19.2,8.6,19.2,19.2l0,0C3369.6,123.2,3361,131.8,3350.4,131.8z"/>
	<g>
		<path class="st14" d="M3354,113.1h-5.9v5.5h6.6v1.6h-8.6v-15.3h8.3v1.6h-6.3v4.8h5.9V113.1z"/>
	</g>
</g>
<path d="M173.9,38.6c0.6-0.8,0.8-1.7,1-2.6c0.1-0.9,0.1-1.9,0.1-2.8v-0.1c-0.3,0-0.6,0-0.8,0c-0.2,0-0.5,0-0.7,0.1
	c-0.2,0-0.5,0.1-0.6,0.2c-0.4,0.2-0.7,0.6-0.8,1.1c-0.1,0.2-0.1,0.5,0,0.8h-0.7c-0.5-0.9-0.7-2-0.5-3c0.2-0.5,0.4-1.1,0.7-1.5
	c0.4-0.5,0.8-0.8,1.3-1c0.6-0.3,1.4-0.5,2-0.5v-0.9c0-0.4,0-0.8,0.1-1.1c0.1-0.4,0.2-0.8,0.5-1.1c0.4-0.7,1.1-1.1,1.7-1.5l2.8-1.8
	h-5c-0.3,0-0.7,0-1-0.2c-0.3-0.1-0.6-0.3-0.8-0.5c-0.3-0.4-0.5-0.8-0.6-1.2c-0.1-0.5-0.2-1.1-0.2-1.6c0-0.9,0.1-1.8,0.4-2.7h0.8
	c0.1,0.3,0.2,0.5,0.4,0.8c0.2,0.2,0.4,0.4,0.6,0.5c0.2,0.2,0.5,0.2,0.8,0.2c0.3,0.1,0.5,0.1,0.8,0.1h9.7c1.5,0,3,0.1,4.4,0.7
	c1.4,0.5,2.6,1.6,3.4,2.8c1.5,2.1,2.1,4.7,2.3,7.3c0.2,2.5-0.2,5-0.8,7.3c-0.4,1.3-0.8,2.6-1.4,3.8l-8.9,4.9c-1.7-1.2-3.8-1.9-5.9-2
	c-2.7-0.1-5.4,0.9-7.4,2.7h-1c1.5-2.9,4.2-5.1,7.3-6.1c0.6-0.6,1.3-1.3,1.8-2c0.4-0.5,0.8-1.1,1-1.6s0.2-1.1,0.2-1.8v-3.6v-2.8
	c0-1.1,0-2.2,0.5-3.3c0.2-0.7,0.7-1.4,1.1-1.9h-1.1c-0.5,0.5-1.1,1.1-1.4,1.7c-0.3,0.7-0.3,1.4-0.3,2.2v2.8V33c0,0.7,0,1.4-0.2,2
	c-0.2,0.7-0.5,1.3-0.9,1.9c-1.2,1.8-3.3,3-5.4,3.5l-0.3-0.8C173.2,39.3,173.6,39,173.9,38.6z M183.6,22.8c-0.7,0.5-1.2,1.2-1.5,2
	c-0.3,0.9-0.4,2-0.4,3v2.8v3.6c0,0.7-0.1,1.4-0.3,2.2c-0.2,0.7-0.7,1.4-1.1,1.9c-0.2,0.3-0.5,0.6-0.8,0.9c1.4-0.2,2.7-0.2,4.1,0.1
	C183.6,33.7,183.6,28.3,183.6,22.8z M184.7,29.8l5.9-3c-0.3-0.9-0.8-1.7-1.4-2.4c-0.6-0.7-1.3-1.2-2.1-1.4c-0.8-0.2-1.6-0.3-2.3-0.3
	C184.7,25,184.7,27.4,184.7,29.8z M184.7,33.7l6.4-3.3c0-0.2,0-0.2,0-0.4c-0.1-0.8-0.2-1.4-0.3-2.2l-6.1,3.1V33.7z M189.2,41.7
	c0.8-1.8,1.3-3.8,1.6-5.7c0.2-1.4,0.4-3,0.4-4.4l-6.5,3.3v4.6C186.3,39.9,187.9,40.6,189.2,41.7z"/>
</svg>
