<?xml version="1.0" encoding="utf-8"?>
<!-- Generator: Adobe Illustrator 25.4.8, SVG Export Plug-In . SVG Version: 6.00 Build 0)  -->
<svg version="1.1" id="Layer_1" xmlns="http://www.w3.org/2000/svg" xmlns:xlink="http://www.w3.org/1999/xlink" x="0px" y="0px"
	 viewBox="0 0 100 100" style="enable-background:new 0 0 100 100;" xml:space="preserve">
<style type="text/css">
	.st0{fill:none;stroke:#808080;stroke-width:4.7684;stroke-miterlimit:10;}
	.st1{fill:#92B4F3;}
	.st2{fill:#92B4F3;stroke:#92B4F3;stroke-width:8.6079;stroke-miterlimit:10;}
	.st3{fill:#4185F4;}
	.st4{fill:#FABB02;}
	.st5{fill:#35A752;}
	.st6{fill:#EA4033;}
	.st7{fill:#5186ED;}
	.st8{fill:#58A55D;}
	.st9{fill:#F2BD42;}
	.st10{fill:#D95040;}
	.st11{fill:none;stroke:#B3B3B3;stroke-width:6.3578;stroke-miterlimit:10;}
</style>
<line class="st0" x1="-43.1" y1="-3.3" x2="-43.1" y2="116.6"/>
<g>
	<path class="st1" d="M412,29.3c-5.2-5.2-12.3-8.4-20.2-8.4c-7.9,0-15,3.2-20.2,8.4c-5.2,5.2-8.4,12.3-8.4,20.2
		c0,15.8,12.8,28.6,28.6,28.6c7.9,0,15-3.2,20.2-8.4c5.2-5.2,8.4-12.3,8.4-20.2S417.2,34.5,412,29.3z M406.3,63.9
		c-3.7,3.7-8.8,6-14.4,6c-11.3,0-20.4-9.2-20.4-20.4c0-5.6,2.3-10.7,6-14.4c3.7-3.7,8.8-6,14.4-6c5.7,0,10.7,2.3,14.4,6
		c3.7,3.7,6,8.8,6,14.4S409.9,60.3,406.3,63.9z"/>
	<line class="st2" x1="411.1" y1="68.5" x2="435.1" y2="92.3"/>
</g>
<g>
	<path class="st3" d="M50,7.2L50,7.2c7.2,0,13.1,5.9,13.1,13.1V50c0,7.2-5.9,13.1-13.1,13.1h0c-7.2,0-13.1-5.9-13.1-13.1V20.3
		C36.9,13,42.8,7.2,50,7.2z"/>
	<g>
		<path class="st4" d="M35.2,65.5l-6,5.9c-5.4-5.4-8.8-12.8-8.8-21.1h8.8c0,0.2,0,0.4,0,0.5C29.2,56.6,31.5,61.7,35.2,65.5z"/>
		<polyline class="st5" points="54.1,79.6 54.1,92.8 46,92.8 46,79.7 		"/>
		<path class="st6" d="M79.6,50.3c0,8.2-3.3,15.6-8.7,20.9c-4.4,4.4-10.3,7.5-16.8,8.4c-1.4,0.2-2.7,0.3-4.1,0.3
			c-1.3,0-2.7-0.1-4-0.3c-6.5-0.9-12.4-3.9-16.8-8.3l6-5.9c3.8,3.8,9,6.2,14.8,6.2c5.7,0,10.9-2.3,14.7-6.1c3.8-3.8,6.1-9,6.1-14.7
			c0-0.2,0-0.4,0-0.5H79.6z"/>
	</g>
</g>
<g>
	<path class="st7" d="M244.7,28.7h-32.3l6.3-8c0.9-1.1,2.2-1.7,3.7-1.7h13.7c1.4,0,2.7,0.7,3.5,1.9L244.7,28.7z"/>
	<path class="st7" d="M242,61.5c0,3.7-1.5,7-3.9,9.4c-2.4,2.4-5.8,3.9-9.4,3.9c-7.4,0-13.4-6-13.4-13.4c0-3.7,1.5-7,3.9-9.4
		c2.4-2.4,5.8-3.9,9.4-3.9c3.7,0,7,1.5,9.4,3.9C240.5,54.5,242,57.8,242,61.5z"/>
	<path class="st8" d="M262.9,82.2c0,2.2-0.9,4.3-2.4,5.8c-1.5,1.5-3.5,2.4-5.8,2.4c-2.7,0-5.1-1.3-6.6-3.4c-1-1.3-1.5-3-1.5-4.8
		c0-2.2,0.9-4.3,2.4-5.7c1.5-1.5,3.5-2.4,5.8-2.4c1.4,0,2.7,0.4,3.9,1c0.7,0.4,1.3,0.9,1.9,1.4C262,77.9,262.9,80,262.9,82.2z"/>
	<path class="st7" d="M249,36.1c-0.5-0.1-1.1-0.1-1.7-0.1h-42.7c-3.1,0-5.6,2.5-5.6,5.6V55h-8.6V43.3c0-8.1,6.5-14.6,14.6-14.6h39.7
		L249,36.1z"/>
	<path class="st9" d="M267.2,43.3v18.2h-8.5V47.3c0-10.9-0.2-11.2-9.6-11.2l-4.3-7.4h7.9C260.7,28.7,267.2,35.2,267.2,43.3z"/>
	<path class="st10" d="M228.8,87v7.3H205c-8.1,0-14.6-6.5-14.6-14.6V67.7h8.6v14.1c0,2.9,2.3,5.2,5.2,5.2H228.8z"/>
</g>
<g>
	<line class="st11" x1="-172.1" y1="29.6" x2="-118" y2="83.7"/>
	<line class="st11" x1="-172.1" y1="83.7" x2="-118" y2="29.6"/>
</g>
</svg>
