<?xml version="1.0" encoding="utf-8"?>
<!-- Generator: Adobe Illustrator 25.4.8, SVG Export Plug-In . SVG Version: 6.00 Build 0)  -->
<svg version="1.1" id="Layer_1" xmlns="http://www.w3.org/2000/svg" xmlns:xlink="http://www.w3.org/1999/xlink" x="0px" y="0px"
	 viewBox="0 0 100 100" style="enable-background:new 0 0 100 100;" xml:space="preserve">
<style type="text/css">
	.st0{fill:none;stroke:#808080;stroke-width:4.7684;stroke-miterlimit:10;}
	.st1{fill:#92B4F3;}
	.st2{fill:#92B4F3;stroke:#92B4F3;stroke-width:8.6079;stroke-miterlimit:10;}
	.st3{fill:#4185F4;}
	.st4{fill:#FABB02;}
	.st5{fill:#35A752;}
	.st6{fill:#EA4033;}
	.st7{fill:#5186ED;}
	.st8{fill:#58A55D;}
	.st9{fill:#F2BD42;}
	.st10{fill:#D95040;}
	.st11{fill:none;stroke:#B3B3B3;stroke-width:6.3578;stroke-miterlimit:10;}
</style>
<g>
	<path class="st7" d="M65.9,22H33.7l6.3-8c0.9-1.1,2.2-1.7,3.7-1.7h13.7c1.4,0,2.7,0.7,3.5,1.9L65.9,22z"/>
	<path class="st7" d="M63.2,54.9c0,3.7-1.5,7-3.9,9.4c-2.4,2.4-5.8,3.9-9.4,3.9c-7.4,0-13.4-6-13.4-13.4c0-3.7,1.5-7,3.9-9.4
		c2.4-2.4,5.8-3.9,9.4-3.9c3.7,0,7,1.5,9.4,3.9C61.7,47.8,63.2,51.2,63.2,54.9z"/>
	<path class="st8" d="M84.1,75.6c0,2.2-0.9,4.3-2.4,5.8c-1.5,1.5-3.5,2.4-5.8,2.4c-2.7,0-5.1-1.3-6.6-3.4c-1-1.3-1.5-3-1.5-4.8
		c0-2.2,0.9-4.3,2.4-5.7c1.5-1.5,3.5-2.4,5.8-2.4c1.4,0,2.7,0.4,3.9,1c0.7,0.4,1.3,0.9,1.9,1.4C83.2,71.3,84.1,73.3,84.1,75.6z"/>
	<path class="st7" d="M70.2,29.5c-0.5-0.1-1.1-0.1-1.7-0.1H25.8c-3.1,0-5.6,2.5-5.6,5.6v13.4h-8.6V36.6c0-8.1,6.5-14.6,14.6-14.6
		h39.7L70.2,29.5z"/>
	<path class="st9" d="M88.4,36.6v18.2h-8.5V40.7c0-10.9-0.2-11.2-9.6-11.2L65.9,22h7.9C81.8,22,88.4,28.6,88.4,36.6z"/>
	<path class="st10" d="M50,80.4v7.3H26.2c-8.1,0-14.6-6.5-14.6-14.6V61.1h8.6v14.1c0,2.9,2.3,5.2,5.2,5.2H50z"/>
</g>
</svg>
