<svg id="Layer_1" data-name="Layer 1" xmlns="http://www.w3.org/2000/svg" viewBox="0 0 923.08 303.86"><defs><style>.cls-1{fill:#ea4335;}.cls-2{fill:#fbbc05;}.cls-3{fill:#4285f4;}.cls-4{fill:#34a853;}</style></defs><path class="cls-1" d="M533.48,408c0,43.71-34.2,75.93-76.17,75.93S381.14,451.69,381.14,408c0-44,34.2-75.93,76.17-75.93S533.48,364,533.48,408Zm-33.34,0c0-27.32-19.82-46-42.83-46s-42.82,18.69-42.82,46c0,27,19.82,46,42.82,46S500.14,435,500.14,408Z" transform="translate(-138.46 -248.07)"/><path class="cls-2" d="M697.81,408c0,43.71-34.2,75.93-76.17,75.93S545.47,451.69,545.47,408c0-44,34.2-75.93,76.17-75.93S697.81,364,697.81,408Zm-33.35,0c0-27.32-19.82-46-42.82-46s-42.83,18.69-42.83,46c0,27,19.82,46,42.83,46S664.46,435,664.46,408Z" transform="translate(-138.46 -248.07)"/><path class="cls-3" d="M855.28,336.63V473c0,56.08-33.07,79-72.16,79-36.81,0-59-24.61-67.31-44.74l29-12.09C750,507.46,762.68,522,783.08,522c25,0,40.53-15.44,40.53-44.5V466.62h-1.16c-7.46,9.21-21.84,17.25-40,17.25-38,0-72.75-33.07-72.75-75.62,0-42.86,34.78-76.2,72.75-76.2,18.11,0,32.48,8,40,17h1.16V336.67h31.67ZM826,408.25c0-26.74-17.84-46.28-40.54-46.28-23,0-42.27,19.54-42.27,46.28,0,26.46,19.27,45.74,42.27,45.74C808.14,454,826,434.71,826,408.25Z" transform="translate(-138.46 -248.07)"/><path class="cls-4" d="M907.49,256.73V479.25H875V256.73Z" transform="translate(-138.46 -248.07)"/><path class="cls-1" d="M1034.22,433l25.88,17.25c-8.35,12.36-28.48,33.65-63.26,33.65-43.14,0-75.35-33.34-75.35-75.93,0-45.15,32.49-75.93,71.62-75.93,39.4,0,58.67,31.36,65,48.31l3.46,8.62L960,431c7.77,15.24,19.85,23,36.8,23s28.75-8.36,37.38-21Zm-79.66-27.32,67.85-28.18c-3.73-9.48-15-16.09-28.18-16.09C977.29,361.38,953.7,376.34,954.56,405.65Z" transform="translate(-138.46 -248.07)"/><path class="cls-3" d="M258,388.22V356H366.59a105.94,105.94,0,0,1,1.61,19.44c0,24.17-6.6,54.06-27.9,75.35-20.71,21.57-47.17,33.07-82.23,33.07-65,0-119.61-52.92-119.61-117.9s54.64-117.9,119.61-117.9c35.95,0,61.56,14.11,80.8,32.49l-22.74,22.73c-13.79-12.94-32.48-23-58.09-23-47.45,0-84.56,38.24-84.56,85.69s37.11,85.69,84.56,85.69c30.78,0,48.3-12.36,59.53-23.59,9.11-9.1,15.1-22.11,17.46-39.88Z" transform="translate(-138.46 -248.07)"/></svg>