<?xml version="1.0" encoding="utf-8"?>
<!-- Generator: Adobe Illustrator 25.4.8, SVG Export Plug-In . SVG Version: 6.00 Build 0)  -->
<svg version="1.1" id="Layer_1" xmlns="http://www.w3.org/2000/svg" xmlns:xlink="http://www.w3.org/1999/xlink" x="0px" y="0px"
	 viewBox="0 0 100 100" style="enable-background:new 0 0 100 100;" xml:space="preserve">
<style type="text/css">
	.st0{fill:none;stroke:#808080;stroke-width:4.7684;stroke-miterlimit:10;}
	.st1{fill:#92B4F3;}
	.st2{fill:#92B4F3;stroke:#92B4F3;stroke-width:8.6079;stroke-miterlimit:10;}
	.st3{fill:#4185F4;}
	.st4{fill:#FABB02;}
	.st5{fill:#35A752;}
	.st6{fill:#EA4033;}
	.st7{fill:#5186ED;}
	.st8{fill:#58A55D;}
	.st9{fill:#F2BD42;}
	.st10{fill:#D95040;}
	.st11{fill:none;stroke:#B3B3B3;stroke-width:6.3578;stroke-miterlimit:10;}
</style>
<g>
	<path class="st1" d="M62.9,22.7c-5.2-5.2-12.3-8.4-20.2-8.4c-7.9,0-15,3.2-20.2,8.4c-5.2,5.2-8.4,12.3-8.4,20.2
		c0,15.8,12.8,28.6,28.6,28.6c7.9,0,15-3.2,20.2-8.4c5.2-5.2,8.4-12.3,8.4-20.2S68,27.8,62.9,22.7z M57.1,57.3
		c-3.7,3.7-8.8,6-14.4,6c-11.3,0-20.4-9.2-20.4-20.4c0-5.6,2.3-10.7,6-14.4c3.7-3.7,8.8-6,14.4-6c5.7,0,10.7,2.3,14.4,6
		c3.7,3.7,6,8.8,6,14.4S60.8,53.6,57.1,57.3z"/>
	<line class="st2" x1="61.9" y1="61.8" x2="85.9" y2="85.7"/>
</g>
</svg>
